<?xml version="1.0" encoding="UTF-8" standalone="no"?>
<!DOCTYPE svg PUBLIC "-//W3C//DTD SVG 1.1//EN"
 "http://www.w3.org/Graphics/SVG/1.1/DTD/svg11.dtd">
<!-- Generated by graphviz version 2.30.0 (20130114.0323)
 -->
<!-- Title: TriDevs.TriEngine.GameWindow2D Pages: 1 -->
<svg width="174pt" height="152pt"
 viewBox="0.00 0.00 174.00 152.00" xmlns="http://www.w3.org/2000/svg" xmlns:xlink="http://www.w3.org/1999/xlink">
<g id="graph0" class="graph" transform="scale(1 1) rotate(0) translate(4 148)">
<title>TriDevs.TriEngine.GameWindow2D</title>
<polygon fill="white" stroke="white" points="-4,5 -4,-148 171,-148 171,5 -4,5"/>
<!-- Node1 -->
<g id="node1" class="node"><title>Node1</title>
<polygon fill="#bfbfbf" stroke="black" points="-0.5,-68.5 -0.5,-87.5 166.5,-87.5 166.5,-68.5 -0.5,-68.5"/>
<text text-anchor="middle" x="83" y="-75.5" font-family="Helvetica,sans-Serif" font-size="10.00">TriDevs.TriEngine.GameWindow2D</text>
</g>
<!-- Node3 -->
<g id="node3" class="node"><title>Node3</title>
<g id="a_node3"><a xlink:href="class_tri_devs_1_1_tri_engine_1_1_engine_test_1_1_window2_d_test.html" target="_top" xlink:title="TriDevs.TriEngine.Engine\lTest.Window2DTest">
<polygon fill="white" stroke="black" points="20.5,-1 20.5,-31 145.5,-31 145.5,-1 20.5,-1"/>
<text text-anchor="start" x="28.5" y="-19" font-family="Helvetica,sans-Serif" font-size="10.00">TriDevs.TriEngine.Engine</text>
<text text-anchor="middle" x="83" y="-8" font-family="Helvetica,sans-Serif" font-size="10.00">Test.Window2DTest</text>
</a>
</g>
</g>
<!-- Node1&#45;&gt;Node3 -->
<g id="edge2" class="edge"><title>Node1&#45;&gt;Node3</title>
<path fill="none" stroke="midnightblue" d="M83,-58.3707C83,-49.5849 83,-39.2721 83,-31.1408"/>
<polygon fill="midnightblue" stroke="midnightblue" points="79.5001,-58.4034 83,-68.4035 86.5001,-58.4035 79.5001,-58.4034"/>
</g>
<!-- Node2 -->
<g id="node2" class="node"><title>Node2</title>
<polygon fill="white" stroke="#bfbfbf" points="44.5,-124.5 44.5,-143.5 121.5,-143.5 121.5,-124.5 44.5,-124.5"/>
<text text-anchor="middle" x="83" y="-131.5" font-family="Helvetica,sans-Serif" font-size="10.00">GameWindow</text>
</g>
<!-- Node2&#45;&gt;Node1 -->
<g id="edge1" class="edge"><title>Node2&#45;&gt;Node1</title>
<path fill="none" stroke="midnightblue" d="M83,-113.805C83,-104.91 83,-94.7798 83,-87.7511"/>
<polygon fill="midnightblue" stroke="midnightblue" points="79.5001,-114.083 83,-124.083 86.5001,-114.083 79.5001,-114.083"/>
</g>
</g>
</svg>
