<?xml version="1.0" encoding="UTF-8" standalone="no"?>
<!DOCTYPE svg PUBLIC "-//W3C//DTD SVG 1.1//EN"
 "http://www.w3.org/Graphics/SVG/1.1/DTD/svg11.dtd">
<!-- Generated by graphviz version 2.30.0 (20130114.0323)
 -->
<!-- Title: TriDevs.TriEngine.Graphics.Triangle Pages: 1 -->
<svg width="151pt" height="152pt"
 viewBox="0.00 0.00 151.00 152.00" xmlns="http://www.w3.org/2000/svg" xmlns:xlink="http://www.w3.org/1999/xlink">
<g id="graph0" class="graph" transform="scale(1 1) rotate(0) translate(4 148)">
<title>TriDevs.TriEngine.Graphics.Triangle</title>
<polygon fill="white" stroke="white" points="-4,5 -4,-148 148,-148 148,5 -4,5"/>
<!-- Node1 -->
<g id="node1" class="node"><title>Node1</title>
<polygon fill="#bfbfbf" stroke="black" points="0.5,-1 0.5,-31 137.5,-31 137.5,-1 0.5,-1"/>
<text text-anchor="start" x="8.5" y="-19" font-family="Helvetica,sans-Serif" font-size="10.00">TriDevs.TriEngine.Graphics.</text>
<text text-anchor="middle" x="69" y="-8" font-family="Helvetica,sans-Serif" font-size="10.00">Triangle</text>
</g>
<!-- Node2 -->
<g id="node2" class="node"><title>Node2</title>
<g id="a_node2"><a xlink:href="class_tri_devs_1_1_tri_engine_1_1_graphics_1_1_primitive.html" target="_top" xlink:title="Represents a primitive 2D shape composed of triangles. ">
<polygon fill="white" stroke="black" points="42.5,-68.5 42.5,-87.5 95.5,-87.5 95.5,-68.5 42.5,-68.5"/>
<text text-anchor="middle" x="69" y="-75.5" font-family="Helvetica,sans-Serif" font-size="10.00">Primitive</text>
</a>
</g>
</g>
<!-- Node2&#45;&gt;Node1 -->
<g id="edge1" class="edge"><title>Node2&#45;&gt;Node1</title>
<path fill="none" stroke="midnightblue" d="M69,-58.3707C69,-49.5849 69,-39.2721 69,-31.1408"/>
<polygon fill="midnightblue" stroke="midnightblue" points="65.5001,-58.4034 69,-68.4035 72.5001,-58.4035 65.5001,-58.4034"/>
</g>
<!-- Node3 -->
<g id="node3" class="node"><title>Node3</title>
<g id="a_node3"><a xlink:href="interface_tri_devs_1_1_tri_engine_1_1_interfaces_1_1_i_drawable.html" target="_top" xlink:title="Implements a simple draw method. ">
<polygon fill="white" stroke="black" points="-0.5,-124.5 -0.5,-143.5 58.5,-143.5 58.5,-124.5 -0.5,-124.5"/>
<text text-anchor="middle" x="29" y="-131.5" font-family="Helvetica,sans-Serif" font-size="10.00">IDrawable</text>
</a>
</g>
</g>
<!-- Node3&#45;&gt;Node2 -->
<g id="edge2" class="edge"><title>Node3&#45;&gt;Node2</title>
<path fill="none" stroke="midnightblue" d="M41.6997,-115.855C48.626,-106.505 56.9063,-95.3265 62.5177,-87.7511"/>
<polygon fill="midnightblue" stroke="midnightblue" points="38.745,-113.964 35.6052,-124.083 44.37,-118.131 38.745,-113.964"/>
</g>
<!-- Node4 -->
<g id="node4" class="node"><title>Node4</title>
<polygon fill="white" stroke="#bfbfbf" points="76.5,-124.5 76.5,-143.5 143.5,-143.5 143.5,-124.5 76.5,-124.5"/>
<text text-anchor="middle" x="110" y="-131.5" font-family="Helvetica,sans-Serif" font-size="10.00">IDisposable</text>
</g>
<!-- Node4&#45;&gt;Node2 -->
<g id="edge3" class="edge"><title>Node4&#45;&gt;Node2</title>
<path fill="none" stroke="midnightblue" d="M96.9828,-115.855C89.8833,-106.505 81.396,-95.3265 75.6443,-87.7511"/>
<polygon fill="midnightblue" stroke="midnightblue" points="94.395,-118.235 103.23,-124.083 99.9701,-114.002 94.395,-118.235"/>
</g>
</g>
</svg>
