<?xml version="1.0" encoding="UTF-8" standalone="no"?>
<!DOCTYPE svg PUBLIC "-//W3C//DTD SVG 1.1//EN"
 "http://www.w3.org/Graphics/SVG/1.1/DTD/svg11.dtd">
<!-- Generated by graphviz version 2.30.0 (20130114.0323)
 -->
<!-- Title: TriDevs.TriEngine.EngineException Pages: 1 -->
<svg width="152pt" height="164pt"
 viewBox="0.00 0.00 152.00 164.00" xmlns="http://www.w3.org/2000/svg" xmlns:xlink="http://www.w3.org/1999/xlink">
<g id="graph0" class="graph" transform="scale(1 1) rotate(0) translate(4 160)">
<title>TriDevs.TriEngine.EngineException</title>
<polygon fill="white" stroke="white" points="-4,5 -4,-160 149,-160 149,5 -4,5"/>
<!-- Node1 -->
<g id="node1" class="node"><title>Node1</title>
<polygon fill="#bfbfbf" stroke="black" points="9.5,-69 9.5,-99 134.5,-99 134.5,-69 9.5,-69"/>
<text text-anchor="start" x="17.5" y="-87" font-family="Helvetica,sans-Serif" font-size="10.00">TriDevs.TriEngine.Engine</text>
<text text-anchor="middle" x="72" y="-76" font-family="Helvetica,sans-Serif" font-size="10.00">Exception</text>
</g>
<!-- Node3 -->
<g id="node3" class="node"><title>Node3</title>
<g id="a_node3"><a xlink:href="class_tri_devs_1_1_tri_engine_1_1_resources_1_1_resource_exception.html" target="_top" xlink:title="Exception for resource&#45;related issues. Thrown when there is a problem in ResourceManager. ">
<polygon fill="white" stroke="black" points="0,-1 0,-31 144,-31 144,-1 0,-1"/>
<text text-anchor="start" x="8" y="-19" font-family="Helvetica,sans-Serif" font-size="10.00">TriDevs.TriEngine.Resources.</text>
<text text-anchor="middle" x="72" y="-8" font-family="Helvetica,sans-Serif" font-size="10.00">ResourceException</text>
</a>
</g>
</g>
<!-- Node1&#45;&gt;Node3 -->
<g id="edge2" class="edge"><title>Node1&#45;&gt;Node3</title>
<path fill="none" stroke="midnightblue" d="M72,-58.5322C72,-49.3606 72,-39.2449 72,-31.2931"/>
<polygon fill="midnightblue" stroke="midnightblue" points="68.5001,-58.6789 72,-68.679 75.5001,-58.679 68.5001,-58.6789"/>
</g>
<!-- Node2 -->
<g id="node2" class="node"><title>Node2</title>
<polygon fill="white" stroke="#bfbfbf" points="42,-136.5 42,-155.5 102,-155.5 102,-136.5 42,-136.5"/>
<text text-anchor="middle" x="72" y="-143.5" font-family="Helvetica,sans-Serif" font-size="10.00">Exception</text>
</g>
<!-- Node2&#45;&gt;Node1 -->
<g id="edge1" class="edge"><title>Node2&#45;&gt;Node1</title>
<path fill="none" stroke="midnightblue" d="M72,-126.371C72,-117.585 72,-107.272 72,-99.1408"/>
<polygon fill="midnightblue" stroke="midnightblue" points="68.5001,-126.403 72,-136.403 75.5001,-126.403 68.5001,-126.403"/>
</g>
</g>
</svg>
