<?xml version="1.0" encoding="UTF-8" standalone="no"?>
<!DOCTYPE svg PUBLIC "-//W3C//DTD SVG 1.1//EN"
 "http://www.w3.org/Graphics/SVG/1.1/DTD/svg11.dtd">
<!-- Generated by graphviz version 2.30.0 (20130114.0323)
 -->
<!-- Title: TriDevs.TriEngine.StateManagement.GameState Pages: 1 -->
<svg width="184pt" height="230pt"
 viewBox="0.00 0.00 184.00 230.00" xmlns="http://www.w3.org/2000/svg" xmlns:xlink="http://www.w3.org/1999/xlink">
<g id="graph0" class="graph" transform="scale(1 1) rotate(0) translate(4 226)">
<title>TriDevs.TriEngine.StateManagement.GameState</title>
<polygon fill="white" stroke="white" points="-4,5 -4,-226 181,-226 181,5 -4,5"/>
<!-- Node1 -->
<g id="node1" class="node"><title>Node1</title>
<polygon fill="#bfbfbf" stroke="black" points="-0.5,-79 -0.5,-109 176.5,-109 176.5,-79 -0.5,-79"/>
<text text-anchor="start" x="7.5" y="-97" font-family="Helvetica,sans-Serif" font-size="10.00">TriDevs.TriEngine.StateManagement.</text>
<text text-anchor="middle" x="88" y="-86" font-family="Helvetica,sans-Serif" font-size="10.00">GameState</text>
</g>
<!-- Node5 -->
<g id="node5" class="node"><title>Node5</title>
<polygon fill="white" stroke="#bfbfbf" points="1.5,-0.5 1.5,-41.5 174.5,-41.5 174.5,-0.5 1.5,-0.5"/>
<text text-anchor="start" x="9.5" y="-29.5" font-family="Helvetica,sans-Serif" font-size="10.00">TriDevs.TriEngine.Tests.</text>
<text text-anchor="start" x="9.5" y="-18.5" font-family="Helvetica,sans-Serif" font-size="10.00">StateManagementTests.GameState</text>
<text text-anchor="middle" x="88" y="-7.5" font-family="Helvetica,sans-Serif" font-size="10.00">Tests.TestState</text>
</g>
<!-- Node1&#45;&gt;Node5 -->
<g id="edge4" class="edge"><title>Node1&#45;&gt;Node5</title>
<path fill="none" stroke="midnightblue" d="M88,-68.8534C88,-59.9872 88,-50.065 88,-41.642"/>
<polygon fill="midnightblue" stroke="midnightblue" points="84.5001,-68.9727 88,-78.9727 91.5001,-68.9727 84.5001,-68.9727"/>
</g>
<!-- Node2 -->
<g id="node2" class="node"><title>Node2</title>
<g id="a_node2"><a xlink:href="interface_tri_devs_1_1_tri_engine_1_1_state_management_1_1_i_game_state.html" target="_top" xlink:title="A game state that can be used with the game state manager. Represent a specific state of the game...">
<polygon fill="white" stroke="black" points="54,-146.5 54,-165.5 122,-165.5 122,-146.5 54,-146.5"/>
<text text-anchor="middle" x="88" y="-153.5" font-family="Helvetica,sans-Serif" font-size="10.00">IGameState</text>
</a>
</g>
</g>
<!-- Node2&#45;&gt;Node1 -->
<g id="edge1" class="edge"><title>Node2&#45;&gt;Node1</title>
<path fill="none" stroke="midnightblue" d="M88,-136.371C88,-127.585 88,-117.272 88,-109.141"/>
<polygon fill="midnightblue" stroke="midnightblue" points="84.5001,-136.403 88,-146.403 91.5001,-136.403 84.5001,-136.403"/>
</g>
<!-- Node3 -->
<g id="node3" class="node"><title>Node3</title>
<g id="a_node3"><a xlink:href="interface_tri_devs_1_1_tri_engine_1_1_interfaces_1_1_i_drawable.html" target="_top" xlink:title="Implements a simple draw method. ">
<polygon fill="white" stroke="black" points="19.5,-202.5 19.5,-221.5 78.5,-221.5 78.5,-202.5 19.5,-202.5"/>
<text text-anchor="middle" x="49" y="-209.5" font-family="Helvetica,sans-Serif" font-size="10.00">IDrawable</text>
</a>
</g>
</g>
<!-- Node3&#45;&gt;Node2 -->
<g id="edge2" class="edge"><title>Node3&#45;&gt;Node2</title>
<path fill="none" stroke="midnightblue" d="M61.3822,-193.855C68.1354,-184.505 76.2086,-173.327 81.6798,-165.751"/>
<polygon fill="midnightblue" stroke="midnightblue" points="58.4576,-191.927 55.4401,-202.083 64.1324,-196.025 58.4576,-191.927"/>
</g>
<!-- Node4 -->
<g id="node4" class="node"><title>Node4</title>
<g id="a_node4"><a xlink:href="interface_tri_devs_1_1_tri_engine_1_1_interfaces_1_1_i_updatable.html" target="_top" xlink:title="Implements a simple update method. ">
<polygon fill="white" stroke="black" points="97,-202.5 97,-221.5 159,-221.5 159,-202.5 97,-202.5"/>
<text text-anchor="middle" x="128" y="-209.5" font-family="Helvetica,sans-Serif" font-size="10.00">IUpdatable</text>
</a>
</g>
</g>
<!-- Node4&#45;&gt;Node2 -->
<g id="edge3" class="edge"><title>Node4&#45;&gt;Node2</title>
<path fill="none" stroke="midnightblue" d="M115.3,-193.855C108.374,-184.505 100.094,-173.327 94.4823,-165.751"/>
<polygon fill="midnightblue" stroke="midnightblue" points="112.63,-196.131 121.395,-202.083 118.255,-191.964 112.63,-196.131"/>
</g>
</g>
</svg>
