<?xml version="1.0" encoding="UTF-8" standalone="no"?>
<!DOCTYPE svg PUBLIC "-//W3C//DTD SVG 1.1//EN"
 "http://www.w3.org/Graphics/SVG/1.1/DTD/svg11.dtd">
<!-- Generated by graphviz version 2.30.0 (20130114.0323)
 -->
<!-- Title: TriDevs.TriEngine.Graphics.Primitive Pages: 1 -->
<svg width="299pt" height="164pt"
 viewBox="0.00 0.00 299.00 164.00" xmlns="http://www.w3.org/2000/svg" xmlns:xlink="http://www.w3.org/1999/xlink">
<g id="graph0" class="graph" transform="scale(1 1) rotate(0) translate(4 160)">
<title>TriDevs.TriEngine.Graphics.Primitive</title>
<polygon fill="white" stroke="white" points="-4,5 -4,-160 296,-160 296,5 -4,5"/>
<!-- Node1 -->
<g id="node1" class="node"><title>Node1</title>
<polygon fill="#bfbfbf" stroke="black" points="76.5,-69 76.5,-99 213.5,-99 213.5,-69 76.5,-69"/>
<text text-anchor="start" x="84.5" y="-87" font-family="Helvetica,sans-Serif" font-size="10.00">TriDevs.TriEngine.Graphics.</text>
<text text-anchor="middle" x="145" y="-76" font-family="Helvetica,sans-Serif" font-size="10.00">Primitive</text>
</g>
<!-- Node4 -->
<g id="node4" class="node"><title>Node4</title>
<g id="a_node4"><a xlink:href="class_tri_devs_1_1_tri_engine_1_1_graphics_1_1_rectangle.html" target="_top" xlink:title="A primitive 2D Rectangle shape. ">
<polygon fill="white" stroke="black" points="-0.5,-1 -0.5,-31 136.5,-31 136.5,-1 -0.5,-1"/>
<text text-anchor="start" x="7.5" y="-19" font-family="Helvetica,sans-Serif" font-size="10.00">TriDevs.TriEngine.Graphics.</text>
<text text-anchor="middle" x="68" y="-8" font-family="Helvetica,sans-Serif" font-size="10.00">Rectangle</text>
</a>
</g>
</g>
<!-- Node1&#45;&gt;Node4 -->
<g id="edge3" class="edge"><title>Node1&#45;&gt;Node4</title>
<path fill="none" stroke="midnightblue" d="M120.522,-62.0184C108.734,-51.9145 94.9146,-40.0696 84.4107,-31.0663"/>
<polygon fill="midnightblue" stroke="midnightblue" points="118.422,-64.8284 128.292,-68.679 122.977,-59.5136 118.422,-64.8284"/>
</g>
<!-- Node5 -->
<g id="node5" class="node"><title>Node5</title>
<g id="a_node5"><a xlink:href="class_tri_devs_1_1_tri_engine_1_1_graphics_1_1_triangle.html" target="_top" xlink:title="A primitive 2D Triangle shape. ">
<polygon fill="white" stroke="black" points="154.5,-1 154.5,-31 291.5,-31 291.5,-1 154.5,-1"/>
<text text-anchor="start" x="162.5" y="-19" font-family="Helvetica,sans-Serif" font-size="10.00">TriDevs.TriEngine.Graphics.</text>
<text text-anchor="middle" x="223" y="-8" font-family="Helvetica,sans-Serif" font-size="10.00">Triangle</text>
</a>
</g>
</g>
<!-- Node1&#45;&gt;Node5 -->
<g id="edge4" class="edge"><title>Node1&#45;&gt;Node5</title>
<path fill="none" stroke="midnightblue" d="M169.796,-62.0184C181.737,-51.9145 195.736,-40.0696 206.376,-31.0663"/>
<polygon fill="midnightblue" stroke="midnightblue" points="167.298,-59.5477 161.925,-68.679 171.82,-64.8914 167.298,-59.5477"/>
</g>
<!-- Node2 -->
<g id="node2" class="node"><title>Node2</title>
<g id="a_node2"><a xlink:href="interface_tri_devs_1_1_tri_engine_1_1_interfaces_1_1_i_drawable.html" target="_top" xlink:title="Implements a simple draw method. ">
<polygon fill="white" stroke="black" points="75.5,-136.5 75.5,-155.5 134.5,-155.5 134.5,-136.5 75.5,-136.5"/>
<text text-anchor="middle" x="105" y="-143.5" font-family="Helvetica,sans-Serif" font-size="10.00">IDrawable</text>
</a>
</g>
</g>
<!-- Node2&#45;&gt;Node1 -->
<g id="edge1" class="edge"><title>Node2&#45;&gt;Node1</title>
<path fill="none" stroke="midnightblue" d="M116.453,-127.82C122.508,-118.738 129.851,-107.724 135.573,-99.1408"/>
<polygon fill="midnightblue" stroke="midnightblue" points="113.366,-126.141 110.731,-136.403 119.19,-130.024 113.366,-126.141"/>
</g>
<!-- Node3 -->
<g id="node3" class="node"><title>Node3</title>
<polygon fill="white" stroke="#bfbfbf" points="152.5,-136.5 152.5,-155.5 219.5,-155.5 219.5,-136.5 152.5,-136.5"/>
<text text-anchor="middle" x="186" y="-143.5" font-family="Helvetica,sans-Serif" font-size="10.00">IDisposable</text>
</g>
<!-- Node3&#45;&gt;Node1 -->
<g id="edge2" class="edge"><title>Node3&#45;&gt;Node1</title>
<path fill="none" stroke="midnightblue" d="M174.456,-128.106C168.213,-118.97 160.59,-107.814 154.663,-99.1408"/>
<polygon fill="midnightblue" stroke="midnightblue" points="171.594,-130.122 180.126,-136.403 177.374,-126.172 171.594,-130.122"/>
</g>
</g>
</svg>
