<?xml version="1.0" encoding="UTF-8" standalone="no"?>
<!DOCTYPE svg PUBLIC "-//W3C//DTD SVG 1.1//EN"
 "http://www.w3.org/Graphics/SVG/1.1/DTD/svg11.dtd">
<!-- Generated by graphviz version 2.30.0 (20130114.0323)
 -->
<!-- Title: TriDevs.TriEngine2D.UI.ControlManager Pages: 1 -->
<svg width="179pt" height="264pt"
 viewBox="0.00 0.00 179.00 264.00" xmlns="http://www.w3.org/2000/svg" xmlns:xlink="http://www.w3.org/1999/xlink">
<g id="graph0" class="graph" transform="scale(1 1) rotate(0) translate(4 260)">
<title>TriDevs.TriEngine2D.UI.ControlManager</title>
<polygon fill="white" stroke="white" points="-4,5 -4,-260 176,-260 176,5 -4,5"/>
<!-- Node1 -->
<g id="node1" class="node"><title>Node1</title>
<polygon fill="#bfbfbf" stroke="black" points="19.5,-1 19.5,-31 168.5,-31 168.5,-1 19.5,-1"/>
<text text-anchor="start" x="27.5" y="-19" font-family="Helvetica,sans-Serif" font-size="10.00">TriDevs.TriEngine2D.UI.Control</text>
<text text-anchor="middle" x="94" y="-8" font-family="Helvetica,sans-Serif" font-size="10.00">Manager</text>
</g>
<!-- Node2 -->
<g id="node2" class="node"><title>Node2</title>
<g id="a_node2"><a xlink:href="interface_tri_devs_1_1_tri_engine2_d_1_1_u_i_1_1_i_control_manager.html" target="_top" xlink:title="Manages various UI controls, automatically updating and drawing them to the screen. ">
<polygon fill="white" stroke="black" points="50.5,-68.5 50.5,-87.5 137.5,-87.5 137.5,-68.5 50.5,-68.5"/>
<text text-anchor="middle" x="94" y="-75.5" font-family="Helvetica,sans-Serif" font-size="10.00">IControlManager</text>
</a>
</g>
</g>
<!-- Node2&#45;&gt;Node1 -->
<g id="edge1" class="edge"><title>Node2&#45;&gt;Node1</title>
<path fill="none" stroke="midnightblue" d="M94,-58.3707C94,-49.5849 94,-39.2721 94,-31.1408"/>
<polygon fill="midnightblue" stroke="midnightblue" points="90.5001,-58.4034 94,-68.4035 97.5001,-58.4035 90.5001,-58.4034"/>
</g>
<!-- Node3 -->
<g id="node3" class="node"><title>Node3</title>
<g id="a_node3"><a xlink:href="interface_tri_devs_1_1_tri_engine2_d_1_1_interfaces_1_1_i_drawable_game_component.html" target="_top" xlink:title="A game component that can be added to GameState objects. Drawable game components also implement a dr...">
<polygon fill="white" stroke="black" points="27,-124.5 27,-143.5 161,-143.5 161,-124.5 27,-124.5"/>
<text text-anchor="middle" x="94" y="-131.5" font-family="Helvetica,sans-Serif" font-size="10.00">IDrawableGameComponent</text>
</a>
</g>
</g>
<!-- Node3&#45;&gt;Node2 -->
<g id="edge2" class="edge"><title>Node3&#45;&gt;Node2</title>
<path fill="none" stroke="midnightblue" d="M94,-113.805C94,-104.91 94,-94.7798 94,-87.7511"/>
<polygon fill="midnightblue" stroke="midnightblue" points="90.5001,-114.083 94,-124.083 97.5001,-114.083 90.5001,-114.083"/>
</g>
<!-- Node4 -->
<g id="node4" class="node"><title>Node4</title>
<g id="a_node4"><a xlink:href="interface_tri_devs_1_1_tri_engine2_d_1_1_interfaces_1_1_i_game_component.html" target="_top" xlink:title="A game component that can be added to IGameState objects. ">
<polygon fill="white" stroke="black" points="-0.5,-180.5 -0.5,-199.5 94.5,-199.5 94.5,-180.5 -0.5,-180.5"/>
<text text-anchor="middle" x="47" y="-187.5" font-family="Helvetica,sans-Serif" font-size="10.00">IGameComponent</text>
</a>
</g>
</g>
<!-- Node4&#45;&gt;Node3 -->
<g id="edge3" class="edge"><title>Node4&#45;&gt;Node3</title>
<path fill="none" stroke="midnightblue" d="M61.4208,-172.431C69.6581,-162.967 79.6539,-151.483 86.3833,-143.751"/>
<polygon fill="midnightblue" stroke="midnightblue" points="58.6863,-170.242 54.7611,-180.083 63.9664,-174.838 58.6863,-170.242"/>
</g>
<!-- Node5 -->
<g id="node5" class="node"><title>Node5</title>
<g id="a_node5"><a xlink:href="interface_tri_devs_1_1_tri_engine2_d_1_1_interfaces_1_1_i_updatable.html" target="_top" xlink:title="Implements a simple update method. ">
<polygon fill="white" stroke="black" points="16,-236.5 16,-255.5 78,-255.5 78,-236.5 16,-236.5"/>
<text text-anchor="middle" x="47" y="-243.5" font-family="Helvetica,sans-Serif" font-size="10.00">IUpdatable</text>
</a>
</g>
</g>
<!-- Node5&#45;&gt;Node4 -->
<g id="edge4" class="edge"><title>Node5&#45;&gt;Node4</title>
<path fill="none" stroke="midnightblue" d="M47,-225.805C47,-216.91 47,-206.78 47,-199.751"/>
<polygon fill="midnightblue" stroke="midnightblue" points="43.5001,-226.083 47,-236.083 50.5001,-226.083 43.5001,-226.083"/>
</g>
<!-- Node6 -->
<g id="node6" class="node"><title>Node6</title>
<g id="a_node6"><a xlink:href="interface_tri_devs_1_1_tri_engine2_d_1_1_interfaces_1_1_i_drawable.html" target="_top" xlink:title="Implements a simple draw method. ">
<polygon fill="white" stroke="black" points="112.5,-180.5 112.5,-199.5 171.5,-199.5 171.5,-180.5 112.5,-180.5"/>
<text text-anchor="middle" x="142" y="-187.5" font-family="Helvetica,sans-Serif" font-size="10.00">IDrawable</text>
</a>
</g>
</g>
<!-- Node6&#45;&gt;Node3 -->
<g id="edge5" class="edge"><title>Node6&#45;&gt;Node3</title>
<path fill="none" stroke="midnightblue" d="M127.272,-172.431C118.86,-162.967 108.651,-151.483 101.779,-143.751"/>
<polygon fill="midnightblue" stroke="midnightblue" points="124.814,-174.934 134.074,-180.083 130.046,-170.284 124.814,-174.934"/>
</g>
</g>
</svg>
