<?xml version="1.0" encoding="UTF-8" standalone="no"?>
<!DOCTYPE svg PUBLIC "-//W3C//DTD SVG 1.1//EN"
 "http://www.w3.org/Graphics/SVG/1.1/DTD/svg11.dtd">
<!-- Generated by graphviz version 2.30.0 (20130114.0323)
 -->
<!-- Title: TriDevs.TriEngine2D.Audio.Song Pages: 1 -->
<svg width="164pt" height="140pt"
 viewBox="0.00 0.00 164.00 140.00" xmlns="http://www.w3.org/2000/svg" xmlns:xlink="http://www.w3.org/1999/xlink">
<g id="graph0" class="graph" transform="scale(1 1) rotate(0) translate(4 136)">
<title>TriDevs.TriEngine2D.Audio.Song</title>
<polygon fill="white" stroke="white" points="-4,5 -4,-136 161,-136 161,5 -4,5"/>
<!-- Node1 -->
<g id="node1" class="node"><title>Node1</title>
<polygon fill="#bfbfbf" stroke="black" points="-0.5,-0.5 -0.5,-19.5 156.5,-19.5 156.5,-0.5 -0.5,-0.5"/>
<text text-anchor="middle" x="78" y="-7.5" font-family="Helvetica,sans-Serif" font-size="10.00">TriDevs.TriEngine2D.Audio.Song</text>
</g>
<!-- Node2 -->
<g id="node2" class="node"><title>Node2</title>
<g id="a_node2"><a xlink:href="interface_tri_devs_1_1_tri_engine2_d_1_1_audio_1_1_i_song.html" target="_top" xlink:title="A song that will be streamed in the audio player. ">
<polygon fill="white" stroke="black" points="57.5,-56.5 57.5,-75.5 98.5,-75.5 98.5,-56.5 57.5,-56.5"/>
<text text-anchor="middle" x="78" y="-63.5" font-family="Helvetica,sans-Serif" font-size="10.00">ISong</text>
</a>
</g>
</g>
<!-- Node2&#45;&gt;Node1 -->
<g id="edge1" class="edge"><title>Node2&#45;&gt;Node1</title>
<path fill="none" stroke="midnightblue" d="M78,-45.8045C78,-36.9102 78,-26.7798 78,-19.7511"/>
<polygon fill="midnightblue" stroke="midnightblue" points="74.5001,-46.083 78,-56.083 81.5001,-46.083 74.5001,-46.083"/>
</g>
<!-- Node3 -->
<g id="node3" class="node"><title>Node3</title>
<polygon fill="white" stroke="#bfbfbf" points="44.5,-112.5 44.5,-131.5 111.5,-131.5 111.5,-112.5 44.5,-112.5"/>
<text text-anchor="middle" x="78" y="-119.5" font-family="Helvetica,sans-Serif" font-size="10.00">IDisposable</text>
</g>
<!-- Node3&#45;&gt;Node2 -->
<g id="edge2" class="edge"><title>Node3&#45;&gt;Node2</title>
<path fill="none" stroke="midnightblue" d="M78,-101.805C78,-92.9102 78,-82.7798 78,-75.7511"/>
<polygon fill="midnightblue" stroke="midnightblue" points="74.5001,-102.083 78,-112.083 81.5001,-102.083 74.5001,-102.083"/>
</g>
</g>
</svg>
