<?xml version="1.0" encoding="UTF-8" standalone="no"?>
<!DOCTYPE svg PUBLIC "-//W3C//DTD SVG 1.1//EN"
 "http://www.w3.org/Graphics/SVG/1.1/DTD/svg11.dtd">
<!-- Generated by graphviz version 2.30.0 (20130114.0323)
 -->
<!-- Title: TriDevs.TriEngine2D.Graphics.Rectangle Pages: 1 -->
<svg width="156pt" height="96pt"
 viewBox="0.00 0.00 156.00 96.00" xmlns="http://www.w3.org/2000/svg" xmlns:xlink="http://www.w3.org/1999/xlink">
<g id="graph0" class="graph" transform="scale(1 1) rotate(0) translate(4 92)">
<title>TriDevs.TriEngine2D.Graphics.Rectangle</title>
<polygon fill="white" stroke="white" points="-4,5 -4,-92 153,-92 153,5 -4,5"/>
<!-- Node1 -->
<g id="node1" class="node"><title>Node1</title>
<polygon fill="#bfbfbf" stroke="black" points="-0.5,-1 -0.5,-31 148.5,-31 148.5,-1 -0.5,-1"/>
<text text-anchor="start" x="7.5" y="-19" font-family="Helvetica,sans-Serif" font-size="10.00">TriDevs.TriEngine2D.Graphics.</text>
<text text-anchor="middle" x="74" y="-8" font-family="Helvetica,sans-Serif" font-size="10.00">Rectangle</text>
</g>
<!-- Node2 -->
<g id="node2" class="node"><title>Node2</title>
<g id="a_node2"><a xlink:href="interface_tri_devs_1_1_tri_engine2_d_1_1_interfaces_1_1_i_drawable.html" target="_top" xlink:title="Implements a simple draw method. ">
<polygon fill="white" stroke="black" points="4.5,-68.5 4.5,-87.5 63.5,-87.5 63.5,-68.5 4.5,-68.5"/>
<text text-anchor="middle" x="34" y="-75.5" font-family="Helvetica,sans-Serif" font-size="10.00">IDrawable</text>
</a>
</g>
</g>
<!-- Node2&#45;&gt;Node1 -->
<g id="edge1" class="edge"><title>Node2&#45;&gt;Node1</title>
<path fill="none" stroke="midnightblue" d="M45.4532,-59.8202C51.5083,-50.7375 58.8508,-39.7238 64.5728,-31.1408"/>
<polygon fill="midnightblue" stroke="midnightblue" points="42.3659,-58.1415 39.731,-68.4035 48.1903,-62.0244 42.3659,-58.1415"/>
</g>
<!-- Node3 -->
<g id="node3" class="node"><title>Node3</title>
<polygon fill="white" stroke="#bfbfbf" points="81.5,-68.5 81.5,-87.5 148.5,-87.5 148.5,-68.5 81.5,-68.5"/>
<text text-anchor="middle" x="115" y="-75.5" font-family="Helvetica,sans-Serif" font-size="10.00">IDisposable</text>
</g>
<!-- Node3&#45;&gt;Node1 -->
<g id="edge2" class="edge"><title>Node3&#45;&gt;Node1</title>
<path fill="none" stroke="midnightblue" d="M103.456,-60.1064C97.2126,-50.9697 89.5897,-39.8142 83.6629,-31.1408"/>
<polygon fill="midnightblue" stroke="midnightblue" points="100.594,-62.1217 109.126,-68.4035 106.374,-58.1723 100.594,-62.1217"/>
</g>
</g>
</svg>
