<?xml version="1.0" encoding="UTF-8" standalone="no"?>
<!DOCTYPE svg PUBLIC "-//W3C//DTD SVG 1.1//EN"
 "http://www.w3.org/Graphics/SVG/1.1/DTD/svg11.dtd">
<!-- Generated by graphviz version 2.30.0 (20130114.0323)
 -->
<!-- Title: TriDevs.TriEngine.UI.Control.OnClicked Pages: 1 -->
<svg width="310pt" height="38pt"
 viewBox="0.00 0.00 310.00 38.00" xmlns="http://www.w3.org/2000/svg" xmlns:xlink="http://www.w3.org/1999/xlink">
<g id="graph0" class="graph" transform="scale(1 1) rotate(0) translate(4 34)">
<title>TriDevs.TriEngine.UI.Control.OnClicked</title>
<polygon fill="white" stroke="white" points="-4,5 -4,-34 307,-34 307,5 -4,5"/>
<!-- Node1 -->
<g id="node1" class="node"><title>Node1</title>
<polygon fill="#bfbfbf" stroke="black" points="0,-0 0,-30 140,-30 140,-0 0,-0"/>
<text text-anchor="start" x="8" y="-18" font-family="Helvetica,sans-Serif" font-size="10.00">TriDevs.TriEngine.UI.Control.</text>
<text text-anchor="middle" x="70" y="-7" font-family="Helvetica,sans-Serif" font-size="10.00">OnClicked</text>
</g>
<!-- Node2 -->
<g id="node2" class="node"><title>Node2</title>
<g id="a_node2"><a xlink:href="class_tri_devs_1_1_tri_engine_1_1_u_i_1_1_link_label.html#a66262501ea5c2901ea8d487fe790ab7c" target="_top" xlink:title="TriDevs.TriEngine.UI.Link\lLabel.OnClicked">
<polygon fill="white" stroke="black" points="176.5,-0 176.5,-30 301.5,-30 301.5,-0 176.5,-0"/>
<text text-anchor="start" x="184.5" y="-18" font-family="Helvetica,sans-Serif" font-size="10.00">TriDevs.TriEngine.UI.Link</text>
<text text-anchor="middle" x="239" y="-7" font-family="Helvetica,sans-Serif" font-size="10.00">Label.OnClicked</text>
</a>
</g>
</g>
<!-- Node1&#45;&gt;Node2 -->
<g id="edge1" class="edge"><title>Node1&#45;&gt;Node2</title>
<path fill="none" stroke="midnightblue" d="M150.5,-15C159.169,-15 167.896,-15 176.306,-15"/>
<polygon fill="midnightblue" stroke="midnightblue" points="150.372,-11.5001 140.372,-15 150.372,-18.5001 150.372,-11.5001"/>
</g>
</g>
</svg>
