<?xml version="1.0" encoding="UTF-8" standalone="no"?>
<!DOCTYPE svg PUBLIC "-//W3C//DTD SVG 1.1//EN"
 "http://www.w3.org/Graphics/SVG/1.1/DTD/svg11.dtd">
<!-- Generated by graphviz version 2.30.0 (20130114.0323)
 -->
<!-- Title: TriDevs.TriEngine2D.Graphics.Rectangle Pages: 1 -->
<svg width="156pt" height="152pt"
 viewBox="0.00 0.00 156.00 152.00" xmlns="http://www.w3.org/2000/svg" xmlns:xlink="http://www.w3.org/1999/xlink">
<g id="graph0" class="graph" transform="scale(1 1) rotate(0) translate(4 148)">
<title>TriDevs.TriEngine2D.Graphics.Rectangle</title>
<polygon fill="white" stroke="white" points="-4,5 -4,-148 153,-148 153,5 -4,5"/>
<!-- Node1 -->
<g id="node1" class="node"><title>Node1</title>
<polygon fill="#bfbfbf" stroke="black" points="-0.5,-1 -0.5,-31 148.5,-31 148.5,-1 -0.5,-1"/>
<text text-anchor="start" x="7.5" y="-19" font-family="Helvetica,sans-Serif" font-size="10.00">TriDevs.TriEngine2D.Graphics.</text>
<text text-anchor="middle" x="74" y="-8" font-family="Helvetica,sans-Serif" font-size="10.00">Rectangle</text>
</g>
<!-- Node2 -->
<g id="node2" class="node"><title>Node2</title>
<g id="a_node2"><a xlink:href="class_tri_devs_1_1_tri_engine2_d_1_1_graphics_1_1_primitive.html" target="_top" xlink:title="Represents a primitive 2D shape composed of triangles. ">
<polygon fill="white" stroke="black" points="47.5,-68.5 47.5,-87.5 100.5,-87.5 100.5,-68.5 47.5,-68.5"/>
<text text-anchor="middle" x="74" y="-75.5" font-family="Helvetica,sans-Serif" font-size="10.00">Primitive</text>
</a>
</g>
</g>
<!-- Node2&#45;&gt;Node1 -->
<g id="edge1" class="edge"><title>Node2&#45;&gt;Node1</title>
<path fill="none" stroke="midnightblue" d="M74,-58.3707C74,-49.5849 74,-39.2721 74,-31.1408"/>
<polygon fill="midnightblue" stroke="midnightblue" points="70.5001,-58.4034 74,-68.4035 77.5001,-58.4035 70.5001,-58.4034"/>
</g>
<!-- Node3 -->
<g id="node3" class="node"><title>Node3</title>
<g id="a_node3"><a xlink:href="interface_tri_devs_1_1_tri_engine2_d_1_1_interfaces_1_1_i_drawable.html" target="_top" xlink:title="Implements a simple draw method. ">
<polygon fill="white" stroke="black" points="4.5,-124.5 4.5,-143.5 63.5,-143.5 63.5,-124.5 4.5,-124.5"/>
<text text-anchor="middle" x="34" y="-131.5" font-family="Helvetica,sans-Serif" font-size="10.00">IDrawable</text>
</a>
</g>
</g>
<!-- Node3&#45;&gt;Node2 -->
<g id="edge2" class="edge"><title>Node3&#45;&gt;Node2</title>
<path fill="none" stroke="midnightblue" d="M46.6997,-115.855C53.626,-106.505 61.9063,-95.3265 67.5177,-87.7511"/>
<polygon fill="midnightblue" stroke="midnightblue" points="43.745,-113.964 40.6052,-124.083 49.37,-118.131 43.745,-113.964"/>
</g>
<!-- Node4 -->
<g id="node4" class="node"><title>Node4</title>
<polygon fill="white" stroke="#bfbfbf" points="81.5,-124.5 81.5,-143.5 148.5,-143.5 148.5,-124.5 81.5,-124.5"/>
<text text-anchor="middle" x="115" y="-131.5" font-family="Helvetica,sans-Serif" font-size="10.00">IDisposable</text>
</g>
<!-- Node4&#45;&gt;Node2 -->
<g id="edge3" class="edge"><title>Node4&#45;&gt;Node2</title>
<path fill="none" stroke="midnightblue" d="M101.983,-115.855C94.8833,-106.505 86.396,-95.3265 80.6443,-87.7511"/>
<polygon fill="midnightblue" stroke="midnightblue" points="99.395,-118.235 108.23,-124.083 104.97,-114.002 99.395,-118.235"/>
</g>
</g>
</svg>
