<?xml version="1.0" encoding="UTF-8" standalone="no"?>
<!DOCTYPE svg PUBLIC "-//W3C//DTD SVG 1.1//EN"
 "http://www.w3.org/Graphics/SVG/1.1/DTD/svg11.dtd">
<!-- Generated by graphviz version 2.30.0 (20130114.0323)
 -->
<!-- Title: TriDevs.TriEngine.Native.WinAPI.GetStdHandle Pages: 1 -->
<svg width="302pt" height="38pt"
 viewBox="0.00 0.00 302.00 38.00" xmlns="http://www.w3.org/2000/svg" xmlns:xlink="http://www.w3.org/1999/xlink">
<g id="graph0" class="graph" transform="scale(1 1) rotate(0) translate(4 34)">
<title>TriDevs.TriEngine.Native.WinAPI.GetStdHandle</title>
<polygon fill="white" stroke="white" points="-4,5 -4,-34 299,-34 299,5 -4,5"/>
<!-- Node1 -->
<g id="node1" class="node"><title>Node1</title>
<polygon fill="#bfbfbf" stroke="black" points="0,-0 0,-30 124,-30 124,-0 0,-0"/>
<text text-anchor="start" x="8" y="-18" font-family="Helvetica,sans-Serif" font-size="10.00">TriDevs.TriEngine.Native.</text>
<text text-anchor="middle" x="62" y="-7" font-family="Helvetica,sans-Serif" font-size="10.00">WinAPI.GetStdHandle</text>
</g>
<!-- Node2 -->
<g id="node2" class="node"><title>Node2</title>
<g id="a_node2"><a xlink:href="class_tri_devs_1_1_tri_engine_1_1_logging_1_1_log_manager.html#abbc077826cba4e1ab1ca47c53ab74fc0" target="_top" xlink:title="Set up a new console for this process. Will not set up a console if a debugger is attached...">
<polygon fill="white" stroke="black" points="160,-0 160,-30 294,-30 294,-0 160,-0"/>
<text text-anchor="start" x="168" y="-18" font-family="Helvetica,sans-Serif" font-size="10.00">TriDevs.TriEngine.Logging.</text>
<text text-anchor="middle" x="227" y="-7" font-family="Helvetica,sans-Serif" font-size="10.00">LogManager.SetupConsole</text>
</a>
</g>
</g>
<!-- Node1&#45;&gt;Node2 -->
<g id="edge1" class="edge"><title>Node1&#45;&gt;Node2</title>
<path fill="none" stroke="midnightblue" d="M134.388,-15C142.855,-15 151.469,-15 159.859,-15"/>
<polygon fill="midnightblue" stroke="midnightblue" points="134.159,-11.5001 124.159,-15 134.159,-18.5001 134.159,-11.5001"/>
</g>
</g>
</svg>
