<?xml version="1.0" encoding="UTF-8" standalone="no"?>
<!DOCTYPE svg PUBLIC "-//W3C//DTD SVG 1.1//EN"
 "http://www.w3.org/Graphics/SVG/1.1/DTD/svg11.dtd">
<!-- Generated by graphviz version 2.30.0 (20130114.0323)
 -->
<!-- Title: TriDevs.TriEngine2D.StateManagement.GameStateManager.Push Pages: 1 -->
<svg width="390pt" height="87pt"
 viewBox="0.00 0.00 390.00 87.00" xmlns="http://www.w3.org/2000/svg" xmlns:xlink="http://www.w3.org/1999/xlink">
<g id="graph0" class="graph" transform="scale(1 1) rotate(0) translate(4 83)">
<title>TriDevs.TriEngine2D.StateManagement.GameStateManager.Push</title>
<polygon fill="white" stroke="white" points="-4,5 -4,-83 387,-83 387,5 -4,5"/>
<!-- Node1 -->
<g id="node1" class="node"><title>Node1</title>
<polygon fill="#bfbfbf" stroke="black" points="0,-24 0,-54 188,-54 188,-24 0,-24"/>
<text text-anchor="start" x="8" y="-42" font-family="Helvetica,sans-Serif" font-size="10.00">TriDevs.TriEngine2D.State</text>
<text text-anchor="middle" x="94" y="-31" font-family="Helvetica,sans-Serif" font-size="10.00">Management.GameStateManager.Push</text>
</g>
<!-- Node2 -->
<g id="node2" class="node"><title>Node2</title>
<g id="a_node2"><a xlink:href="interface_tri_devs_1_1_tri_engine2_d_1_1_state_management_1_1_i_game_state.html#a09d23db483ddc6a6624c1410e2d67d60" target="_top" xlink:title="Pauses the game state, preventing update calls from running. ">
<polygon fill="white" stroke="black" points="224,-49 224,-79 382,-79 382,-49 224,-49"/>
<text text-anchor="start" x="232" y="-67" font-family="Helvetica,sans-Serif" font-size="10.00">TriDevs.TriEngine2D.State</text>
<text text-anchor="middle" x="303" y="-56" font-family="Helvetica,sans-Serif" font-size="10.00">Management.IGameState.Pause</text>
</a>
</g>
</g>
<!-- Node1&#45;&gt;Node2 -->
<g id="edge1" class="edge"><title>Node1&#45;&gt;Node2</title>
<path fill="none" stroke="midnightblue" d="M188.206,-50.2567C196.674,-51.2795 205.235,-52.3134 213.659,-53.3308"/>
<polygon fill="midnightblue" stroke="midnightblue" points="213.504,-56.8374 223.852,-54.5618 214.343,-49.8879 213.504,-56.8374"/>
</g>
<!-- Node3 -->
<g id="node3" class="node"><title>Node3</title>
<g id="a_node3"><a xlink:href="interface_tri_devs_1_1_tri_engine2_d_1_1_state_management_1_1_i_game_state.html#aace826890dbeec95fd94b87aaafab44c" target="_top" xlink:title="Loads resources associated with this game component. ">
<polygon fill="white" stroke="black" points="227,-0 227,-30 379,-30 379,-0 227,-0"/>
<text text-anchor="start" x="235" y="-18" font-family="Helvetica,sans-Serif" font-size="10.00">TriDevs.TriEngine2D.State</text>
<text text-anchor="middle" x="303" y="-7" font-family="Helvetica,sans-Serif" font-size="10.00">Management.IGameState.Load</text>
</a>
</g>
</g>
<!-- Node1&#45;&gt;Node3 -->
<g id="edge2" class="edge"><title>Node1&#45;&gt;Node3</title>
<path fill="none" stroke="midnightblue" d="M188.206,-28.1936C197.741,-27.088 207.394,-25.9688 216.837,-24.8739"/>
<polygon fill="midnightblue" stroke="midnightblue" points="217.456,-28.3258 226.986,-23.6973 216.649,-21.3724 217.456,-28.3258"/>
</g>
</g>
</svg>
