<?xml version="1.0" encoding="UTF-8" standalone="no"?>
<!DOCTYPE svg PUBLIC "-//W3C//DTD SVG 1.1//EN"
 "http://www.w3.org/Graphics/SVG/1.1/DTD/svg11.dtd">
<!-- Generated by graphviz version 2.30.0 (20130114.0323)
 -->
<!-- Title: TriDevs.TriEngine.StateManagement.GameState Pages: 1 -->
<svg width="184pt" height="152pt"
 viewBox="0.00 0.00 184.00 152.00" xmlns="http://www.w3.org/2000/svg" xmlns:xlink="http://www.w3.org/1999/xlink">
<g id="graph0" class="graph" transform="scale(1 1) rotate(0) translate(4 148)">
<title>TriDevs.TriEngine.StateManagement.GameState</title>
<polygon fill="white" stroke="white" points="-4,5 -4,-148 181,-148 181,5 -4,5"/>
<!-- Node1 -->
<g id="node1" class="node"><title>Node1</title>
<polygon fill="#bfbfbf" stroke="black" points="-0.5,-1 -0.5,-31 176.5,-31 176.5,-1 -0.5,-1"/>
<text text-anchor="start" x="7.5" y="-19" font-family="Helvetica,sans-Serif" font-size="10.00">TriDevs.TriEngine.StateManagement.</text>
<text text-anchor="middle" x="88" y="-8" font-family="Helvetica,sans-Serif" font-size="10.00">GameState</text>
</g>
<!-- Node2 -->
<g id="node2" class="node"><title>Node2</title>
<g id="a_node2"><a xlink:href="interface_tri_devs_1_1_tri_engine_1_1_state_management_1_1_i_game_state.html" target="_top" xlink:title="A game state that can be used with the game state manager. Represent a specific state of the game...">
<polygon fill="white" stroke="black" points="54,-68.5 54,-87.5 122,-87.5 122,-68.5 54,-68.5"/>
<text text-anchor="middle" x="88" y="-75.5" font-family="Helvetica,sans-Serif" font-size="10.00">IGameState</text>
</a>
</g>
</g>
<!-- Node2&#45;&gt;Node1 -->
<g id="edge1" class="edge"><title>Node2&#45;&gt;Node1</title>
<path fill="none" stroke="midnightblue" d="M88,-58.3707C88,-49.5849 88,-39.2721 88,-31.1408"/>
<polygon fill="midnightblue" stroke="midnightblue" points="84.5001,-58.4034 88,-68.4035 91.5001,-58.4035 84.5001,-58.4034"/>
</g>
<!-- Node3 -->
<g id="node3" class="node"><title>Node3</title>
<g id="a_node3"><a xlink:href="interface_tri_devs_1_1_tri_engine_1_1_interfaces_1_1_i_drawable.html" target="_top" xlink:title="Implements a simple draw method. ">
<polygon fill="white" stroke="black" points="19.5,-124.5 19.5,-143.5 78.5,-143.5 78.5,-124.5 19.5,-124.5"/>
<text text-anchor="middle" x="49" y="-131.5" font-family="Helvetica,sans-Serif" font-size="10.00">IDrawable</text>
</a>
</g>
</g>
<!-- Node3&#45;&gt;Node2 -->
<g id="edge2" class="edge"><title>Node3&#45;&gt;Node2</title>
<path fill="none" stroke="midnightblue" d="M61.3822,-115.855C68.1354,-106.505 76.2086,-95.3265 81.6798,-87.7511"/>
<polygon fill="midnightblue" stroke="midnightblue" points="58.4576,-113.927 55.4401,-124.083 64.1324,-118.025 58.4576,-113.927"/>
</g>
<!-- Node4 -->
<g id="node4" class="node"><title>Node4</title>
<g id="a_node4"><a xlink:href="interface_tri_devs_1_1_tri_engine_1_1_interfaces_1_1_i_updatable.html" target="_top" xlink:title="Implements a simple update method. ">
<polygon fill="white" stroke="black" points="97,-124.5 97,-143.5 159,-143.5 159,-124.5 97,-124.5"/>
<text text-anchor="middle" x="128" y="-131.5" font-family="Helvetica,sans-Serif" font-size="10.00">IUpdatable</text>
</a>
</g>
</g>
<!-- Node4&#45;&gt;Node2 -->
<g id="edge3" class="edge"><title>Node4&#45;&gt;Node2</title>
<path fill="none" stroke="midnightblue" d="M115.3,-115.855C108.374,-106.505 100.094,-95.3265 94.4823,-87.7511"/>
<polygon fill="midnightblue" stroke="midnightblue" points="112.63,-118.131 121.395,-124.083 118.255,-113.964 112.63,-118.131"/>
</g>
</g>
</svg>
