<?xml version="1.0" encoding="UTF-8" standalone="no"?>
<!DOCTYPE svg PUBLIC "-//W3C//DTD SVG 1.1//EN"
 "http://www.w3.org/Graphics/SVG/1.1/DTD/svg11.dtd">
<!-- Generated by graphviz version 2.30.0 (20130114.0323)
 -->
<!-- Title: TriDevs.TriEngine.UI.ControlManager.AddControl Pages: 1 -->
<svg width="350pt" height="77pt"
 viewBox="0.00 0.00 350.00 77.00" xmlns="http://www.w3.org/2000/svg" xmlns:xlink="http://www.w3.org/1999/xlink">
<g id="graph0" class="graph" transform="scale(1 1) rotate(0) translate(4 73)">
<title>TriDevs.TriEngine.UI.ControlManager.AddControl</title>
<polygon fill="white" stroke="white" points="-4,5 -4,-73 347,-73 347,5 -4,5"/>
<!-- Node1 -->
<g id="node1" class="node"><title>Node1</title>
<polygon fill="#bfbfbf" stroke="black" points="0.5,-17 0.5,-47 137.5,-47 137.5,-17 0.5,-17"/>
<text text-anchor="start" x="8.5" y="-35" font-family="Helvetica,sans-Serif" font-size="10.00">TriDevs.TriEngine.UI.Control</text>
<text text-anchor="middle" x="69" y="-24" font-family="Helvetica,sans-Serif" font-size="10.00">Manager.AddControl</text>
</g>
<!-- Node2 -->
<g id="node2" class="node"><title>Node2</title>
<g id="a_node2"><a xlink:href="interface_tri_devs_1_1_tri_engine_1_1_u_i_1_1_i_control.html#a1d3966a21348944a6b34bc593e014ce8" target="_top" xlink:title="Enables the control. ">
<polygon fill="white" stroke="black" points="186.5,-39 186.5,-69 329.5,-69 329.5,-39 186.5,-39"/>
<text text-anchor="start" x="194.5" y="-57" font-family="Helvetica,sans-Serif" font-size="10.00">TriDevs.TriEngine.UI.IControl.</text>
<text text-anchor="middle" x="258" y="-46" font-family="Helvetica,sans-Serif" font-size="10.00">Enable</text>
</a>
</g>
</g>
<!-- Node1&#45;&gt;Node2 -->
<g id="edge1" class="edge"><title>Node1&#45;&gt;Node2</title>
<path fill="none" stroke="midnightblue" d="M137.511,-39.9425C150.059,-41.4187 163.285,-42.9747 176.182,-44.492"/>
<polygon fill="midnightblue" stroke="midnightblue" points="176.096,-48.0059 186.437,-45.6984 176.914,-41.0539 176.096,-48.0059"/>
</g>
<!-- Node3 -->
<g id="node3" class="node"><title>Node3</title>
<g id="a_node3"><a xlink:href="interface_tri_devs_1_1_tri_engine_1_1_u_i_1_1_i_control.html#aa83e5f630e9ff4bc771984254b366fff" target="_top" xlink:title="Shows the control. ">
<polygon fill="white" stroke="black" points="174.5,-0.5 174.5,-19.5 341.5,-19.5 341.5,-0.5 174.5,-0.5"/>
<text text-anchor="middle" x="258" y="-7.5" font-family="Helvetica,sans-Serif" font-size="10.00">TriDevs.TriEngine.UI.IControl.Show</text>
</a>
</g>
</g>
<!-- Node1&#45;&gt;Node3 -->
<g id="edge2" class="edge"><title>Node1&#45;&gt;Node3</title>
<path fill="none" stroke="midnightblue" d="M137.511,-24.0575C146.829,-22.9613 156.52,-21.8212 166.174,-20.6855"/>
<polygon fill="midnightblue" stroke="midnightblue" points="166.68,-24.1501 176.203,-19.5056 165.862,-17.1981 166.68,-24.1501"/>
</g>
</g>
</svg>
