<?xml version="1.0" encoding="UTF-8" standalone="no"?>
<!DOCTYPE svg PUBLIC "-//W3C//DTD SVG 1.1//EN"
 "http://www.w3.org/Graphics/SVG/1.1/DTD/svg11.dtd">
<!-- Generated by graphviz version 2.30.0 (20130114.0323)
 -->
<!-- Title: TriDevs.TriEngine2D.UI.Control Pages: 1 -->
<svg width="156pt" height="140pt"
 viewBox="0.00 0.00 156.00 140.00" xmlns="http://www.w3.org/2000/svg" xmlns:xlink="http://www.w3.org/1999/xlink">
<g id="graph0" class="graph" transform="scale(1 1) rotate(0) translate(4 136)">
<title>TriDevs.TriEngine2D.UI.Control</title>
<polygon fill="white" stroke="white" points="-4,5 -4,-136 153,-136 153,5 -4,5"/>
<!-- Node1 -->
<g id="node1" class="node"><title>Node1</title>
<polygon fill="#bfbfbf" stroke="black" points="-0.5,-0.5 -0.5,-19.5 148.5,-19.5 148.5,-0.5 -0.5,-0.5"/>
<text text-anchor="middle" x="74" y="-7.5" font-family="Helvetica,sans-Serif" font-size="10.00">TriDevs.TriEngine2D.UI.Control</text>
</g>
<!-- Node2 -->
<g id="node2" class="node"><title>Node2</title>
<g id="a_node2"><a xlink:href="interface_tri_devs_1_1_tri_engine2_d_1_1_u_i_1_1_i_control.html" target="_top" xlink:title="A UI control that can be drawn on screen and interacted with. ">
<polygon fill="white" stroke="black" points="49,-56.5 49,-75.5 99,-75.5 99,-56.5 49,-56.5"/>
<text text-anchor="middle" x="74" y="-63.5" font-family="Helvetica,sans-Serif" font-size="10.00">IControl</text>
</a>
</g>
</g>
<!-- Node2&#45;&gt;Node1 -->
<g id="edge1" class="edge"><title>Node2&#45;&gt;Node1</title>
<path fill="none" stroke="midnightblue" d="M74,-45.8045C74,-36.9102 74,-26.7798 74,-19.7511"/>
<polygon fill="midnightblue" stroke="midnightblue" points="70.5001,-46.083 74,-56.083 77.5001,-46.083 70.5001,-46.083"/>
</g>
<!-- Node3 -->
<g id="node3" class="node"><title>Node3</title>
<g id="a_node3"><a xlink:href="interface_tri_devs_1_1_tri_engine2_d_1_1_interfaces_1_1_i_updatable.html" target="_top" xlink:title="Implements a simple update method. ">
<polygon fill="white" stroke="black" points="4,-112.5 4,-131.5 66,-131.5 66,-112.5 4,-112.5"/>
<text text-anchor="middle" x="35" y="-119.5" font-family="Helvetica,sans-Serif" font-size="10.00">IUpdatable</text>
</a>
</g>
</g>
<!-- Node3&#45;&gt;Node2 -->
<g id="edge2" class="edge"><title>Node3&#45;&gt;Node2</title>
<path fill="none" stroke="midnightblue" d="M47.3822,-103.855C54.1354,-94.5048 62.2086,-83.3265 67.6798,-75.7511"/>
<polygon fill="midnightblue" stroke="midnightblue" points="44.4576,-101.927 41.4401,-112.083 50.1324,-106.025 44.4576,-101.927"/>
</g>
<!-- Node4 -->
<g id="node4" class="node"><title>Node4</title>
<g id="a_node4"><a xlink:href="interface_tri_devs_1_1_tri_engine2_d_1_1_interfaces_1_1_i_drawable.html" target="_top" xlink:title="Implements a simple draw method. ">
<polygon fill="white" stroke="black" points="84.5,-112.5 84.5,-131.5 143.5,-131.5 143.5,-112.5 84.5,-112.5"/>
<text text-anchor="middle" x="114" y="-119.5" font-family="Helvetica,sans-Serif" font-size="10.00">IDrawable</text>
</a>
</g>
</g>
<!-- Node4&#45;&gt;Node2 -->
<g id="edge3" class="edge"><title>Node4&#45;&gt;Node2</title>
<path fill="none" stroke="midnightblue" d="M101.3,-103.855C94.374,-94.5048 86.0937,-83.3265 80.4823,-75.7511"/>
<polygon fill="midnightblue" stroke="midnightblue" points="98.63,-106.131 107.395,-112.083 104.255,-101.964 98.63,-106.131"/>
</g>
</g>
</svg>
