<?xml version="1.0" encoding="UTF-8" standalone="no"?>
<!DOCTYPE svg PUBLIC "-//W3C//DTD SVG 1.1//EN"
 "http://www.w3.org/Graphics/SVG/1.1/DTD/svg11.dtd">
<!-- Generated by graphviz version 2.30.0 (20130114.0323)
 -->
<!-- Title: TriDevs.TriEngine2D.Logging.LogManager.SetupConsole Pages: 1 -->
<svg width="324pt" height="87pt"
 viewBox="0.00 0.00 324.00 87.00" xmlns="http://www.w3.org/2000/svg" xmlns:xlink="http://www.w3.org/1999/xlink">
<g id="graph0" class="graph" transform="scale(1 1) rotate(0) translate(4 83)">
<title>TriDevs.TriEngine2D.Logging.LogManager.SetupConsole</title>
<polygon fill="white" stroke="white" points="-4,5 -4,-83 321,-83 321,5 -4,5"/>
<!-- Node1 -->
<g id="node1" class="node"><title>Node1</title>
<polygon fill="#bfbfbf" stroke="black" points="0.5,-24 0.5,-54 143.5,-54 143.5,-24 0.5,-24"/>
<text text-anchor="start" x="8.5" y="-42" font-family="Helvetica,sans-Serif" font-size="10.00">TriDevs.TriEngine2D.Logging.</text>
<text text-anchor="middle" x="72" y="-31" font-family="Helvetica,sans-Serif" font-size="10.00">LogManager.SetupConsole</text>
</g>
<!-- Node2 -->
<g id="node2" class="node"><title>Node2</title>
<g id="a_node2"><a xlink:href="class_tri_devs_1_1_tri_engine2_d_1_1_native_1_1_win_a_p_i.html#a00f0889a729e989fbefd8267a20a1c06" target="_top" xlink:title="Allocates a new console for the calling process. ">
<polygon fill="white" stroke="black" points="180,-49 180,-79 316,-79 316,-49 180,-49"/>
<text text-anchor="start" x="188" y="-67" font-family="Helvetica,sans-Serif" font-size="10.00">TriDevs.TriEngine2D.Native.</text>
<text text-anchor="middle" x="248" y="-56" font-family="Helvetica,sans-Serif" font-size="10.00">WinAPI.AllocConsole</text>
</a>
</g>
</g>
<!-- Node1&#45;&gt;Node2 -->
<g id="edge1" class="edge"><title>Node1&#45;&gt;Node2</title>
<path fill="none" stroke="midnightblue" d="M143.522,-49.1324C152.121,-50.3679 160.943,-51.6354 169.635,-52.8843"/>
<polygon fill="midnightblue" stroke="midnightblue" points="169.362,-56.3809 179.758,-54.3387 170.357,-49.4521 169.362,-56.3809"/>
</g>
<!-- Node3 -->
<g id="node3" class="node"><title>Node3</title>
<g id="a_node3"><a xlink:href="class_tri_devs_1_1_tri_engine2_d_1_1_native_1_1_win_a_p_i.html#a7617bf77270291625f566cf21294d518" target="_top" xlink:title="Retrieves a handle to the specified standard device (standard input, standard output, or standard error). ">
<polygon fill="white" stroke="black" points="180,-0 180,-30 316,-30 316,-0 180,-0"/>
<text text-anchor="start" x="188" y="-18" font-family="Helvetica,sans-Serif" font-size="10.00">TriDevs.TriEngine2D.Native.</text>
<text text-anchor="middle" x="248" y="-7" font-family="Helvetica,sans-Serif" font-size="10.00">WinAPI.GetStdHandle</text>
</a>
</g>
</g>
<!-- Node1&#45;&gt;Node3 -->
<g id="edge2" class="edge"><title>Node1&#45;&gt;Node3</title>
<path fill="none" stroke="midnightblue" d="M143.522,-29.2729C152.121,-28.0868 160.943,-26.87 169.635,-25.6711"/>
<polygon fill="midnightblue" stroke="midnightblue" points="170.33,-29.1084 179.758,-24.2748 169.373,-22.1741 170.33,-29.1084"/>
</g>
</g>
</svg>
