<?xml version="1.0" encoding="UTF-8" standalone="no"?>
<!DOCTYPE svg PUBLIC "-//W3C//DTD SVG 1.1//EN"
 "http://www.w3.org/Graphics/SVG/1.1/DTD/svg11.dtd">
<!-- Generated by graphviz version 2.30.0 (20130114.0323)
 -->
<!-- Title: TriDevs.TriEngine Pages: 1 -->
<svg width="1299pt" height="76pt"
 viewBox="0.00 0.00 1299.00 76.00" xmlns="http://www.w3.org/2000/svg" xmlns:xlink="http://www.w3.org/1999/xlink">
<g id="graph0" class="graph" transform="scale(1 1) rotate(0) translate(4 72)">
<title>TriDevs.TriEngine</title>
<polygon fill="white" stroke="white" points="-4,5 -4,-72 1296,-72 1296,5 -4,5"/>
<g id="clust1" class="cluster"><title>clusterdir_2abff9210325492622d6ab62ad8d03b9</title>
<g id="a_clust1"><a xlink:href="dir_2abff9210325492622d6ab62ad8d03b9.html" target="_top">
<polygon fill="#eeeeff" stroke="black" points="8,-8 8,-60 1283,-60 1283,-8 8,-8"/>
</a>
</g>
</g>
<!-- dir_2abff9210325492622d6ab62ad8d03b9 -->
<g id="node1" class="node"><title>dir_2abff9210325492622d6ab62ad8d03b9</title>
<text text-anchor="middle" x="1229" y="-31.5" font-family="Helvetica,sans-Serif" font-size="10.00">TriDevs.TriEngine</text>
</g>
<!-- dir_7fc0292b6d98f20af65960b9e5f2f6a0 -->
<g id="node2" class="node"><title>dir_7fc0292b6d98f20af65960b9e5f2f6a0</title>
<g id="a_node2"><a xlink:href="dir_7fc0292b6d98f20af65960b9e5f2f6a0.html" target="_top" xlink:title="Audio">
<polygon fill="white" stroke="black" points="1165,-52 1111,-52 1111,-16 1165,-16 1165,-52"/>
<text text-anchor="middle" x="1138" y="-31.5" font-family="Helvetica,sans-Serif" font-size="10.00">Audio</text>
</a>
</g>
</g>
<!-- dir_313858bbfa0cf0c2e15d7098863449cc -->
<g id="node3" class="node"><title>dir_313858bbfa0cf0c2e15d7098863449cc</title>
<g id="a_node3"><a xlink:href="dir_313858bbfa0cf0c2e15d7098863449cc.html" target="_top" xlink:title="Extensions">
<polygon fill="white" stroke="black" points="1092.25,-52 1027.75,-52 1027.75,-16 1092.25,-16 1092.25,-52"/>
<text text-anchor="middle" x="1060" y="-31.5" font-family="Helvetica,sans-Serif" font-size="10.00">Extensions</text>
</a>
</g>
</g>
<!-- dir_9ad62232d3bdee4ca223a25b6258d876 -->
<g id="node4" class="node"><title>dir_9ad62232d3bdee4ca223a25b6258d876</title>
<g id="a_node4"><a xlink:href="dir_9ad62232d3bdee4ca223a25b6258d876.html" target="_top" xlink:title="Graphics">
<polygon fill="white" stroke="black" points="1009,-52 953,-52 953,-16 1009,-16 1009,-52"/>
<text text-anchor="middle" x="981" y="-31.5" font-family="Helvetica,sans-Serif" font-size="10.00">Graphics</text>
</a>
</g>
</g>
<!-- dir_424f4539b35c69797db2224178c3f046 -->
<g id="node5" class="node"><title>dir_424f4539b35c69797db2224178c3f046</title>
<g id="a_node5"><a xlink:href="dir_424f4539b35c69797db2224178c3f046.html" target="_top" xlink:title="Helpers">
<polygon fill="white" stroke="black" points="935,-52 881,-52 881,-16 935,-16 935,-52"/>
<text text-anchor="middle" x="908" y="-31.5" font-family="Helvetica,sans-Serif" font-size="10.00">Helpers</text>
</a>
</g>
</g>
<!-- dir_62c462a59df9b187fb9475b48bc61fe1 -->
<g id="node6" class="node"><title>dir_62c462a59df9b187fb9475b48bc61fe1</title>
<g id="a_node6"><a xlink:href="dir_62c462a59df9b187fb9475b48bc61fe1.html" target="_top" xlink:title="Input">
<polygon fill="white" stroke="red" points="863,-52 809,-52 809,-16 863,-16 863,-52"/>
<text text-anchor="middle" x="836" y="-31.5" font-family="Helvetica,sans-Serif" font-size="10.00">Input</text>
</a>
</g>
</g>
<!-- dir_b202599e4e0ec1adbaca4920c965cd46 -->
<g id="node7" class="node"><title>dir_b202599e4e0ec1adbaca4920c965cd46</title>
<g id="a_node7"><a xlink:href="dir_b202599e4e0ec1adbaca4920c965cd46.html" target="_top" xlink:title="Interfaces">
<polygon fill="white" stroke="black" points="790.25,-52 731.75,-52 731.75,-16 790.25,-16 790.25,-52"/>
<text text-anchor="middle" x="761" y="-31.5" font-family="Helvetica,sans-Serif" font-size="10.00">Interfaces</text>
</a>
</g>
</g>
<!-- dir_747ccaa0b5a963cd6a4958cb6dd48cb6 -->
<g id="node8" class="node"><title>dir_747ccaa0b5a963cd6a4958cb6dd48cb6</title>
<g id="a_node8"><a xlink:href="dir_747ccaa0b5a963cd6a4958cb6dd48cb6.html" target="_top" xlink:title="Logging">
<polygon fill="white" stroke="black" points="713,-52 659,-52 659,-16 713,-16 713,-52"/>
<text text-anchor="middle" x="686" y="-31.5" font-family="Helvetica,sans-Serif" font-size="10.00">Logging</text>
</a>
</g>
</g>
<!-- dir_7aad0cae985347accea0b401221c1145 -->
<g id="node9" class="node"><title>dir_7aad0cae985347accea0b401221c1145</title>
<g id="a_node9"><a xlink:href="dir_7aad0cae985347accea0b401221c1145.html" target="_top" xlink:title="Native">
<polygon fill="white" stroke="black" points="641,-52 587,-52 587,-16 641,-16 641,-52"/>
<text text-anchor="middle" x="614" y="-31.5" font-family="Helvetica,sans-Serif" font-size="10.00">Native</text>
</a>
</g>
</g>
<!-- dir_ae5d1542e6180a0a4dc51416b6dd169b -->
<g id="node10" class="node"><title>dir_ae5d1542e6180a0a4dc51416b6dd169b</title>
<g id="a_node10"><a xlink:href="dir_ae5d1542e6180a0a4dc51416b6dd169b.html" target="_top" xlink:title="Properties">
<polygon fill="white" stroke="black" points="568.25,-52 507.75,-52 507.75,-16 568.25,-16 568.25,-52"/>
<text text-anchor="middle" x="538" y="-31.5" font-family="Helvetica,sans-Serif" font-size="10.00">Properties</text>
</a>
</g>
</g>
<!-- dir_9a3f0141eaf150da6f86fd7c24de15ec -->
<g id="node11" class="node"><title>dir_9a3f0141eaf150da6f86fd7c24de15ec</title>
<g id="a_node11"><a xlink:href="dir_9a3f0141eaf150da6f86fd7c24de15ec.html" target="_top" xlink:title="Resources">
<polygon fill="white" stroke="black" points="489.25,-52 426.75,-52 426.75,-16 489.25,-16 489.25,-52"/>
<text text-anchor="middle" x="458" y="-31.5" font-family="Helvetica,sans-Serif" font-size="10.00">Resources</text>
</a>
</g>
</g>
<!-- dir_9aef910b89770f58de5732a1b2db09f2 -->
<g id="node12" class="node"><title>dir_9aef910b89770f58de5732a1b2db09f2</title>
<g id="a_node12"><a xlink:href="dir_9aef910b89770f58de5732a1b2db09f2.html" target="_top" xlink:title="Serializing">
<polygon fill="white" stroke="black" points="408,-52 346,-52 346,-16 408,-16 408,-52"/>
<text text-anchor="middle" x="377" y="-31.5" font-family="Helvetica,sans-Serif" font-size="10.00">Serializing</text>
</a>
</g>
</g>
<!-- dir_f69714c7d1458dd89da9fb6196ca2805 -->
<g id="node13" class="node"><title>dir_f69714c7d1458dd89da9fb6196ca2805</title>
<g id="a_node13"><a xlink:href="dir_f69714c7d1458dd89da9fb6196ca2805.html" target="_top" xlink:title="Shaders">
<polygon fill="white" stroke="black" points="328,-52 274,-52 274,-16 328,-16 328,-52"/>
<text text-anchor="middle" x="301" y="-31.5" font-family="Helvetica,sans-Serif" font-size="10.00">Shaders</text>
</a>
</g>
</g>
<!-- dir_1a161993c0eb84b48ed5a485608c9d0a -->
<g id="node14" class="node"><title>dir_1a161993c0eb84b48ed5a485608c9d0a</title>
<g id="a_node14"><a xlink:href="dir_1a161993c0eb84b48ed5a485608c9d0a.html" target="_top" xlink:title="StateManagement">
<polygon fill="white" stroke="black" points="256,-52 160,-52 160,-16 256,-16 256,-52"/>
<text text-anchor="middle" x="208" y="-31.5" font-family="Helvetica,sans-Serif" font-size="10.00">StateManagement</text>
</a>
</g>
</g>
<!-- dir_ec35eb06b9701e8e01592a299097f0e9 -->
<g id="node15" class="node"><title>dir_ec35eb06b9701e8e01592a299097f0e9</title>
<g id="a_node15"><a xlink:href="dir_ec35eb06b9701e8e01592a299097f0e9.html" target="_top" xlink:title="Text">
<polygon fill="white" stroke="black" points="142,-52 88,-52 88,-16 142,-16 142,-52"/>
<text text-anchor="middle" x="115" y="-31.5" font-family="Helvetica,sans-Serif" font-size="10.00">Text</text>
</a>
</g>
</g>
<!-- dir_368655917bf30287b427889c6f5bae4f -->
<g id="node16" class="node"><title>dir_368655917bf30287b427889c6f5bae4f</title>
<g id="a_node16"><a xlink:href="dir_368655917bf30287b427889c6f5bae4f.html" target="_top" xlink:title="UI">
<polygon fill="white" stroke="red" points="70,-52 16,-52 16,-16 70,-16 70,-52"/>
<text text-anchor="middle" x="43" y="-31.5" font-family="Helvetica,sans-Serif" font-size="10.00">UI</text>
</a>
</g>
</g>
</g>
</svg>
