<?xml version="1.0" encoding="UTF-8" standalone="no"?>
<!DOCTYPE svg PUBLIC "-//W3C//DTD SVG 1.1//EN"
 "http://www.w3.org/Graphics/SVG/1.1/DTD/svg11.dtd">
<!-- Generated by graphviz version 2.30.0 (20130114.0323)
 -->
<!-- Title: TriDevs.TriEngine2D Pages: 1 -->
<!--zoomable 76 -->
<svg id="main" version="1.1" xmlns="http://www.w3.org/2000/svg" xmlns:xlink="http://www.w3.org/1999/xlink" xml:space="preserve" onload="init(evt)">
        <defs>
                <circle id="rim" cx="0" cy="0" r="7"/>
                <circle id="rim2" cx="0" cy="0" r="3.5"/>
                <g id="zoomPlus">
                        <use xlink:href="#rim" fill="#404040">
                                <set attributeName="fill" to="#808080" begin="zoomplus.mouseover" end="zoomplus.mouseout"/>
                        </use>
                        <path d="M-4,0h8M0,-4v8" fill="none" stroke="white" stroke-width="1.5" pointer-events="none"/>
                </g>
                <g id="zoomMin">
                        <use xlink:href="#rim" fill="#404040">
                                <set attributeName="fill" to="#808080" begin="zoomminus.mouseover" end="zoomminus.mouseout"/>
                        </use>
                        <path d="M-4,0h8" fill="none" stroke="white" stroke-width="1.5" pointer-events="none"/>
                </g>
                <g id="dirArrow">
                        <path fill="none" stroke="white" stroke-width="1.5" d="M0,-3.0v7 M-2.5,-0.5L0,-3.0L2.5,-0.5"/>
                </g>
               <g id="resetDef">
                       <use xlink:href="#rim2" fill="#404040">
                               <set attributeName="fill" to="#808080" begin="reset.mouseover" end="reset.mouseout"/>
                       </use>
               </g>
        </defs>

<script type="text/javascript">
var viewWidth = 604;
var viewHeight = 76;
var sectionId = 'dynsection-0';
</script>
<script xlink:href="svgpan.js"/>
<svg id="graph" class="graph">
<g id="viewport">
<title>TriDevs.TriEngine2D</title>
<polygon fill="white" stroke="white" points="-4,5 -4,-72 601,-72 601,5 -4,5"/>
<g id="clust1" class="cluster"><title>clusterdir_eef12f4528c91f96e9d8bf3bf754e9c9</title>
<g id="a_clust1"><a xlink:href="dir_eef12f4528c91f96e9d8bf3bf754e9c9.html" target="_top">
<polygon fill="#eeeeff" stroke="black" points="8,-8 8,-60 588,-60 588,-8 8,-8"/>
</a>
</g>
</g>
<!-- dir_eef12f4528c91f96e9d8bf3bf754e9c9 -->
<g id="node1" class="node"><title>dir_eef12f4528c91f96e9d8bf3bf754e9c9</title>
<text text-anchor="middle" x="528" y="-31.5" font-family="Helvetica,sans-Serif" font-size="10.00">TriDevs.TriEngine2D</text>
</g>
<!-- dir_c4a8fc679f2ccc0e8aa64941a499171c -->
<g id="node2" class="node"><title>dir_c4a8fc679f2ccc0e8aa64941a499171c</title>
<g id="a_node2"><a xlink:href="dir_c4a8fc679f2ccc0e8aa64941a499171c.html" target="_top" xlink:title="Extensions">
<polygon fill="white" stroke="black" points="457.25,-52 392.75,-52 392.75,-16 457.25,-16 457.25,-52"/>
<text text-anchor="middle" x="425" y="-31.5" font-family="Helvetica,sans-Serif" font-size="10.00">Extensions</text>
</a>
</g>
</g>
<!-- dir_20a83804b727400b022b8b6d9cb5050f -->
<g id="node3" class="node"><title>dir_20a83804b727400b022b8b6d9cb5050f</title>
<g id="a_node3"><a xlink:href="dir_20a83804b727400b022b8b6d9cb5050f.html" target="_top" xlink:title="Helpers">
<polygon fill="white" stroke="black" points="374,-52 320,-52 320,-16 374,-16 374,-52"/>
<text text-anchor="middle" x="347" y="-31.5" font-family="Helvetica,sans-Serif" font-size="10.00">Helpers</text>
</a>
</g>
</g>
<!-- dir_26e44ccb56d68e366f3b88403e8eeb52 -->
<g id="node4" class="node"><title>dir_26e44ccb56d68e366f3b88403e8eeb52</title>
<g id="a_node4"><a xlink:href="dir_26e44ccb56d68e366f3b88403e8eeb52.html" target="_top" xlink:title="Logging">
<polygon fill="white" stroke="black" points="302,-52 248,-52 248,-16 302,-16 302,-52"/>
<text text-anchor="middle" x="275" y="-31.5" font-family="Helvetica,sans-Serif" font-size="10.00">Logging</text>
</a>
</g>
</g>
<!-- dir_04c2f9a0b23add30db9db6e7bb4f88ee -->
<g id="node5" class="node"><title>dir_04c2f9a0b23add30db9db6e7bb4f88ee</title>
<g id="a_node5"><a xlink:href="dir_04c2f9a0b23add30db9db6e7bb4f88ee.html" target="_top" xlink:title="Native">
<polygon fill="white" stroke="black" points="230,-52 176,-52 176,-16 230,-16 230,-52"/>
<text text-anchor="middle" x="203" y="-31.5" font-family="Helvetica,sans-Serif" font-size="10.00">Native</text>
</a>
</g>
</g>
<!-- dir_53f875ce9050e8c1b1c89d974708c7eb -->
<g id="node6" class="node"><title>dir_53f875ce9050e8c1b1c89d974708c7eb</title>
<g id="a_node6"><a xlink:href="dir_53f875ce9050e8c1b1c89d974708c7eb.html" target="_top" xlink:title="Properties">
<polygon fill="white" stroke="black" points="157.25,-52 96.75,-52 96.75,-16 157.25,-16 157.25,-52"/>
<text text-anchor="middle" x="127" y="-31.5" font-family="Helvetica,sans-Serif" font-size="10.00">Properties</text>
</a>
</g>
</g>
<!-- dir_b00bafaf0925d295d47f39b3b0d0b143 -->
<g id="node7" class="node"><title>dir_b00bafaf0925d295d47f39b3b0d0b143</title>
<g id="a_node7"><a xlink:href="dir_b00bafaf0925d295d47f39b3b0d0b143.html" target="_top" xlink:title="Serializing">
<polygon fill="white" stroke="black" points="78,-52 16,-52 16,-16 78,-16 78,-52"/>
<text text-anchor="middle" x="47" y="-31.5" font-family="Helvetica,sans-Serif" font-size="10.00">Serializing</text>
</a>
</g>
</g>
</g>
</svg>
        <g id="navigator" transform="translate(0 0)" fill="#404254">
                <rect fill="#f2f5e9" fill-opacity="0.5" stroke="#606060" stroke-width=".5" x="0" y="0" width="60" height="60"/>
                <use id="zoomplus" xlink:href="#zoomPlus" x="17" y="9" onmousedown="handleZoom(evt,'in')"/>
                <use id="zoomminus" xlink:href="#zoomMin" x="42" y="9" onmousedown="handleZoom(evt,'out')"/>
                <use id="reset" xlink:href="#resetDef" x="30" y="36" onmousedown="handleReset()"/>
                <g id="arrowUp" xlink:href="#dirArrow" transform="translate(30 24)" onmousedown="handlePan(0,-1)">
                  <use xlink:href="#rim" fill="#404040">
                        <set attributeName="fill" to="#808080" begin="arrowUp.mouseover" end="arrowUp.mouseout"/>
                  </use>
                  <path fill="none" stroke="white" stroke-width="1.5" d="M0,-3.0v7 M-2.5,-0.5L0,-3.0L2.5,-0.5"/>
                </g>
                <g id="arrowRight" xlink:href="#dirArrow" transform="rotate(90) translate(36 -43)" onmousedown="handlePan(1,0)">
                  <use xlink:href="#rim" fill="#404040">
                        <set attributeName="fill" to="#808080" begin="arrowRight.mouseover" end="arrowRight.mouseout"/>
                  </use>
                  <path fill="none" stroke="white" stroke-width="1.5" d="M0,-3.0v7 M-2.5,-0.5L0,-3.0L2.5,-0.5"/>
                </g>
                <g id="arrowDown" xlink:href="#dirArrow" transform="rotate(180) translate(-30 -48)" onmousedown="handlePan(0,1)">
                  <use xlink:href="#rim" fill="#404040">
                        <set attributeName="fill" to="#808080" begin="arrowDown.mouseover" end="arrowDown.mouseout"/>
                  </use>
                  <path fill="none" stroke="white" stroke-width="1.5" d="M0,-3.0v7 M-2.5,-0.5L0,-3.0L2.5,-0.5"/>
                </g>
                <g id="arrowLeft" xlink:href="#dirArrow" transform="rotate(270) translate(-36 17)" onmousedown="handlePan(-1,0)">
                  <use xlink:href="#rim" fill="#404040">
                        <set attributeName="fill" to="#808080" begin="arrowLeft.mouseover" end="arrowLeft.mouseout"/>
                  </use>
                  <path fill="none" stroke="white" stroke-width="1.5" d="M0,-3.0v7 M-2.5,-0.5L0,-3.0L2.5,-0.5"/>
                </g>
        </g>
        <svg viewBox="0 0 15 15" width="100%" height="30px" preserveAspectRatio="xMaxYMin meet">
         <g id="arrow_out" transform="scale(0.3 0.3)">
          <a xlink:href="dir_eef12f4528c91f96e9d8bf3bf754e9c9_dep_org.svg" target="_base">
           <rect id="button" ry="5" rx="5" y="6" x="6" height="38" width="38"
                fill="#f2f5e9" fill-opacity="0.5" stroke="#606060" stroke-width="1.0"/>
           <path id="arrow"
             d="M 11.500037,31.436501 C 11.940474,20.09759 22.043105,11.32322 32.158766,21.979434 L 37.068811,17.246167 C 37.068811,17.246167 37.088388,32 37.088388,32 L 22.160133,31.978069 C 22.160133,31.978069 26.997745,27.140456 26.997745,27.140456 C 18.528582,18.264221 13.291696,25.230495 11.500037,31.436501 z"
             style="fill:#404040;"/>
          </a>
         </g>
        </svg>
</svg>
