<?xml version="1.0" encoding="UTF-8" standalone="no"?>
<!DOCTYPE svg PUBLIC "-//W3C//DTD SVG 1.1//EN"
 "http://www.w3.org/Graphics/SVG/1.1/DTD/svg11.dtd">
<!-- Generated by graphviz version 2.30.0 (20130114.0323)
 -->
<!-- Title: Graphical Class Hierarchy Pages: 1 -->
<svg width="932pt" height="558pt"
 viewBox="0.00 0.00 932.00 558.00" xmlns="http://www.w3.org/2000/svg" xmlns:xlink="http://www.w3.org/1999/xlink">
<g id="graph0" class="graph" transform="scale(1 1) rotate(0) translate(4 554)">
<title>Graphical Class Hierarchy</title>
<polygon fill="white" stroke="white" points="-4,5 -4,-554 929,-554 929,5 -4,5"/>
<!-- Node1 -->
<g id="node1" class="node"><title>Node1</title>
<polygon fill="white" stroke="#bfbfbf" points="36.5,-374.5 36.5,-393.5 103.5,-393.5 103.5,-374.5 36.5,-374.5"/>
<text text-anchor="middle" x="70" y="-381.5" font-family="Helvetica,sans-Serif" font-size="10.00">IDisposable</text>
</g>
<!-- Node2 -->
<g id="node2" class="node"><title>Node2</title>
<g id="a_node2"><a xlink:href="interface_tri_devs_1_1_tri_engine_1_1_audio_1_1_i_audio_manager.html" target="_top" xlink:title="Provides various methods to manipulate audio. ">
<polygon fill="white" stroke="black" points="204,-470 204,-500 326,-500 326,-470 204,-470"/>
<text text-anchor="start" x="212" y="-488" font-family="Helvetica,sans-Serif" font-size="10.00">TriDevs.TriEngine.Audio.</text>
<text text-anchor="middle" x="265" y="-477" font-family="Helvetica,sans-Serif" font-size="10.00">IAudioManager</text>
</a>
</g>
</g>
<!-- Node1&#45;&gt;Node2 -->
<g id="edge1" class="edge"><title>Node1&#45;&gt;Node2</title>
<path fill="none" stroke="midnightblue" d="M98.1627,-398.215C134.365,-417.16 198.156,-450.543 235.179,-469.918"/>
<polygon fill="midnightblue" stroke="midnightblue" points="99.6399,-395.037 89.157,-393.502 96.3943,-401.24 99.6399,-395.037"/>
</g>
<!-- Node5 -->
<g id="node5" class="node"><title>Node5</title>
<g id="a_node5"><a xlink:href="class_tri_devs_1_1_tri_engine_1_1_graphics_1_1_primitive.html" target="_top" xlink:title="Represents a primitive 2D shape composed of triangles. ">
<polygon fill="white" stroke="black" points="196.5,-230 196.5,-260 333.5,-260 333.5,-230 196.5,-230"/>
<text text-anchor="start" x="204.5" y="-248" font-family="Helvetica,sans-Serif" font-size="10.00">TriDevs.TriEngine.Graphics.</text>
<text text-anchor="middle" x="265" y="-237" font-family="Helvetica,sans-Serif" font-size="10.00">Primitive</text>
</a>
</g>
</g>
<!-- Node1&#45;&gt;Node5 -->
<g id="edge4" class="edge"><title>Node1&#45;&gt;Node5</title>
<path fill="none" stroke="midnightblue" d="M92.4373,-368.561C129.711,-341.716 206.009,-286.765 242.985,-260.135"/>
<polygon fill="midnightblue" stroke="midnightblue" points="90.3348,-365.762 84.2657,-374.446 94.4257,-371.442 90.3348,-365.762"/>
</g>
<!-- Node8 -->
<g id="node8" class="node"><title>Node8</title>
<g id="a_node8"><a xlink:href="class_tri_devs_1_1_tri_engine_1_1_program.html" target="_top" xlink:title="An OpenGL program. ">
<polygon fill="white" stroke="black" points="199.5,-396.5 199.5,-415.5 330.5,-415.5 330.5,-396.5 199.5,-396.5"/>
<text text-anchor="middle" x="265" y="-403.5" font-family="Helvetica,sans-Serif" font-size="10.00">TriDevs.TriEngine.Program</text>
</a>
</g>
</g>
<!-- Node1&#45;&gt;Node8 -->
<g id="edge7" class="edge"><title>Node1&#45;&gt;Node8</title>
<path fill="none" stroke="midnightblue" d="M113.701,-388.867C138.86,-391.735 171.189,-395.42 199.413,-398.638"/>
<polygon fill="midnightblue" stroke="midnightblue" points="114.072,-385.387 103.74,-387.732 113.279,-392.342 114.072,-385.387"/>
</g>
<!-- Node9 -->
<g id="node9" class="node"><title>Node9</title>
<g id="a_node9"><a xlink:href="interface_tri_devs_1_1_tri_engine_1_1_resources_1_1_i_resource.html" target="_top" xlink:title="An external resource created from a file. ">
<polygon fill="white" stroke="black" points="193,-347 193,-377 337,-377 337,-347 193,-347"/>
<text text-anchor="start" x="201" y="-365" font-family="Helvetica,sans-Serif" font-size="10.00">TriDevs.TriEngine.Resources.</text>
<text text-anchor="middle" x="265" y="-354" font-family="Helvetica,sans-Serif" font-size="10.00">IResource</text>
</a>
</g>
</g>
<!-- Node1&#45;&gt;Node9 -->
<g id="edge8" class="edge"><title>Node1&#45;&gt;Node9</title>
<path fill="none" stroke="midnightblue" d="M113.91,-379.109C137.033,-376.473 166.167,-373.152 192.601,-370.139"/>
<polygon fill="midnightblue" stroke="midnightblue" points="113.279,-375.658 103.74,-380.268 114.072,-382.613 113.279,-375.658"/>
</g>
<!-- Node3 -->
<g id="node3" class="node"><title>Node3</title>
<g id="a_node3"><a xlink:href="class_tri_devs_1_1_tri_engine_1_1_audio_1_1_audio_manager.html" target="_top" xlink:title="Class to manage engine audio. ">
<polygon fill="white" stroke="black" points="418,-470 418,-500 540,-500 540,-470 418,-470"/>
<text text-anchor="start" x="426" y="-488" font-family="Helvetica,sans-Serif" font-size="10.00">TriDevs.TriEngine.Audio.</text>
<text text-anchor="middle" x="479" y="-477" font-family="Helvetica,sans-Serif" font-size="10.00">AudioManager</text>
</a>
</g>
</g>
<!-- Node2&#45;&gt;Node3 -->
<g id="edge2" class="edge"><title>Node2&#45;&gt;Node3</title>
<path fill="none" stroke="midnightblue" d="M336.464,-485C362.762,-485 392.361,-485 417.666,-485"/>
<polygon fill="midnightblue" stroke="midnightblue" points="336.184,-481.5 326.184,-485 336.184,-488.5 336.184,-481.5"/>
</g>
<!-- Node4 -->
<g id="node4" class="node"><title>Node4</title>
<g id="a_node4"><a xlink:href="class_tri_devs_1_1_tri_engine_1_1_audio_1_1_null_audio_manager.html" target="_top" xlink:title="Used as a fallback AudioManager object when the service locator fails to find one. ">
<polygon fill="white" stroke="black" points="418,-519 418,-549 540,-549 540,-519 418,-519"/>
<text text-anchor="start" x="426" y="-537" font-family="Helvetica,sans-Serif" font-size="10.00">TriDevs.TriEngine.Audio.</text>
<text text-anchor="middle" x="479" y="-526" font-family="Helvetica,sans-Serif" font-size="10.00">NullAudioManager</text>
</a>
</g>
</g>
<!-- Node2&#45;&gt;Node4 -->
<g id="edge3" class="edge"><title>Node2&#45;&gt;Node4</title>
<path fill="none" stroke="midnightblue" d="M336.115,-501.206C362.5,-507.304 392.249,-514.18 417.666,-520.055"/>
<polygon fill="midnightblue" stroke="midnightblue" points="336.715,-497.752 326.184,-498.91 335.139,-504.572 336.715,-497.752"/>
</g>
<!-- Node6 -->
<g id="node6" class="node"><title>Node6</title>
<g id="a_node6"><a xlink:href="class_tri_devs_1_1_tri_engine_1_1_graphics_1_1_rectangle.html" target="_top" xlink:title="A primitive 2D Rectangle shape. ">
<polygon fill="white" stroke="black" points="410.5,-235 410.5,-265 547.5,-265 547.5,-235 410.5,-235"/>
<text text-anchor="start" x="418.5" y="-253" font-family="Helvetica,sans-Serif" font-size="10.00">TriDevs.TriEngine.Graphics.</text>
<text text-anchor="middle" x="479" y="-242" font-family="Helvetica,sans-Serif" font-size="10.00">Rectangle</text>
</a>
</g>
</g>
<!-- Node5&#45;&gt;Node6 -->
<g id="edge5" class="edge"><title>Node5&#45;&gt;Node6</title>
<path fill="none" stroke="midnightblue" d="M343.861,-246.836C365.635,-247.35 389.117,-247.904 410.255,-248.402"/>
<polygon fill="midnightblue" stroke="midnightblue" points="343.741,-243.333 333.661,-246.596 343.576,-250.331 343.741,-243.333"/>
</g>
<!-- Node7 -->
<g id="node7" class="node"><title>Node7</title>
<g id="a_node7"><a xlink:href="class_tri_devs_1_1_tri_engine_1_1_graphics_1_1_triangle.html" target="_top" xlink:title="A primitive 2D Triangle shape. ">
<polygon fill="white" stroke="black" points="410.5,-186 410.5,-216 547.5,-216 547.5,-186 410.5,-186"/>
<text text-anchor="start" x="418.5" y="-204" font-family="Helvetica,sans-Serif" font-size="10.00">TriDevs.TriEngine.Graphics.</text>
<text text-anchor="middle" x="479" y="-193" font-family="Helvetica,sans-Serif" font-size="10.00">Triangle</text>
</a>
</g>
</g>
<!-- Node5&#45;&gt;Node7 -->
<g id="edge6" class="edge"><title>Node5&#45;&gt;Node7</title>
<path fill="none" stroke="midnightblue" d="M343.566,-228.901C365.423,-224.365 389.021,-219.467 410.255,-215.06"/>
<polygon fill="midnightblue" stroke="midnightblue" points="342.741,-225.498 333.661,-230.957 344.164,-232.352 342.741,-225.498"/>
</g>
<!-- Node10 -->
<g id="node10" class="node"><title>Node10</title>
<g id="a_node10"><a xlink:href="interface_tri_devs_1_1_tri_engine_1_1_audio_1_1_i_song.html" target="_top" xlink:title="A song that will be streamed in the audio player. ">
<polygon fill="white" stroke="black" points="418,-421 418,-451 540,-451 540,-421 418,-421"/>
<text text-anchor="start" x="426" y="-439" font-family="Helvetica,sans-Serif" font-size="10.00">TriDevs.TriEngine.Audio.</text>
<text text-anchor="middle" x="479" y="-428" font-family="Helvetica,sans-Serif" font-size="10.00">ISong</text>
</a>
</g>
</g>
<!-- Node9&#45;&gt;Node10 -->
<g id="edge9" class="edge"><title>Node9&#45;&gt;Node10</title>
<path fill="none" stroke="midnightblue" d="M338.231,-380.518C343.641,-382.511 348.953,-384.671 354,-387 371.46,-395.058 372.54,-402.942 390,-411 398.797,-415.06 408.397,-418.604 417.92,-421.649"/>
<polygon fill="midnightblue" stroke="midnightblue" points="339.018,-377.086 328.423,-377.11 336.72,-383.698 339.018,-377.086"/>
</g>
<!-- Node13 -->
<g id="node13" class="node"><title>Node13</title>
<g id="a_node13"><a xlink:href="interface_tri_devs_1_1_tri_engine_1_1_audio_1_1_i_sound.html" target="_top" xlink:title="A sound file for use with the audio manager. ">
<polygon fill="white" stroke="black" points="418,-372 418,-402 540,-402 540,-372 418,-372"/>
<text text-anchor="start" x="426" y="-390" font-family="Helvetica,sans-Serif" font-size="10.00">TriDevs.TriEngine.Audio.</text>
<text text-anchor="middle" x="479" y="-379" font-family="Helvetica,sans-Serif" font-size="10.00">ISound</text>
</a>
</g>
</g>
<!-- Node9&#45;&gt;Node13 -->
<g id="edge12" class="edge"><title>Node9&#45;&gt;Node13</title>
<path fill="none" stroke="midnightblue" d="M347.152,-371.57C370.694,-374.346 395.97,-377.327 417.969,-379.921"/>
<polygon fill="midnightblue" stroke="midnightblue" points="347.524,-368.089 337.183,-370.394 346.704,-375.041 347.524,-368.089"/>
</g>
<!-- Node16 -->
<g id="node16" class="node"><title>Node16</title>
<g id="a_node16"><a xlink:href="class_tri_devs_1_1_tri_engine_1_1_shaders_1_1_shader.html" target="_top" xlink:title="GLSL shader object loaded and compiled from a *.glsl shader file. ">
<polygon fill="white" stroke="black" points="412,-323 412,-353 546,-353 546,-323 412,-323"/>
<text text-anchor="start" x="420" y="-341" font-family="Helvetica,sans-Serif" font-size="10.00">TriDevs.TriEngine.Shaders.</text>
<text text-anchor="middle" x="479" y="-330" font-family="Helvetica,sans-Serif" font-size="10.00">Shader</text>
</a>
</g>
</g>
<!-- Node9&#45;&gt;Node16 -->
<g id="edge15" class="edge"><title>Node9&#45;&gt;Node16</title>
<path fill="none" stroke="midnightblue" d="M347.186,-352.809C368.497,-350.397 391.226,-347.823 411.658,-345.51"/>
<polygon fill="midnightblue" stroke="midnightblue" points="346.725,-349.339 337.183,-353.942 347.513,-356.294 346.725,-349.339"/>
</g>
<!-- Node17 -->
<g id="node17" class="node"><title>Node17</title>
<g id="a_node17"><a xlink:href="class_tri_devs_1_1_tri_engine_1_1_text_1_1_font.html" target="_top" xlink:title="Holds a specific font type. ">
<polygon fill="white" stroke="black" points="411,-284.5 411,-303.5 547,-303.5 547,-284.5 411,-284.5"/>
<text text-anchor="middle" x="479" y="-291.5" font-family="Helvetica,sans-Serif" font-size="10.00">TriDevs.TriEngine.Text.Font</text>
</a>
</g>
</g>
<!-- Node9&#45;&gt;Node17 -->
<g id="edge16" class="edge"><title>Node9&#45;&gt;Node17</title>
<path fill="none" stroke="midnightblue" d="M309.039,-342.979C332.617,-333.074 362.549,-321.326 390,-313 401.816,-309.416 414.72,-306.235 426.914,-303.549"/>
<polygon fill="midnightblue" stroke="midnightblue" points="307.515,-339.824 299.679,-346.955 310.251,-346.267 307.515,-339.824"/>
</g>
<!-- Node11 -->
<g id="node11" class="node"><title>Node11</title>
<g id="a_node11"><a xlink:href="class_tri_devs_1_1_tri_engine_1_1_audio_1_1_null_song.html" target="_top" xlink:title="Fallback song class used in NullAudioManager. ">
<polygon fill="white" stroke="black" points="616,-463 616,-493 738,-493 738,-463 616,-463"/>
<text text-anchor="start" x="624" y="-481" font-family="Helvetica,sans-Serif" font-size="10.00">TriDevs.TriEngine.Audio.</text>
<text text-anchor="middle" x="677" y="-470" font-family="Helvetica,sans-Serif" font-size="10.00">NullSong</text>
</a>
</g>
</g>
<!-- Node10&#45;&gt;Node11 -->
<g id="edge10" class="edge"><title>Node10&#45;&gt;Node11</title>
<path fill="none" stroke="midnightblue" d="M550.199,-451.043C571.722,-455.655 595.196,-460.685 615.975,-465.138"/>
<polygon fill="midnightblue" stroke="midnightblue" points="550.65,-447.56 540.138,-448.887 549.183,-454.404 550.65,-447.56"/>
</g>
<!-- Node12 -->
<g id="node12" class="node"><title>Node12</title>
<g id="a_node12"><a xlink:href="class_tri_devs_1_1_tri_engine_1_1_audio_1_1_song.html" target="_top" xlink:title="Song class that can be used with AudioManager. ">
<polygon fill="white" stroke="black" points="604.5,-424.5 604.5,-443.5 749.5,-443.5 749.5,-424.5 604.5,-424.5"/>
<text text-anchor="middle" x="677" y="-431.5" font-family="Helvetica,sans-Serif" font-size="10.00">TriDevs.TriEngine.Audio.Song</text>
</a>
</g>
</g>
<!-- Node10&#45;&gt;Node12 -->
<g id="edge11" class="edge"><title>Node10&#45;&gt;Node12</title>
<path fill="none" stroke="midnightblue" d="M550.295,-435.283C567.83,-435.104 586.654,-434.912 604.258,-434.732"/>
<polygon fill="midnightblue" stroke="midnightblue" points="550.102,-431.784 540.138,-435.386 550.174,-438.784 550.102,-431.784"/>
</g>
<!-- Node14 -->
<g id="node14" class="node"><title>Node14</title>
<g id="a_node14"><a xlink:href="class_tri_devs_1_1_tri_engine_1_1_audio_1_1_null_sound.html" target="_top" xlink:title="Fallback sound class used in NullAudioManager. ">
<polygon fill="white" stroke="black" points="616,-373 616,-403 738,-403 738,-373 616,-373"/>
<text text-anchor="start" x="624" y="-391" font-family="Helvetica,sans-Serif" font-size="10.00">TriDevs.TriEngine.Audio.</text>
<text text-anchor="middle" x="677" y="-380" font-family="Helvetica,sans-Serif" font-size="10.00">NullSound</text>
</a>
</g>
</g>
<!-- Node13&#45;&gt;Node14 -->
<g id="edge13" class="edge"><title>Node13&#45;&gt;Node14</title>
<path fill="none" stroke="midnightblue" d="M550.199,-387.358C571.722,-387.468 595.196,-387.588 615.975,-387.694"/>
<polygon fill="midnightblue" stroke="midnightblue" points="550.156,-383.858 540.138,-387.307 550.12,-390.858 550.156,-383.858"/>
</g>
<!-- Node15 -->
<g id="node15" class="node"><title>Node15</title>
<g id="a_node15"><a xlink:href="class_tri_devs_1_1_tri_engine_1_1_audio_1_1_sound.html" target="_top" xlink:title="Sound class that can be used with the AudioManager. ">
<polygon fill="white" stroke="black" points="616,-324 616,-354 738,-354 738,-324 616,-324"/>
<text text-anchor="start" x="624" y="-342" font-family="Helvetica,sans-Serif" font-size="10.00">TriDevs.TriEngine.Audio.</text>
<text text-anchor="middle" x="677" y="-331" font-family="Helvetica,sans-Serif" font-size="10.00">Sound</text>
</a>
</g>
</g>
<!-- Node13&#45;&gt;Node15 -->
<g id="edge14" class="edge"><title>Node13&#45;&gt;Node15</title>
<path fill="none" stroke="midnightblue" d="M549.907,-369.88C571.51,-364.589 595.102,-358.812 615.975,-353.7"/>
<polygon fill="midnightblue" stroke="midnightblue" points="549.019,-366.494 540.138,-372.272 550.684,-373.293 549.019,-366.494"/>
</g>
<!-- Node18 -->
<g id="node18" class="node"><title>Node18</title>
<g id="a_node18"><a xlink:href="interface_tri_devs_1_1_tri_engine_1_1_interfaces_1_1_i_drawable.html" target="_top" xlink:title="Implements a simple draw method. ">
<polygon fill="white" stroke="black" points="0,-142 0,-172 140,-172 140,-142 0,-142"/>
<text text-anchor="start" x="8" y="-160" font-family="Helvetica,sans-Serif" font-size="10.00">TriDevs.TriEngine.Interfaces.</text>
<text text-anchor="middle" x="70" y="-149" font-family="Helvetica,sans-Serif" font-size="10.00">IDrawable</text>
</a>
</g>
</g>
<!-- Node18&#45;&gt;Node5 -->
<g id="edge17" class="edge"><title>Node18&#45;&gt;Node5</title>
<path fill="none" stroke="midnightblue" d="M109.156,-176.716C128.939,-186.729 153.592,-198.884 176,-209 192.098,-216.268 210.112,-223.749 225.629,-229.996"/>
<polygon fill="midnightblue" stroke="midnightblue" points="110.651,-173.55 100.151,-172.136 107.477,-179.789 110.651,-173.55"/>
</g>
<!-- Node19 -->
<g id="node19" class="node"><title>Node19</title>
<g id="a_node19"><a xlink:href="interface_tri_devs_1_1_tri_engine_1_1_interfaces_1_1_i_drawable_game_component.html" target="_top" xlink:title="A game component that can be added to GameState objects. Drawable game components also implement a dr...">
<polygon fill="white" stroke="black" points="409,-49 409,-79 549,-79 549,-49 409,-49"/>
<text text-anchor="start" x="417" y="-67" font-family="Helvetica,sans-Serif" font-size="10.00">TriDevs.TriEngine.Interfaces.</text>
<text text-anchor="middle" x="479" y="-56" font-family="Helvetica,sans-Serif" font-size="10.00">IDrawableGameComponent</text>
</a>
</g>
</g>
<!-- Node18&#45;&gt;Node19 -->
<g id="edge18" class="edge"><title>Node18&#45;&gt;Node19</title>
<path fill="none" stroke="midnightblue" d="M115.844,-175.663C175.609,-197.298 282.16,-224.23 354,-176 389.084,-152.446 358.353,-116.002 390,-88 395.574,-83.0679 402.068,-79.1379 408.955,-76.0082"/>
<polygon fill="midnightblue" stroke="midnightblue" points="116.905,-172.324 106.312,-172.113 114.462,-178.883 116.905,-172.324"/>
</g>
<!-- Node22 -->
<g id="node22" class="node"><title>Node22</title>
<g id="a_node22"><a xlink:href="interface_tri_devs_1_1_tri_engine_1_1_state_management_1_1_i_game_state.html" target="_top" xlink:title="A game state that can be used with the game state manager. Represent a specific state of the game...">
<polygon fill="white" stroke="black" points="176.5,-98 176.5,-128 353.5,-128 353.5,-98 176.5,-98"/>
<text text-anchor="start" x="184.5" y="-116" font-family="Helvetica,sans-Serif" font-size="10.00">TriDevs.TriEngine.StateManagement.</text>
<text text-anchor="middle" x="265" y="-105" font-family="Helvetica,sans-Serif" font-size="10.00">IGameState</text>
</a>
</g>
</g>
<!-- Node18&#45;&gt;Node22 -->
<g id="edge21" class="edge"><title>Node18&#45;&gt;Node22</title>
<path fill="none" stroke="midnightblue" d="M146.746,-139.732C163.707,-135.865 181.565,-131.793 198.09,-128.026"/>
<polygon fill="midnightblue" stroke="midnightblue" points="145.852,-136.345 136.88,-141.981 147.408,-143.17 145.852,-136.345"/>
</g>
<!-- Node24 -->
<g id="node24" class="node"><title>Node24</title>
<g id="a_node24"><a xlink:href="interface_tri_devs_1_1_tri_engine_1_1_state_management_1_1_i_game_state_manager.html" target="_top" xlink:title="Game state manager that keeps track of the active game states and provides methods to control the sta...">
<polygon fill="white" stroke="black" points="176.5,-0 176.5,-30 353.5,-30 353.5,-0 176.5,-0"/>
<text text-anchor="start" x="184.5" y="-18" font-family="Helvetica,sans-Serif" font-size="10.00">TriDevs.TriEngine.StateManagement.</text>
<text text-anchor="middle" x="265" y="-7" font-family="Helvetica,sans-Serif" font-size="10.00">IGameStateManager</text>
</a>
</g>
</g>
<!-- Node18&#45;&gt;Node24 -->
<g id="edge23" class="edge"><title>Node18&#45;&gt;Node24</title>
<path fill="none" stroke="midnightblue" d="M108.436,-136.441C119.535,-129.117 131.091,-120.137 140,-110 163.357,-83.4254 148.576,-61.3537 176,-39 180.173,-35.5982 184.79,-32.6767 189.66,-30.1678"/>
<polygon fill="midnightblue" stroke="midnightblue" points="106.286,-133.659 99.6916,-141.951 110.018,-139.581 106.286,-133.659"/>
</g>
<!-- Node26 -->
<g id="node26" class="node"><title>Node26</title>
<g id="a_node26"><a xlink:href="interface_tri_devs_1_1_tri_engine_1_1_u_i_1_1_i_control.html" target="_top" xlink:title="A UI control that can be drawn on screen and interacted with. ">
<polygon fill="white" stroke="black" points="195,-147.5 195,-166.5 335,-166.5 335,-147.5 195,-147.5"/>
<text text-anchor="middle" x="265" y="-154.5" font-family="Helvetica,sans-Serif" font-size="10.00">TriDevs.TriEngine.UI.IControl</text>
</a>
</g>
</g>
<!-- Node18&#45;&gt;Node26 -->
<g id="edge25" class="edge"><title>Node18&#45;&gt;Node26</title>
<path fill="none" stroke="midnightblue" d="M150.234,-157C164.98,-157 180.282,-157 194.702,-157"/>
<polygon fill="midnightblue" stroke="midnightblue" points="150.132,-153.5 140.132,-157 150.132,-160.5 150.132,-153.5"/>
</g>
<!-- Node20 -->
<g id="node20" class="node"><title>Node20</title>
<g id="a_node20"><a xlink:href="interface_tri_devs_1_1_tri_engine_1_1_u_i_1_1_i_control_manager.html" target="_top" xlink:title="Manages various UI controls, automatically updating and drawing them to the screen. ">
<polygon fill="white" stroke="black" points="607,-49 607,-79 747,-79 747,-49 607,-49"/>
<text text-anchor="start" x="615" y="-67" font-family="Helvetica,sans-Serif" font-size="10.00">TriDevs.TriEngine.UI.IControl</text>
<text text-anchor="middle" x="677" y="-56" font-family="Helvetica,sans-Serif" font-size="10.00">Manager</text>
</a>
</g>
</g>
<!-- Node19&#45;&gt;Node20 -->
<g id="edge19" class="edge"><title>Node19&#45;&gt;Node20</title>
<path fill="none" stroke="midnightblue" d="M559.334,-64C575.078,-64 591.49,-64 606.861,-64"/>
<polygon fill="midnightblue" stroke="midnightblue" points="559.102,-60.5001 549.102,-64 559.102,-67.5001 559.102,-60.5001"/>
</g>
<!-- Node21 -->
<g id="node21" class="node"><title>Node21</title>
<g id="a_node21"><a xlink:href="class_tri_devs_1_1_tri_engine_1_1_u_i_1_1_control_manager.html" target="_top" xlink:title="Control manager to manage various UI controls for a game. ">
<polygon fill="white" stroke="black" points="786.5,-49 786.5,-79 923.5,-79 923.5,-49 786.5,-49"/>
<text text-anchor="start" x="794.5" y="-67" font-family="Helvetica,sans-Serif" font-size="10.00">TriDevs.TriEngine.UI.Control</text>
<text text-anchor="middle" x="855" y="-56" font-family="Helvetica,sans-Serif" font-size="10.00">Manager</text>
</a>
</g>
</g>
<!-- Node20&#45;&gt;Node21 -->
<g id="edge20" class="edge"><title>Node20&#45;&gt;Node21</title>
<path fill="none" stroke="midnightblue" d="M757.129,-64C766.867,-64 776.751,-64 786.298,-64"/>
<polygon fill="midnightblue" stroke="midnightblue" points="757.055,-60.5001 747.055,-64 757.055,-67.5001 757.055,-60.5001"/>
</g>
<!-- Node23 -->
<g id="node23" class="node"><title>Node23</title>
<g id="a_node23"><a xlink:href="class_tri_devs_1_1_tri_engine_1_1_state_management_1_1_game_state.html" target="_top" xlink:title="Base GameState class that all other game states derive from, defines basic GameState behaviour...">
<polygon fill="white" stroke="black" points="390.5,-98 390.5,-128 567.5,-128 567.5,-98 390.5,-98"/>
<text text-anchor="start" x="398.5" y="-116" font-family="Helvetica,sans-Serif" font-size="10.00">TriDevs.TriEngine.StateManagement.</text>
<text text-anchor="middle" x="479" y="-105" font-family="Helvetica,sans-Serif" font-size="10.00">GameState</text>
</a>
</g>
</g>
<!-- Node22&#45;&gt;Node23 -->
<g id="edge22" class="edge"><title>Node22&#45;&gt;Node23</title>
<path fill="none" stroke="midnightblue" d="M364.01,-113C372.783,-113 381.629,-113 390.307,-113"/>
<polygon fill="midnightblue" stroke="midnightblue" points="363.759,-109.5 353.759,-113 363.759,-116.5 363.759,-109.5"/>
</g>
<!-- Node25 -->
<g id="node25" class="node"><title>Node25</title>
<g id="a_node25"><a xlink:href="class_tri_devs_1_1_tri_engine_1_1_state_management_1_1_game_state_manager.html" target="_top" xlink:title="Game state manager that keeps track of the active game states and provides methods to control the sta...">
<polygon fill="white" stroke="black" points="390.5,-0 390.5,-30 567.5,-30 567.5,-0 390.5,-0"/>
<text text-anchor="start" x="398.5" y="-18" font-family="Helvetica,sans-Serif" font-size="10.00">TriDevs.TriEngine.StateManagement.</text>
<text text-anchor="middle" x="479" y="-7" font-family="Helvetica,sans-Serif" font-size="10.00">GameStateManager</text>
</a>
</g>
</g>
<!-- Node24&#45;&gt;Node25 -->
<g id="edge24" class="edge"><title>Node24&#45;&gt;Node25</title>
<path fill="none" stroke="midnightblue" d="M364.01,-15C372.783,-15 381.629,-15 390.307,-15"/>
<polygon fill="midnightblue" stroke="midnightblue" points="363.759,-11.5001 353.759,-15 363.759,-18.5001 363.759,-11.5001"/>
</g>
<!-- Node27 -->
<g id="node27" class="node"><title>Node27</title>
<g id="a_node27"><a xlink:href="class_tri_devs_1_1_tri_engine_1_1_u_i_1_1_control.html" target="_top" xlink:title="Base control class that all other controls inherits from. Defines basic UI control behaviour...">
<polygon fill="white" stroke="black" points="410.5,-147.5 410.5,-166.5 547.5,-166.5 547.5,-147.5 410.5,-147.5"/>
<text text-anchor="middle" x="479" y="-154.5" font-family="Helvetica,sans-Serif" font-size="10.00">TriDevs.TriEngine.UI.Control</text>
</a>
</g>
</g>
<!-- Node26&#45;&gt;Node27 -->
<g id="edge26" class="edge"><title>Node26&#45;&gt;Node27</title>
<path fill="none" stroke="midnightblue" d="M345.184,-157C366.639,-157 389.664,-157 410.416,-157"/>
<polygon fill="midnightblue" stroke="midnightblue" points="345.123,-153.5 335.123,-157 345.123,-160.5 345.123,-153.5"/>
</g>
<!-- Node28 -->
<g id="node28" class="node"><title>Node28</title>
<g id="a_node28"><a xlink:href="class_tri_devs_1_1_tri_engine_1_1_u_i_1_1_label.html" target="_top" xlink:title="A simple label to display text on the screen. ">
<polygon fill="white" stroke="black" points="612,-147.5 612,-166.5 742,-166.5 742,-147.5 612,-147.5"/>
<text text-anchor="middle" x="677" y="-154.5" font-family="Helvetica,sans-Serif" font-size="10.00">TriDevs.TriEngine.UI.Label</text>
</a>
</g>
</g>
<!-- Node27&#45;&gt;Node28 -->
<g id="edge27" class="edge"><title>Node27&#45;&gt;Node28</title>
<path fill="none" stroke="midnightblue" d="M557.859,-157C575.78,-157 594.641,-157 611.901,-157"/>
<polygon fill="midnightblue" stroke="midnightblue" points="557.727,-153.5 547.727,-157 557.726,-160.5 557.727,-153.5"/>
</g>
<!-- Node29 -->
<g id="node29" class="node"><title>Node29</title>
<g id="a_node29"><a xlink:href="class_tri_devs_1_1_tri_engine_1_1_u_i_1_1_link_label.html" target="_top" xlink:title="A label that, when clicked, will open a URL. ">
<polygon fill="white" stroke="black" points="792.5,-142 792.5,-172 917.5,-172 917.5,-142 792.5,-142"/>
<text text-anchor="start" x="800.5" y="-160" font-family="Helvetica,sans-Serif" font-size="10.00">TriDevs.TriEngine.UI.Link</text>
<text text-anchor="middle" x="855" y="-149" font-family="Helvetica,sans-Serif" font-size="10.00">Label</text>
</a>
</g>
</g>
<!-- Node28&#45;&gt;Node29 -->
<g id="edge28" class="edge"><title>Node28&#45;&gt;Node29</title>
<path fill="none" stroke="midnightblue" d="M752.168,-157C765.554,-157 779.379,-157 792.36,-157"/>
<polygon fill="midnightblue" stroke="midnightblue" points="752.038,-153.5 742.038,-157 752.038,-160.5 752.038,-153.5"/>
</g>
<!-- Node30 -->
<g id="node30" class="node"><title>Node30</title>
<g id="a_node30"><a xlink:href="interface_tri_devs_1_1_tri_engine_1_1_interfaces_1_1_i_updatable.html" target="_top" xlink:title="Implements a simple update method. ">
<polygon fill="white" stroke="black" points="0,-71 0,-101 140,-101 140,-71 0,-71"/>
<text text-anchor="start" x="8" y="-89" font-family="Helvetica,sans-Serif" font-size="10.00">TriDevs.TriEngine.Interfaces.</text>
<text text-anchor="middle" x="70" y="-78" font-family="Helvetica,sans-Serif" font-size="10.00">IUpdatable</text>
</a>
</g>
</g>
<!-- Node31 -->
<g id="node31" class="node"><title>Node31</title>
<g id="a_node31"><a xlink:href="interface_tri_devs_1_1_tri_engine_1_1_interfaces_1_1_i_game_component.html" target="_top" xlink:title="A game component that can be added to IGameState objects. ">
<polygon fill="white" stroke="black" points="195,-49 195,-79 335,-79 335,-49 195,-49"/>
<text text-anchor="start" x="203" y="-67" font-family="Helvetica,sans-Serif" font-size="10.00">TriDevs.TriEngine.Interfaces.</text>
<text text-anchor="middle" x="265" y="-56" font-family="Helvetica,sans-Serif" font-size="10.00">IGameComponent</text>
</a>
</g>
</g>
<!-- Node30&#45;&gt;Node31 -->
<g id="edge29" class="edge"><title>Node30&#45;&gt;Node31</title>
<path fill="none" stroke="midnightblue" d="M150.234,-76.9681C164.98,-75.2872 180.282,-73.543 194.702,-71.8993"/>
<polygon fill="midnightblue" stroke="midnightblue" points="149.672,-73.5095 140.132,-78.1196 150.464,-80.4645 149.672,-73.5095"/>
</g>
<!-- Node30&#45;&gt;Node22 -->
<g id="edge31" class="edge"><title>Node30&#45;&gt;Node22</title>
<path fill="none" stroke="midnightblue" d="M150.203,-97.0803C158.873,-98.2931 167.735,-99.5328 176.497,-100.759"/>
<polygon fill="midnightblue" stroke="midnightblue" points="150.521,-93.5907 140.132,-95.6714 149.551,-100.523 150.521,-93.5907"/>
</g>
<!-- Node30&#45;&gt;Node24 -->
<g id="edge32" class="edge"><title>Node30&#45;&gt;Node24</title>
<path fill="none" stroke="midnightblue" d="M110.427,-66.6105C129.876,-57.4966 153.86,-46.9205 176,-39 184.946,-35.7995 194.533,-32.7809 203.968,-30.0347"/>
<polygon fill="midnightblue" stroke="midnightblue" points="108.81,-63.5038 101.272,-70.949 111.807,-69.8295 108.81,-63.5038"/>
</g>
<!-- Node30&#45;&gt;Node26 -->
<g id="edge33" class="edge"><title>Node30&#45;&gt;Node26</title>
<path fill="none" stroke="midnightblue" d="M106.899,-105.973C126.787,-116.384 152.231,-128.65 176,-137 187.678,-141.102 200.528,-144.577 212.716,-147.421"/>
<polygon fill="midnightblue" stroke="midnightblue" points="108.37,-102.792 97.8974,-101.19 105.086,-108.973 108.37,-102.792"/>
</g>
<!-- Node31&#45;&gt;Node19 -->
<g id="edge30" class="edge"><title>Node31&#45;&gt;Node19</title>
<path fill="none" stroke="midnightblue" d="M345.265,-64C366.201,-64 388.624,-64 408.971,-64"/>
<polygon fill="midnightblue" stroke="midnightblue" points="345.123,-60.5001 335.123,-64 345.123,-67.5001 345.123,-60.5001"/>
</g>
</g>
</svg>
