<?xml version="1.0" encoding="UTF-8" standalone="no"?>
<!DOCTYPE svg PUBLIC "-//W3C//DTD SVG 1.1//EN"
 "http://www.w3.org/Graphics/SVG/1.1/DTD/svg11.dtd">
<!-- Generated by graphviz version 2.30.0 (20130114.0323)
 -->
<!-- Title: Graphical Class Hierarchy Pages: 1 -->
<svg width="238pt" height="87pt"
 viewBox="0.00 0.00 238.00 87.00" xmlns="http://www.w3.org/2000/svg" xmlns:xlink="http://www.w3.org/1999/xlink">
<g id="graph0" class="graph" transform="scale(1 1) rotate(0) translate(4 83)">
<title>Graphical Class Hierarchy</title>
<polygon fill="white" stroke="white" points="-4,5 -4,-83 235,-83 235,5 -4,5"/>
<!-- Node1 -->
<g id="node1" class="node"><title>Node1</title>
<polygon fill="white" stroke="#bfbfbf" points="0.5,-29.5 0.5,-48.5 61.5,-48.5 61.5,-29.5 0.5,-29.5"/>
<text text-anchor="middle" x="31" y="-36.5" font-family="Helvetica,sans-Serif" font-size="10.00">EventArgs</text>
</g>
<!-- Node2 -->
<g id="node2" class="node"><title>Node2</title>
<g id="a_node2"><a xlink:href="class_tri_devs_1_1_tri_engine_1_1_input_1_1_events_1_1_key_char_event_args.html" target="_top" xlink:title="EventArgs class used for keychar&#45;related events. Contains information about the character related wit...">
<polygon fill="white" stroke="black" points="98.5,-49 98.5,-79 229.5,-79 229.5,-49 98.5,-49"/>
<text text-anchor="start" x="106.5" y="-67" font-family="Helvetica,sans-Serif" font-size="10.00">TriDevs.TriEngine.Input.</text>
<text text-anchor="middle" x="164" y="-56" font-family="Helvetica,sans-Serif" font-size="10.00">Events.KeyCharEventArgs</text>
</a>
</g>
</g>
<!-- Node1&#45;&gt;Node2 -->
<g id="edge1" class="edge"><title>Node1&#45;&gt;Node2</title>
<path fill="none" stroke="midnightblue" d="M71.6526,-46.5673C80.1079,-48.1809 89.2476,-49.9251 98.365,-51.6651"/>
<polygon fill="midnightblue" stroke="midnightblue" points="72.2048,-43.1096 61.7259,-44.6729 70.8925,-49.9855 72.2048,-43.1096"/>
</g>
<!-- Node3 -->
<g id="node3" class="node"><title>Node3</title>
<g id="a_node3"><a xlink:href="class_tri_devs_1_1_tri_engine_1_1_input_1_1_events_1_1_key_event_args.html" target="_top" xlink:title="EventArgs class used for key&#45;related events. Contains information about the key related with the even...">
<polygon fill="white" stroke="black" points="104.5,-0 104.5,-30 223.5,-30 223.5,-0 104.5,-0"/>
<text text-anchor="start" x="112.5" y="-18" font-family="Helvetica,sans-Serif" font-size="10.00">TriDevs.TriEngine.Input.</text>
<text text-anchor="middle" x="164" y="-7" font-family="Helvetica,sans-Serif" font-size="10.00">Events.KeyEventArgs</text>
</a>
</g>
</g>
<!-- Node1&#45;&gt;Node3 -->
<g id="edge2" class="edge"><title>Node1&#45;&gt;Node3</title>
<path fill="none" stroke="midnightblue" d="M71.6737,-31.7315C82.0099,-29.8379 93.3677,-27.7571 104.456,-25.7255"/>
<polygon fill="midnightblue" stroke="midnightblue" points="70.9315,-28.3092 61.7259,-33.554 72.193,-35.1946 70.9315,-28.3092"/>
</g>
</g>
</svg>
