<?xml version="1.0" encoding="UTF-8" standalone="no"?>
<!DOCTYPE svg PUBLIC "-//W3C//DTD SVG 1.1//EN"
 "http://www.w3.org/Graphics/SVG/1.1/DTD/svg11.dtd">
<!-- Generated by graphviz version 2.30.0 (20130114.0323)
 -->
<!-- Title: Graphical Class Hierarchy Pages: 1 -->
<svg width="936pt" height="216pt"
 viewBox="0.00 0.00 936.00 216.47" xmlns="http://www.w3.org/2000/svg" xmlns:xlink="http://www.w3.org/1999/xlink">
<g id="graph0" class="graph" transform="scale(1 1) rotate(0) translate(4 212.466)">
<title>Graphical Class Hierarchy</title>
<polygon fill="white" stroke="white" points="-4,5 -4,-212.466 933,-212.466 933,5 -4,5"/>
<!-- Node1 -->
<g id="node1" class="node"><title>Node1</title>
<g id="a_node1"><a xlink:href="interface_tri_devs_1_1_tri_engine2_d_1_1_interfaces_1_1_i_drawable.html" target="_top" xlink:title="Implements a simple draw method. ">
<polygon fill="white" stroke="black" points="0,-132 0,-162 152,-162 152,-132 0,-132"/>
<text text-anchor="start" x="8" y="-150" font-family="Helvetica,sans-Serif" font-size="10.00">TriDevs.TriEngine2D.Interfaces.</text>
<text text-anchor="middle" x="76" y="-139" font-family="Helvetica,sans-Serif" font-size="10.00">IDrawable</text>
</a>
</g>
</g>
<!-- Node2 -->
<g id="node2" class="node"><title>Node2</title>
<g id="a_node2"><a xlink:href="interface_tri_devs_1_1_tri_engine2_d_1_1_interfaces_1_1_i_drawable_game_component.html" target="_top" xlink:title="A game component that can be added to GameState objects. Drawable game components also implement a dr...">
<polygon fill="white" stroke="black" points="396,-47 396,-77 548,-77 548,-47 396,-47"/>
<text text-anchor="start" x="404" y="-65" font-family="Helvetica,sans-Serif" font-size="10.00">TriDevs.TriEngine2D.Interfaces.</text>
<text text-anchor="middle" x="472" y="-54" font-family="Helvetica,sans-Serif" font-size="10.00">IDrawableGameComponent</text>
</a>
</g>
</g>
<!-- Node1&#45;&gt;Node2 -->
<g id="edge1" class="edge"><title>Node1&#45;&gt;Node2</title>
<path fill="none" stroke="midnightblue" d="M113.69,-166.574C170.574,-193.943 281.077,-234.9 354,-184 392.049,-157.442 356.156,-117.744 390,-86 393.637,-82.5885 397.737,-79.6598 402.112,-77.1459"/>
<polygon fill="midnightblue" stroke="midnightblue" points="115.221,-163.427 104.704,-162.148 112.128,-169.706 115.221,-163.427"/>
</g>
<!-- Node5 -->
<g id="node5" class="node"><title>Node5</title>
<g id="a_node5"><a xlink:href="interface_tri_devs_1_1_tri_engine2_d_1_1_state_management_1_1_i_game_state.html" target="_top" xlink:title="A game state that can be used with the game state manager. Represent a specific state of the game...">
<polygon fill="white" stroke="black" points="206,-145 206,-175 336,-175 336,-145 206,-145"/>
<text text-anchor="start" x="214" y="-163" font-family="Helvetica,sans-Serif" font-size="10.00">TriDevs.TriEngine2D.State</text>
<text text-anchor="middle" x="271" y="-152" font-family="Helvetica,sans-Serif" font-size="10.00">Management.IGameState</text>
</a>
</g>
</g>
<!-- Node1&#45;&gt;Node5 -->
<g id="edge4" class="edge"><title>Node1&#45;&gt;Node5</title>
<path fill="none" stroke="midnightblue" d="M162.264,-152.743C176.947,-153.732 191.983,-154.745 205.985,-155.688"/>
<polygon fill="midnightblue" stroke="midnightblue" points="162.384,-149.243 152.171,-152.063 161.914,-156.228 162.384,-149.243"/>
</g>
<!-- Node7 -->
<g id="node7" class="node"><title>Node7</title>
<g id="a_node7"><a xlink:href="interface_tri_devs_1_1_tri_engine2_d_1_1_state_management_1_1_i_game_state_manager.html" target="_top" xlink:title="Game state manager that keeps track of the active game states and provides methods to control the sta...">
<polygon fill="white" stroke="black" points="188.5,-96 188.5,-126 353.5,-126 353.5,-96 188.5,-96"/>
<text text-anchor="start" x="196.5" y="-114" font-family="Helvetica,sans-Serif" font-size="10.00">TriDevs.TriEngine2D.State</text>
<text text-anchor="middle" x="271" y="-103" font-family="Helvetica,sans-Serif" font-size="10.00">Management.IGameStateManager</text>
</a>
</g>
</g>
<!-- Node1&#45;&gt;Node7 -->
<g id="edge6" class="edge"><title>Node1&#45;&gt;Node7</title>
<path fill="none" stroke="midnightblue" d="M162.246,-131.099C171.234,-129.423 180.354,-127.722 189.289,-126.055"/>
<polygon fill="midnightblue" stroke="midnightblue" points="161.36,-127.704 152.171,-132.978 162.644,-134.585 161.36,-127.704"/>
</g>
<!-- Node9 -->
<g id="node9" class="node"><title>Node9</title>
<g id="a_node9"><a xlink:href="interface_tri_devs_1_1_tri_engine2_d_1_1_u_i_1_1_i_control.html" target="_top" xlink:title="A UI control that can be drawn on screen and interacted with. ">
<polygon fill="white" stroke="black" points="195,-8.5 195,-27.5 347,-27.5 347,-8.5 195,-8.5"/>
<text text-anchor="middle" x="271" y="-15.5" font-family="Helvetica,sans-Serif" font-size="10.00">TriDevs.TriEngine2D.UI.IControl</text>
</a>
</g>
</g>
<!-- Node1&#45;&gt;Node9 -->
<g id="edge8" class="edge"><title>Node1&#45;&gt;Node9</title>
<path fill="none" stroke="midnightblue" d="M115.653,-126.486C128.185,-118.658 141.538,-108.95 152,-98 173.747,-75.2388 162.613,-55.6142 188,-37 193.303,-33.1117 199.276,-30.0032 205.518,-27.5207"/>
<polygon fill="midnightblue" stroke="midnightblue" points="113.499,-123.697 106.727,-131.844 117.102,-129.699 113.499,-123.697"/>
</g>
<!-- Node3 -->
<g id="node3" class="node"><title>Node3</title>
<g id="a_node3"><a xlink:href="interface_tri_devs_1_1_tri_engine2_d_1_1_u_i_1_1_i_control_manager.html" target="_top" xlink:title="Manages various UI controls, automatically updating and drawing them to the screen. ">
<polygon fill="white" stroke="black" points="590,-48 590,-78 742,-78 742,-48 590,-48"/>
<text text-anchor="start" x="598" y="-66" font-family="Helvetica,sans-Serif" font-size="10.00">TriDevs.TriEngine2D.UI.IControl</text>
<text text-anchor="middle" x="666" y="-55" font-family="Helvetica,sans-Serif" font-size="10.00">Manager</text>
</a>
</g>
</g>
<!-- Node2&#45;&gt;Node3 -->
<g id="edge2" class="edge"><title>Node2&#45;&gt;Node3</title>
<path fill="none" stroke="midnightblue" d="M558.157,-62.4435C568.767,-62.4988 579.555,-62.555 589.995,-62.6093"/>
<polygon fill="midnightblue" stroke="midnightblue" points="558.075,-58.9432 548.057,-62.3909 558.039,-65.9431 558.075,-58.9432"/>
</g>
<!-- Node4 -->
<g id="node4" class="node"><title>Node4</title>
<g id="a_node4"><a xlink:href="class_tri_devs_1_1_tri_engine2_d_1_1_u_i_1_1_control_manager.html" target="_top" xlink:title="Control manager to manage various UI controls for a game. ">
<polygon fill="white" stroke="black" points="778.5,-49 778.5,-79 927.5,-79 927.5,-49 778.5,-49"/>
<text text-anchor="start" x="786.5" y="-67" font-family="Helvetica,sans-Serif" font-size="10.00">TriDevs.TriEngine2D.UI.Control</text>
<text text-anchor="middle" x="853" y="-56" font-family="Helvetica,sans-Serif" font-size="10.00">Manager</text>
</a>
</g>
</g>
<!-- Node3&#45;&gt;Node4 -->
<g id="edge3" class="edge"><title>Node3&#45;&gt;Node4</title>
<path fill="none" stroke="midnightblue" d="M752.366,-63.4614C761.035,-63.5083 769.788,-63.5556 778.318,-63.6017"/>
<polygon fill="midnightblue" stroke="midnightblue" points="752.265,-59.9609 742.247,-63.4067 752.227,-66.9608 752.265,-59.9609"/>
</g>
<!-- Node6 -->
<g id="node6" class="node"><title>Node6</title>
<g id="a_node6"><a xlink:href="class_tri_devs_1_1_tri_engine2_d_1_1_state_management_1_1_game_state.html" target="_top" xlink:title="Base GameState class that all other game states derive from, defines basic GameState behaviour...">
<polygon fill="white" stroke="black" points="407,-145 407,-175 537,-175 537,-145 407,-145"/>
<text text-anchor="start" x="415" y="-163" font-family="Helvetica,sans-Serif" font-size="10.00">TriDevs.TriEngine2D.State</text>
<text text-anchor="middle" x="472" y="-152" font-family="Helvetica,sans-Serif" font-size="10.00">Management.GameState</text>
</a>
</g>
</g>
<!-- Node5&#45;&gt;Node6 -->
<g id="edge5" class="edge"><title>Node5&#45;&gt;Node6</title>
<path fill="none" stroke="midnightblue" d="M346.296,-160C366.156,-160 387.449,-160 406.719,-160"/>
<polygon fill="midnightblue" stroke="midnightblue" points="346.06,-156.5 336.06,-160 346.06,-163.5 346.06,-156.5"/>
</g>
<!-- Node8 -->
<g id="node8" class="node"><title>Node8</title>
<g id="a_node8"><a xlink:href="class_tri_devs_1_1_tri_engine2_d_1_1_state_management_1_1_game_state_manager.html" target="_top" xlink:title="Game state manager that keeps track of the active game states and provides methods to control the sta...">
<polygon fill="white" stroke="black" points="390.5,-96 390.5,-126 553.5,-126 553.5,-96 390.5,-96"/>
<text text-anchor="start" x="398.5" y="-114" font-family="Helvetica,sans-Serif" font-size="10.00">TriDevs.TriEngine2D.State</text>
<text text-anchor="middle" x="472" y="-103" font-family="Helvetica,sans-Serif" font-size="10.00">Management.GameStateManager</text>
</a>
</g>
</g>
<!-- Node7&#45;&gt;Node8 -->
<g id="edge7" class="edge"><title>Node7&#45;&gt;Node8</title>
<path fill="none" stroke="midnightblue" d="M363.532,-111C372.45,-111 381.454,-111 390.255,-111"/>
<polygon fill="midnightblue" stroke="midnightblue" points="363.515,-107.5 353.515,-111 363.515,-114.5 363.515,-107.5"/>
</g>
<!-- Node10 -->
<g id="node10" class="node"><title>Node10</title>
<g id="a_node10"><a xlink:href="class_tri_devs_1_1_tri_engine2_d_1_1_u_i_1_1_control.html" target="_top" xlink:title="Base control class that all other controls inherits from. Defines basic UI control behaviour...">
<polygon fill="white" stroke="black" points="397.5,-7.5 397.5,-26.5 546.5,-26.5 546.5,-7.5 397.5,-7.5"/>
<text text-anchor="middle" x="472" y="-14.5" font-family="Helvetica,sans-Serif" font-size="10.00">TriDevs.TriEngine2D.UI.Control</text>
</a>
</g>
</g>
<!-- Node9&#45;&gt;Node10 -->
<g id="edge9" class="edge"><title>Node9&#45;&gt;Node10</title>
<path fill="none" stroke="midnightblue" d="M357.327,-17.5712C370.635,-17.5043 384.288,-17.4357 397.308,-17.3703"/>
<polygon fill="midnightblue" stroke="midnightblue" points="357.216,-14.0716 347.233,-17.6219 357.251,-21.0715 357.216,-14.0716"/>
</g>
<!-- Node11 -->
<g id="node11" class="node"><title>Node11</title>
<g id="a_node11"><a xlink:href="class_tri_devs_1_1_tri_engine2_d_1_1_u_i_1_1_label.html" target="_top" xlink:title="A simple label to display text on the screen. ">
<polygon fill="white" stroke="black" points="595,-7.5 595,-26.5 737,-26.5 737,-7.5 595,-7.5"/>
<text text-anchor="middle" x="666" y="-14.5" font-family="Helvetica,sans-Serif" font-size="10.00">TriDevs.TriEngine2D.UI.Label</text>
</a>
</g>
</g>
<!-- Node10&#45;&gt;Node11 -->
<g id="edge10" class="edge"><title>Node10&#45;&gt;Node11</title>
<path fill="none" stroke="midnightblue" d="M556.819,-17C569.556,-17 582.585,-17 594.988,-17"/>
<polygon fill="midnightblue" stroke="midnightblue" points="556.683,-13.5001 546.683,-17 556.683,-20.5001 556.683,-13.5001"/>
</g>
<!-- Node12 -->
<g id="node12" class="node"><title>Node12</title>
<g id="a_node12"><a xlink:href="class_tri_devs_1_1_tri_engine2_d_1_1_u_i_1_1_link_label.html" target="_top" xlink:title="A label that, when clicked, will open a URL. ">
<polygon fill="white" stroke="black" points="784.5,-0 784.5,-30 921.5,-30 921.5,-0 784.5,-0"/>
<text text-anchor="start" x="792.5" y="-18" font-family="Helvetica,sans-Serif" font-size="10.00">TriDevs.TriEngine2D.UI.Link</text>
<text text-anchor="middle" x="853" y="-7" font-family="Helvetica,sans-Serif" font-size="10.00">Label</text>
</a>
</g>
</g>
<!-- Node11&#45;&gt;Node12 -->
<g id="edge11" class="edge"><title>Node11&#45;&gt;Node12</title>
<path fill="none" stroke="midnightblue" d="M747.44,-16.1304C759.73,-15.9975 772.309,-15.8615 784.289,-15.732"/>
<polygon fill="midnightblue" stroke="midnightblue" points="747.166,-12.633 737.204,-16.241 747.242,-19.6326 747.166,-12.633"/>
</g>
<!-- Node13 -->
<g id="node13" class="node"><title>Node13</title>
<g id="a_node13"><a xlink:href="interface_tri_devs_1_1_tri_engine2_d_1_1_interfaces_1_1_i_updatable.html" target="_top" xlink:title="Implements a simple update method. ">
<polygon fill="white" stroke="black" points="0,-59 0,-89 152,-89 152,-59 0,-59"/>
<text text-anchor="start" x="8" y="-77" font-family="Helvetica,sans-Serif" font-size="10.00">TriDevs.TriEngine2D.Interfaces.</text>
<text text-anchor="middle" x="76" y="-66" font-family="Helvetica,sans-Serif" font-size="10.00">IUpdatable</text>
</a>
</g>
</g>
<!-- Node14 -->
<g id="node14" class="node"><title>Node14</title>
<g id="a_node14"><a xlink:href="interface_tri_devs_1_1_tri_engine2_d_1_1_interfaces_1_1_i_game_component.html" target="_top" xlink:title="A game component that can be added to IGameState objects. ">
<polygon fill="white" stroke="black" points="195,-47 195,-77 347,-77 347,-47 195,-47"/>
<text text-anchor="start" x="203" y="-65" font-family="Helvetica,sans-Serif" font-size="10.00">TriDevs.TriEngine2D.Interfaces.</text>
<text text-anchor="middle" x="271" y="-54" font-family="Helvetica,sans-Serif" font-size="10.00">IGameComponent</text>
</a>
</g>
</g>
<!-- Node13&#45;&gt;Node14 -->
<g id="edge12" class="edge"><title>Node13&#45;&gt;Node14</title>
<path fill="none" stroke="midnightblue" d="M162.415,-68.6892C173.177,-68.0201 184.126,-67.3393 194.716,-66.6809"/>
<polygon fill="midnightblue" stroke="midnightblue" points="161.935,-65.2122 152.171,-69.3261 162.369,-72.1987 161.935,-65.2122"/>
</g>
<!-- Node13&#45;&gt;Node5 -->
<g id="edge14" class="edge"><title>Node13&#45;&gt;Node5</title>
<path fill="none" stroke="midnightblue" d="M109.741,-94.3388C131.385,-107.189 160.7,-123.483 188,-135 196.502,-138.587 205.695,-141.902 214.747,-144.868"/>
<polygon fill="midnightblue" stroke="midnightblue" points="111.338,-91.2149 100.963,-89.0662 107.733,-97.2157 111.338,-91.2149"/>
</g>
<!-- Node13&#45;&gt;Node7 -->
<g id="edge15" class="edge"><title>Node13&#45;&gt;Node7</title>
<path fill="none" stroke="midnightblue" d="M162.249,-90.343C171.989,-92.2103 181.884,-94.1073 191.53,-95.9565"/>
<polygon fill="midnightblue" stroke="midnightblue" points="162.652,-86.8566 152.171,-88.4111 161.334,-93.7314 162.652,-86.8566"/>
</g>
<!-- Node13&#45;&gt;Node9 -->
<g id="edge16" class="edge"><title>Node13&#45;&gt;Node9</title>
<path fill="none" stroke="midnightblue" d="M128.607,-55.6764C147.209,-49.3697 168.437,-42.5138 188,-37 199.955,-33.6304 213.012,-30.4038 225.12,-27.5966"/>
<polygon fill="midnightblue" stroke="midnightblue" points="127.47,-52.3661 119.141,-58.9143 129.736,-58.9893 127.47,-52.3661"/>
</g>
<!-- Node14&#45;&gt;Node2 -->
<g id="edge13" class="edge"><title>Node14&#45;&gt;Node2</title>
<path fill="none" stroke="midnightblue" d="M357.434,-62C370.26,-62 383.404,-62 395.99,-62"/>
<polygon fill="midnightblue" stroke="midnightblue" points="357.233,-58.5001 347.233,-62 357.233,-65.5001 357.233,-58.5001"/>
</g>
</g>
</svg>
