<?xml version="1.0" encoding="UTF-8" standalone="no"?>
<!DOCTYPE svg PUBLIC "-//W3C//DTD SVG 1.1//EN"
 "http://www.w3.org/Graphics/SVG/1.1/DTD/svg11.dtd">
<!-- Generated by graphviz version 2.30.0 (20130114.0323)
 -->
<!-- Title: Graphical Class Hierarchy Pages: 1 -->
<svg width="300pt" height="38pt"
 viewBox="0.00 0.00 300.00 38.00" xmlns="http://www.w3.org/2000/svg" xmlns:xlink="http://www.w3.org/1999/xlink">
<g id="graph0" class="graph" transform="scale(1 1) rotate(0) translate(4 34)">
<title>Graphical Class Hierarchy</title>
<polygon fill="white" stroke="white" points="-4,5 -4,-34 297,-34 297,5 -4,5"/>
<!-- Node1 -->
<g id="node1" class="node"><title>Node1</title>
<g id="a_node1"><a xlink:href="interface_tri_devs_1_1_tri_engine2_d_1_1_text_1_1_i_text_object.html" target="_top" xlink:title="Implements methods to construct a text object and render it to screen. ">
<polygon fill="white" stroke="black" points="0,-0 0,-30 128,-30 128,-0 0,-0"/>
<text text-anchor="start" x="8" y="-18" font-family="Helvetica,sans-Serif" font-size="10.00">TriDevs.TriEngine2D.Text.</text>
<text text-anchor="middle" x="64" y="-7" font-family="Helvetica,sans-Serif" font-size="10.00">ITextObject</text>
</a>
</g>
</g>
<!-- Node2 -->
<g id="node2" class="node"><title>Node2</title>
<g id="a_node2"><a xlink:href="class_tri_devs_1_1_tri_engine2_d_1_1_text_1_1_text_object.html" target="_top" xlink:title="Implements the ITextObject interface. ">
<polygon fill="white" stroke="black" points="164,-0 164,-30 292,-30 292,-0 164,-0"/>
<text text-anchor="start" x="172" y="-18" font-family="Helvetica,sans-Serif" font-size="10.00">TriDevs.TriEngine2D.Text.</text>
<text text-anchor="middle" x="228" y="-7" font-family="Helvetica,sans-Serif" font-size="10.00">TextObject</text>
</a>
</g>
</g>
<!-- Node1&#45;&gt;Node2 -->
<g id="edge1" class="edge"><title>Node1&#45;&gt;Node2</title>
<path fill="none" stroke="midnightblue" d="M138.374,-15C146.865,-15 155.469,-15 163.808,-15"/>
<polygon fill="midnightblue" stroke="midnightblue" points="138.097,-11.5001 128.097,-15 138.097,-18.5001 138.097,-11.5001"/>
</g>
</g>
</svg>
