<?xml version="1.0" encoding="UTF-8" standalone="no"?>
<!DOCTYPE svg PUBLIC "-//W3C//DTD SVG 1.1//EN"
 "http://www.w3.org/Graphics/SVG/1.1/DTD/svg11.dtd">
<!-- Generated by graphviz version 2.30.0 (20130114.0323)
 -->
<!-- Title: Graphical Class Hierarchy Pages: 1 -->
<svg width="452pt" height="312pt"
 viewBox="0.00 0.00 452.00 312.00" xmlns="http://www.w3.org/2000/svg" xmlns:xlink="http://www.w3.org/1999/xlink">
<g id="graph0" class="graph" transform="scale(1 1) rotate(0) translate(4 308)">
<title>Graphical Class Hierarchy</title>
<polygon fill="white" stroke="white" points="-4,5 -4,-308 449,-308 449,5 -4,5"/>
<!-- Node1 -->
<g id="node1" class="node"><title>Node1</title>
<polygon fill="white" stroke="#bfbfbf" points="0.5,-93.5 0.5,-112.5 67.5,-112.5 67.5,-93.5 0.5,-93.5"/>
<text text-anchor="middle" x="34" y="-100.5" font-family="Helvetica,sans-Serif" font-size="10.00">IDisposable</text>
</g>
<!-- Node2 -->
<g id="node2" class="node"><title>Node2</title>
<g id="a_node2"><a xlink:href="interface_tri_devs_1_1_tri_engine2_d_1_1_audio_1_1_i_audio_manager.html" target="_top" xlink:title="Provides various methods to manipulate audio. ">
<polygon fill="white" stroke="black" points="110,-225 110,-255 244,-255 244,-225 110,-225"/>
<text text-anchor="start" x="118" y="-243" font-family="Helvetica,sans-Serif" font-size="10.00">TriDevs.TriEngine2D.Audio.</text>
<text text-anchor="middle" x="177" y="-232" font-family="Helvetica,sans-Serif" font-size="10.00">IAudioManager</text>
</a>
</g>
</g>
<!-- Node1&#45;&gt;Node2 -->
<g id="edge1" class="edge"><title>Node1&#45;&gt;Node2</title>
<path fill="none" stroke="midnightblue" d="M50.5233,-120.255C64.2486,-135.307 84.9876,-157.561 104,-176 121.888,-193.349 143.344,-212.183 158.155,-224.897"/>
<polygon fill="midnightblue" stroke="midnightblue" points="52.9856,-117.76 43.6752,-112.703 47.8002,-122.462 52.9856,-117.76"/>
</g>
<!-- Node5 -->
<g id="node5" class="node"><title>Node5</title>
<g id="a_node5"><a xlink:href="interface_tri_devs_1_1_tri_engine2_d_1_1_audio_1_1_i_song.html" target="_top" xlink:title="A song that will be streamed in the audio player. ">
<polygon fill="white" stroke="black" points="110,-137 110,-167 244,-167 244,-137 110,-137"/>
<text text-anchor="start" x="118" y="-155" font-family="Helvetica,sans-Serif" font-size="10.00">TriDevs.TriEngine2D.Audio.</text>
<text text-anchor="middle" x="177" y="-144" font-family="Helvetica,sans-Serif" font-size="10.00">ISong</text>
</a>
</g>
</g>
<!-- Node1&#45;&gt;Node5 -->
<g id="edge4" class="edge"><title>Node1&#45;&gt;Node5</title>
<path fill="none" stroke="midnightblue" d="M72.1006,-115.909C82.4279,-119.501 93.6502,-123.403 104,-127 113.249,-130.214 123.167,-133.659 132.595,-136.933"/>
<polygon fill="midnightblue" stroke="midnightblue" points="73.126,-112.56 62.5312,-112.58 70.8262,-119.171 73.126,-112.56"/>
</g>
<!-- Node8 -->
<g id="node8" class="node"><title>Node8</title>
<g id="a_node8"><a xlink:href="interface_tri_devs_1_1_tri_engine2_d_1_1_audio_1_1_i_sound.html" target="_top" xlink:title="A sound file for use with the audio manager. ">
<polygon fill="white" stroke="black" points="110,-88 110,-118 244,-118 244,-88 110,-88"/>
<text text-anchor="start" x="118" y="-106" font-family="Helvetica,sans-Serif" font-size="10.00">TriDevs.TriEngine2D.Audio.</text>
<text text-anchor="middle" x="177" y="-95" font-family="Helvetica,sans-Serif" font-size="10.00">ISound</text>
</a>
</g>
</g>
<!-- Node1&#45;&gt;Node8 -->
<g id="edge7" class="edge"><title>Node1&#45;&gt;Node8</title>
<path fill="none" stroke="midnightblue" d="M77.8686,-103C87.9785,-103 98.989,-103 109.861,-103"/>
<polygon fill="midnightblue" stroke="midnightblue" points="77.7027,-99.5001 67.7026,-103 77.7026,-106.5 77.7027,-99.5001"/>
</g>
<!-- Node11 -->
<g id="node11" class="node"><title>Node11</title>
<g id="a_node11"><a xlink:href="class_tri_devs_1_1_tri_engine2_d_1_1_program.html" target="_top" xlink:title="An OpenGL program. ">
<polygon fill="white" stroke="black" points="105.5,-49.5 105.5,-68.5 248.5,-68.5 248.5,-49.5 105.5,-49.5"/>
<text text-anchor="middle" x="177" y="-56.5" font-family="Helvetica,sans-Serif" font-size="10.00">TriDevs.TriEngine2D.Program</text>
</a>
</g>
</g>
<!-- Node1&#45;&gt;Node11 -->
<g id="edge10" class="edge"><title>Node1&#45;&gt;Node11</title>
<path fill="none" stroke="midnightblue" d="M69.3985,-89.8507C80.3844,-85.8363 92.6404,-81.5489 104,-78 114.736,-74.6461 126.49,-71.3774 137.331,-68.5233"/>
<polygon fill="midnightblue" stroke="midnightblue" points="67.8907,-86.6768 59.7285,-93.4318 70.3216,-93.2411 67.8907,-86.6768"/>
</g>
<!-- Node12 -->
<g id="node12" class="node"><title>Node12</title>
<g id="a_node12"><a xlink:href="class_tri_devs_1_1_tri_engine2_d_1_1_shaders_1_1_shader.html" target="_top" xlink:title="GLSL shader object loaded and compiled from a *.glsl shader file. ">
<polygon fill="white" stroke="black" points="104,-0 104,-30 250,-30 250,-0 104,-0"/>
<text text-anchor="start" x="112" y="-18" font-family="Helvetica,sans-Serif" font-size="10.00">TriDevs.TriEngine2D.Shaders.</text>
<text text-anchor="middle" x="177" y="-7" font-family="Helvetica,sans-Serif" font-size="10.00">Shader</text>
</a>
</g>
</g>
<!-- Node1&#45;&gt;Node12 -->
<g id="edge11" class="edge"><title>Node1&#45;&gt;Node12</title>
<path fill="none" stroke="midnightblue" d="M50.2557,-85.6061C63.3203,-71.6265 83.2616,-52.3492 104,-40 110.253,-36.2765 117.142,-32.999 124.106,-30.1477"/>
<polygon fill="midnightblue" stroke="midnightblue" points="47.5478,-83.3816 43.4041,-93.1326 52.7241,-88.0939 47.5478,-83.3816"/>
</g>
<!-- Node3 -->
<g id="node3" class="node"><title>Node3</title>
<g id="a_node3"><a xlink:href="class_tri_devs_1_1_tri_engine2_d_1_1_audio_1_1_audio_manager.html" target="_top" xlink:title="Class to manage engine audio. ">
<polygon fill="white" stroke="black" points="298,-274 298,-304 432,-304 432,-274 298,-274"/>
<text text-anchor="start" x="306" y="-292" font-family="Helvetica,sans-Serif" font-size="10.00">TriDevs.TriEngine2D.Audio.</text>
<text text-anchor="middle" x="365" y="-281" font-family="Helvetica,sans-Serif" font-size="10.00">AudioManager</text>
</a>
</g>
</g>
<!-- Node2&#45;&gt;Node3 -->
<g id="edge2" class="edge"><title>Node2&#45;&gt;Node3</title>
<path fill="none" stroke="midnightblue" d="M244.895,-257.623C265.244,-262.984 287.408,-268.823 307.038,-273.994"/>
<polygon fill="midnightblue" stroke="midnightblue" points="245.632,-254.198 235.07,-255.035 243.849,-260.967 245.632,-254.198"/>
</g>
<!-- Node4 -->
<g id="node4" class="node"><title>Node4</title>
<g id="a_node4"><a xlink:href="class_tri_devs_1_1_tri_engine2_d_1_1_audio_1_1_null_audio_manager.html" target="_top" xlink:title="Used as a fallback AudioManager object when the service locator fails to find one. ">
<polygon fill="white" stroke="black" points="298,-225 298,-255 432,-255 432,-225 298,-225"/>
<text text-anchor="start" x="306" y="-243" font-family="Helvetica,sans-Serif" font-size="10.00">TriDevs.TriEngine2D.Audio.</text>
<text text-anchor="middle" x="365" y="-232" font-family="Helvetica,sans-Serif" font-size="10.00">NullAudioManager</text>
</a>
</g>
</g>
<!-- Node2&#45;&gt;Node4 -->
<g id="edge3" class="edge"><title>Node2&#45;&gt;Node4</title>
<path fill="none" stroke="midnightblue" d="M254.455,-240C268.836,-240 283.763,-240 297.799,-240"/>
<polygon fill="midnightblue" stroke="midnightblue" points="254.1,-236.5 244.1,-240 254.1,-243.5 254.1,-236.5"/>
</g>
<!-- Node6 -->
<g id="node6" class="node"><title>Node6</title>
<g id="a_node6"><a xlink:href="class_tri_devs_1_1_tri_engine2_d_1_1_audio_1_1_null_song.html" target="_top" xlink:title="Fallback song class used in NullAudioManager. ">
<polygon fill="white" stroke="black" points="298,-176 298,-206 432,-206 432,-176 298,-176"/>
<text text-anchor="start" x="306" y="-194" font-family="Helvetica,sans-Serif" font-size="10.00">TriDevs.TriEngine2D.Audio.</text>
<text text-anchor="middle" x="365" y="-183" font-family="Helvetica,sans-Serif" font-size="10.00">NullSong</text>
</a>
</g>
</g>
<!-- Node5&#45;&gt;Node6 -->
<g id="edge5" class="edge"><title>Node5&#45;&gt;Node6</title>
<path fill="none" stroke="midnightblue" d="M254.037,-167.943C268.547,-170.986 283.627,-174.148 297.799,-177.119"/>
<polygon fill="midnightblue" stroke="midnightblue" points="254.606,-164.486 244.1,-165.86 253.169,-171.337 254.606,-164.486"/>
</g>
<!-- Node7 -->
<g id="node7" class="node"><title>Node7</title>
<g id="a_node7"><a xlink:href="class_tri_devs_1_1_tri_engine2_d_1_1_audio_1_1_song.html" target="_top" xlink:title="Song class that can be used with AudioManager. ">
<polygon fill="white" stroke="black" points="286.5,-137.5 286.5,-156.5 443.5,-156.5 443.5,-137.5 286.5,-137.5"/>
<text text-anchor="middle" x="365" y="-144.5" font-family="Helvetica,sans-Serif" font-size="10.00">TriDevs.TriEngine2D.Audio.Song</text>
</a>
</g>
</g>
<!-- Node5&#45;&gt;Node7 -->
<g id="edge6" class="edge"><title>Node5&#45;&gt;Node7</title>
<path fill="none" stroke="midnightblue" d="M254.169,-149.952C264.788,-149.667 275.709,-149.373 286.355,-149.087"/>
<polygon fill="midnightblue" stroke="midnightblue" points="254.003,-146.456 244.1,-150.223 254.191,-153.453 254.003,-146.456"/>
</g>
<!-- Node9 -->
<g id="node9" class="node"><title>Node9</title>
<g id="a_node9"><a xlink:href="class_tri_devs_1_1_tri_engine2_d_1_1_audio_1_1_null_sound.html" target="_top" xlink:title="Fallback sound class used in NullAudioManager. ">
<polygon fill="white" stroke="black" points="298,-88 298,-118 432,-118 432,-88 298,-88"/>
<text text-anchor="start" x="306" y="-106" font-family="Helvetica,sans-Serif" font-size="10.00">TriDevs.TriEngine2D.Audio.</text>
<text text-anchor="middle" x="365" y="-95" font-family="Helvetica,sans-Serif" font-size="10.00">NullSound</text>
</a>
</g>
</g>
<!-- Node8&#45;&gt;Node9 -->
<g id="edge8" class="edge"><title>Node8&#45;&gt;Node9</title>
<path fill="none" stroke="midnightblue" d="M254.455,-103C268.836,-103 283.763,-103 297.799,-103"/>
<polygon fill="midnightblue" stroke="midnightblue" points="254.1,-99.5001 244.1,-103 254.1,-106.5 254.1,-99.5001"/>
</g>
<!-- Node10 -->
<g id="node10" class="node"><title>Node10</title>
<g id="a_node10"><a xlink:href="class_tri_devs_1_1_tri_engine2_d_1_1_audio_1_1_sound.html" target="_top" xlink:title="Sound class that can be used with the AudioManager. ">
<polygon fill="white" stroke="black" points="298,-39 298,-69 432,-69 432,-39 298,-39"/>
<text text-anchor="start" x="306" y="-57" font-family="Helvetica,sans-Serif" font-size="10.00">TriDevs.TriEngine2D.Audio.</text>
<text text-anchor="middle" x="365" y="-46" font-family="Helvetica,sans-Serif" font-size="10.00">Sound</text>
</a>
</g>
</g>
<!-- Node8&#45;&gt;Node10 -->
<g id="edge9" class="edge"><title>Node8&#45;&gt;Node10</title>
<path fill="none" stroke="midnightblue" d="M244.895,-85.3771C265.244,-80.0163 287.408,-74.1775 307.038,-69.0062"/>
<polygon fill="midnightblue" stroke="midnightblue" points="243.849,-82.0333 235.07,-87.9654 245.632,-88.8023 243.849,-82.0333"/>
</g>
</g>
</svg>
