<?xml version="1.0" encoding="UTF-8" standalone="no"?>
<!DOCTYPE svg PUBLIC "-//W3C//DTD SVG 1.1//EN"
 "http://www.w3.org/Graphics/SVG/1.1/DTD/svg11.dtd">
<!-- Generated by graphviz version 2.30.0 (20130114.0323)
 -->
<!-- Title: Graphical Class Hierarchy Pages: 1 -->
<svg width="936pt" height="584pt"
 viewBox="0.00 0.00 936.00 584.00" xmlns="http://www.w3.org/2000/svg" xmlns:xlink="http://www.w3.org/1999/xlink">
<g id="graph0" class="graph" transform="scale(1 1) rotate(0) translate(4 580)">
<title>Graphical Class Hierarchy</title>
<polygon fill="white" stroke="white" points="-4,5 -4,-580 933,-580 933,5 -4,5"/>
<!-- Node1 -->
<g id="node1" class="node"><title>Node1</title>
<polygon fill="white" stroke="#bfbfbf" points="42.5,-375.5 42.5,-394.5 109.5,-394.5 109.5,-375.5 42.5,-375.5"/>
<text text-anchor="middle" x="76" y="-382.5" font-family="Helvetica,sans-Serif" font-size="10.00">IDisposable</text>
</g>
<!-- Node2 -->
<g id="node2" class="node"><title>Node2</title>
<g id="a_node2"><a xlink:href="interface_tri_devs_1_1_tri_engine2_d_1_1_audio_1_1_i_audio_manager.html" target="_top" xlink:title="Provides various methods to manipulate audio. ">
<polygon fill="white" stroke="black" points="204,-478 204,-508 338,-508 338,-478 204,-478"/>
<text text-anchor="start" x="212" y="-496" font-family="Helvetica,sans-Serif" font-size="10.00">TriDevs.TriEngine2D.Audio.</text>
<text text-anchor="middle" x="271" y="-485" font-family="Helvetica,sans-Serif" font-size="10.00">IAudioManager</text>
</a>
</g>
</g>
<!-- Node1&#45;&gt;Node2 -->
<g id="edge1" class="edge"><title>Node1&#45;&gt;Node2</title>
<path fill="none" stroke="midnightblue" d="M98.0603,-400.489C119.883,-416.142 155.313,-440.457 188,-458 201.502,-465.247 216.824,-472.123 230.54,-477.831"/>
<polygon fill="midnightblue" stroke="midnightblue" points="100.011,-397.581 89.8577,-394.553 95.9069,-403.251 100.011,-397.581"/>
</g>
<!-- Node5 -->
<g id="node5" class="node"><title>Node5</title>
<g id="a_node5"><a xlink:href="interface_tri_devs_1_1_tri_engine2_d_1_1_audio_1_1_i_song.html" target="_top" xlink:title="A song that will be streamed in the audio player. ">
<polygon fill="white" stroke="black" points="204,-419 204,-449 338,-449 338,-419 204,-419"/>
<text text-anchor="start" x="212" y="-437" font-family="Helvetica,sans-Serif" font-size="10.00">TriDevs.TriEngine2D.Audio.</text>
<text text-anchor="middle" x="271" y="-426" font-family="Helvetica,sans-Serif" font-size="10.00">ISong</text>
</a>
</g>
</g>
<!-- Node1&#45;&gt;Node5 -->
<g id="edge4" class="edge"><title>Node1&#45;&gt;Node5</title>
<path fill="none" stroke="midnightblue" d="M119.591,-395.813C146.413,-402.623 181.417,-411.51 210.907,-418.997"/>
<polygon fill="midnightblue" stroke="midnightblue" points="120.294,-392.381 109.74,-393.312 118.571,-399.165 120.294,-392.381"/>
</g>
<!-- Node8 -->
<g id="node8" class="node"><title>Node8</title>
<g id="a_node8"><a xlink:href="interface_tri_devs_1_1_tri_engine2_d_1_1_audio_1_1_i_sound.html" target="_top" xlink:title="A sound file for use with the audio manager. ">
<polygon fill="white" stroke="black" points="204,-370 204,-400 338,-400 338,-370 204,-370"/>
<text text-anchor="start" x="212" y="-388" font-family="Helvetica,sans-Serif" font-size="10.00">TriDevs.TriEngine2D.Audio.</text>
<text text-anchor="middle" x="271" y="-377" font-family="Helvetica,sans-Serif" font-size="10.00">ISound</text>
</a>
</g>
</g>
<!-- Node1&#45;&gt;Node8 -->
<g id="edge7" class="edge"><title>Node1&#45;&gt;Node8</title>
<path fill="none" stroke="midnightblue" d="M119.86,-385C144.524,-385 176.04,-385 203.823,-385"/>
<polygon fill="midnightblue" stroke="midnightblue" points="119.74,-381.5 109.74,-385 119.74,-388.5 119.74,-381.5"/>
</g>
<!-- Node11 -->
<g id="node11" class="node"><title>Node11</title>
<g id="a_node11"><a xlink:href="class_tri_devs_1_1_tri_engine2_d_1_1_graphics_1_1_rectangle.html" target="_top" xlink:title="TriDevs.TriEngine2D.Graphics.\lRectangle">
<polygon fill="white" stroke="black" points="196.5,-282 196.5,-312 345.5,-312 345.5,-282 196.5,-282"/>
<text text-anchor="start" x="204.5" y="-300" font-family="Helvetica,sans-Serif" font-size="10.00">TriDevs.TriEngine2D.Graphics.</text>
<text text-anchor="middle" x="271" y="-289" font-family="Helvetica,sans-Serif" font-size="10.00">Rectangle</text>
</a>
</g>
</g>
<!-- Node1&#45;&gt;Node11 -->
<g id="edge10" class="edge"><title>Node1&#45;&gt;Node11</title>
<path fill="none" stroke="midnightblue" d="M100.148,-369.855C122.082,-355.996 156.295,-335.632 188,-322 196.477,-318.355 205.658,-315.009 214.704,-312.032"/>
<polygon fill="midnightblue" stroke="midnightblue" points="98.0825,-367.021 91.5431,-375.357 101.854,-372.919 98.0825,-367.021"/>
</g>
<!-- Node12 -->
<g id="node12" class="node"><title>Node12</title>
<g id="a_node12"><a xlink:href="class_tri_devs_1_1_tri_engine2_d_1_1_graphics_1_1_triangle.html" target="_top" xlink:title="TriDevs.TriEngine2D.Graphics.\lTriangle">
<polygon fill="white" stroke="black" points="196.5,-233 196.5,-263 345.5,-263 345.5,-233 196.5,-233"/>
<text text-anchor="start" x="204.5" y="-251" font-family="Helvetica,sans-Serif" font-size="10.00">TriDevs.TriEngine2D.Graphics.</text>
<text text-anchor="middle" x="271" y="-240" font-family="Helvetica,sans-Serif" font-size="10.00">Triangle</text>
</a>
</g>
</g>
<!-- Node1&#45;&gt;Node12 -->
<g id="edge11" class="edge"><title>Node1&#45;&gt;Node12</title>
<path fill="none" stroke="midnightblue" d="M89.8988,-366.978C108.692,-342.018 145.974,-297.165 188,-272 193.727,-268.571 199.974,-265.606 206.382,-263.047"/>
<polygon fill="midnightblue" stroke="midnightblue" points="86.9539,-365.074 83.8369,-375.2 92.5882,-369.228 86.9539,-365.074"/>
</g>
<!-- Node13 -->
<g id="node13" class="node"><title>Node13</title>
<g id="a_node13"><a xlink:href="class_tri_devs_1_1_tri_engine2_d_1_1_program.html" target="_top" xlink:title="An OpenGL program. ">
<polygon fill="white" stroke="black" points="199.5,-331.5 199.5,-350.5 342.5,-350.5 342.5,-331.5 199.5,-331.5"/>
<text text-anchor="middle" x="271" y="-338.5" font-family="Helvetica,sans-Serif" font-size="10.00">TriDevs.TriEngine2D.Program</text>
</a>
</g>
</g>
<!-- Node1&#45;&gt;Node13 -->
<g id="edge12" class="edge"><title>Node1&#45;&gt;Node13</title>
<path fill="none" stroke="midnightblue" d="M119.759,-375.252C151.981,-367.906 195.938,-357.885 227.979,-350.58"/>
<polygon fill="midnightblue" stroke="midnightblue" points="118.712,-371.901 109.74,-377.536 120.268,-378.726 118.712,-371.901"/>
</g>
<!-- Node14 -->
<g id="node14" class="node"><title>Node14</title>
<g id="a_node14"><a xlink:href="class_tri_devs_1_1_tri_engine2_d_1_1_shaders_1_1_shader.html" target="_top" xlink:title="GLSL shader object loaded and compiled from a *.glsl shader file. ">
<polygon fill="white" stroke="black" points="198,-527 198,-557 344,-557 344,-527 198,-527"/>
<text text-anchor="start" x="206" y="-545" font-family="Helvetica,sans-Serif" font-size="10.00">TriDevs.TriEngine2D.Shaders.</text>
<text text-anchor="middle" x="271" y="-534" font-family="Helvetica,sans-Serif" font-size="10.00">Shader</text>
</a>
</g>
</g>
<!-- Node1&#45;&gt;Node14 -->
<g id="edge13" class="edge"><title>Node1&#45;&gt;Node14</title>
<path fill="none" stroke="midnightblue" d="M87.669,-403.534C105.051,-432.098 142.185,-486.737 188,-517 193.837,-520.855 200.294,-524.138 206.948,-526.928"/>
<polygon fill="midnightblue" stroke="midnightblue" points="90.4789,-401.411 82.3628,-394.601 84.4605,-404.986 90.4789,-401.411"/>
</g>
<!-- Node3 -->
<g id="node3" class="node"><title>Node3</title>
<g id="a_node3"><a xlink:href="class_tri_devs_1_1_tri_engine2_d_1_1_audio_1_1_audio_manager.html" target="_top" xlink:title="Class to manage engine audio. ">
<polygon fill="white" stroke="black" points="405,-546 405,-576 539,-576 539,-546 405,-546"/>
<text text-anchor="start" x="413" y="-564" font-family="Helvetica,sans-Serif" font-size="10.00">TriDevs.TriEngine2D.Audio.</text>
<text text-anchor="middle" x="472" y="-553" font-family="Helvetica,sans-Serif" font-size="10.00">AudioManager</text>
</a>
</g>
</g>
<!-- Node2&#45;&gt;Node3 -->
<g id="edge2" class="edge"><title>Node2&#45;&gt;Node3</title>
<path fill="none" stroke="midnightblue" d="M335.932,-511.344C342.087,-513.453 348.195,-515.683 354,-518 370.614,-524.632 373.398,-529.34 390,-536 398.878,-539.562 408.47,-542.926 417.841,-545.965"/>
<polygon fill="midnightblue" stroke="midnightblue" points="336.853,-507.962 326.259,-508.135 334.648,-514.606 336.853,-507.962"/>
</g>
<!-- Node4 -->
<g id="node4" class="node"><title>Node4</title>
<g id="a_node4"><a xlink:href="class_tri_devs_1_1_tri_engine2_d_1_1_audio_1_1_null_audio_manager.html" target="_top" xlink:title="Used as a fallback AudioManager object when the service locator fails to find one. ">
<polygon fill="white" stroke="black" points="405,-497 405,-527 539,-527 539,-497 405,-497"/>
<text text-anchor="start" x="413" y="-515" font-family="Helvetica,sans-Serif" font-size="10.00">TriDevs.TriEngine2D.Audio.</text>
<text text-anchor="middle" x="472" y="-504" font-family="Helvetica,sans-Serif" font-size="10.00">NullAudioManager</text>
</a>
</g>
</g>
<!-- Node2&#45;&gt;Node4 -->
<g id="edge3" class="edge"><title>Node2&#45;&gt;Node4</title>
<path fill="none" stroke="midnightblue" d="M348.433,-500.298C366.977,-502.068 386.653,-503.947 404.686,-505.669"/>
<polygon fill="midnightblue" stroke="midnightblue" points="348.552,-496.793 338.264,-499.327 347.886,-503.761 348.552,-496.793"/>
</g>
<!-- Node6 -->
<g id="node6" class="node"><title>Node6</title>
<g id="a_node6"><a xlink:href="class_tri_devs_1_1_tri_engine2_d_1_1_audio_1_1_null_song.html" target="_top" xlink:title="Fallback song class used in NullAudioManager. ">
<polygon fill="white" stroke="black" points="405,-448 405,-478 539,-478 539,-448 405,-448"/>
<text text-anchor="start" x="413" y="-466" font-family="Helvetica,sans-Serif" font-size="10.00">TriDevs.TriEngine2D.Audio.</text>
<text text-anchor="middle" x="472" y="-455" font-family="Helvetica,sans-Serif" font-size="10.00">NullSong</text>
</a>
</g>
</g>
<!-- Node5&#45;&gt;Node6 -->
<g id="edge5" class="edge"><title>Node5&#45;&gt;Node6</title>
<path fill="none" stroke="midnightblue" d="M348.175,-445.101C366.795,-447.814 386.569,-450.696 404.686,-453.336"/>
<polygon fill="midnightblue" stroke="midnightblue" points="348.664,-441.635 338.264,-443.657 347.655,-448.562 348.664,-441.635"/>
</g>
<!-- Node7 -->
<g id="node7" class="node"><title>Node7</title>
<g id="a_node7"><a xlink:href="class_tri_devs_1_1_tri_engine2_d_1_1_audio_1_1_song.html" target="_top" xlink:title="Song class that can be used with AudioManager. ">
<polygon fill="white" stroke="black" points="393.5,-409.5 393.5,-428.5 550.5,-428.5 550.5,-409.5 393.5,-409.5"/>
<text text-anchor="middle" x="472" y="-416.5" font-family="Helvetica,sans-Serif" font-size="10.00">TriDevs.TriEngine2D.Audio.Song</text>
</a>
</g>
</g>
<!-- Node5&#45;&gt;Node7 -->
<g id="edge6" class="edge"><title>Node5&#45;&gt;Node7</title>
<path fill="none" stroke="midnightblue" d="M348.334,-428.246C363.071,-427.135 378.525,-425.97 393.304,-424.856"/>
<polygon fill="midnightblue" stroke="midnightblue" points="347.973,-424.763 338.264,-429.005 348.499,-431.744 347.973,-424.763"/>
</g>
<!-- Node9 -->
<g id="node9" class="node"><title>Node9</title>
<g id="a_node9"><a xlink:href="class_tri_devs_1_1_tri_engine2_d_1_1_audio_1_1_null_sound.html" target="_top" xlink:title="Fallback sound class used in NullAudioManager. ">
<polygon fill="white" stroke="black" points="405,-360 405,-390 539,-390 539,-360 405,-360"/>
<text text-anchor="start" x="413" y="-378" font-family="Helvetica,sans-Serif" font-size="10.00">TriDevs.TriEngine2D.Audio.</text>
<text text-anchor="middle" x="472" y="-367" font-family="Helvetica,sans-Serif" font-size="10.00">NullSound</text>
</a>
</g>
</g>
<!-- Node8&#45;&gt;Node9 -->
<g id="edge8" class="edge"><title>Node8&#45;&gt;Node9</title>
<path fill="none" stroke="midnightblue" d="M348.433,-381.159C366.977,-380.227 386.653,-379.239 404.686,-378.332"/>
<polygon fill="midnightblue" stroke="midnightblue" points="348.076,-377.673 338.264,-381.67 348.427,-384.664 348.076,-377.673"/>
</g>
<!-- Node10 -->
<g id="node10" class="node"><title>Node10</title>
<g id="a_node10"><a xlink:href="class_tri_devs_1_1_tri_engine2_d_1_1_audio_1_1_sound.html" target="_top" xlink:title="Sound class that can be used with the AudioManager. ">
<polygon fill="white" stroke="black" points="405,-311 405,-341 539,-341 539,-311 405,-311"/>
<text text-anchor="start" x="413" y="-329" font-family="Helvetica,sans-Serif" font-size="10.00">TriDevs.TriEngine2D.Audio.</text>
<text text-anchor="middle" x="472" y="-318" font-family="Helvetica,sans-Serif" font-size="10.00">Sound</text>
</a>
</g>
</g>
<!-- Node8&#45;&gt;Node10 -->
<g id="edge9" class="edge"><title>Node8&#45;&gt;Node10</title>
<path fill="none" stroke="midnightblue" d="M332.561,-367.033C351.003,-361.563 371.332,-355.534 390,-350 399.703,-347.124 410.059,-344.054 420.013,-341.105"/>
<polygon fill="midnightblue" stroke="midnightblue" points="331.412,-363.723 322.821,-369.923 333.403,-370.434 331.412,-363.723"/>
</g>
<!-- Node15 -->
<g id="node15" class="node"><title>Node15</title>
<g id="a_node15"><a xlink:href="interface_tri_devs_1_1_tri_engine2_d_1_1_interfaces_1_1_i_drawable.html" target="_top" xlink:title="Implements a simple draw method. ">
<polygon fill="white" stroke="black" points="0,-167 0,-197 152,-197 152,-167 0,-167"/>
<text text-anchor="start" x="8" y="-185" font-family="Helvetica,sans-Serif" font-size="10.00">TriDevs.TriEngine2D.Interfaces.</text>
<text text-anchor="middle" x="76" y="-174" font-family="Helvetica,sans-Serif" font-size="10.00">IDrawable</text>
</a>
</g>
</g>
<!-- Node15&#45;&gt;Node11 -->
<g id="edge14" class="edge"><title>Node15&#45;&gt;Node11</title>
<path fill="none" stroke="midnightblue" d="M98.9932,-204.208C120.144,-224.44 153.857,-253.849 188,-272 195.096,-275.773 202.848,-279.066 210.662,-281.914"/>
<polygon fill="midnightblue" stroke="midnightblue" points="101.402,-201.669 91.7916,-197.208 96.5225,-206.688 101.402,-201.669"/>
</g>
<!-- Node15&#45;&gt;Node12 -->
<g id="edge15" class="edge"><title>Node15&#45;&gt;Node12</title>
<path fill="none" stroke="midnightblue" d="M130.755,-200.382C160.75,-210.64 197.651,-223.259 225.928,-232.929"/>
<polygon fill="midnightblue" stroke="midnightblue" points="131.873,-197.066 121.278,-197.142 129.608,-203.689 131.873,-197.066"/>
</g>
<!-- Node16 -->
<g id="node16" class="node"><title>Node16</title>
<g id="a_node16"><a xlink:href="interface_tri_devs_1_1_tri_engine2_d_1_1_interfaces_1_1_i_drawable_game_component.html" target="_top" xlink:title="A game component that can be added to GameState objects. Drawable game components also implement a dr...">
<polygon fill="white" stroke="black" points="396,-47 396,-77 548,-77 548,-47 396,-47"/>
<text text-anchor="start" x="404" y="-65" font-family="Helvetica,sans-Serif" font-size="10.00">TriDevs.TriEngine2D.Interfaces.</text>
<text text-anchor="middle" x="472" y="-54" font-family="Helvetica,sans-Serif" font-size="10.00">IDrawableGameComponent</text>
</a>
</g>
</g>
<!-- Node15&#45;&gt;Node16 -->
<g id="edge16" class="edge"><title>Node15&#45;&gt;Node16</title>
<path fill="none" stroke="midnightblue" d="M131.87,-199.643C192.045,-215.367 288.721,-229.564 354,-184 392.049,-157.442 356.156,-117.744 390,-86 393.637,-82.5885 397.737,-79.6598 402.112,-77.1459"/>
<polygon fill="midnightblue" stroke="midnightblue" points="132.739,-196.252 122.171,-197.012 130.906,-203.008 132.739,-196.252"/>
</g>
<!-- Node19 -->
<g id="node19" class="node"><title>Node19</title>
<g id="a_node19"><a xlink:href="interface_tri_devs_1_1_tri_engine2_d_1_1_state_management_1_1_i_game_state.html" target="_top" xlink:title="A game state that can be used with the game state manager. Represent a specific state of the game...">
<polygon fill="white" stroke="black" points="206,-145 206,-175 336,-175 336,-145 206,-145"/>
<text text-anchor="start" x="214" y="-163" font-family="Helvetica,sans-Serif" font-size="10.00">TriDevs.TriEngine2D.State</text>
<text text-anchor="middle" x="271" y="-152" font-family="Helvetica,sans-Serif" font-size="10.00">Management.IGameState</text>
</a>
</g>
</g>
<!-- Node15&#45;&gt;Node19 -->
<g id="edge19" class="edge"><title>Node15&#45;&gt;Node19</title>
<path fill="none" stroke="midnightblue" d="M162.264,-172.281C176.947,-170.607 191.983,-168.893 205.985,-167.297"/>
<polygon fill="midnightblue" stroke="midnightblue" points="161.711,-168.821 152.171,-173.431 162.504,-175.776 161.711,-168.821"/>
</g>
<!-- Node21 -->
<g id="node21" class="node"><title>Node21</title>
<g id="a_node21"><a xlink:href="interface_tri_devs_1_1_tri_engine2_d_1_1_state_management_1_1_i_game_state_manager.html" target="_top" xlink:title="Game state manager that keeps track of the active game states and provides methods to control the sta...">
<polygon fill="white" stroke="black" points="188.5,-96 188.5,-126 353.5,-126 353.5,-96 188.5,-96"/>
<text text-anchor="start" x="196.5" y="-114" font-family="Helvetica,sans-Serif" font-size="10.00">TriDevs.TriEngine2D.State</text>
<text text-anchor="middle" x="271" y="-103" font-family="Helvetica,sans-Serif" font-size="10.00">Management.IGameStateManager</text>
</a>
</g>
</g>
<!-- Node15&#45;&gt;Node21 -->
<g id="edge21" class="edge"><title>Node15&#45;&gt;Node21</title>
<path fill="none" stroke="midnightblue" d="M119.481,-162.648C139.968,-153.668 165.029,-143.194 188,-135 196.802,-131.86 206.238,-128.813 215.462,-126.001"/>
<polygon fill="midnightblue" stroke="midnightblue" points="117.849,-159.543 110.118,-166.787 120.679,-165.945 117.849,-159.543"/>
</g>
<!-- Node23 -->
<g id="node23" class="node"><title>Node23</title>
<g id="a_node23"><a xlink:href="interface_tri_devs_1_1_tri_engine2_d_1_1_u_i_1_1_i_control.html" target="_top" xlink:title="A UI control that can be drawn on screen and interacted with. ">
<polygon fill="white" stroke="black" points="195,-8.5 195,-27.5 347,-27.5 347,-8.5 195,-8.5"/>
<text text-anchor="middle" x="271" y="-15.5" font-family="Helvetica,sans-Serif" font-size="10.00">TriDevs.TriEngine2D.UI.IControl</text>
</a>
</g>
</g>
<!-- Node15&#45;&gt;Node23 -->
<g id="edge23" class="edge"><title>Node15&#45;&gt;Node23</title>
<path fill="none" stroke="midnightblue" d="M103.748,-160.429C119.18,-147.046 138.198,-128.851 152,-110 173.37,-80.8117 159.649,-59.469 188,-37 192.81,-33.1879 198.249,-30.1152 203.981,-27.6419"/>
<polygon fill="midnightblue" stroke="midnightblue" points="101.407,-157.825 96.0522,-166.967 105.939,-163.16 101.407,-157.825"/>
</g>
<!-- Node17 -->
<g id="node17" class="node"><title>Node17</title>
<g id="a_node17"><a xlink:href="interface_tri_devs_1_1_tri_engine2_d_1_1_u_i_1_1_i_control_manager.html" target="_top" xlink:title="Manages various UI controls, automatically updating and drawing them to the screen. ">
<polygon fill="white" stroke="black" points="590,-48 590,-78 742,-78 742,-48 590,-48"/>
<text text-anchor="start" x="598" y="-66" font-family="Helvetica,sans-Serif" font-size="10.00">TriDevs.TriEngine2D.UI.IControl</text>
<text text-anchor="middle" x="666" y="-55" font-family="Helvetica,sans-Serif" font-size="10.00">Manager</text>
</a>
</g>
</g>
<!-- Node16&#45;&gt;Node17 -->
<g id="edge17" class="edge"><title>Node16&#45;&gt;Node17</title>
<path fill="none" stroke="midnightblue" d="M558.157,-62.4435C568.767,-62.4988 579.555,-62.555 589.995,-62.6093"/>
<polygon fill="midnightblue" stroke="midnightblue" points="558.075,-58.9432 548.057,-62.3909 558.039,-65.9431 558.075,-58.9432"/>
</g>
<!-- Node18 -->
<g id="node18" class="node"><title>Node18</title>
<g id="a_node18"><a xlink:href="class_tri_devs_1_1_tri_engine2_d_1_1_u_i_1_1_control_manager.html" target="_top" xlink:title="Control manager to manage various UI controls for a game. ">
<polygon fill="white" stroke="black" points="778.5,-49 778.5,-79 927.5,-79 927.5,-49 778.5,-49"/>
<text text-anchor="start" x="786.5" y="-67" font-family="Helvetica,sans-Serif" font-size="10.00">TriDevs.TriEngine2D.UI.Control</text>
<text text-anchor="middle" x="853" y="-56" font-family="Helvetica,sans-Serif" font-size="10.00">Manager</text>
</a>
</g>
</g>
<!-- Node17&#45;&gt;Node18 -->
<g id="edge18" class="edge"><title>Node17&#45;&gt;Node18</title>
<path fill="none" stroke="midnightblue" d="M752.366,-63.4614C761.035,-63.5083 769.788,-63.5556 778.318,-63.6017"/>
<polygon fill="midnightblue" stroke="midnightblue" points="752.265,-59.9609 742.247,-63.4067 752.227,-66.9608 752.265,-59.9609"/>
</g>
<!-- Node20 -->
<g id="node20" class="node"><title>Node20</title>
<g id="a_node20"><a xlink:href="class_tri_devs_1_1_tri_engine2_d_1_1_state_management_1_1_game_state.html" target="_top" xlink:title="Base GameState class that all other game states derive from, defines basic GameState behaviour...">
<polygon fill="white" stroke="black" points="407,-145 407,-175 537,-175 537,-145 407,-145"/>
<text text-anchor="start" x="415" y="-163" font-family="Helvetica,sans-Serif" font-size="10.00">TriDevs.TriEngine2D.State</text>
<text text-anchor="middle" x="472" y="-152" font-family="Helvetica,sans-Serif" font-size="10.00">Management.GameState</text>
</a>
</g>
</g>
<!-- Node19&#45;&gt;Node20 -->
<g id="edge20" class="edge"><title>Node19&#45;&gt;Node20</title>
<path fill="none" stroke="midnightblue" d="M346.296,-160C366.156,-160 387.449,-160 406.719,-160"/>
<polygon fill="midnightblue" stroke="midnightblue" points="346.06,-156.5 336.06,-160 346.06,-163.5 346.06,-156.5"/>
</g>
<!-- Node22 -->
<g id="node22" class="node"><title>Node22</title>
<g id="a_node22"><a xlink:href="class_tri_devs_1_1_tri_engine2_d_1_1_state_management_1_1_game_state_manager.html" target="_top" xlink:title="Game state manager that keeps track of the active game states and provides methods to control the sta...">
<polygon fill="white" stroke="black" points="390.5,-96 390.5,-126 553.5,-126 553.5,-96 390.5,-96"/>
<text text-anchor="start" x="398.5" y="-114" font-family="Helvetica,sans-Serif" font-size="10.00">TriDevs.TriEngine2D.State</text>
<text text-anchor="middle" x="472" y="-103" font-family="Helvetica,sans-Serif" font-size="10.00">Management.GameStateManager</text>
</a>
</g>
</g>
<!-- Node21&#45;&gt;Node22 -->
<g id="edge22" class="edge"><title>Node21&#45;&gt;Node22</title>
<path fill="none" stroke="midnightblue" d="M363.532,-111C372.45,-111 381.454,-111 390.255,-111"/>
<polygon fill="midnightblue" stroke="midnightblue" points="363.515,-107.5 353.515,-111 363.515,-114.5 363.515,-107.5"/>
</g>
<!-- Node24 -->
<g id="node24" class="node"><title>Node24</title>
<g id="a_node24"><a xlink:href="class_tri_devs_1_1_tri_engine2_d_1_1_u_i_1_1_control.html" target="_top" xlink:title="Base control class that all other controls inherits from. Defines basic UI control behaviour...">
<polygon fill="white" stroke="black" points="397.5,-7.5 397.5,-26.5 546.5,-26.5 546.5,-7.5 397.5,-7.5"/>
<text text-anchor="middle" x="472" y="-14.5" font-family="Helvetica,sans-Serif" font-size="10.00">TriDevs.TriEngine2D.UI.Control</text>
</a>
</g>
</g>
<!-- Node23&#45;&gt;Node24 -->
<g id="edge24" class="edge"><title>Node23&#45;&gt;Node24</title>
<path fill="none" stroke="midnightblue" d="M357.327,-17.5712C370.635,-17.5043 384.288,-17.4357 397.308,-17.3703"/>
<polygon fill="midnightblue" stroke="midnightblue" points="357.216,-14.0716 347.233,-17.6219 357.251,-21.0715 357.216,-14.0716"/>
</g>
<!-- Node25 -->
<g id="node25" class="node"><title>Node25</title>
<g id="a_node25"><a xlink:href="class_tri_devs_1_1_tri_engine2_d_1_1_u_i_1_1_label.html" target="_top" xlink:title="A simple label to display text on the screen. ">
<polygon fill="white" stroke="black" points="595,-7.5 595,-26.5 737,-26.5 737,-7.5 595,-7.5"/>
<text text-anchor="middle" x="666" y="-14.5" font-family="Helvetica,sans-Serif" font-size="10.00">TriDevs.TriEngine2D.UI.Label</text>
</a>
</g>
</g>
<!-- Node24&#45;&gt;Node25 -->
<g id="edge25" class="edge"><title>Node24&#45;&gt;Node25</title>
<path fill="none" stroke="midnightblue" d="M556.819,-17C569.556,-17 582.585,-17 594.988,-17"/>
<polygon fill="midnightblue" stroke="midnightblue" points="556.683,-13.5001 546.683,-17 556.683,-20.5001 556.683,-13.5001"/>
</g>
<!-- Node26 -->
<g id="node26" class="node"><title>Node26</title>
<g id="a_node26"><a xlink:href="class_tri_devs_1_1_tri_engine2_d_1_1_u_i_1_1_link_label.html" target="_top" xlink:title="A label that, when clicked, will open a URL. ">
<polygon fill="white" stroke="black" points="784.5,-0 784.5,-30 921.5,-30 921.5,-0 784.5,-0"/>
<text text-anchor="start" x="792.5" y="-18" font-family="Helvetica,sans-Serif" font-size="10.00">TriDevs.TriEngine2D.UI.Link</text>
<text text-anchor="middle" x="853" y="-7" font-family="Helvetica,sans-Serif" font-size="10.00">Label</text>
</a>
</g>
</g>
<!-- Node25&#45;&gt;Node26 -->
<g id="edge26" class="edge"><title>Node25&#45;&gt;Node26</title>
<path fill="none" stroke="midnightblue" d="M747.44,-16.1304C759.73,-15.9975 772.309,-15.8615 784.289,-15.732"/>
<polygon fill="midnightblue" stroke="midnightblue" points="747.166,-12.633 737.204,-16.241 747.242,-19.6326 747.166,-12.633"/>
</g>
<!-- Node27 -->
<g id="node27" class="node"><title>Node27</title>
<g id="a_node27"><a xlink:href="interface_tri_devs_1_1_tri_engine2_d_1_1_interfaces_1_1_i_updatable.html" target="_top" xlink:title="Implements a simple update method. ">
<polygon fill="white" stroke="black" points="0,-71 0,-101 152,-101 152,-71 0,-71"/>
<text text-anchor="start" x="8" y="-89" font-family="Helvetica,sans-Serif" font-size="10.00">TriDevs.TriEngine2D.Interfaces.</text>
<text text-anchor="middle" x="76" y="-78" font-family="Helvetica,sans-Serif" font-size="10.00">IUpdatable</text>
</a>
</g>
</g>
<!-- Node28 -->
<g id="node28" class="node"><title>Node28</title>
<g id="a_node28"><a xlink:href="interface_tri_devs_1_1_tri_engine2_d_1_1_interfaces_1_1_i_game_component.html" target="_top" xlink:title="A game component that can be added to IGameState objects. ">
<polygon fill="white" stroke="black" points="195,-47 195,-77 347,-77 347,-47 195,-47"/>
<text text-anchor="start" x="203" y="-65" font-family="Helvetica,sans-Serif" font-size="10.00">TriDevs.TriEngine2D.Interfaces.</text>
<text text-anchor="middle" x="271" y="-54" font-family="Helvetica,sans-Serif" font-size="10.00">IGameComponent</text>
</a>
</g>
</g>
<!-- Node27&#45;&gt;Node28 -->
<g id="edge27" class="edge"><title>Node27&#45;&gt;Node28</title>
<path fill="none" stroke="midnightblue" d="M162.415,-75.3784C173.177,-74.0401 184.126,-72.6786 194.716,-71.3617"/>
<polygon fill="midnightblue" stroke="midnightblue" points="161.663,-71.9449 152.171,-76.6523 162.527,-78.8914 161.663,-71.9449"/>
</g>
<!-- Node27&#45;&gt;Node19 -->
<g id="edge29" class="edge"><title>Node27&#45;&gt;Node19</title>
<path fill="none" stroke="midnightblue" d="M117.805,-105.416C138.576,-114.939 164.37,-126.218 188,-135 197.347,-138.474 207.418,-141.842 217.194,-144.921"/>
<polygon fill="midnightblue" stroke="midnightblue" points="119.187,-102.199 108.641,-101.18 116.25,-108.553 119.187,-102.199"/>
</g>
<!-- Node27&#45;&gt;Node21 -->
<g id="edge30" class="edge"><title>Node27&#45;&gt;Node21</title>
<path fill="none" stroke="midnightblue" d="M162.264,-97.0445C170.923,-98.1662 179.705,-99.3038 188.325,-100.42"/>
<polygon fill="midnightblue" stroke="midnightblue" points="162.538,-93.5509 152.171,-95.7372 161.639,-100.493 162.538,-93.5509"/>
</g>
<!-- Node27&#45;&gt;Node23 -->
<g id="edge31" class="edge"><title>Node27&#45;&gt;Node23</title>
<path fill="none" stroke="midnightblue" d="M116.219,-66.5236C137.149,-56.6866 163.564,-45.1438 188,-37 198.814,-33.3961 210.65,-30.2244 221.882,-27.5562"/>
<polygon fill="midnightblue" stroke="midnightblue" points="114.54,-63.4464 107.015,-70.9049 117.549,-69.7668 114.54,-63.4464"/>
</g>
<!-- Node28&#45;&gt;Node16 -->
<g id="edge28" class="edge"><title>Node28&#45;&gt;Node16</title>
<path fill="none" stroke="midnightblue" d="M357.434,-62C370.26,-62 383.404,-62 395.99,-62"/>
<polygon fill="midnightblue" stroke="midnightblue" points="357.233,-58.5001 347.233,-62 357.233,-65.5001 357.233,-58.5001"/>
</g>
</g>
</svg>
