<?xml version="1.0" encoding="UTF-8" standalone="no"?>
<!DOCTYPE svg PUBLIC "-//W3C//DTD SVG 1.1//EN"
 "http://www.w3.org/Graphics/SVG/1.1/DTD/svg11.dtd">
<!-- Generated by graphviz version 2.30.0 (20130114.0323)
 -->
<!-- Title: Graphical Class Hierarchy Pages: 1 -->
<svg width="698pt" height="38pt"
 viewBox="0.00 0.00 698.00 38.00" xmlns="http://www.w3.org/2000/svg" xmlns:xlink="http://www.w3.org/1999/xlink">
<g id="graph0" class="graph" transform="scale(1 1) rotate(0) translate(4 34)">
<title>Graphical Class Hierarchy</title>
<polygon fill="white" stroke="white" points="-4,5 -4,-34 695,-34 695,5 -4,5"/>
<!-- Node1 -->
<g id="node1" class="node"><title>Node1</title>
<g id="a_node1"><a xlink:href="interface_tri_devs_1_1_tri_engine2_d_1_1_u_i_1_1_i_control.html" target="_top" xlink:title="A UI control that can be drawn on screen and interacted with. ">
<polygon fill="white" stroke="black" points="0,-5.5 0,-24.5 152,-24.5 152,-5.5 0,-5.5"/>
<text text-anchor="middle" x="76" y="-12.5" font-family="Helvetica,sans-Serif" font-size="10.00">TriDevs.TriEngine2D.UI.IControl</text>
</a>
</g>
</g>
<!-- Node2 -->
<g id="node2" class="node"><title>Node2</title>
<g id="a_node2"><a xlink:href="class_tri_devs_1_1_tri_engine2_d_1_1_u_i_1_1_control.html" target="_top" xlink:title="Base control class that all other controls inherits from. Defines basic UI control behaviour...">
<polygon fill="white" stroke="black" points="188.5,-5.5 188.5,-24.5 337.5,-24.5 337.5,-5.5 188.5,-5.5"/>
<text text-anchor="middle" x="263" y="-12.5" font-family="Helvetica,sans-Serif" font-size="10.00">TriDevs.TriEngine2D.UI.Control</text>
</a>
</g>
</g>
<!-- Node1&#45;&gt;Node2 -->
<g id="edge1" class="edge"><title>Node1&#45;&gt;Node2</title>
<path fill="none" stroke="midnightblue" d="M162.366,-15C171.035,-15 179.788,-15 188.318,-15"/>
<polygon fill="midnightblue" stroke="midnightblue" points="162.247,-11.5001 152.247,-15 162.247,-18.5001 162.247,-11.5001"/>
</g>
<!-- Node3 -->
<g id="node3" class="node"><title>Node3</title>
<g id="a_node3"><a xlink:href="class_tri_devs_1_1_tri_engine2_d_1_1_u_i_1_1_label.html" target="_top" xlink:title="A simple label to display text on the screen. ">
<polygon fill="white" stroke="black" points="374,-5.5 374,-24.5 516,-24.5 516,-5.5 374,-5.5"/>
<text text-anchor="middle" x="445" y="-12.5" font-family="Helvetica,sans-Serif" font-size="10.00">TriDevs.TriEngine2D.UI.Label</text>
</a>
</g>
</g>
<!-- Node2&#45;&gt;Node3 -->
<g id="edge2" class="edge"><title>Node2&#45;&gt;Node3</title>
<path fill="none" stroke="midnightblue" d="M347.882,-15C356.576,-15 365.345,-15 373.865,-15"/>
<polygon fill="midnightblue" stroke="midnightblue" points="347.732,-11.5001 337.732,-15 347.732,-18.5001 347.732,-11.5001"/>
</g>
<!-- Node4 -->
<g id="node4" class="node"><title>Node4</title>
<g id="a_node4"><a xlink:href="class_tri_devs_1_1_tri_engine2_d_1_1_u_i_1_1_link_label.html" target="_top" xlink:title="A label that, when clicked, will open a URL. ">
<polygon fill="white" stroke="black" points="552.5,-0 552.5,-30 689.5,-30 689.5,-0 552.5,-0"/>
<text text-anchor="start" x="560.5" y="-18" font-family="Helvetica,sans-Serif" font-size="10.00">TriDevs.TriEngine2D.UI.Link</text>
<text text-anchor="middle" x="621" y="-7" font-family="Helvetica,sans-Serif" font-size="10.00">Label</text>
</a>
</g>
</g>
<!-- Node3&#45;&gt;Node4 -->
<g id="edge3" class="edge"><title>Node3&#45;&gt;Node4</title>
<path fill="none" stroke="midnightblue" d="M526.224,-15C534.971,-15 543.809,-15 552.383,-15"/>
<polygon fill="midnightblue" stroke="midnightblue" points="526.02,-11.5001 516.02,-15 526.02,-18.5001 526.02,-11.5001"/>
</g>
</g>
</svg>
