<?xml version="1.0" encoding="UTF-8" standalone="no"?>
<!DOCTYPE svg PUBLIC "-//W3C//DTD SVG 1.1//EN"
 "http://www.w3.org/Graphics/SVG/1.1/DTD/svg11.dtd">
<!-- Generated by graphviz version 2.30.0 (20130114.0323)
 -->
<!-- Title: TriDevs.TriEngine2D.StateManagement.IGameStateManager Pages: 1 -->
<svg width="172pt" height="96pt"
 viewBox="0.00 0.00 172.00 96.00" xmlns="http://www.w3.org/2000/svg" xmlns:xlink="http://www.w3.org/1999/xlink">
<g id="graph0" class="graph" transform="scale(1 1) rotate(0) translate(4 92)">
<title>TriDevs.TriEngine2D.StateManagement.IGameStateManager</title>
<polygon fill="white" stroke="white" points="-4,5 -4,-92 169,-92 169,5 -4,5"/>
<!-- Node1 -->
<g id="node1" class="node"><title>Node1</title>
<polygon fill="#bfbfbf" stroke="black" points="-0.5,-1 -0.5,-31 164.5,-31 164.5,-1 -0.5,-1"/>
<text text-anchor="start" x="7.5" y="-19" font-family="Helvetica,sans-Serif" font-size="10.00">TriDevs.TriEngine2D.State</text>
<text text-anchor="middle" x="82" y="-8" font-family="Helvetica,sans-Serif" font-size="10.00">Management.IGameStateManager</text>
</g>
<!-- Node2 -->
<g id="node2" class="node"><title>Node2</title>
<g id="a_node2"><a xlink:href="interface_tri_devs_1_1_tri_engine2_d_1_1_interfaces_1_1_i_updatable.html" target="_top" xlink:title="Implements a simple update method. ">
<polygon fill="white" stroke="black" points="12,-68.5 12,-87.5 74,-87.5 74,-68.5 12,-68.5"/>
<text text-anchor="middle" x="43" y="-75.5" font-family="Helvetica,sans-Serif" font-size="10.00">IUpdatable</text>
</a>
</g>
</g>
<!-- Node2&#45;&gt;Node1 -->
<g id="edge1" class="edge"><title>Node2&#45;&gt;Node1</title>
<path fill="none" stroke="midnightblue" d="M54.1669,-59.8202C60.0706,-50.7375 67.2295,-39.7238 72.8085,-31.1408"/>
<polygon fill="midnightblue" stroke="midnightblue" points="51.1031,-58.1115 48.5877,-68.4035 56.9722,-61.9265 51.1031,-58.1115"/>
</g>
<!-- Node3 -->
<g id="node3" class="node"><title>Node3</title>
<g id="a_node3"><a xlink:href="interface_tri_devs_1_1_tri_engine2_d_1_1_interfaces_1_1_i_drawable.html" target="_top" xlink:title="Implements a simple draw method. ">
<polygon fill="white" stroke="black" points="92.5,-68.5 92.5,-87.5 151.5,-87.5 151.5,-68.5 92.5,-68.5"/>
<text text-anchor="middle" x="122" y="-75.5" font-family="Helvetica,sans-Serif" font-size="10.00">IDrawable</text>
</a>
</g>
</g>
<!-- Node3&#45;&gt;Node1 -->
<g id="edge2" class="edge"><title>Node3&#45;&gt;Node1</title>
<path fill="none" stroke="midnightblue" d="M110.547,-59.8202C104.492,-50.7375 97.1492,-39.7238 91.4272,-31.1408"/>
<polygon fill="midnightblue" stroke="midnightblue" points="107.81,-62.0244 116.269,-68.4035 113.634,-58.1415 107.81,-62.0244"/>
</g>
</g>
</svg>
