<?xml version="1.0" encoding="UTF-8" standalone="no"?>
<!DOCTYPE svg PUBLIC "-//W3C//DTD SVG 1.1//EN"
 "http://www.w3.org/Graphics/SVG/1.1/DTD/svg11.dtd">
<!-- Generated by graphviz version 2.30.0 (20130114.0323)
 -->
<!-- Title: TriDevs.TriEngine.Input.IInputManager Pages: 1 -->
<svg width="263pt" height="108pt"
 viewBox="0.00 0.00 263.00 108.00" xmlns="http://www.w3.org/2000/svg" xmlns:xlink="http://www.w3.org/1999/xlink">
<g id="graph0" class="graph" transform="scale(1 1) rotate(0) translate(4 104)">
<title>TriDevs.TriEngine.Input.IInputManager</title>
<polygon fill="white" stroke="white" points="-4,5 -4,-104 260,-104 260,5 -4,5"/>
<!-- Node1 -->
<g id="node1" class="node"><title>Node1</title>
<polygon fill="#bfbfbf" stroke="black" points="67.5,-69 67.5,-99 186.5,-99 186.5,-69 67.5,-69"/>
<text text-anchor="start" x="75.5" y="-87" font-family="Helvetica,sans-Serif" font-size="10.00">TriDevs.TriEngine.Input.</text>
<text text-anchor="middle" x="127" y="-76" font-family="Helvetica,sans-Serif" font-size="10.00">IInputManager</text>
</g>
<!-- Node2 -->
<g id="node2" class="node"><title>Node2</title>
<g id="a_node2"><a xlink:href="class_tri_devs_1_1_tri_engine_1_1_input_1_1_input_manager.html" target="_top" xlink:title="Input manager interfacing with input methods provided by a GameWindow. ">
<polygon fill="white" stroke="black" points="-0.5,-1 -0.5,-31 118.5,-31 118.5,-1 -0.5,-1"/>
<text text-anchor="start" x="7.5" y="-19" font-family="Helvetica,sans-Serif" font-size="10.00">TriDevs.TriEngine.Input.</text>
<text text-anchor="middle" x="59" y="-8" font-family="Helvetica,sans-Serif" font-size="10.00">InputManager</text>
</a>
</g>
</g>
<!-- Node1&#45;&gt;Node2 -->
<g id="edge1" class="edge"><title>Node1&#45;&gt;Node2</title>
<path fill="none" stroke="midnightblue" d="M104.834,-61.4855C94.6333,-51.5852 82.8095,-40.1092 73.7262,-31.2931"/>
<polygon fill="midnightblue" stroke="midnightblue" points="102.632,-64.2257 112.245,-68.679 107.507,-59.2027 102.632,-64.2257"/>
</g>
<!-- Node3 -->
<g id="node3" class="node"><title>Node3</title>
<g id="a_node3"><a xlink:href="class_tri_devs_1_1_tri_engine_1_1_input_1_1_null_input_manager.html" target="_top" xlink:title="Used as a fallback InputManager object when the service locator fails to find one. ">
<polygon fill="white" stroke="black" points="136.5,-1 136.5,-31 255.5,-31 255.5,-1 136.5,-1"/>
<text text-anchor="start" x="144.5" y="-19" font-family="Helvetica,sans-Serif" font-size="10.00">TriDevs.TriEngine.Input.</text>
<text text-anchor="middle" x="196" y="-8" font-family="Helvetica,sans-Serif" font-size="10.00">NullInputManager</text>
</a>
</g>
</g>
<!-- Node1&#45;&gt;Node3 -->
<g id="edge2" class="edge"><title>Node1&#45;&gt;Node3</title>
<path fill="none" stroke="midnightblue" d="M149.492,-61.4855C159.843,-51.5852 171.84,-40.1092 181.057,-31.2931"/>
<polygon fill="midnightblue" stroke="midnightblue" points="146.779,-59.2375 141.972,-68.679 151.618,-64.296 146.779,-59.2375"/>
</g>
</g>
</svg>
