<?xml version="1.0" encoding="UTF-8" standalone="no"?>
<!DOCTYPE svg PUBLIC "-//W3C//DTD SVG 1.1//EN"
 "http://www.w3.org/Graphics/SVG/1.1/DTD/svg11.dtd">
<!-- Generated by graphviz version 2.30.0 (20130114.0323)
 -->
<!-- Title: TriDevs.TriEngine.Resources.IResource Pages: 1 -->
<svg width="610pt" height="218pt"
 viewBox="0.00 0.00 610.00 218.00" xmlns="http://www.w3.org/2000/svg" xmlns:xlink="http://www.w3.org/1999/xlink">
<g id="graph0" class="graph" transform="scale(1 1) rotate(0) translate(4 214)">
<title>TriDevs.TriEngine.Resources.IResource</title>
<polygon fill="white" stroke="white" points="-4,5 -4,-214 607,-214 607,5 -4,5"/>
<!-- Node1 -->
<g id="node1" class="node"><title>Node1</title>
<polygon fill="#bfbfbf" stroke="black" points="104,-63 104,-93 248,-93 248,-63 104,-63"/>
<text text-anchor="start" x="112" y="-81" font-family="Helvetica,sans-Serif" font-size="10.00">TriDevs.TriEngine.Resources.</text>
<text text-anchor="middle" x="176" y="-70" font-family="Helvetica,sans-Serif" font-size="10.00">IResource</text>
</g>
<!-- Node3 -->
<g id="node3" class="node"><title>Node3</title>
<g id="a_node3"><a xlink:href="interface_tri_devs_1_1_tri_engine_1_1_audio_1_1_i_song.html" target="_top" xlink:title="A song that will be streamed in the audio player. ">
<polygon fill="white" stroke="black" points="291,-137 291,-167 413,-167 413,-137 291,-137"/>
<text text-anchor="start" x="299" y="-155" font-family="Helvetica,sans-Serif" font-size="10.00">TriDevs.TriEngine.Audio.</text>
<text text-anchor="middle" x="352" y="-144" font-family="Helvetica,sans-Serif" font-size="10.00">ISong</text>
</a>
</g>
</g>
<!-- Node1&#45;&gt;Node3 -->
<g id="edge2" class="edge"><title>Node1&#45;&gt;Node3</title>
<path fill="none" stroke="midnightblue" d="M217.645,-97.4515C237.504,-106.74 261.843,-117.807 284,-127 292.142,-130.378 300.921,-133.805 309.358,-136.995"/>
<polygon fill="midnightblue" stroke="midnightblue" points="219.112,-94.2737 208.573,-93.1867 216.134,-100.609 219.112,-94.2737"/>
</g>
<!-- Node6 -->
<g id="node6" class="node"><title>Node6</title>
<g id="a_node6"><a xlink:href="interface_tri_devs_1_1_tri_engine_1_1_audio_1_1_i_sound.html" target="_top" xlink:title="A sound file for use with the audio manager. ">
<polygon fill="white" stroke="black" points="291,-88 291,-118 413,-118 413,-88 291,-88"/>
<text text-anchor="start" x="299" y="-106" font-family="Helvetica,sans-Serif" font-size="10.00">TriDevs.TriEngine.Audio.</text>
<text text-anchor="middle" x="352" y="-95" font-family="Helvetica,sans-Serif" font-size="10.00">ISound</text>
</a>
</g>
</g>
<!-- Node1&#45;&gt;Node6 -->
<g id="edge5" class="edge"><title>Node1&#45;&gt;Node6</title>
<path fill="none" stroke="midnightblue" d="M258.077,-89.649C269.085,-91.2306 280.22,-92.8305 290.773,-94.3467"/>
<polygon fill="midnightblue" stroke="midnightblue" points="258.42,-86.1624 248.023,-88.2045 257.424,-93.0912 258.42,-86.1624"/>
</g>
<!-- Node9 -->
<g id="node9" class="node"><title>Node9</title>
<g id="a_node9"><a xlink:href="class_tri_devs_1_1_tri_engine_1_1_shaders_1_1_shader.html" target="_top" xlink:title="GLSL shader object loaded and compiled from a *.glsl shader file. ">
<polygon fill="white" stroke="black" points="285,-39 285,-69 419,-69 419,-39 285,-39"/>
<text text-anchor="start" x="293" y="-57" font-family="Helvetica,sans-Serif" font-size="10.00">TriDevs.TriEngine.Shaders.</text>
<text text-anchor="middle" x="352" y="-46" font-family="Helvetica,sans-Serif" font-size="10.00">Shader</text>
</a>
</g>
</g>
<!-- Node1&#45;&gt;Node9 -->
<g id="edge8" class="edge"><title>Node1&#45;&gt;Node9</title>
<path fill="none" stroke="midnightblue" d="M258.121,-66.8108C267.115,-65.5703 276.194,-64.3181 284.969,-63.1077"/>
<polygon fill="midnightblue" stroke="midnightblue" points="257.451,-63.37 248.023,-68.2037 258.408,-70.3044 257.451,-63.37"/>
</g>
<!-- Node10 -->
<g id="node10" class="node"><title>Node10</title>
<g id="a_node10"><a xlink:href="class_tri_devs_1_1_tri_engine_1_1_text_1_1_font.html" target="_top" xlink:title="Holds a specific font type. ">
<polygon fill="white" stroke="black" points="284,-0.5 284,-19.5 420,-19.5 420,-0.5 284,-0.5"/>
<text text-anchor="middle" x="352" y="-7.5" font-family="Helvetica,sans-Serif" font-size="10.00">TriDevs.TriEngine.Text.Font</text>
</a>
</g>
</g>
<!-- Node1&#45;&gt;Node10 -->
<g id="edge9" class="edge"><title>Node1&#45;&gt;Node10</title>
<path fill="none" stroke="midnightblue" d="M216.031,-58.3795C236.046,-48.769 260.994,-37.4732 284,-29 293.417,-25.5318 303.77,-22.3152 313.463,-19.5518"/>
<polygon fill="midnightblue" stroke="midnightblue" points="214.389,-55.286 206.921,-62.8009 217.445,-61.5836 214.389,-55.286"/>
</g>
<!-- Node2 -->
<g id="node2" class="node"><title>Node2</title>
<polygon fill="white" stroke="#bfbfbf" points="0.5,-68.5 0.5,-87.5 67.5,-87.5 67.5,-68.5 0.5,-68.5"/>
<text text-anchor="middle" x="34" y="-75.5" font-family="Helvetica,sans-Serif" font-size="10.00">IDisposable</text>
</g>
<!-- Node2&#45;&gt;Node1 -->
<g id="edge1" class="edge"><title>Node2&#45;&gt;Node1</title>
<path fill="none" stroke="midnightblue" d="M77.9467,-78C86.2244,-78 95.0987,-78 103.995,-78"/>
<polygon fill="midnightblue" stroke="midnightblue" points="77.8238,-74.5001 67.8238,-78 77.8237,-81.5001 77.8238,-74.5001"/>
</g>
<!-- Node4 -->
<g id="node4" class="node"><title>Node4</title>
<g id="a_node4"><a xlink:href="class_tri_devs_1_1_tri_engine_1_1_audio_1_1_null_song.html" target="_top" xlink:title="Fallback song class used in NullAudioManager. ">
<polygon fill="white" stroke="black" points="468,-179 468,-209 590,-209 590,-179 468,-179"/>
<text text-anchor="start" x="476" y="-197" font-family="Helvetica,sans-Serif" font-size="10.00">TriDevs.TriEngine.Audio.</text>
<text text-anchor="middle" x="529" y="-186" font-family="Helvetica,sans-Serif" font-size="10.00">NullSong</text>
</a>
</g>
</g>
<!-- Node3&#45;&gt;Node4 -->
<g id="edge3" class="edge"><title>Node3&#45;&gt;Node4</title>
<path fill="none" stroke="midnightblue" d="M423.333,-168.88C438.121,-172.429 453.591,-176.142 467.96,-179.591"/>
<polygon fill="midnightblue" stroke="midnightblue" points="423.766,-165.384 413.225,-166.454 422.132,-172.191 423.766,-165.384"/>
</g>
<!-- Node5 -->
<g id="node5" class="node"><title>Node5</title>
<g id="a_node5"><a xlink:href="class_tri_devs_1_1_tri_engine_1_1_audio_1_1_song.html" target="_top" xlink:title="Song class that can be used with AudioManager. ">
<polygon fill="white" stroke="black" points="456.5,-140.5 456.5,-159.5 601.5,-159.5 601.5,-140.5 456.5,-140.5"/>
<text text-anchor="middle" x="529" y="-147.5" font-family="Helvetica,sans-Serif" font-size="10.00">TriDevs.TriEngine.Audio.Song</text>
</a>
</g>
</g>
<!-- Node3&#45;&gt;Node5 -->
<g id="edge4" class="edge"><title>Node3&#45;&gt;Node5</title>
<path fill="none" stroke="midnightblue" d="M423.437,-151.195C434.228,-151.072 445.378,-150.944 456.197,-150.821"/>
<polygon fill="midnightblue" stroke="midnightblue" points="423.184,-147.698 413.225,-151.312 423.264,-154.697 423.184,-147.698"/>
</g>
<!-- Node7 -->
<g id="node7" class="node"><title>Node7</title>
<g id="a_node7"><a xlink:href="class_tri_devs_1_1_tri_engine_1_1_audio_1_1_null_sound.html" target="_top" xlink:title="Fallback sound class used in NullAudioManager. ">
<polygon fill="white" stroke="black" points="468,-90 468,-120 590,-120 590,-90 468,-90"/>
<text text-anchor="start" x="476" y="-108" font-family="Helvetica,sans-Serif" font-size="10.00">TriDevs.TriEngine.Audio.</text>
<text text-anchor="middle" x="529" y="-97" font-family="Helvetica,sans-Serif" font-size="10.00">NullSound</text>
</a>
</g>
</g>
<!-- Node6&#45;&gt;Node7 -->
<g id="edge6" class="edge"><title>Node6&#45;&gt;Node7</title>
<path fill="none" stroke="midnightblue" d="M423.333,-103.804C438.121,-103.973 453.591,-104.15 467.96,-104.314"/>
<polygon fill="midnightblue" stroke="midnightblue" points="423.264,-100.303 413.225,-103.688 423.184,-107.302 423.264,-100.303"/>
</g>
<!-- Node8 -->
<g id="node8" class="node"><title>Node8</title>
<g id="a_node8"><a xlink:href="class_tri_devs_1_1_tri_engine_1_1_audio_1_1_sound.html" target="_top" xlink:title="Sound class that can be used with the AudioManager. ">
<polygon fill="white" stroke="black" points="468,-41 468,-71 590,-71 590,-41 468,-41"/>
<text text-anchor="start" x="476" y="-59" font-family="Helvetica,sans-Serif" font-size="10.00">TriDevs.TriEngine.Audio.</text>
<text text-anchor="middle" x="529" y="-48" font-family="Helvetica,sans-Serif" font-size="10.00">Sound</text>
</a>
</g>
</g>
<!-- Node6&#45;&gt;Node8 -->
<g id="edge7" class="edge"><title>Node6&#45;&gt;Node8</title>
<path fill="none" stroke="midnightblue" d="M418.985,-85.2784C436.472,-80.5818 455.182,-75.5568 472.078,-71.019"/>
<polygon fill="midnightblue" stroke="midnightblue" points="417.602,-82.0256 408.852,-87.9997 419.418,-88.786 417.602,-82.0256"/>
</g>
</g>
</svg>
