<?xml version="1.0" encoding="UTF-8" standalone="no"?>
<!DOCTYPE svg PUBLIC "-//W3C//DTD SVG 1.1//EN"
 "http://www.w3.org/Graphics/SVG/1.1/DTD/svg11.dtd">
<!-- Generated by graphviz version 2.30.0 (20130114.0323)
 -->
<!-- Title: TriDevs.TriEngine2D.Interfaces.IDrawable Pages: 1 -->
<svg width="922pt" height="278pt"
 viewBox="0.00 0.00 922.00 278.00" xmlns="http://www.w3.org/2000/svg" xmlns:xlink="http://www.w3.org/1999/xlink">
<g id="graph0" class="graph" transform="scale(1 1) rotate(0) translate(4 274)">
<title>TriDevs.TriEngine2D.Interfaces.IDrawable</title>
<polygon fill="white" stroke="white" points="-4,5 -4,-274 919,-274 919,5 -4,5"/>
<!-- Node1 -->
<g id="node1" class="node"><title>Node1</title>
<polygon fill="#bfbfbf" stroke="black" points="0,-93 0,-123 152,-123 152,-93 0,-93"/>
<text text-anchor="start" x="8" y="-111" font-family="Helvetica,sans-Serif" font-size="10.00">TriDevs.TriEngine2D.Interfaces.</text>
<text text-anchor="middle" x="76" y="-100" font-family="Helvetica,sans-Serif" font-size="10.00">IDrawable</text>
</g>
<!-- Node2 -->
<g id="node2" class="node"><title>Node2</title>
<g id="a_node2"><a xlink:href="class_tri_devs_1_1_tri_engine2_d_1_1_graphics_1_1_primitive.html" target="_top" xlink:title="Represents a primitive 2D shape composed of triangles. ">
<polygon fill="white" stroke="black" points="196.5,-191 196.5,-221 345.5,-221 345.5,-191 196.5,-191"/>
<text text-anchor="start" x="204.5" y="-209" font-family="Helvetica,sans-Serif" font-size="10.00">TriDevs.TriEngine2D.Graphics.</text>
<text text-anchor="middle" x="271" y="-198" font-family="Helvetica,sans-Serif" font-size="10.00">Primitive</text>
</a>
</g>
</g>
<!-- Node1&#45;&gt;Node2 -->
<g id="edge1" class="edge"><title>Node1&#45;&gt;Node2</title>
<path fill="none" stroke="midnightblue" d="M104.531,-129.329C126.231,-145.323 157.771,-166.812 188,-181 195.949,-184.731 204.589,-188.07 213.181,-191"/>
<polygon fill="midnightblue" stroke="midnightblue" points="106.542,-126.463 96.4361,-123.281 102.352,-132.07 106.542,-126.463"/>
</g>
<!-- Node5 -->
<g id="node5" class="node"><title>Node5</title>
<g id="a_node5"><a xlink:href="interface_tri_devs_1_1_tri_engine2_d_1_1_interfaces_1_1_i_drawable_game_component.html" target="_top" xlink:title="A game component that can be added to GameState objects. Drawable game components also implement a dr...">
<polygon fill="white" stroke="black" points="195,-142 195,-172 347,-172 347,-142 195,-142"/>
<text text-anchor="start" x="203" y="-160" font-family="Helvetica,sans-Serif" font-size="10.00">TriDevs.TriEngine2D.Interfaces.</text>
<text text-anchor="middle" x="271" y="-149" font-family="Helvetica,sans-Serif" font-size="10.00">IDrawableGameComponent</text>
</a>
</g>
</g>
<!-- Node1&#45;&gt;Node5 -->
<g id="edge4" class="edge"><title>Node1&#45;&gt;Node5</title>
<path fill="none" stroke="midnightblue" d="M146.125,-125.55C167.319,-130.931 190.433,-136.799 210.894,-141.994"/>
<polygon fill="midnightblue" stroke="midnightblue" points="146.772,-122.103 136.218,-123.035 145.049,-128.888 146.772,-122.103"/>
</g>
<!-- Node8 -->
<g id="node8" class="node"><title>Node8</title>
<g id="a_node8"><a xlink:href="interface_tri_devs_1_1_tri_engine2_d_1_1_state_management_1_1_i_game_state.html" target="_top" xlink:title="A game state that can be used with the game state manager. Represent a specific state of the game...">
<polygon fill="white" stroke="black" points="206,-93 206,-123 336,-123 336,-93 206,-93"/>
<text text-anchor="start" x="214" y="-111" font-family="Helvetica,sans-Serif" font-size="10.00">TriDevs.TriEngine2D.State</text>
<text text-anchor="middle" x="271" y="-100" font-family="Helvetica,sans-Serif" font-size="10.00">Management.IGameState</text>
</a>
</g>
</g>
<!-- Node1&#45;&gt;Node8 -->
<g id="edge7" class="edge"><title>Node1&#45;&gt;Node8</title>
<path fill="none" stroke="midnightblue" d="M162.264,-108C176.947,-108 191.983,-108 205.985,-108"/>
<polygon fill="midnightblue" stroke="midnightblue" points="162.172,-104.5 152.171,-108 162.171,-111.5 162.172,-104.5"/>
</g>
<!-- Node10 -->
<g id="node10" class="node"><title>Node10</title>
<g id="a_node10"><a xlink:href="interface_tri_devs_1_1_tri_engine2_d_1_1_state_management_1_1_i_game_state_manager.html" target="_top" xlink:title="Game state manager that keeps track of the active game states and provides methods to control the sta...">
<polygon fill="white" stroke="black" points="188.5,-44 188.5,-74 353.5,-74 353.5,-44 188.5,-44"/>
<text text-anchor="start" x="196.5" y="-62" font-family="Helvetica,sans-Serif" font-size="10.00">TriDevs.TriEngine2D.State</text>
<text text-anchor="middle" x="271" y="-51" font-family="Helvetica,sans-Serif" font-size="10.00">Management.IGameStateManager</text>
</a>
</g>
</g>
<!-- Node1&#45;&gt;Node10 -->
<g id="edge9" class="edge"><title>Node1&#45;&gt;Node10</title>
<path fill="none" stroke="midnightblue" d="M146.125,-90.4502C167.319,-85.0694 190.433,-79.201 210.894,-74.0062"/>
<polygon fill="midnightblue" stroke="midnightblue" points="145.049,-87.1121 136.218,-92.9654 146.772,-93.8969 145.049,-87.1121"/>
</g>
<!-- Node12 -->
<g id="node12" class="node"><title>Node12</title>
<g id="a_node12"><a xlink:href="interface_tri_devs_1_1_tri_engine2_d_1_1_u_i_1_1_i_control.html" target="_top" xlink:title="A UI control that can be drawn on screen and interacted with. ">
<polygon fill="white" stroke="black" points="195,-5.5 195,-24.5 347,-24.5 347,-5.5 195,-5.5"/>
<text text-anchor="middle" x="271" y="-12.5" font-family="Helvetica,sans-Serif" font-size="10.00">TriDevs.TriEngine2D.UI.IControl</text>
</a>
</g>
</g>
<!-- Node1&#45;&gt;Node12 -->
<g id="edge11" class="edge"><title>Node1&#45;&gt;Node12</title>
<path fill="none" stroke="midnightblue" d="M103.047,-86.6677C124.599,-70.0302 156.655,-47.5433 188,-34 196.854,-30.1746 206.592,-27.0588 216.172,-24.5409"/>
<polygon fill="midnightblue" stroke="midnightblue" points="100.75,-84.0213 95.0455,-92.9495 105.072,-89.5272 100.75,-84.0213"/>
</g>
<!-- Node3 -->
<g id="node3" class="node"><title>Node3</title>
<g id="a_node3"><a xlink:href="class_tri_devs_1_1_tri_engine2_d_1_1_graphics_1_1_rectangle.html" target="_top" xlink:title="A primitive 2D Rectangle shape. ">
<polygon fill="white" stroke="black" points="397.5,-240 397.5,-270 546.5,-270 546.5,-240 397.5,-240"/>
<text text-anchor="start" x="405.5" y="-258" font-family="Helvetica,sans-Serif" font-size="10.00">TriDevs.TriEngine2D.Graphics.</text>
<text text-anchor="middle" x="472" y="-247" font-family="Helvetica,sans-Serif" font-size="10.00">Rectangle</text>
</a>
</g>
</g>
<!-- Node2&#45;&gt;Node3 -->
<g id="edge2" class="edge"><title>Node2&#45;&gt;Node3</title>
<path fill="none" stroke="midnightblue" d="M342.977,-223.477C364.911,-228.877 388.864,-234.776 410.057,-239.994"/>
<polygon fill="midnightblue" stroke="midnightblue" points="343.606,-220.027 333.059,-221.035 341.932,-226.824 343.606,-220.027"/>
</g>
<!-- Node4 -->
<g id="node4" class="node"><title>Node4</title>
<g id="a_node4"><a xlink:href="class_tri_devs_1_1_tri_engine2_d_1_1_graphics_1_1_triangle.html" target="_top" xlink:title="A primitive 2D Triangle shape. ">
<polygon fill="white" stroke="black" points="397.5,-191 397.5,-221 546.5,-221 546.5,-191 397.5,-191"/>
<text text-anchor="start" x="405.5" y="-209" font-family="Helvetica,sans-Serif" font-size="10.00">TriDevs.TriEngine2D.Graphics.</text>
<text text-anchor="middle" x="472" y="-198" font-family="Helvetica,sans-Serif" font-size="10.00">Triangle</text>
</a>
</g>
</g>
<!-- Node2&#45;&gt;Node4 -->
<g id="edge3" class="edge"><title>Node2&#45;&gt;Node4</title>
<path fill="none" stroke="midnightblue" d="M355.568,-206C369.472,-206 383.803,-206 397.435,-206"/>
<polygon fill="midnightblue" stroke="midnightblue" points="355.535,-202.5 345.535,-206 355.535,-209.5 355.535,-202.5"/>
</g>
<!-- Node6 -->
<g id="node6" class="node"><title>Node6</title>
<g id="a_node6"><a xlink:href="interface_tri_devs_1_1_tri_engine2_d_1_1_u_i_1_1_i_control_manager.html" target="_top" xlink:title="Manages various UI controls, automatically updating and drawing them to the screen. ">
<polygon fill="white" stroke="black" points="396,-142 396,-172 548,-172 548,-142 396,-142"/>
<text text-anchor="start" x="404" y="-160" font-family="Helvetica,sans-Serif" font-size="10.00">TriDevs.TriEngine2D.UI.IControl</text>
<text text-anchor="middle" x="472" y="-149" font-family="Helvetica,sans-Serif" font-size="10.00">Manager</text>
</a>
</g>
</g>
<!-- Node5&#45;&gt;Node6 -->
<g id="edge5" class="edge"><title>Node5&#45;&gt;Node6</title>
<path fill="none" stroke="midnightblue" d="M357.434,-157C370.26,-157 383.404,-157 395.99,-157"/>
<polygon fill="midnightblue" stroke="midnightblue" points="357.233,-153.5 347.233,-157 357.233,-160.5 357.233,-153.5"/>
</g>
<!-- Node7 -->
<g id="node7" class="node"><title>Node7</title>
<g id="a_node7"><a xlink:href="class_tri_devs_1_1_tri_engine2_d_1_1_u_i_1_1_control_manager.html" target="_top" xlink:title="Control manager to manage various UI controls for a game. ">
<polygon fill="white" stroke="black" points="590.5,-142 590.5,-172 739.5,-172 739.5,-142 590.5,-142"/>
<text text-anchor="start" x="598.5" y="-160" font-family="Helvetica,sans-Serif" font-size="10.00">TriDevs.TriEngine2D.UI.Control</text>
<text text-anchor="middle" x="665" y="-149" font-family="Helvetica,sans-Serif" font-size="10.00">Manager</text>
</a>
</g>
</g>
<!-- Node6&#45;&gt;Node7 -->
<g id="edge6" class="edge"><title>Node6&#45;&gt;Node7</title>
<path fill="none" stroke="midnightblue" d="M558.39,-157C569.076,-157 579.933,-157 590.417,-157"/>
<polygon fill="midnightblue" stroke="midnightblue" points="558.214,-153.5 548.214,-157 558.214,-160.5 558.214,-153.5"/>
</g>
<!-- Node9 -->
<g id="node9" class="node"><title>Node9</title>
<g id="a_node9"><a xlink:href="class_tri_devs_1_1_tri_engine2_d_1_1_state_management_1_1_game_state.html" target="_top" xlink:title="Base GameState class that all other game states derive from, defines basic GameState behaviour...">
<polygon fill="white" stroke="black" points="407,-93 407,-123 537,-123 537,-93 407,-93"/>
<text text-anchor="start" x="415" y="-111" font-family="Helvetica,sans-Serif" font-size="10.00">TriDevs.TriEngine2D.State</text>
<text text-anchor="middle" x="472" y="-100" font-family="Helvetica,sans-Serif" font-size="10.00">Management.GameState</text>
</a>
</g>
</g>
<!-- Node8&#45;&gt;Node9 -->
<g id="edge8" class="edge"><title>Node8&#45;&gt;Node9</title>
<path fill="none" stroke="midnightblue" d="M346.296,-108C366.156,-108 387.449,-108 406.719,-108"/>
<polygon fill="midnightblue" stroke="midnightblue" points="346.06,-104.5 336.06,-108 346.06,-111.5 346.06,-104.5"/>
</g>
<!-- Node11 -->
<g id="node11" class="node"><title>Node11</title>
<g id="a_node11"><a xlink:href="class_tri_devs_1_1_tri_engine2_d_1_1_state_management_1_1_game_state_manager.html" target="_top" xlink:title="Game state manager that keeps track of the active game states and provides methods to control the sta...">
<polygon fill="white" stroke="black" points="390.5,-44 390.5,-74 553.5,-74 553.5,-44 390.5,-44"/>
<text text-anchor="start" x="398.5" y="-62" font-family="Helvetica,sans-Serif" font-size="10.00">TriDevs.TriEngine2D.State</text>
<text text-anchor="middle" x="472" y="-51" font-family="Helvetica,sans-Serif" font-size="10.00">Management.GameStateManager</text>
</a>
</g>
</g>
<!-- Node10&#45;&gt;Node11 -->
<g id="edge10" class="edge"><title>Node10&#45;&gt;Node11</title>
<path fill="none" stroke="midnightblue" d="M363.532,-59C372.45,-59 381.454,-59 390.255,-59"/>
<polygon fill="midnightblue" stroke="midnightblue" points="363.515,-55.5001 353.515,-59 363.515,-62.5001 363.515,-55.5001"/>
</g>
<!-- Node13 -->
<g id="node13" class="node"><title>Node13</title>
<g id="a_node13"><a xlink:href="class_tri_devs_1_1_tri_engine2_d_1_1_u_i_1_1_control.html" target="_top" xlink:title="Base control class that all other controls inherits from. Defines basic UI control behaviour...">
<polygon fill="white" stroke="black" points="397.5,-5.5 397.5,-24.5 546.5,-24.5 546.5,-5.5 397.5,-5.5"/>
<text text-anchor="middle" x="472" y="-12.5" font-family="Helvetica,sans-Serif" font-size="10.00">TriDevs.TriEngine2D.UI.Control</text>
</a>
</g>
</g>
<!-- Node12&#45;&gt;Node13 -->
<g id="edge12" class="edge"><title>Node12&#45;&gt;Node13</title>
<path fill="none" stroke="midnightblue" d="M357.327,-15C370.635,-15 384.288,-15 397.308,-15"/>
<polygon fill="midnightblue" stroke="midnightblue" points="357.233,-11.5001 347.233,-15 357.233,-18.5001 357.233,-11.5001"/>
</g>
<!-- Node14 -->
<g id="node14" class="node"><title>Node14</title>
<g id="a_node14"><a xlink:href="class_tri_devs_1_1_tri_engine2_d_1_1_u_i_1_1_label.html" target="_top" xlink:title="A simple label to display text on the screen. ">
<polygon fill="white" stroke="black" points="594,-5.5 594,-24.5 736,-24.5 736,-5.5 594,-5.5"/>
<text text-anchor="middle" x="665" y="-12.5" font-family="Helvetica,sans-Serif" font-size="10.00">TriDevs.TriEngine2D.UI.Label</text>
</a>
</g>
</g>
<!-- Node13&#45;&gt;Node14 -->
<g id="edge13" class="edge"><title>Node13&#45;&gt;Node14</title>
<path fill="none" stroke="midnightblue" d="M556.878,-15C569.243,-15 581.872,-15 593.919,-15"/>
<polygon fill="midnightblue" stroke="midnightblue" points="556.572,-11.5001 546.572,-15 556.572,-18.5001 556.572,-11.5001"/>
</g>
<!-- Node15 -->
<g id="node15" class="node"><title>Node15</title>
<g id="a_node15"><a xlink:href="class_tri_devs_1_1_tri_engine2_d_1_1_u_i_1_1_link_label.html" target="_top" xlink:title="A label that, when clicked, will open a URL. ">
<polygon fill="white" stroke="black" points="776.5,-0 776.5,-30 913.5,-30 913.5,-0 776.5,-0"/>
<text text-anchor="start" x="784.5" y="-18" font-family="Helvetica,sans-Serif" font-size="10.00">TriDevs.TriEngine2D.UI.Link</text>
<text text-anchor="middle" x="845" y="-7" font-family="Helvetica,sans-Serif" font-size="10.00">Label</text>
</a>
</g>
</g>
<!-- Node14&#45;&gt;Node15 -->
<g id="edge14" class="edge"><title>Node14&#45;&gt;Node15</title>
<path fill="none" stroke="midnightblue" d="M746.108,-15C756.192,-15 766.43,-15 776.297,-15"/>
<polygon fill="midnightblue" stroke="midnightblue" points="746.095,-11.5001 736.095,-15 746.095,-18.5001 746.095,-11.5001"/>
</g>
</g>
</svg>
