<?xml version="1.0" encoding="UTF-8" standalone="no"?>
<!DOCTYPE svg PUBLIC "-//W3C//DTD SVG 1.1//EN"
 "http://www.w3.org/Graphics/SVG/1.1/DTD/svg11.dtd">
<!-- Generated by graphviz version 2.30.0 (20130114.0323)
 -->
<!-- Title: TriDevs.TriEngine.Interfaces.IDrawable Pages: 1 -->
<!--zoomable 278 -->
<svg id="main" version="1.1" xmlns="http://www.w3.org/2000/svg" xmlns:xlink="http://www.w3.org/1999/xlink" xml:space="preserve" onload="init(evt)">
        <defs>
                <circle id="rim" cx="0" cy="0" r="7"/>
                <circle id="rim2" cx="0" cy="0" r="3.5"/>
                <g id="zoomPlus">
                        <use xlink:href="#rim" fill="#404040">
                                <set attributeName="fill" to="#808080" begin="zoomplus.mouseover" end="zoomplus.mouseout"/>
                        </use>
                        <path d="M-4,0h8M0,-4v8" fill="none" stroke="white" stroke-width="1.5" pointer-events="none"/>
                </g>
                <g id="zoomMin">
                        <use xlink:href="#rim" fill="#404040">
                                <set attributeName="fill" to="#808080" begin="zoomminus.mouseover" end="zoomminus.mouseout"/>
                        </use>
                        <path d="M-4,0h8" fill="none" stroke="white" stroke-width="1.5" pointer-events="none"/>
                </g>
                <g id="dirArrow">
                        <path fill="none" stroke="white" stroke-width="1.5" d="M0,-3.0v7 M-2.5,-0.5L0,-3.0L2.5,-0.5"/>
                </g>
               <g id="resetDef">
                       <use xlink:href="#rim2" fill="#404040">
                               <set attributeName="fill" to="#808080" begin="reset.mouseover" end="reset.mouseout"/>
                       </use>
               </g>
        </defs>

<script type="text/javascript">
var viewWidth = 948;
var viewHeight = 278;
var sectionId = 'dynsection-0';
</script>
<script xlink:href="svgpan.js"/>
<svg id="graph" class="graph">
<g id="viewport">
<title>TriDevs.TriEngine.Interfaces.IDrawable</title>
<polygon fill="white" stroke="white" points="-4,5 -4,-274 945,-274 945,5 -4,5"/>
<!-- Node1 -->
<g id="node1" class="node"><title>Node1</title>
<polygon fill="#bfbfbf" stroke="black" points="0,-93 0,-123 140,-123 140,-93 0,-93"/>
<text text-anchor="start" x="8" y="-111" font-family="Helvetica,sans-Serif" font-size="10.00">TriDevs.TriEngine.Interfaces.</text>
<text text-anchor="middle" x="70" y="-100" font-family="Helvetica,sans-Serif" font-size="10.00">IDrawable</text>
</g>
<!-- Node2 -->
<g id="node2" class="node"><title>Node2</title>
<g id="a_node2"><a xlink:href="class_tri_devs_1_1_tri_engine_1_1_graphics_1_1_primitive.html" target="_top" xlink:title="Represents a primitive 2D shape composed of triangles. ">
<polygon fill="white" stroke="black" points="196.5,-191 196.5,-221 333.5,-221 333.5,-191 196.5,-191"/>
<text text-anchor="start" x="204.5" y="-209" font-family="Helvetica,sans-Serif" font-size="10.00">TriDevs.TriEngine.Graphics.</text>
<text text-anchor="middle" x="265" y="-198" font-family="Helvetica,sans-Serif" font-size="10.00">Primitive</text>
</a>
</g>
</g>
<!-- Node1&#45;&gt;Node2 -->
<g id="edge1" class="edge"><title>Node1&#45;&gt;Node2</title>
<path fill="none" stroke="midnightblue" d="M96.6834,-129.495C117.074,-145.629 146.899,-167.223 176,-181 183.895,-184.738 192.46,-188.023 201.042,-190.879"/>
<polygon fill="midnightblue" stroke="midnightblue" points="98.8058,-126.711 88.8192,-123.173 94.4196,-132.166 98.8058,-126.711"/>
</g>
<!-- Node5 -->
<g id="node5" class="node"><title>Node5</title>
<g id="a_node5"><a xlink:href="interface_tri_devs_1_1_tri_engine_1_1_interfaces_1_1_i_drawable_game_component.html" target="_top" xlink:title="A game component that can be added to GameState objects. Drawable game components also implement a dr...">
<polygon fill="white" stroke="black" points="195,-142 195,-172 335,-172 335,-142 195,-142"/>
<text text-anchor="start" x="203" y="-160" font-family="Helvetica,sans-Serif" font-size="10.00">TriDevs.TriEngine.Interfaces.</text>
<text text-anchor="middle" x="265" y="-149" font-family="Helvetica,sans-Serif" font-size="10.00">IDrawableGameComponent</text>
</a>
</g>
</g>
<!-- Node1&#45;&gt;Node5 -->
<g id="edge4" class="edge"><title>Node1&#45;&gt;Node5</title>
<path fill="none" stroke="midnightblue" d="M140.125,-125.55C161.319,-130.931 184.433,-136.799 204.894,-141.994"/>
<polygon fill="midnightblue" stroke="midnightblue" points="140.772,-122.103 130.218,-123.035 139.049,-128.888 140.772,-122.103"/>
</g>
<!-- Node8 -->
<g id="node8" class="node"><title>Node8</title>
<g id="a_node8"><a xlink:href="interface_tri_devs_1_1_tri_engine_1_1_state_management_1_1_i_game_state.html" target="_top" xlink:title="A game state that can be used with the game state manager. Represent a specific state of the game...">
<polygon fill="white" stroke="black" points="176.5,-93 176.5,-123 353.5,-123 353.5,-93 176.5,-93"/>
<text text-anchor="start" x="184.5" y="-111" font-family="Helvetica,sans-Serif" font-size="10.00">TriDevs.TriEngine.StateManagement.</text>
<text text-anchor="middle" x="265" y="-100" font-family="Helvetica,sans-Serif" font-size="10.00">IGameState</text>
</a>
</g>
</g>
<!-- Node1&#45;&gt;Node8 -->
<g id="edge7" class="edge"><title>Node1&#45;&gt;Node8</title>
<path fill="none" stroke="midnightblue" d="M150.203,-108C158.873,-108 167.735,-108 176.497,-108"/>
<polygon fill="midnightblue" stroke="midnightblue" points="150.132,-104.5 140.132,-108 150.132,-111.5 150.132,-104.5"/>
</g>
<!-- Node11 -->
<g id="node11" class="node"><title>Node11</title>
<g id="a_node11"><a xlink:href="interface_tri_devs_1_1_tri_engine_1_1_state_management_1_1_i_game_state_manager.html" target="_top" xlink:title="Game state manager that keeps track of the active game states and provides methods to control the sta...">
<polygon fill="white" stroke="black" points="176.5,-44 176.5,-74 353.5,-74 353.5,-44 176.5,-44"/>
<text text-anchor="start" x="184.5" y="-62" font-family="Helvetica,sans-Serif" font-size="10.00">TriDevs.TriEngine.StateManagement.</text>
<text text-anchor="middle" x="265" y="-51" font-family="Helvetica,sans-Serif" font-size="10.00">IGameStateManager</text>
</a>
</g>
</g>
<!-- Node1&#45;&gt;Node11 -->
<g id="edge10" class="edge"><title>Node1&#45;&gt;Node11</title>
<path fill="none" stroke="midnightblue" d="M140.125,-90.4502C161.319,-85.0694 184.433,-79.201 204.894,-74.0062"/>
<polygon fill="midnightblue" stroke="midnightblue" points="139.049,-87.1121 130.218,-92.9654 140.772,-93.8969 139.049,-87.1121"/>
</g>
<!-- Node13 -->
<g id="node13" class="node"><title>Node13</title>
<g id="a_node13"><a xlink:href="interface_tri_devs_1_1_tri_engine_1_1_u_i_1_1_i_control.html" target="_top" xlink:title="A UI control that can be drawn on screen and interacted with. ">
<polygon fill="white" stroke="black" points="195,-5.5 195,-24.5 335,-24.5 335,-5.5 195,-5.5"/>
<text text-anchor="middle" x="265" y="-12.5" font-family="Helvetica,sans-Serif" font-size="10.00">TriDevs.TriEngine.UI.IControl</text>
</a>
</g>
</g>
<!-- Node1&#45;&gt;Node13 -->
<g id="edge12" class="edge"><title>Node1&#45;&gt;Node13</title>
<path fill="none" stroke="midnightblue" d="M95.6599,-86.2624C115.904,-69.5437 146.022,-47.1462 176,-34 184.731,-30.1709 194.298,-27.0879 203.807,-24.6127"/>
<polygon fill="midnightblue" stroke="midnightblue" points="93.2775,-83.6929 87.881,-92.8104 97.7854,-89.0481 93.2775,-83.6929"/>
</g>
<!-- Node3 -->
<g id="node3" class="node"><title>Node3</title>
<g id="a_node3"><a xlink:href="class_tri_devs_1_1_tri_engine_1_1_graphics_1_1_rectangle.html" target="_top" xlink:title="A primitive 2D Rectangle shape. ">
<polygon fill="white" stroke="black" points="410.5,-240 410.5,-270 547.5,-270 547.5,-240 410.5,-240"/>
<text text-anchor="start" x="418.5" y="-258" font-family="Helvetica,sans-Serif" font-size="10.00">TriDevs.TriEngine.Graphics.</text>
<text text-anchor="middle" x="479" y="-247" font-family="Helvetica,sans-Serif" font-size="10.00">Rectangle</text>
</a>
</g>
</g>
<!-- Node2&#45;&gt;Node3 -->
<g id="edge2" class="edge"><title>Node2&#45;&gt;Node3</title>
<path fill="none" stroke="midnightblue" d="M340.983,-223.331C364.52,-228.771 390.295,-234.729 413.075,-239.994"/>
<polygon fill="midnightblue" stroke="midnightblue" points="341.579,-219.877 331.048,-221.035 340.003,-226.697 341.579,-219.877"/>
</g>
<!-- Node4 -->
<g id="node4" class="node"><title>Node4</title>
<g id="a_node4"><a xlink:href="class_tri_devs_1_1_tri_engine_1_1_graphics_1_1_triangle.html" target="_top" xlink:title="A primitive 2D Triangle shape. ">
<polygon fill="white" stroke="black" points="410.5,-191 410.5,-221 547.5,-221 547.5,-191 410.5,-191"/>
<text text-anchor="start" x="418.5" y="-209" font-family="Helvetica,sans-Serif" font-size="10.00">TriDevs.TriEngine.Graphics.</text>
<text text-anchor="middle" x="479" y="-198" font-family="Helvetica,sans-Serif" font-size="10.00">Triangle</text>
</a>
</g>
</g>
<!-- Node2&#45;&gt;Node4 -->
<g id="edge3" class="edge"><title>Node2&#45;&gt;Node4</title>
<path fill="none" stroke="midnightblue" d="M343.861,-206C365.635,-206 389.117,-206 410.255,-206"/>
<polygon fill="midnightblue" stroke="midnightblue" points="343.661,-202.5 333.661,-206 343.661,-209.5 343.661,-202.5"/>
</g>
<!-- Node6 -->
<g id="node6" class="node"><title>Node6</title>
<g id="a_node6"><a xlink:href="interface_tri_devs_1_1_tri_engine_1_1_u_i_1_1_i_control_manager.html" target="_top" xlink:title="Manages various UI controls, automatically updating and drawing them to the screen. ">
<polygon fill="white" stroke="black" points="409,-142 409,-172 549,-172 549,-142 409,-142"/>
<text text-anchor="start" x="417" y="-160" font-family="Helvetica,sans-Serif" font-size="10.00">TriDevs.TriEngine.UI.IControl</text>
<text text-anchor="middle" x="479" y="-149" font-family="Helvetica,sans-Serif" font-size="10.00">Manager</text>
</a>
</g>
</g>
<!-- Node5&#45;&gt;Node6 -->
<g id="edge5" class="edge"><title>Node5&#45;&gt;Node6</title>
<path fill="none" stroke="midnightblue" d="M345.265,-157C366.201,-157 388.624,-157 408.971,-157"/>
<polygon fill="midnightblue" stroke="midnightblue" points="345.123,-153.5 335.123,-157 345.123,-160.5 345.123,-153.5"/>
</g>
<!-- Node7 -->
<g id="node7" class="node"><title>Node7</title>
<g id="a_node7"><a xlink:href="class_tri_devs_1_1_tri_engine_1_1_u_i_1_1_control_manager.html" target="_top" xlink:title="Control manager to manage various UI controls for a game. ">
<polygon fill="white" stroke="black" points="622.5,-145 622.5,-175 759.5,-175 759.5,-145 622.5,-145"/>
<text text-anchor="start" x="630.5" y="-163" font-family="Helvetica,sans-Serif" font-size="10.00">TriDevs.TriEngine.UI.Control</text>
<text text-anchor="middle" x="691" y="-152" font-family="Helvetica,sans-Serif" font-size="10.00">Manager</text>
</a>
</g>
</g>
<!-- Node6&#45;&gt;Node7 -->
<g id="edge6" class="edge"><title>Node6&#45;&gt;Node7</title>
<path fill="none" stroke="midnightblue" d="M559.135,-158.131C579.942,-158.428 602.193,-158.746 622.337,-159.033"/>
<polygon fill="midnightblue" stroke="midnightblue" points="559.102,-154.63 549.053,-157.986 559.002,-161.629 559.102,-154.63"/>
</g>
<!-- Node9 -->
<g id="node9" class="node"><title>Node9</title>
<g id="a_node9"><a xlink:href="class_tri_devs_1_1_tri_engine_1_1_state_management_1_1_game_state.html" target="_top" xlink:title="Base GameState class that all other game states derive from, defines basic GameState behaviour...">
<polygon fill="white" stroke="black" points="390.5,-93 390.5,-123 567.5,-123 567.5,-93 390.5,-93"/>
<text text-anchor="start" x="398.5" y="-111" font-family="Helvetica,sans-Serif" font-size="10.00">TriDevs.TriEngine.StateManagement.</text>
<text text-anchor="middle" x="479" y="-100" font-family="Helvetica,sans-Serif" font-size="10.00">GameState</text>
</a>
</g>
</g>
<!-- Node8&#45;&gt;Node9 -->
<g id="edge8" class="edge"><title>Node8&#45;&gt;Node9</title>
<path fill="none" stroke="midnightblue" d="M364.01,-108C372.783,-108 381.629,-108 390.307,-108"/>
<polygon fill="midnightblue" stroke="midnightblue" points="363.759,-104.5 353.759,-108 363.759,-111.5 363.759,-104.5"/>
</g>
<!-- Node10 -->
<g id="node10" class="node"><title>Node10</title>
<polygon fill="white" stroke="#bfbfbf" points="604.5,-84.5 604.5,-125.5 777.5,-125.5 777.5,-84.5 604.5,-84.5"/>
<text text-anchor="start" x="612.5" y="-113.5" font-family="Helvetica,sans-Serif" font-size="10.00">TriDevs.TriEngine.Tests.</text>
<text text-anchor="start" x="612.5" y="-102.5" font-family="Helvetica,sans-Serif" font-size="10.00">StateManagementTests.GameState</text>
<text text-anchor="middle" x="691" y="-91.5" font-family="Helvetica,sans-Serif" font-size="10.00">Tests.TestState</text>
</g>
<!-- Node9&#45;&gt;Node10 -->
<g id="edge9" class="edge"><title>Node9&#45;&gt;Node10</title>
<path fill="none" stroke="midnightblue" d="M577.567,-106.606C586.489,-106.479 595.483,-106.35 604.289,-106.224"/>
<polygon fill="midnightblue" stroke="midnightblue" points="577.487,-103.107 567.538,-106.749 577.587,-110.106 577.487,-103.107"/>
</g>
<!-- Node12 -->
<g id="node12" class="node"><title>Node12</title>
<g id="a_node12"><a xlink:href="class_tri_devs_1_1_tri_engine_1_1_state_management_1_1_game_state_manager.html" target="_top" xlink:title="Game state manager that keeps track of the active game states and provides methods to control the sta...">
<polygon fill="white" stroke="black" points="390.5,-44 390.5,-74 567.5,-74 567.5,-44 390.5,-44"/>
<text text-anchor="start" x="398.5" y="-62" font-family="Helvetica,sans-Serif" font-size="10.00">TriDevs.TriEngine.StateManagement.</text>
<text text-anchor="middle" x="479" y="-51" font-family="Helvetica,sans-Serif" font-size="10.00">GameStateManager</text>
</a>
</g>
</g>
<!-- Node11&#45;&gt;Node12 -->
<g id="edge11" class="edge"><title>Node11&#45;&gt;Node12</title>
<path fill="none" stroke="midnightblue" d="M364.01,-59C372.783,-59 381.629,-59 390.307,-59"/>
<polygon fill="midnightblue" stroke="midnightblue" points="363.759,-55.5001 353.759,-59 363.759,-62.5001 363.759,-55.5001"/>
</g>
<!-- Node14 -->
<g id="node14" class="node"><title>Node14</title>
<g id="a_node14"><a xlink:href="class_tri_devs_1_1_tri_engine_1_1_u_i_1_1_control.html" target="_top" xlink:title="Base control class that all other controls inherits from. Defines basic UI control behaviour...">
<polygon fill="white" stroke="black" points="410.5,-5.5 410.5,-24.5 547.5,-24.5 547.5,-5.5 410.5,-5.5"/>
<text text-anchor="middle" x="479" y="-12.5" font-family="Helvetica,sans-Serif" font-size="10.00">TriDevs.TriEngine.UI.Control</text>
</a>
</g>
</g>
<!-- Node13&#45;&gt;Node14 -->
<g id="edge13" class="edge"><title>Node13&#45;&gt;Node14</title>
<path fill="none" stroke="midnightblue" d="M345.184,-15C366.639,-15 389.664,-15 410.416,-15"/>
<polygon fill="midnightblue" stroke="midnightblue" points="345.123,-11.5001 335.123,-15 345.123,-18.5001 345.123,-11.5001"/>
</g>
<!-- Node15 -->
<g id="node15" class="node"><title>Node15</title>
<g id="a_node15"><a xlink:href="class_tri_devs_1_1_tri_engine_1_1_u_i_1_1_label.html" target="_top" xlink:title="A simple label to display text on the screen. ">
<polygon fill="white" stroke="black" points="626,-5.5 626,-24.5 756,-24.5 756,-5.5 626,-5.5"/>
<text text-anchor="middle" x="691" y="-12.5" font-family="Helvetica,sans-Serif" font-size="10.00">TriDevs.TriEngine.UI.Label</text>
</a>
</g>
</g>
<!-- Node14&#45;&gt;Node15 -->
<g id="edge14" class="edge"><title>Node14&#45;&gt;Node15</title>
<path fill="none" stroke="midnightblue" d="M557.743,-15C580.122,-15 604.277,-15 625.743,-15"/>
<polygon fill="midnightblue" stroke="midnightblue" points="557.601,-11.5001 547.601,-15 557.601,-18.5001 557.601,-11.5001"/>
</g>
<!-- Node16 -->
<g id="node16" class="node"><title>Node16</title>
<g id="a_node16"><a xlink:href="class_tri_devs_1_1_tri_engine_1_1_u_i_1_1_link_label.html" target="_top" xlink:title="A label that, when clicked, will open a URL. ">
<polygon fill="white" stroke="black" points="814.5,-0 814.5,-30 939.5,-30 939.5,-0 814.5,-0"/>
<text text-anchor="start" x="822.5" y="-18" font-family="Helvetica,sans-Serif" font-size="10.00">TriDevs.TriEngine.UI.Link</text>
<text text-anchor="middle" x="877" y="-7" font-family="Helvetica,sans-Serif" font-size="10.00">Label</text>
</a>
</g>
</g>
<!-- Node15&#45;&gt;Node16 -->
<g id="edge15" class="edge"><title>Node15&#45;&gt;Node16</title>
<path fill="none" stroke="midnightblue" d="M766.418,-15C782.317,-15 798.944,-15 814.302,-15"/>
<polygon fill="midnightblue" stroke="midnightblue" points="766.096,-11.5001 756.096,-15 766.096,-18.5001 766.096,-11.5001"/>
</g>
</g>
</svg>
        <g id="navigator" transform="translate(0 0)" fill="#404254">
                <rect fill="#f2f5e9" fill-opacity="0.5" stroke="#606060" stroke-width=".5" x="0" y="0" width="60" height="60"/>
                <use id="zoomplus" xlink:href="#zoomPlus" x="17" y="9" onmousedown="handleZoom(evt,'in')"/>
                <use id="zoomminus" xlink:href="#zoomMin" x="42" y="9" onmousedown="handleZoom(evt,'out')"/>
                <use id="reset" xlink:href="#resetDef" x="30" y="36" onmousedown="handleReset()"/>
                <g id="arrowUp" xlink:href="#dirArrow" transform="translate(30 24)" onmousedown="handlePan(0,-1)">
                  <use xlink:href="#rim" fill="#404040">
                        <set attributeName="fill" to="#808080" begin="arrowUp.mouseover" end="arrowUp.mouseout"/>
                  </use>
                  <path fill="none" stroke="white" stroke-width="1.5" d="M0,-3.0v7 M-2.5,-0.5L0,-3.0L2.5,-0.5"/>
                </g>
                <g id="arrowRight" xlink:href="#dirArrow" transform="rotate(90) translate(36 -43)" onmousedown="handlePan(1,0)">
                  <use xlink:href="#rim" fill="#404040">
                        <set attributeName="fill" to="#808080" begin="arrowRight.mouseover" end="arrowRight.mouseout"/>
                  </use>
                  <path fill="none" stroke="white" stroke-width="1.5" d="M0,-3.0v7 M-2.5,-0.5L0,-3.0L2.5,-0.5"/>
                </g>
                <g id="arrowDown" xlink:href="#dirArrow" transform="rotate(180) translate(-30 -48)" onmousedown="handlePan(0,1)">
                  <use xlink:href="#rim" fill="#404040">
                        <set attributeName="fill" to="#808080" begin="arrowDown.mouseover" end="arrowDown.mouseout"/>
                  </use>
                  <path fill="none" stroke="white" stroke-width="1.5" d="M0,-3.0v7 M-2.5,-0.5L0,-3.0L2.5,-0.5"/>
                </g>
                <g id="arrowLeft" xlink:href="#dirArrow" transform="rotate(270) translate(-36 17)" onmousedown="handlePan(-1,0)">
                  <use xlink:href="#rim" fill="#404040">
                        <set attributeName="fill" to="#808080" begin="arrowLeft.mouseover" end="arrowLeft.mouseout"/>
                  </use>
                  <path fill="none" stroke="white" stroke-width="1.5" d="M0,-3.0v7 M-2.5,-0.5L0,-3.0L2.5,-0.5"/>
                </g>
        </g>
        <svg viewBox="0 0 15 15" width="100%" height="30px" preserveAspectRatio="xMaxYMin meet">
         <g id="arrow_out" transform="scale(0.3 0.3)">
          <a xlink:href="interface_tri_devs_1_1_tri_engine_1_1_interfaces_1_1_i_drawable__inherit__graph_org.svg" target="_base">
           <rect id="button" ry="5" rx="5" y="6" x="6" height="38" width="38"
                fill="#f2f5e9" fill-opacity="0.5" stroke="#606060" stroke-width="1.0"/>
           <path id="arrow"
             d="M 11.500037,31.436501 C 11.940474,20.09759 22.043105,11.32322 32.158766,21.979434 L 37.068811,17.246167 C 37.068811,17.246167 37.088388,32 37.088388,32 L 22.160133,31.978069 C 22.160133,31.978069 26.997745,27.140456 26.997745,27.140456 C 18.528582,18.264221 13.291696,25.230495 11.500037,31.436501 z"
             style="fill:#404040;"/>
          </a>
         </g>
        </svg>
</svg>
