<?xml version="1.0" encoding="UTF-8" standalone="no"?>
<!DOCTYPE svg PUBLIC "-//W3C//DTD SVG 1.1//EN"
 "http://www.w3.org/Graphics/SVG/1.1/DTD/svg11.dtd">
<!-- Generated by graphviz version 2.30.0 (20130114.0323)
 -->
<!-- Title: TriDevs.TriEngine.StateManagement.IGameState Pages: 1 -->
<svg width="184pt" height="242pt"
 viewBox="0.00 0.00 184.00 242.00" xmlns="http://www.w3.org/2000/svg" xmlns:xlink="http://www.w3.org/1999/xlink">
<g id="graph0" class="graph" transform="scale(1 1) rotate(0) translate(4 238)">
<title>TriDevs.TriEngine.StateManagement.IGameState</title>
<polygon fill="white" stroke="white" points="-4,5 -4,-238 181,-238 181,5 -4,5"/>
<!-- Node1 -->
<g id="node1" class="node"><title>Node1</title>
<polygon fill="#bfbfbf" stroke="black" points="-0.5,-147 -0.5,-177 176.5,-177 176.5,-147 -0.5,-147"/>
<text text-anchor="start" x="7.5" y="-165" font-family="Helvetica,sans-Serif" font-size="10.00">TriDevs.TriEngine.StateManagement.</text>
<text text-anchor="middle" x="88" y="-154" font-family="Helvetica,sans-Serif" font-size="10.00">IGameState</text>
</g>
<!-- Node4 -->
<g id="node4" class="node"><title>Node4</title>
<g id="a_node4"><a xlink:href="class_tri_devs_1_1_tri_engine_1_1_state_management_1_1_game_state.html" target="_top" xlink:title="Base GameState class that all other game states derive from, defines basic GameState behaviour...">
<polygon fill="white" stroke="black" points="-0.5,-79 -0.5,-109 176.5,-109 176.5,-79 -0.5,-79"/>
<text text-anchor="start" x="7.5" y="-97" font-family="Helvetica,sans-Serif" font-size="10.00">TriDevs.TriEngine.StateManagement.</text>
<text text-anchor="middle" x="88" y="-86" font-family="Helvetica,sans-Serif" font-size="10.00">GameState</text>
</a>
</g>
</g>
<!-- Node1&#45;&gt;Node4 -->
<g id="edge3" class="edge"><title>Node1&#45;&gt;Node4</title>
<path fill="none" stroke="midnightblue" d="M88,-136.532C88,-127.361 88,-117.245 88,-109.293"/>
<polygon fill="midnightblue" stroke="midnightblue" points="84.5001,-136.679 88,-146.679 91.5001,-136.679 84.5001,-136.679"/>
</g>
<!-- Node2 -->
<g id="node2" class="node"><title>Node2</title>
<g id="a_node2"><a xlink:href="interface_tri_devs_1_1_tri_engine_1_1_interfaces_1_1_i_drawable.html" target="_top" xlink:title="Implements a simple draw method. ">
<polygon fill="white" stroke="black" points="19.5,-214.5 19.5,-233.5 78.5,-233.5 78.5,-214.5 19.5,-214.5"/>
<text text-anchor="middle" x="49" y="-221.5" font-family="Helvetica,sans-Serif" font-size="10.00">IDrawable</text>
</a>
</g>
</g>
<!-- Node2&#45;&gt;Node1 -->
<g id="edge1" class="edge"><title>Node2&#45;&gt;Node1</title>
<path fill="none" stroke="midnightblue" d="M60.1669,-205.82C66.0706,-196.738 73.2295,-185.724 78.8085,-177.141"/>
<polygon fill="midnightblue" stroke="midnightblue" points="57.1031,-204.112 54.5877,-214.403 62.9722,-207.926 57.1031,-204.112"/>
</g>
<!-- Node3 -->
<g id="node3" class="node"><title>Node3</title>
<g id="a_node3"><a xlink:href="interface_tri_devs_1_1_tri_engine_1_1_interfaces_1_1_i_updatable.html" target="_top" xlink:title="Implements a simple update method. ">
<polygon fill="white" stroke="black" points="97,-214.5 97,-233.5 159,-233.5 159,-214.5 97,-214.5"/>
<text text-anchor="middle" x="128" y="-221.5" font-family="Helvetica,sans-Serif" font-size="10.00">IUpdatable</text>
</a>
</g>
</g>
<!-- Node3&#45;&gt;Node1 -->
<g id="edge2" class="edge"><title>Node3&#45;&gt;Node1</title>
<path fill="none" stroke="midnightblue" d="M116.547,-205.82C110.492,-196.738 103.149,-185.724 97.4272,-177.141"/>
<polygon fill="midnightblue" stroke="midnightblue" points="113.81,-208.024 122.269,-214.403 119.634,-204.141 113.81,-208.024"/>
</g>
<!-- Node5 -->
<g id="node5" class="node"><title>Node5</title>
<polygon fill="white" stroke="#bfbfbf" points="1.5,-0.5 1.5,-41.5 174.5,-41.5 174.5,-0.5 1.5,-0.5"/>
<text text-anchor="start" x="9.5" y="-29.5" font-family="Helvetica,sans-Serif" font-size="10.00">TriDevs.TriEngine.Tests.</text>
<text text-anchor="start" x="9.5" y="-18.5" font-family="Helvetica,sans-Serif" font-size="10.00">StateManagementTests.GameState</text>
<text text-anchor="middle" x="88" y="-7.5" font-family="Helvetica,sans-Serif" font-size="10.00">Tests.TestState</text>
</g>
<!-- Node4&#45;&gt;Node5 -->
<g id="edge4" class="edge"><title>Node4&#45;&gt;Node5</title>
<path fill="none" stroke="midnightblue" d="M88,-68.8534C88,-59.9872 88,-50.065 88,-41.642"/>
<polygon fill="midnightblue" stroke="midnightblue" points="84.5001,-68.9727 88,-78.9727 91.5001,-68.9727 84.5001,-68.9727"/>
</g>
</g>
</svg>
