<?xml version="1.0" encoding="UTF-8" standalone="no"?>
<!DOCTYPE svg PUBLIC "-//W3C//DTD SVG 1.1//EN"
 "http://www.w3.org/Graphics/SVG/1.1/DTD/svg11.dtd">
<!-- Generated by graphviz version 2.30.0 (20130114.0323)
 -->
<!-- Title: TriDevs.TriEngine2D.UI.IControl Pages: 1 -->
<svg width="160pt" height="264pt"
 viewBox="0.00 0.00 160.00 264.00" xmlns="http://www.w3.org/2000/svg" xmlns:xlink="http://www.w3.org/1999/xlink">
<g id="graph0" class="graph" transform="scale(1 1) rotate(0) translate(4 260)">
<title>TriDevs.TriEngine2D.UI.IControl</title>
<polygon fill="white" stroke="white" points="-4,5 -4,-260 157,-260 157,5 -4,5"/>
<!-- Node1 -->
<g id="node1" class="node"><title>Node1</title>
<polygon fill="#bfbfbf" stroke="black" points="0,-180.5 0,-199.5 152,-199.5 152,-180.5 0,-180.5"/>
<text text-anchor="middle" x="76" y="-187.5" font-family="Helvetica,sans-Serif" font-size="10.00">TriDevs.TriEngine2D.UI.IControl</text>
</g>
<!-- Node4 -->
<g id="node4" class="node"><title>Node4</title>
<g id="a_node4"><a xlink:href="class_tri_devs_1_1_tri_engine2_d_1_1_u_i_1_1_control.html" target="_top" xlink:title="Base control class that all other controls inherits from. Defines basic UI control behaviour...">
<polygon fill="white" stroke="black" points="1.5,-124.5 1.5,-143.5 150.5,-143.5 150.5,-124.5 1.5,-124.5"/>
<text text-anchor="middle" x="76" y="-131.5" font-family="Helvetica,sans-Serif" font-size="10.00">TriDevs.TriEngine2D.UI.Control</text>
</a>
</g>
</g>
<!-- Node1&#45;&gt;Node4 -->
<g id="edge3" class="edge"><title>Node1&#45;&gt;Node4</title>
<path fill="none" stroke="midnightblue" d="M76,-169.805C76,-160.91 76,-150.78 76,-143.751"/>
<polygon fill="midnightblue" stroke="midnightblue" points="72.5001,-170.083 76,-180.083 79.5001,-170.083 72.5001,-170.083"/>
</g>
<!-- Node2 -->
<g id="node2" class="node"><title>Node2</title>
<g id="a_node2"><a xlink:href="interface_tri_devs_1_1_tri_engine2_d_1_1_interfaces_1_1_i_updatable.html" target="_top" xlink:title="Implements a simple update method. ">
<polygon fill="white" stroke="black" points="6,-236.5 6,-255.5 68,-255.5 68,-236.5 6,-236.5"/>
<text text-anchor="middle" x="37" y="-243.5" font-family="Helvetica,sans-Serif" font-size="10.00">IUpdatable</text>
</a>
</g>
</g>
<!-- Node2&#45;&gt;Node1 -->
<g id="edge1" class="edge"><title>Node2&#45;&gt;Node1</title>
<path fill="none" stroke="midnightblue" d="M49.3822,-227.855C56.1354,-218.505 64.2086,-207.327 69.6798,-199.751"/>
<polygon fill="midnightblue" stroke="midnightblue" points="46.4576,-225.927 43.4401,-236.083 52.1324,-230.025 46.4576,-225.927"/>
</g>
<!-- Node3 -->
<g id="node3" class="node"><title>Node3</title>
<g id="a_node3"><a xlink:href="interface_tri_devs_1_1_tri_engine2_d_1_1_interfaces_1_1_i_drawable.html" target="_top" xlink:title="Implements a simple draw method. ">
<polygon fill="white" stroke="black" points="86.5,-236.5 86.5,-255.5 145.5,-255.5 145.5,-236.5 86.5,-236.5"/>
<text text-anchor="middle" x="116" y="-243.5" font-family="Helvetica,sans-Serif" font-size="10.00">IDrawable</text>
</a>
</g>
</g>
<!-- Node3&#45;&gt;Node1 -->
<g id="edge2" class="edge"><title>Node3&#45;&gt;Node1</title>
<path fill="none" stroke="midnightblue" d="M103.3,-227.855C96.374,-218.505 88.0937,-207.327 82.4823,-199.751"/>
<polygon fill="midnightblue" stroke="midnightblue" points="100.63,-230.131 109.395,-236.083 106.255,-225.964 100.63,-230.131"/>
</g>
<!-- Node5 -->
<g id="node5" class="node"><title>Node5</title>
<g id="a_node5"><a xlink:href="class_tri_devs_1_1_tri_engine2_d_1_1_u_i_1_1_label.html" target="_top" xlink:title="A simple label to display text on the screen. ">
<polygon fill="white" stroke="black" points="5,-68.5 5,-87.5 147,-87.5 147,-68.5 5,-68.5"/>
<text text-anchor="middle" x="76" y="-75.5" font-family="Helvetica,sans-Serif" font-size="10.00">TriDevs.TriEngine2D.UI.Label</text>
</a>
</g>
</g>
<!-- Node4&#45;&gt;Node5 -->
<g id="edge4" class="edge"><title>Node4&#45;&gt;Node5</title>
<path fill="none" stroke="midnightblue" d="M76,-113.805C76,-104.91 76,-94.7798 76,-87.7511"/>
<polygon fill="midnightblue" stroke="midnightblue" points="72.5001,-114.083 76,-124.083 79.5001,-114.083 72.5001,-114.083"/>
</g>
<!-- Node6 -->
<g id="node6" class="node"><title>Node6</title>
<g id="a_node6"><a xlink:href="class_tri_devs_1_1_tri_engine2_d_1_1_u_i_1_1_link_label.html" target="_top" xlink:title="A label that, when clicked, will open a URL. ">
<polygon fill="white" stroke="black" points="7.5,-1 7.5,-31 144.5,-31 144.5,-1 7.5,-1"/>
<text text-anchor="start" x="15.5" y="-19" font-family="Helvetica,sans-Serif" font-size="10.00">TriDevs.TriEngine2D.UI.Link</text>
<text text-anchor="middle" x="76" y="-8" font-family="Helvetica,sans-Serif" font-size="10.00">Label</text>
</a>
</g>
</g>
<!-- Node5&#45;&gt;Node6 -->
<g id="edge5" class="edge"><title>Node5&#45;&gt;Node6</title>
<path fill="none" stroke="midnightblue" d="M76,-58.3707C76,-49.5849 76,-39.2721 76,-31.1408"/>
<polygon fill="midnightblue" stroke="midnightblue" points="72.5001,-58.4034 76,-68.4035 79.5001,-58.4035 72.5001,-58.4034"/>
</g>
</g>
</svg>
