<?xml version="1.0" encoding="UTF-8" standalone="no"?>
<!DOCTYPE svg PUBLIC "-//W3C//DTD SVG 1.1//EN"
 "http://www.w3.org/Graphics/SVG/1.1/DTD/svg11.dtd">
<!-- Generated by graphviz version 2.30.0 (20130114.0323)
 -->
<!-- Title: TriDevs.TriEngine.Text.ITextObject Pages: 1 -->
<svg width="144pt" height="108pt"
 viewBox="0.00 0.00 144.00 108.00" xmlns="http://www.w3.org/2000/svg" xmlns:xlink="http://www.w3.org/1999/xlink">
<g id="graph0" class="graph" transform="scale(1 1) rotate(0) translate(4 104)">
<title>TriDevs.TriEngine.Text.ITextObject</title>
<polygon fill="white" stroke="white" points="-4,5 -4,-104 141,-104 141,5 -4,5"/>
<!-- Node1 -->
<g id="node1" class="node"><title>Node1</title>
<polygon fill="#bfbfbf" stroke="black" points="-0.5,-69 -0.5,-99 136.5,-99 136.5,-69 -0.5,-69"/>
<text text-anchor="start" x="7.5" y="-87" font-family="Helvetica,sans-Serif" font-size="10.00">TriDevs.TriEngine.Text.IText</text>
<text text-anchor="middle" x="68" y="-76" font-family="Helvetica,sans-Serif" font-size="10.00">Object</text>
</g>
<!-- Node2 -->
<g id="node2" class="node"><title>Node2</title>
<g id="a_node2"><a xlink:href="class_tri_devs_1_1_tri_engine_1_1_text_1_1_text_object.html" target="_top" xlink:title="Implements the ITextObject interface. ">
<polygon fill="white" stroke="black" points="0.5,-1 0.5,-31 135.5,-31 135.5,-1 0.5,-1"/>
<text text-anchor="start" x="8.5" y="-19" font-family="Helvetica,sans-Serif" font-size="10.00">TriDevs.TriEngine.Text.Text</text>
<text text-anchor="middle" x="68" y="-8" font-family="Helvetica,sans-Serif" font-size="10.00">Object</text>
</a>
</g>
</g>
<!-- Node1&#45;&gt;Node2 -->
<g id="edge1" class="edge"><title>Node1&#45;&gt;Node2</title>
<path fill="none" stroke="midnightblue" d="M68,-58.5322C68,-49.3606 68,-39.2449 68,-31.2931"/>
<polygon fill="midnightblue" stroke="midnightblue" points="64.5001,-58.6789 68,-68.679 71.5001,-58.679 64.5001,-58.6789"/>
</g>
</g>
</svg>
