<?xml version="1.0" encoding="UTF-8" standalone="no"?>
<!DOCTYPE svg PUBLIC "-//W3C//DTD SVG 1.1//EN"
 "http://www.w3.org/Graphics/SVG/1.1/DTD/svg11.dtd">
<!-- Generated by graphviz version 2.30.0 (20130114.0323)
 -->
<!-- Title: TriDevs.TriEngine.Audio.ISong Pages: 1 -->
<svg width="293pt" height="220pt"
 viewBox="0.00 0.00 293.00 220.00" xmlns="http://www.w3.org/2000/svg" xmlns:xlink="http://www.w3.org/1999/xlink">
<g id="graph0" class="graph" transform="scale(1 1) rotate(0) translate(4 216)">
<title>TriDevs.TriEngine.Audio.ISong</title>
<polygon fill="white" stroke="white" points="-4,5 -4,-216 290,-216 290,5 -4,5"/>
<!-- Node1 -->
<g id="node1" class="node"><title>Node1</title>
<polygon fill="#bfbfbf" stroke="black" points="76,-69 76,-99 198,-99 198,-69 76,-69"/>
<text text-anchor="start" x="84" y="-87" font-family="Helvetica,sans-Serif" font-size="10.00">TriDevs.TriEngine.Audio.</text>
<text text-anchor="middle" x="137" y="-76" font-family="Helvetica,sans-Serif" font-size="10.00">ISong</text>
</g>
<!-- Node4 -->
<g id="node4" class="node"><title>Node4</title>
<g id="a_node4"><a xlink:href="class_tri_devs_1_1_tri_engine_1_1_audio_1_1_null_song.html" target="_top" xlink:title="Fallback song class used in NullAudioManager. ">
<polygon fill="white" stroke="black" points="0,-1 0,-31 122,-31 122,-1 0,-1"/>
<text text-anchor="start" x="8" y="-19" font-family="Helvetica,sans-Serif" font-size="10.00">TriDevs.TriEngine.Audio.</text>
<text text-anchor="middle" x="61" y="-8" font-family="Helvetica,sans-Serif" font-size="10.00">NullSong</text>
</a>
</g>
</g>
<!-- Node1&#45;&gt;Node4 -->
<g id="edge3" class="edge"><title>Node1&#45;&gt;Node4</title>
<path fill="none" stroke="midnightblue" d="M112.839,-62.0184C101.205,-51.9145 87.565,-40.0696 77.1976,-31.0663"/>
<polygon fill="midnightblue" stroke="midnightblue" points="110.664,-64.7647 120.509,-68.679 115.254,-59.4795 110.664,-64.7647"/>
</g>
<!-- Node5 -->
<g id="node5" class="node"><title>Node5</title>
<g id="a_node5"><a xlink:href="class_tri_devs_1_1_tri_engine_1_1_audio_1_1_song.html" target="_top" xlink:title="Song class that can be used with AudioManager. ">
<polygon fill="white" stroke="black" points="140.5,-6.5 140.5,-25.5 285.5,-25.5 285.5,-6.5 140.5,-6.5"/>
<text text-anchor="middle" x="213" y="-13.5" font-family="Helvetica,sans-Serif" font-size="10.00">TriDevs.TriEngine.Audio.Song</text>
</a>
</g>
</g>
<!-- Node1&#45;&gt;Node5 -->
<g id="edge4" class="edge"><title>Node1&#45;&gt;Node5</title>
<path fill="none" stroke="midnightblue" d="M161.353,-61.8517C175.385,-49.6656 192.281,-34.9929 202.834,-25.8283"/>
<polygon fill="midnightblue" stroke="midnightblue" points="158.746,-59.4795 153.491,-68.679 163.336,-64.7647 158.746,-59.4795"/>
</g>
<!-- Node2 -->
<g id="node2" class="node"><title>Node2</title>
<g id="a_node2"><a xlink:href="interface_tri_devs_1_1_tri_engine_1_1_resources_1_1_i_resource.html" target="_top" xlink:title="An external resource created from a file. ">
<polygon fill="white" stroke="black" points="107,-136.5 107,-155.5 167,-155.5 167,-136.5 107,-136.5"/>
<text text-anchor="middle" x="137" y="-143.5" font-family="Helvetica,sans-Serif" font-size="10.00">IResource</text>
</a>
</g>
</g>
<!-- Node2&#45;&gt;Node1 -->
<g id="edge1" class="edge"><title>Node2&#45;&gt;Node1</title>
<path fill="none" stroke="midnightblue" d="M137,-126.371C137,-117.585 137,-107.272 137,-99.1408"/>
<polygon fill="midnightblue" stroke="midnightblue" points="133.5,-126.403 137,-136.403 140.5,-126.403 133.5,-126.403"/>
</g>
<!-- Node3 -->
<g id="node3" class="node"><title>Node3</title>
<polygon fill="white" stroke="#bfbfbf" points="103.5,-192.5 103.5,-211.5 170.5,-211.5 170.5,-192.5 103.5,-192.5"/>
<text text-anchor="middle" x="137" y="-199.5" font-family="Helvetica,sans-Serif" font-size="10.00">IDisposable</text>
</g>
<!-- Node3&#45;&gt;Node2 -->
<g id="edge2" class="edge"><title>Node3&#45;&gt;Node2</title>
<path fill="none" stroke="midnightblue" d="M137,-181.805C137,-172.91 137,-162.78 137,-155.751"/>
<polygon fill="midnightblue" stroke="midnightblue" points="133.5,-182.083 137,-192.083 140.5,-182.083 133.5,-182.083"/>
</g>
</g>
</svg>
