<?xml version="1.0" encoding="UTF-8" standalone="no"?>
<!DOCTYPE svg PUBLIC "-//W3C//DTD SVG 1.1//EN"
 "http://www.w3.org/Graphics/SVG/1.1/DTD/svg11.dtd">
<!-- Generated by graphviz version 2.30.0 (20130114.0323)
 -->
<!-- Title: TriDevs.TriEngine2D.StateManagement.IGameState Pages: 1 -->
<svg width="179pt" height="276pt"
 viewBox="0.00 0.00 179.00 276.00" xmlns="http://www.w3.org/2000/svg" xmlns:xlink="http://www.w3.org/1999/xlink">
<g id="graph0" class="graph" transform="scale(1 1) rotate(0) translate(4 272)">
<title>TriDevs.TriEngine2D.StateManagement.IGameState</title>
<polygon fill="white" stroke="white" points="-4,5 -4,-272 176,-272 176,5 -4,5"/>
<!-- Node1 -->
<g id="node1" class="node"><title>Node1</title>
<polygon fill="#bfbfbf" stroke="black" points="29,-69 29,-99 159,-99 159,-69 29,-69"/>
<text text-anchor="start" x="37" y="-87" font-family="Helvetica,sans-Serif" font-size="10.00">TriDevs.TriEngine2D.State</text>
<text text-anchor="middle" x="94" y="-76" font-family="Helvetica,sans-Serif" font-size="10.00">Management.IGameState</text>
</g>
<!-- Node6 -->
<g id="node6" class="node"><title>Node6</title>
<g id="a_node6"><a xlink:href="class_tri_devs_1_1_tri_engine2_d_1_1_state_management_1_1_game_state.html" target="_top" xlink:title="Base GameState class that all other game states derive from, defines basic GameState behaviour...">
<polygon fill="white" stroke="black" points="29,-1 29,-31 159,-31 159,-1 29,-1"/>
<text text-anchor="start" x="37" y="-19" font-family="Helvetica,sans-Serif" font-size="10.00">TriDevs.TriEngine2D.State</text>
<text text-anchor="middle" x="94" y="-8" font-family="Helvetica,sans-Serif" font-size="10.00">Management.GameState</text>
</a>
</g>
</g>
<!-- Node1&#45;&gt;Node6 -->
<g id="edge5" class="edge"><title>Node1&#45;&gt;Node6</title>
<path fill="none" stroke="midnightblue" d="M94,-58.5322C94,-49.3606 94,-39.2449 94,-31.2931"/>
<polygon fill="midnightblue" stroke="midnightblue" points="90.5001,-58.6789 94,-68.679 97.5001,-58.679 90.5001,-58.6789"/>
</g>
<!-- Node2 -->
<g id="node2" class="node"><title>Node2</title>
<g id="a_node2"><a xlink:href="interface_tri_devs_1_1_tri_engine2_d_1_1_interfaces_1_1_i_drawable_game_component.html" target="_top" xlink:title="A game component that can be added to GameState objects. Drawable game components also implement a dr...">
<polygon fill="white" stroke="black" points="27,-136.5 27,-155.5 161,-155.5 161,-136.5 27,-136.5"/>
<text text-anchor="middle" x="94" y="-143.5" font-family="Helvetica,sans-Serif" font-size="10.00">IDrawableGameComponent</text>
</a>
</g>
</g>
<!-- Node2&#45;&gt;Node1 -->
<g id="edge1" class="edge"><title>Node2&#45;&gt;Node1</title>
<path fill="none" stroke="midnightblue" d="M94,-126.371C94,-117.585 94,-107.272 94,-99.1408"/>
<polygon fill="midnightblue" stroke="midnightblue" points="90.5001,-126.403 94,-136.403 97.5001,-126.403 90.5001,-126.403"/>
</g>
<!-- Node3 -->
<g id="node3" class="node"><title>Node3</title>
<g id="a_node3"><a xlink:href="interface_tri_devs_1_1_tri_engine2_d_1_1_interfaces_1_1_i_game_component.html" target="_top" xlink:title="A game component that can be added to IGameState objects. ">
<polygon fill="white" stroke="black" points="-0.5,-192.5 -0.5,-211.5 94.5,-211.5 94.5,-192.5 -0.5,-192.5"/>
<text text-anchor="middle" x="47" y="-199.5" font-family="Helvetica,sans-Serif" font-size="10.00">IGameComponent</text>
</a>
</g>
</g>
<!-- Node3&#45;&gt;Node2 -->
<g id="edge2" class="edge"><title>Node3&#45;&gt;Node2</title>
<path fill="none" stroke="midnightblue" d="M61.4208,-184.431C69.6581,-174.967 79.6539,-163.483 86.3833,-155.751"/>
<polygon fill="midnightblue" stroke="midnightblue" points="58.6863,-182.242 54.7611,-192.083 63.9664,-186.838 58.6863,-182.242"/>
</g>
<!-- Node4 -->
<g id="node4" class="node"><title>Node4</title>
<g id="a_node4"><a xlink:href="interface_tri_devs_1_1_tri_engine2_d_1_1_interfaces_1_1_i_updatable.html" target="_top" xlink:title="Implements a simple update method. ">
<polygon fill="white" stroke="black" points="16,-248.5 16,-267.5 78,-267.5 78,-248.5 16,-248.5"/>
<text text-anchor="middle" x="47" y="-255.5" font-family="Helvetica,sans-Serif" font-size="10.00">IUpdatable</text>
</a>
</g>
</g>
<!-- Node4&#45;&gt;Node3 -->
<g id="edge3" class="edge"><title>Node4&#45;&gt;Node3</title>
<path fill="none" stroke="midnightblue" d="M47,-237.805C47,-228.91 47,-218.78 47,-211.751"/>
<polygon fill="midnightblue" stroke="midnightblue" points="43.5001,-238.083 47,-248.083 50.5001,-238.083 43.5001,-238.083"/>
</g>
<!-- Node5 -->
<g id="node5" class="node"><title>Node5</title>
<g id="a_node5"><a xlink:href="interface_tri_devs_1_1_tri_engine2_d_1_1_interfaces_1_1_i_drawable.html" target="_top" xlink:title="Implements a simple draw method. ">
<polygon fill="white" stroke="black" points="112.5,-192.5 112.5,-211.5 171.5,-211.5 171.5,-192.5 112.5,-192.5"/>
<text text-anchor="middle" x="142" y="-199.5" font-family="Helvetica,sans-Serif" font-size="10.00">IDrawable</text>
</a>
</g>
</g>
<!-- Node5&#45;&gt;Node2 -->
<g id="edge4" class="edge"><title>Node5&#45;&gt;Node2</title>
<path fill="none" stroke="midnightblue" d="M127.272,-184.431C118.86,-174.967 108.651,-163.483 101.779,-155.751"/>
<polygon fill="midnightblue" stroke="midnightblue" points="124.814,-186.934 134.074,-192.083 130.046,-182.284 124.814,-186.934"/>
</g>
</g>
</svg>
