<?xml version="1.0" encoding="UTF-8" standalone="no"?>
<!DOCTYPE svg PUBLIC "-//W3C//DTD SVG 1.1//EN"
 "http://www.w3.org/Graphics/SVG/1.1/DTD/svg11.dtd">
<!-- Generated by graphviz version 2.30.0 (20130114.0323)
 -->
<!-- Title: TriDevs.TriEngine2D.Audio.IAudioManager Pages: 1 -->
<svg width="294pt" height="164pt"
 viewBox="0.00 0.00 294.00 164.00" xmlns="http://www.w3.org/2000/svg" xmlns:xlink="http://www.w3.org/1999/xlink">
<g id="graph0" class="graph" transform="scale(1 1) rotate(0) translate(4 160)">
<title>TriDevs.TriEngine2D.Audio.IAudioManager</title>
<polygon fill="white" stroke="white" points="-4,5 -4,-160 291,-160 291,5 -4,5"/>
<!-- Node1 -->
<g id="node1" class="node"><title>Node1</title>
<polygon fill="#bfbfbf" stroke="black" points="76,-69 76,-99 210,-99 210,-69 76,-69"/>
<text text-anchor="start" x="84" y="-87" font-family="Helvetica,sans-Serif" font-size="10.00">TriDevs.TriEngine2D.Audio.</text>
<text text-anchor="middle" x="143" y="-76" font-family="Helvetica,sans-Serif" font-size="10.00">IAudioManager</text>
</g>
<!-- Node3 -->
<g id="node3" class="node"><title>Node3</title>
<g id="a_node3"><a xlink:href="class_tri_devs_1_1_tri_engine2_d_1_1_audio_1_1_audio_manager.html" target="_top" xlink:title="Class to manage engine audio. ">
<polygon fill="white" stroke="black" points="0,-1 0,-31 134,-31 134,-1 0,-1"/>
<text text-anchor="start" x="8" y="-19" font-family="Helvetica,sans-Serif" font-size="10.00">TriDevs.TriEngine2D.Audio.</text>
<text text-anchor="middle" x="67" y="-8" font-family="Helvetica,sans-Serif" font-size="10.00">AudioManager</text>
</a>
</g>
</g>
<!-- Node1&#45;&gt;Node3 -->
<g id="edge2" class="edge"><title>Node1&#45;&gt;Node3</title>
<path fill="none" stroke="midnightblue" d="M118.839,-62.0184C107.205,-51.9145 93.565,-40.0696 83.1976,-31.0663"/>
<polygon fill="midnightblue" stroke="midnightblue" points="116.664,-64.7647 126.509,-68.679 121.254,-59.4795 116.664,-64.7647"/>
</g>
<!-- Node4 -->
<g id="node4" class="node"><title>Node4</title>
<g id="a_node4"><a xlink:href="class_tri_devs_1_1_tri_engine2_d_1_1_audio_1_1_null_audio_manager.html" target="_top" xlink:title="Used as a fallback AudioManager object when the service locator fails to find one. ">
<polygon fill="white" stroke="black" points="152,-1 152,-31 286,-31 286,-1 152,-1"/>
<text text-anchor="start" x="160" y="-19" font-family="Helvetica,sans-Serif" font-size="10.00">TriDevs.TriEngine2D.Audio.</text>
<text text-anchor="middle" x="219" y="-8" font-family="Helvetica,sans-Serif" font-size="10.00">NullAudioManager</text>
</a>
</g>
</g>
<!-- Node1&#45;&gt;Node4 -->
<g id="edge3" class="edge"><title>Node1&#45;&gt;Node4</title>
<path fill="none" stroke="midnightblue" d="M167.161,-62.0184C178.795,-51.9145 192.435,-40.0696 202.802,-31.0663"/>
<polygon fill="midnightblue" stroke="midnightblue" points="164.746,-59.4795 159.491,-68.679 169.336,-64.7647 164.746,-59.4795"/>
</g>
<!-- Node2 -->
<g id="node2" class="node"><title>Node2</title>
<polygon fill="white" stroke="#bfbfbf" points="109.5,-136.5 109.5,-155.5 176.5,-155.5 176.5,-136.5 109.5,-136.5"/>
<text text-anchor="middle" x="143" y="-143.5" font-family="Helvetica,sans-Serif" font-size="10.00">IDisposable</text>
</g>
<!-- Node2&#45;&gt;Node1 -->
<g id="edge1" class="edge"><title>Node2&#45;&gt;Node1</title>
<path fill="none" stroke="midnightblue" d="M143,-126.371C143,-117.585 143,-107.272 143,-99.1408"/>
<polygon fill="midnightblue" stroke="midnightblue" points="139.5,-126.403 143,-136.403 146.5,-126.403 139.5,-126.403"/>
</g>
</g>
</svg>
