<?xml version="1.0" encoding="UTF-8" standalone="no"?>
<!DOCTYPE svg PUBLIC "-//W3C//DTD SVG 1.1//EN"
 "http://www.w3.org/Graphics/SVG/1.1/DTD/svg11.dtd">
<!-- Generated by graphviz version 2.30.0 (20130114.0323)
 -->
<!-- Title: TriDevs.TriEngine.UI.IControlManager Pages: 1 -->
<svg width="179pt" height="208pt"
 viewBox="0.00 0.00 179.00 208.00" xmlns="http://www.w3.org/2000/svg" xmlns:xlink="http://www.w3.org/1999/xlink">
<g id="graph0" class="graph" transform="scale(1 1) rotate(0) translate(4 204)">
<title>TriDevs.TriEngine.UI.IControlManager</title>
<polygon fill="white" stroke="white" points="-4,5 -4,-204 176,-204 176,5 -4,5"/>
<!-- Node1 -->
<g id="node1" class="node"><title>Node1</title>
<polygon fill="#bfbfbf" stroke="black" points="24,-1 24,-31 164,-31 164,-1 24,-1"/>
<text text-anchor="start" x="32" y="-19" font-family="Helvetica,sans-Serif" font-size="10.00">TriDevs.TriEngine.UI.IControl</text>
<text text-anchor="middle" x="94" y="-8" font-family="Helvetica,sans-Serif" font-size="10.00">Manager</text>
</g>
<!-- Node2 -->
<g id="node2" class="node"><title>Node2</title>
<g id="a_node2"><a xlink:href="interface_tri_devs_1_1_tri_engine_1_1_interfaces_1_1_i_drawable_game_component.html" target="_top" xlink:title="A game component that can be added to GameState objects. Drawable game components also implement a dr...">
<polygon fill="white" stroke="black" points="27,-68.5 27,-87.5 161,-87.5 161,-68.5 27,-68.5"/>
<text text-anchor="middle" x="94" y="-75.5" font-family="Helvetica,sans-Serif" font-size="10.00">IDrawableGameComponent</text>
</a>
</g>
</g>
<!-- Node2&#45;&gt;Node1 -->
<g id="edge1" class="edge"><title>Node2&#45;&gt;Node1</title>
<path fill="none" stroke="midnightblue" d="M94,-58.3707C94,-49.5849 94,-39.2721 94,-31.1408"/>
<polygon fill="midnightblue" stroke="midnightblue" points="90.5001,-58.4034 94,-68.4035 97.5001,-58.4035 90.5001,-58.4034"/>
</g>
<!-- Node3 -->
<g id="node3" class="node"><title>Node3</title>
<g id="a_node3"><a xlink:href="interface_tri_devs_1_1_tri_engine_1_1_interfaces_1_1_i_game_component.html" target="_top" xlink:title="A game component that can be added to IGameState objects. ">
<polygon fill="white" stroke="black" points="-0.5,-124.5 -0.5,-143.5 94.5,-143.5 94.5,-124.5 -0.5,-124.5"/>
<text text-anchor="middle" x="47" y="-131.5" font-family="Helvetica,sans-Serif" font-size="10.00">IGameComponent</text>
</a>
</g>
</g>
<!-- Node3&#45;&gt;Node2 -->
<g id="edge2" class="edge"><title>Node3&#45;&gt;Node2</title>
<path fill="none" stroke="midnightblue" d="M61.4208,-116.431C69.6581,-106.967 79.6539,-95.4827 86.3833,-87.7511"/>
<polygon fill="midnightblue" stroke="midnightblue" points="58.6863,-114.242 54.7611,-124.083 63.9664,-118.838 58.6863,-114.242"/>
</g>
<!-- Node4 -->
<g id="node4" class="node"><title>Node4</title>
<g id="a_node4"><a xlink:href="interface_tri_devs_1_1_tri_engine_1_1_interfaces_1_1_i_updatable.html" target="_top" xlink:title="Implements a simple update method. ">
<polygon fill="white" stroke="black" points="16,-180.5 16,-199.5 78,-199.5 78,-180.5 16,-180.5"/>
<text text-anchor="middle" x="47" y="-187.5" font-family="Helvetica,sans-Serif" font-size="10.00">IUpdatable</text>
</a>
</g>
</g>
<!-- Node4&#45;&gt;Node3 -->
<g id="edge3" class="edge"><title>Node4&#45;&gt;Node3</title>
<path fill="none" stroke="midnightblue" d="M47,-169.805C47,-160.91 47,-150.78 47,-143.751"/>
<polygon fill="midnightblue" stroke="midnightblue" points="43.5001,-170.083 47,-180.083 50.5001,-170.083 43.5001,-170.083"/>
</g>
<!-- Node5 -->
<g id="node5" class="node"><title>Node5</title>
<g id="a_node5"><a xlink:href="interface_tri_devs_1_1_tri_engine_1_1_interfaces_1_1_i_drawable.html" target="_top" xlink:title="Implements a simple draw method. ">
<polygon fill="white" stroke="black" points="112.5,-124.5 112.5,-143.5 171.5,-143.5 171.5,-124.5 112.5,-124.5"/>
<text text-anchor="middle" x="142" y="-131.5" font-family="Helvetica,sans-Serif" font-size="10.00">IDrawable</text>
</a>
</g>
</g>
<!-- Node5&#45;&gt;Node2 -->
<g id="edge4" class="edge"><title>Node5&#45;&gt;Node2</title>
<path fill="none" stroke="midnightblue" d="M127.272,-116.431C118.86,-106.967 108.651,-95.4827 101.779,-87.7511"/>
<polygon fill="midnightblue" stroke="midnightblue" points="124.814,-118.934 134.074,-124.083 130.046,-114.284 124.814,-118.934"/>
</g>
</g>
</svg>
