<?xml version="1.0" encoding="UTF-8" standalone="no"?>
<!DOCTYPE svg PUBLIC "-//W3C//DTD SVG 1.1//EN"
 "http://www.w3.org/Graphics/SVG/1.1/DTD/svg11.dtd">
<!-- Generated by graphviz version 2.30.0 (20130114.0323)
 -->
<!-- Title: TriDevs.TriEngine2D.Audio.ISong Pages: 1 -->
<svg width="317pt" height="164pt"
 viewBox="0.00 0.00 317.00 164.00" xmlns="http://www.w3.org/2000/svg" xmlns:xlink="http://www.w3.org/1999/xlink">
<g id="graph0" class="graph" transform="scale(1 1) rotate(0) translate(4 160)">
<title>TriDevs.TriEngine2D.Audio.ISong</title>
<polygon fill="white" stroke="white" points="-4,5 -4,-160 314,-160 314,5 -4,5"/>
<!-- Node1 -->
<g id="node1" class="node"><title>Node1</title>
<polygon fill="#bfbfbf" stroke="black" points="82,-69 82,-99 216,-99 216,-69 82,-69"/>
<text text-anchor="start" x="90" y="-87" font-family="Helvetica,sans-Serif" font-size="10.00">TriDevs.TriEngine2D.Audio.</text>
<text text-anchor="middle" x="149" y="-76" font-family="Helvetica,sans-Serif" font-size="10.00">ISong</text>
</g>
<!-- Node3 -->
<g id="node3" class="node"><title>Node3</title>
<g id="a_node3"><a xlink:href="class_tri_devs_1_1_tri_engine2_d_1_1_audio_1_1_null_song.html" target="_top" xlink:title="Fallback song class used in NullAudioManager. ">
<polygon fill="white" stroke="black" points="0,-1 0,-31 134,-31 134,-1 0,-1"/>
<text text-anchor="start" x="8" y="-19" font-family="Helvetica,sans-Serif" font-size="10.00">TriDevs.TriEngine2D.Audio.</text>
<text text-anchor="middle" x="67" y="-8" font-family="Helvetica,sans-Serif" font-size="10.00">NullSong</text>
</a>
</g>
</g>
<!-- Node1&#45;&gt;Node3 -->
<g id="edge2" class="edge"><title>Node1&#45;&gt;Node3</title>
<path fill="none" stroke="midnightblue" d="M123.294,-62.3094C110.662,-52.1426 95.7698,-40.1562 84.4764,-31.0663"/>
<polygon fill="midnightblue" stroke="midnightblue" points="121.223,-65.1354 131.207,-68.679 125.612,-59.6823 121.223,-65.1354"/>
</g>
<!-- Node4 -->
<g id="node4" class="node"><title>Node4</title>
<g id="a_node4"><a xlink:href="class_tri_devs_1_1_tri_engine2_d_1_1_audio_1_1_song.html" target="_top" xlink:title="Song class that can be used with AudioManager. ">
<polygon fill="white" stroke="black" points="152.5,-6.5 152.5,-25.5 309.5,-25.5 309.5,-6.5 152.5,-6.5"/>
<text text-anchor="middle" x="231" y="-13.5" font-family="Helvetica,sans-Serif" font-size="10.00">TriDevs.TriEngine2D.Audio.Song</text>
</a>
</g>
</g>
<!-- Node1&#45;&gt;Node4 -->
<g id="edge3" class="edge"><title>Node1&#45;&gt;Node4</title>
<path fill="none" stroke="midnightblue" d="M174.851,-62.1927C190.074,-49.9403 208.539,-35.0785 220.032,-25.8283"/>
<polygon fill="midnightblue" stroke="midnightblue" points="172.388,-59.6823 166.793,-68.679 176.777,-65.1354 172.388,-59.6823"/>
</g>
<!-- Node2 -->
<g id="node2" class="node"><title>Node2</title>
<polygon fill="white" stroke="#bfbfbf" points="115.5,-136.5 115.5,-155.5 182.5,-155.5 182.5,-136.5 115.5,-136.5"/>
<text text-anchor="middle" x="149" y="-143.5" font-family="Helvetica,sans-Serif" font-size="10.00">IDisposable</text>
</g>
<!-- Node2&#45;&gt;Node1 -->
<g id="edge1" class="edge"><title>Node2&#45;&gt;Node1</title>
<path fill="none" stroke="midnightblue" d="M149,-126.371C149,-117.585 149,-107.272 149,-99.1408"/>
<polygon fill="midnightblue" stroke="midnightblue" points="145.5,-126.403 149,-136.403 152.5,-126.403 145.5,-126.403"/>
</g>
</g>
</svg>
