<?xml version="1.0" encoding="UTF-8" standalone="no"?>
<!DOCTYPE svg PUBLIC "-//W3C//DTD SVG 1.1//EN"
 "http://www.w3.org/Graphics/SVG/1.1/DTD/svg11.dtd">
<!-- Generated by graphviz version 2.30.0 (20130114.0323)
 -->
<!-- Title: TriDevs.TriEngine.Rectangle Pages: 1 -->
<svg width="368pt" height="197pt"
 viewBox="0.00 0.00 368.00 196.50" xmlns="http://www.w3.org/2000/svg" xmlns:xlink="http://www.w3.org/1999/xlink">
<g id="graph0" class="graph" transform="scale(1 1) rotate(0) translate(4 192.5)">
<title>TriDevs.TriEngine.Rectangle</title>
<polygon fill="white" stroke="white" points="-4,5 -4,-192.5 365,-192.5 365,5 -4,5"/>
<!-- Node1 -->
<g id="node1" class="node"><title>Node1</title>
<polygon fill="#bfbfbf" stroke="black" points="32,-0.5 32,-19.5 170,-19.5 170,-0.5 32,-0.5"/>
<text text-anchor="middle" x="101" y="-7.5" font-family="Helvetica,sans-Serif" font-size="10.00">TriDevs.TriEngine.Rectangle</text>
</g>
<!-- Node2 -->
<g id="node2" class="node"><title>Node2</title>
<polygon fill="white" stroke="#bfbfbf" points="0,-118.5 0,-137.5 118,-137.5 118,-118.5 0,-118.5"/>
<text text-anchor="middle" x="59" y="-125.5" font-family="Helvetica,sans-Serif" font-size="10.00">IEquatable&lt;Rectangle&gt;</text>
</g>
<!-- Node2&#45;&gt;Node1 -->
<g id="edge1" class="edge"><title>Node2&#45;&gt;Node1</title>
<path fill="none" stroke="midnightblue" d="M65.6218,-108.711C74.8345,-83.2666 91.1489,-38.2078 97.9207,-19.5048"/>
<polygon fill="midnightblue" stroke="midnightblue" points="62.2704,-107.687 62.1568,-118.281 68.8522,-110.07 62.2704,-107.687"/>
</g>
<!-- Node3 -->
<g id="node3" class="node"><title>Node3</title>
<g id="a_node3"><a xlink:href="struct_tri_devs_1_1_tri_engine_1_1_color.html" target="_top" xlink:title="Represents an RGBA color that can be used with TriEngine2D. ">
<polygon fill="white" stroke="black" points="136.5,-118.5 136.5,-137.5 253.5,-137.5 253.5,-118.5 136.5,-118.5"/>
<text text-anchor="middle" x="195" y="-125.5" font-family="Helvetica,sans-Serif" font-size="10.00">TriDevs.TriEngine.Color</text>
</a>
</g>
</g>
<!-- Node3&#45;&gt;Node1 -->
<g id="edge2" class="edge"><title>Node3&#45;&gt;Node1</title>
<path fill="none" stroke="#9a32cd" stroke-dasharray="5,2" d="M181.536,-110.385C161.202,-85.2913 123.386,-38.6253 107.892,-19.5048"/>
<polygon fill="#9a32cd" stroke="#9a32cd" points="178.92,-112.715 187.935,-118.281 184.358,-108.308 178.92,-112.715"/>
<text text-anchor="middle" x="145" y="-41.5" font-family="Helvetica,sans-Serif" font-size="10.00"> Color</text>
</g>
<!-- Node3&#45;&gt;Node3 -->
<g id="edge3" class="edge"><title>Node3&#45;&gt;Node3</title>
<path fill="none" stroke="#9a32cd" stroke-dasharray="5,2" d="M221.163,-140.862C245.162,-147.284 271,-142.996 271,-128 271,-110.938 237.552,-107.738 211.421,-118.402"/>
<polygon fill="#9a32cd" stroke="#9a32cd" points="222.015,-137.456 211.421,-137.598 219.791,-144.093 222.015,-137.456"/>
<text text-anchor="middle" x="315.5" y="-180.5" font-family="Helvetica,sans-Serif" font-size="10.00"> OrangeRed</text>
<text text-anchor="middle" x="315.5" y="-169.5" font-family="Helvetica,sans-Serif" font-size="10.00">NavajoWhite</text>
<text text-anchor="middle" x="315.5" y="-158.5" font-family="Helvetica,sans-Serif" font-size="10.00">MediumSpringGreen</text>
<text text-anchor="middle" x="315.5" y="-147.5" font-family="Helvetica,sans-Serif" font-size="10.00">LavenderBlush</text>
<text text-anchor="middle" x="315.5" y="-136.5" font-family="Helvetica,sans-Serif" font-size="10.00">Gainsboro</text>
<text text-anchor="middle" x="315.5" y="-125.5" font-family="Helvetica,sans-Serif" font-size="10.00">DarkSlateGray</text>
<text text-anchor="middle" x="315.5" y="-114.5" font-family="Helvetica,sans-Serif" font-size="10.00">DarkSalmon</text>
<text text-anchor="middle" x="315.5" y="-103.5" font-family="Helvetica,sans-Serif" font-size="10.00">DarkCyan</text>
<text text-anchor="middle" x="315.5" y="-92.5" font-family="Helvetica,sans-Serif" font-size="10.00">DarkBlue</text>
<text text-anchor="middle" x="315.5" y="-81.5" font-family="Helvetica,sans-Serif" font-size="10.00">Beige</text>
<text text-anchor="middle" x="315.5" y="-70.5" font-family="Helvetica,sans-Serif" font-size="10.00">...</text>
</g>
</g>
</svg>
