<?xml version="1.0" encoding="UTF-8" standalone="no"?>
<!DOCTYPE svg PUBLIC "-//W3C//DTD SVG 1.1//EN"
 "http://www.w3.org/Graphics/SVG/1.1/DTD/svg11.dtd">
<!-- Generated by graphviz version 2.30.0 (20130114.0323)
 -->
<!-- Title: TriDevs.TriEngine2D.Color Pages: 1 -->
<svg width="243pt" height="129pt"
 viewBox="0.00 0.00 243.00 129.00" xmlns="http://www.w3.org/2000/svg" xmlns:xlink="http://www.w3.org/1999/xlink">
<g id="graph0" class="graph" transform="scale(1 1) rotate(0) translate(4 125)">
<title>TriDevs.TriEngine2D.Color</title>
<polygon fill="white" stroke="white" points="-4,5 -4,-125 240,-125 240,5 -4,5"/>
<!-- Node1 -->
<g id="node1" class="node"><title>Node1</title>
<polygon fill="#bfbfbf" stroke="black" points="-0.5,-51 -0.5,-70 128.5,-70 128.5,-51 -0.5,-51"/>
<text text-anchor="middle" x="64" y="-58" font-family="Helvetica,sans-Serif" font-size="10.00">TriDevs.TriEngine2D.Color</text>
</g>
<!-- Node1&#45;&gt;Node1 -->
<g id="edge1" class="edge"><title>Node1&#45;&gt;Node1</title>
<path fill="none" stroke="#9a32cd" stroke-dasharray="5,2" d="M138.655,-63.1124C143.242,-62.4938 146,-61.623 146,-60.5 146,-58.7031 138.94,-57.552 128.625,-57.0466"/>
<polygon fill="#9a32cd" stroke="#9a32cd" points="138.298,-59.63 128.625,-63.9534 138.883,-66.6055 138.298,-59.63"/>
<text text-anchor="middle" x="190.5" y="-113" font-family="Helvetica,sans-Serif" font-size="10.00"> OrangeRed</text>
<text text-anchor="middle" x="190.5" y="-102" font-family="Helvetica,sans-Serif" font-size="10.00">NavajoWhite</text>
<text text-anchor="middle" x="190.5" y="-91" font-family="Helvetica,sans-Serif" font-size="10.00">MediumSpringGreen</text>
<text text-anchor="middle" x="190.5" y="-80" font-family="Helvetica,sans-Serif" font-size="10.00">LavenderBlush</text>
<text text-anchor="middle" x="190.5" y="-69" font-family="Helvetica,sans-Serif" font-size="10.00">Gainsboro</text>
<text text-anchor="middle" x="190.5" y="-58" font-family="Helvetica,sans-Serif" font-size="10.00">DarkSlateGray</text>
<text text-anchor="middle" x="190.5" y="-47" font-family="Helvetica,sans-Serif" font-size="10.00">DarkSalmon</text>
<text text-anchor="middle" x="190.5" y="-36" font-family="Helvetica,sans-Serif" font-size="10.00">DarkCyan</text>
<text text-anchor="middle" x="190.5" y="-25" font-family="Helvetica,sans-Serif" font-size="10.00">DarkBlue</text>
<text text-anchor="middle" x="190.5" y="-14" font-family="Helvetica,sans-Serif" font-size="10.00">Beige</text>
<text text-anchor="middle" x="190.5" y="-3" font-family="Helvetica,sans-Serif" font-size="10.00">...</text>
</g>
</g>
</svg>
