<?xml version="1.0" encoding="UTF-8" standalone="no"?>
<!DOCTYPE svg PUBLIC "-//W3C//DTD SVG 1.1//EN"
 "http://www.w3.org/Graphics/SVG/1.1/DTD/svg11.dtd">
<!-- Generated by graphviz version 2.30.0 (20130114.0323)
 -->
<!-- Title: TriDevs.TriEngine.StateManagement.GameStateManager.Push Pages: 1 -->
<svg width="400pt" height="87pt"
 viewBox="0.00 0.00 400.00 87.00" xmlns="http://www.w3.org/2000/svg" xmlns:xlink="http://www.w3.org/1999/xlink">
<g id="graph0" class="graph" transform="scale(1 1) rotate(0) translate(4 83)">
<title>TriDevs.TriEngine.StateManagement.GameStateManager.Push</title>
<polygon fill="white" stroke="white" points="-4,5 -4,-83 397,-83 397,5 -4,5"/>
<!-- Node1 -->
<g id="node1" class="node"><title>Node1</title>
<polygon fill="#bfbfbf" stroke="black" points="0.5,-24 0.5,-54 177.5,-54 177.5,-24 0.5,-24"/>
<text text-anchor="start" x="8.5" y="-42" font-family="Helvetica,sans-Serif" font-size="10.00">TriDevs.TriEngine.StateManagement.</text>
<text text-anchor="middle" x="89" y="-31" font-family="Helvetica,sans-Serif" font-size="10.00">GameStateManager.Push</text>
</g>
<!-- Node2 -->
<g id="node2" class="node"><title>Node2</title>
<g id="a_node2"><a xlink:href="interface_tri_devs_1_1_tri_engine_1_1_state_management_1_1_i_game_state.html#a9f790c4d9beed08bf8feab50e4bed3f5" target="_top" xlink:title="Pauses the game state, preventing update calls from running. ">
<polygon fill="white" stroke="black" points="214.5,-49 214.5,-79 391.5,-79 391.5,-49 214.5,-49"/>
<text text-anchor="start" x="222.5" y="-67" font-family="Helvetica,sans-Serif" font-size="10.00">TriDevs.TriEngine.StateManagement.</text>
<text text-anchor="middle" x="303" y="-56" font-family="Helvetica,sans-Serif" font-size="10.00">IGameState.Pause</text>
</a>
</g>
</g>
<!-- Node1&#45;&gt;Node2 -->
<g id="edge1" class="edge"><title>Node1&#45;&gt;Node2</title>
<path fill="none" stroke="midnightblue" d="M177.759,-49.3489C186.532,-50.3835 195.477,-51.4383 204.343,-52.4839"/>
<polygon fill="midnightblue" stroke="midnightblue" points="203.966,-55.9635 214.307,-53.6588 204.786,-49.0117 203.966,-55.9635"/>
</g>
<!-- Node3 -->
<g id="node3" class="node"><title>Node3</title>
<g id="a_node3"><a xlink:href="interface_tri_devs_1_1_tri_engine_1_1_state_management_1_1_i_game_state.html#a382b9a4617f0b3fa2adc3e4954ba58ff" target="_top" xlink:title="Loads resources associated with this game component. ">
<polygon fill="white" stroke="black" points="214.5,-0 214.5,-30 391.5,-30 391.5,-0 214.5,-0"/>
<text text-anchor="start" x="222.5" y="-18" font-family="Helvetica,sans-Serif" font-size="10.00">TriDevs.TriEngine.StateManagement.</text>
<text text-anchor="middle" x="303" y="-7" font-family="Helvetica,sans-Serif" font-size="10.00">IGameState.Load</text>
</a>
</g>
</g>
<!-- Node1&#45;&gt;Node3 -->
<g id="edge2" class="edge"><title>Node1&#45;&gt;Node3</title>
<path fill="none" stroke="midnightblue" d="M177.759,-29.065C186.532,-28.0719 195.477,-27.0593 204.343,-26.0555"/>
<polygon fill="midnightblue" stroke="midnightblue" points="204.764,-29.5303 214.307,-24.9275 203.977,-22.5747 204.764,-29.5303"/>
</g>
</g>
</svg>
