<?xml version="1.0" encoding="UTF-8" standalone="no"?>
<!DOCTYPE svg PUBLIC "-//W3C//DTD SVG 1.1//EN"
 "http://www.w3.org/Graphics/SVG/1.1/DTD/svg11.dtd">
<!-- Generated by graphviz version 2.30.0 (20130114.0323)
 -->
<!-- Title: TriDevs.TriEngine2D.StateManagement.GameState Pages: 1 -->
<svg width="147pt" height="152pt"
 viewBox="0.00 0.00 147.00 152.00" xmlns="http://www.w3.org/2000/svg" xmlns:xlink="http://www.w3.org/1999/xlink">
<g id="graph0" class="graph" transform="scale(1 1) rotate(0) translate(4 148)">
<title>TriDevs.TriEngine2D.StateManagement.GameState</title>
<polygon fill="white" stroke="white" points="-4,5 -4,-148 144,-148 144,5 -4,5"/>
<!-- Node1 -->
<g id="node1" class="node"><title>Node1</title>
<polygon fill="#bfbfbf" stroke="black" points="3,-1 3,-31 133,-31 133,-1 3,-1"/>
<text text-anchor="start" x="11" y="-19" font-family="Helvetica,sans-Serif" font-size="10.00">TriDevs.TriEngine2D.State</text>
<text text-anchor="middle" x="68" y="-8" font-family="Helvetica,sans-Serif" font-size="10.00">Management.GameState</text>
</g>
<!-- Node2 -->
<g id="node2" class="node"><title>Node2</title>
<g id="a_node2"><a xlink:href="interface_tri_devs_1_1_tri_engine2_d_1_1_state_management_1_1_i_game_state.html" target="_top" xlink:title="A game state that can be used with the game state manager. Represent a specific state of the game...">
<polygon fill="white" stroke="black" points="34,-68.5 34,-87.5 102,-87.5 102,-68.5 34,-68.5"/>
<text text-anchor="middle" x="68" y="-75.5" font-family="Helvetica,sans-Serif" font-size="10.00">IGameState</text>
</a>
</g>
</g>
<!-- Node2&#45;&gt;Node1 -->
<g id="edge1" class="edge"><title>Node2&#45;&gt;Node1</title>
<path fill="none" stroke="midnightblue" d="M68,-58.3707C68,-49.5849 68,-39.2721 68,-31.1408"/>
<polygon fill="midnightblue" stroke="midnightblue" points="64.5001,-58.4034 68,-68.4035 71.5001,-58.4035 64.5001,-58.4034"/>
</g>
<!-- Node3 -->
<g id="node3" class="node"><title>Node3</title>
<g id="a_node3"><a xlink:href="interface_tri_devs_1_1_tri_engine2_d_1_1_interfaces_1_1_i_drawable.html" target="_top" xlink:title="Implements a simple draw method. ">
<polygon fill="white" stroke="black" points="-0.5,-124.5 -0.5,-143.5 58.5,-143.5 58.5,-124.5 -0.5,-124.5"/>
<text text-anchor="middle" x="29" y="-131.5" font-family="Helvetica,sans-Serif" font-size="10.00">IDrawable</text>
</a>
</g>
</g>
<!-- Node3&#45;&gt;Node2 -->
<g id="edge2" class="edge"><title>Node3&#45;&gt;Node2</title>
<path fill="none" stroke="midnightblue" d="M41.3822,-115.855C48.1354,-106.505 56.2086,-95.3265 61.6798,-87.7511"/>
<polygon fill="midnightblue" stroke="midnightblue" points="38.4576,-113.927 35.4401,-124.083 44.1324,-118.025 38.4576,-113.927"/>
</g>
<!-- Node4 -->
<g id="node4" class="node"><title>Node4</title>
<g id="a_node4"><a xlink:href="interface_tri_devs_1_1_tri_engine2_d_1_1_interfaces_1_1_i_updatable.html" target="_top" xlink:title="Implements a simple update method. ">
<polygon fill="white" stroke="black" points="77,-124.5 77,-143.5 139,-143.5 139,-124.5 77,-124.5"/>
<text text-anchor="middle" x="108" y="-131.5" font-family="Helvetica,sans-Serif" font-size="10.00">IUpdatable</text>
</a>
</g>
</g>
<!-- Node4&#45;&gt;Node2 -->
<g id="edge3" class="edge"><title>Node4&#45;&gt;Node2</title>
<path fill="none" stroke="midnightblue" d="M95.3003,-115.855C88.374,-106.505 80.0937,-95.3265 74.4823,-87.7511"/>
<polygon fill="midnightblue" stroke="midnightblue" points="92.63,-118.131 101.395,-124.083 98.255,-113.964 92.63,-118.131"/>
</g>
</g>
</svg>
