<?xml version="1.0" encoding="UTF-8" standalone="no"?>
<!DOCTYPE svg PUBLIC "-//W3C//DTD SVG 1.1//EN"
 "http://www.w3.org/Graphics/SVG/1.1/DTD/svg11.dtd">
<!-- Generated by graphviz version 2.30.0 (20130114.0323)
 -->
<!-- Title: TriDevs.TriEngine2D.GameWindow2D Pages: 1 -->
<svg width="338pt" height="209pt"
 viewBox="0.00 0.00 338.00 208.50" xmlns="http://www.w3.org/2000/svg" xmlns:xlink="http://www.w3.org/1999/xlink">
<g id="graph0" class="graph" transform="scale(1 1) rotate(0) translate(4 204.5)">
<title>TriDevs.TriEngine2D.GameWindow2D</title>
<polygon fill="white" stroke="white" points="-4,5 -4,-204.5 335,-204.5 335,5 -4,5"/>
<!-- Node1 -->
<g id="node1" class="node"><title>Node1</title>
<polygon fill="#bfbfbf" stroke="black" points="9.5,-1 9.5,-31 142.5,-31 142.5,-1 9.5,-1"/>
<text text-anchor="start" x="17.5" y="-19" font-family="Helvetica,sans-Serif" font-size="10.00">TriDevs.TriEngine2D.Game</text>
<text text-anchor="middle" x="76" y="-8" font-family="Helvetica,sans-Serif" font-size="10.00">Window2D</text>
</g>
<!-- Node2 -->
<g id="node2" class="node"><title>Node2</title>
<polygon fill="white" stroke="#bfbfbf" points="-0.5,-130.5 -0.5,-149.5 76.5,-149.5 76.5,-130.5 -0.5,-130.5"/>
<text text-anchor="middle" x="38" y="-137.5" font-family="Helvetica,sans-Serif" font-size="10.00">GameWindow</text>
</g>
<!-- Node2&#45;&gt;Node1 -->
<g id="edge1" class="edge"><title>Node2&#45;&gt;Node1</title>
<path fill="none" stroke="midnightblue" d="M43.8054,-120.362C51.4483,-95.8238 64.7183,-53.2203 71.591,-31.1552"/>
<polygon fill="midnightblue" stroke="midnightblue" points="40.3651,-119.638 40.7329,-130.226 47.0484,-121.719 40.3651,-119.638"/>
</g>
<!-- Node3 -->
<g id="node3" class="node"><title>Node3</title>
<g id="a_node3"><a xlink:href="struct_tri_devs_1_1_tri_engine2_d_1_1_color.html" target="_top" xlink:title="Represents an RGBA color that can be used with TriEngine2D. ">
<polygon fill="white" stroke="black" points="94.5,-130.5 94.5,-149.5 223.5,-149.5 223.5,-130.5 94.5,-130.5"/>
<text text-anchor="middle" x="159" y="-137.5" font-family="Helvetica,sans-Serif" font-size="10.00">TriDevs.TriEngine2D.Color</text>
</a>
</g>
</g>
<!-- Node3&#45;&gt;Node1 -->
<g id="edge2" class="edge"><title>Node3&#45;&gt;Node1</title>
<path fill="none" stroke="#9a32cd" stroke-dasharray="5,2" d="M147.21,-121.67C130.675,-97.3657 100.912,-53.6179 85.6302,-31.1552"/>
<polygon fill="#9a32cd" stroke="#9a32cd" points="144.512,-123.927 153.031,-130.226 150.3,-119.989 144.512,-123.927"/>
<text text-anchor="middle" x="129.5" y="-53.5" font-family="Helvetica,sans-Serif" font-size="10.00"> ClearColor</text>
</g>
<!-- Node3&#45;&gt;Node3 -->
<g id="edge3" class="edge"><title>Node3&#45;&gt;Node3</title>
<path fill="none" stroke="#9a32cd" stroke-dasharray="5,2" d="M186.539,-152.688C212.625,-159.359 241,-155.13 241,-140 241,-122.938 204.911,-119.738 176.717,-130.402"/>
<polygon fill="#9a32cd" stroke="#9a32cd" points="187.307,-149.261 176.717,-149.598 185.206,-155.938 187.307,-149.261"/>
<text text-anchor="middle" x="285.5" y="-192.5" font-family="Helvetica,sans-Serif" font-size="10.00"> OrangeRed</text>
<text text-anchor="middle" x="285.5" y="-181.5" font-family="Helvetica,sans-Serif" font-size="10.00">NavajoWhite</text>
<text text-anchor="middle" x="285.5" y="-170.5" font-family="Helvetica,sans-Serif" font-size="10.00">MediumSpringGreen</text>
<text text-anchor="middle" x="285.5" y="-159.5" font-family="Helvetica,sans-Serif" font-size="10.00">LavenderBlush</text>
<text text-anchor="middle" x="285.5" y="-148.5" font-family="Helvetica,sans-Serif" font-size="10.00">Gainsboro</text>
<text text-anchor="middle" x="285.5" y="-137.5" font-family="Helvetica,sans-Serif" font-size="10.00">DarkSlateGray</text>
<text text-anchor="middle" x="285.5" y="-126.5" font-family="Helvetica,sans-Serif" font-size="10.00">DarkSalmon</text>
<text text-anchor="middle" x="285.5" y="-115.5" font-family="Helvetica,sans-Serif" font-size="10.00">DarkCyan</text>
<text text-anchor="middle" x="285.5" y="-104.5" font-family="Helvetica,sans-Serif" font-size="10.00">DarkBlue</text>
<text text-anchor="middle" x="285.5" y="-93.5" font-family="Helvetica,sans-Serif" font-size="10.00">Beige</text>
<text text-anchor="middle" x="285.5" y="-82.5" font-family="Helvetica,sans-Serif" font-size="10.00">...</text>
</g>
</g>
</svg>
