<?xml version="1.0" encoding="UTF-8" standalone="no"?>
<!DOCTYPE svg PUBLIC "-//W3C//DTD SVG 1.1//EN"
 "http://www.w3.org/Graphics/SVG/1.1/DTD/svg11.dtd">
<!-- Generated by graphviz version 2.30.0 (20130114.0323)
 -->
<!-- Title: TriDevs.TriEngine2D.Logging.LogManager.DestroyConsole Pages: 1 -->
<svg width="324pt" height="38pt"
 viewBox="0.00 0.00 324.00 38.00" xmlns="http://www.w3.org/2000/svg" xmlns:xlink="http://www.w3.org/1999/xlink">
<g id="graph0" class="graph" transform="scale(1 1) rotate(0) translate(4 34)">
<title>TriDevs.TriEngine2D.Logging.LogManager.DestroyConsole</title>
<polygon fill="white" stroke="white" points="-4,5 -4,-34 321,-34 321,5 -4,5"/>
<!-- Node1 -->
<g id="node1" class="node"><title>Node1</title>
<polygon fill="#bfbfbf" stroke="black" points="0.5,-0 0.5,-30 143.5,-30 143.5,-0 0.5,-0"/>
<text text-anchor="start" x="8.5" y="-18" font-family="Helvetica,sans-Serif" font-size="10.00">TriDevs.TriEngine2D.Logging.</text>
<text text-anchor="middle" x="72" y="-7" font-family="Helvetica,sans-Serif" font-size="10.00">LogManager.DestroyConsole</text>
</g>
<!-- Node2 -->
<g id="node2" class="node"><title>Node2</title>
<g id="a_node2"><a xlink:href="class_tri_devs_1_1_tri_engine2_d_1_1_native_1_1_win_a_p_i.html#a14d148cdaa742fd0d25fd962f6c1f8c4" target="_top" xlink:title="Detaches the calling process from its console. ">
<polygon fill="white" stroke="black" points="180,-0 180,-30 316,-30 316,-0 180,-0"/>
<text text-anchor="start" x="188" y="-18" font-family="Helvetica,sans-Serif" font-size="10.00">TriDevs.TriEngine2D.Native.</text>
<text text-anchor="middle" x="248" y="-7" font-family="Helvetica,sans-Serif" font-size="10.00">WinAPI.FreeConsole</text>
</a>
</g>
</g>
<!-- Node1&#45;&gt;Node2 -->
<g id="edge1" class="edge"><title>Node1&#45;&gt;Node2</title>
<path fill="none" stroke="midnightblue" d="M143.522,-15C152.121,-15 160.943,-15 169.635,-15"/>
<polygon fill="midnightblue" stroke="midnightblue" points="169.758,-18.5001 179.758,-15 169.758,-11.5001 169.758,-18.5001"/>
</g>
</g>
</svg>
