<?xml version="1.0" encoding="UTF-8" standalone="no"?>
<!DOCTYPE svg PUBLIC "-//W3C//DTD SVG 1.1//EN"
 "http://www.w3.org/Graphics/SVG/1.1/DTD/svg11.dtd">
<!-- Generated by graphviz version 2.30.0 (20130114.0323)
 -->
<!-- Title: TriDevs.TriEngine.UI.Label Pages: 1 -->
<svg width="147pt" height="196pt"
 viewBox="0.00 0.00 147.00 196.00" xmlns="http://www.w3.org/2000/svg" xmlns:xlink="http://www.w3.org/1999/xlink">
<g id="graph0" class="graph" transform="scale(1 1) rotate(0) translate(4 192)">
<title>TriDevs.TriEngine.UI.Label</title>
<polygon fill="white" stroke="white" points="-4,5 -4,-192 144,-192 144,5 -4,5"/>
<!-- Node1 -->
<g id="node1" class="node"><title>Node1</title>
<polygon fill="#bfbfbf" stroke="black" points="5,-0.5 5,-19.5 135,-19.5 135,-0.5 5,-0.5"/>
<text text-anchor="middle" x="70" y="-7.5" font-family="Helvetica,sans-Serif" font-size="10.00">TriDevs.TriEngine.UI.Label</text>
</g>
<!-- Node2 -->
<g id="node2" class="node"><title>Node2</title>
<g id="a_node2"><a xlink:href="class_tri_devs_1_1_tri_engine_1_1_u_i_1_1_control.html" target="_top" xlink:title="Base control class that all other controls inherits from. Defines basic UI control behaviour...">
<polygon fill="white" stroke="black" points="46.5,-56.5 46.5,-75.5 93.5,-75.5 93.5,-56.5 46.5,-56.5"/>
<text text-anchor="middle" x="70" y="-63.5" font-family="Helvetica,sans-Serif" font-size="10.00">Control</text>
</a>
</g>
</g>
<!-- Node2&#45;&gt;Node1 -->
<g id="edge1" class="edge"><title>Node2&#45;&gt;Node1</title>
<path fill="none" stroke="midnightblue" d="M70,-45.8045C70,-36.9102 70,-26.7798 70,-19.7511"/>
<polygon fill="midnightblue" stroke="midnightblue" points="66.5001,-46.083 70,-56.083 73.5001,-46.083 66.5001,-46.083"/>
</g>
<!-- Node3 -->
<g id="node3" class="node"><title>Node3</title>
<g id="a_node3"><a xlink:href="interface_tri_devs_1_1_tri_engine_1_1_u_i_1_1_i_control.html" target="_top" xlink:title="A UI control that can be drawn on screen and interacted with. ">
<polygon fill="white" stroke="black" points="45,-112.5 45,-131.5 95,-131.5 95,-112.5 45,-112.5"/>
<text text-anchor="middle" x="70" y="-119.5" font-family="Helvetica,sans-Serif" font-size="10.00">IControl</text>
</a>
</g>
</g>
<!-- Node3&#45;&gt;Node2 -->
<g id="edge2" class="edge"><title>Node3&#45;&gt;Node2</title>
<path fill="none" stroke="midnightblue" d="M70,-101.805C70,-92.9102 70,-82.7798 70,-75.7511"/>
<polygon fill="midnightblue" stroke="midnightblue" points="66.5001,-102.083 70,-112.083 73.5001,-102.083 66.5001,-102.083"/>
</g>
<!-- Node4 -->
<g id="node4" class="node"><title>Node4</title>
<g id="a_node4"><a xlink:href="interface_tri_devs_1_1_tri_engine_1_1_interfaces_1_1_i_updatable.html" target="_top" xlink:title="Implements a simple update method. ">
<polygon fill="white" stroke="black" points="0,-168.5 0,-187.5 62,-187.5 62,-168.5 0,-168.5"/>
<text text-anchor="middle" x="31" y="-175.5" font-family="Helvetica,sans-Serif" font-size="10.00">IUpdatable</text>
</a>
</g>
</g>
<!-- Node4&#45;&gt;Node3 -->
<g id="edge3" class="edge"><title>Node4&#45;&gt;Node3</title>
<path fill="none" stroke="midnightblue" d="M43.3822,-159.855C50.1354,-150.505 58.2086,-139.327 63.6798,-131.751"/>
<polygon fill="midnightblue" stroke="midnightblue" points="40.4576,-157.927 37.4401,-168.083 46.1324,-162.025 40.4576,-157.927"/>
</g>
<!-- Node5 -->
<g id="node5" class="node"><title>Node5</title>
<g id="a_node5"><a xlink:href="interface_tri_devs_1_1_tri_engine_1_1_interfaces_1_1_i_drawable.html" target="_top" xlink:title="Implements a simple draw method. ">
<polygon fill="white" stroke="black" points="80.5,-168.5 80.5,-187.5 139.5,-187.5 139.5,-168.5 80.5,-168.5"/>
<text text-anchor="middle" x="110" y="-175.5" font-family="Helvetica,sans-Serif" font-size="10.00">IDrawable</text>
</a>
</g>
</g>
<!-- Node5&#45;&gt;Node3 -->
<g id="edge4" class="edge"><title>Node5&#45;&gt;Node3</title>
<path fill="none" stroke="midnightblue" d="M97.3003,-159.855C90.374,-150.505 82.0937,-139.327 76.4823,-131.751"/>
<polygon fill="midnightblue" stroke="midnightblue" points="94.63,-162.131 103.395,-168.083 100.255,-157.964 94.63,-162.131"/>
</g>
</g>
</svg>
