<?xml version="1.0" encoding="UTF-8" standalone="no"?>
<!DOCTYPE svg PUBLIC "-//W3C//DTD SVG 1.1//EN"
 "http://www.w3.org/Graphics/SVG/1.1/DTD/svg11.dtd">
<!-- Generated by graphviz version 2.30.0 (20130114.0323)
 -->
<!-- Title: TriDevs.TriEngine.Helpers.Threading.SetCurrentThreadName Pages: 1 -->
<svg width="406pt" height="110pt"
 viewBox="0.00 0.00 406.00 110.00" xmlns="http://www.w3.org/2000/svg" xmlns:xlink="http://www.w3.org/1999/xlink">
<g id="graph0" class="graph" transform="scale(1 1) rotate(0) translate(4 106)">
<title>TriDevs.TriEngine.Helpers.Threading.SetCurrentThreadName</title>
<polygon fill="white" stroke="white" points="-4,5 -4,-106 403,-106 403,5 -4,5"/>
<!-- Node1 -->
<g id="node1" class="node"><title>Node1</title>
<polygon fill="#bfbfbf" stroke="black" points="0.5,-36 0.5,-66 163.5,-66 163.5,-36 0.5,-36"/>
<text text-anchor="start" x="8.5" y="-54" font-family="Helvetica,sans-Serif" font-size="10.00">TriDevs.TriEngine.Helpers.</text>
<text text-anchor="middle" x="82" y="-43" font-family="Helvetica,sans-Serif" font-size="10.00">Threading.SetCurrentThreadName</text>
</g>
<!-- Node2 -->
<g id="node2" class="node"><title>Node2</title>
<g id="a_node2"><a xlink:href="class_tri_devs_1_1_tri_engine_1_1_tests_1_1_helper_tests_1_1_threading_helper_tests.html#a4bd93736e369a70e51b8399651f6f996" target="_top" xlink:title="TriDevs.TriEngine.Tests.\lHelperTests.ThreadingHelperTests.\lShouldSetNameOfCurrentThread">
<polygon fill="white" stroke="black" points="215,-60.5 215,-101.5 383,-101.5 383,-60.5 215,-60.5"/>
<text text-anchor="start" x="223" y="-89.5" font-family="Helvetica,sans-Serif" font-size="10.00">TriDevs.TriEngine.Tests.</text>
<text text-anchor="start" x="223" y="-78.5" font-family="Helvetica,sans-Serif" font-size="10.00">HelperTests.ThreadingHelperTests.</text>
<text text-anchor="middle" x="299" y="-67.5" font-family="Helvetica,sans-Serif" font-size="10.00">ShouldSetNameOfCurrentThread</text>
</a>
</g>
</g>
<!-- Node1&#45;&gt;Node2 -->
<g id="edge1" class="edge"><title>Node1&#45;&gt;Node2</title>
<path fill="none" stroke="midnightblue" d="M173.934,-63.6885C187.468,-65.577 201.361,-67.5155 214.726,-69.3804"/>
<polygon fill="midnightblue" stroke="midnightblue" points="174.058,-60.1719 163.67,-62.2562 173.09,-67.1047 174.058,-60.1719"/>
</g>
<!-- Node3 -->
<g id="node3" class="node"><title>Node3</title>
<g id="a_node3"><a xlink:href="class_tri_devs_1_1_tri_engine_1_1_tests_1_1_helper_tests_1_1_threading_helper_tests.html#a536146a843a4ee479fae79fbece485c3" target="_top" xlink:title="TriDevs.TriEngine.Tests.\lHelperTests.ThreadingHelperTests.\lShouldAbortSettingNameOfCurrentThread">
<polygon fill="white" stroke="black" points="200.5,-0.5 200.5,-41.5 397.5,-41.5 397.5,-0.5 200.5,-0.5"/>
<text text-anchor="start" x="208.5" y="-29.5" font-family="Helvetica,sans-Serif" font-size="10.00">TriDevs.TriEngine.Tests.</text>
<text text-anchor="start" x="208.5" y="-18.5" font-family="Helvetica,sans-Serif" font-size="10.00">HelperTests.ThreadingHelperTests.</text>
<text text-anchor="middle" x="299" y="-7.5" font-family="Helvetica,sans-Serif" font-size="10.00">ShouldAbortSettingNameOfCurrentThread</text>
</a>
</g>
</g>
<!-- Node1&#45;&gt;Node3 -->
<g id="edge2" class="edge"><title>Node1&#45;&gt;Node3</title>
<path fill="none" stroke="midnightblue" d="M173.821,-38.3273C182.539,-37.1109 191.407,-35.8735 200.188,-34.6483"/>
<polygon fill="midnightblue" stroke="midnightblue" points="173.09,-34.8953 163.67,-39.7438 174.058,-41.8281 173.09,-34.8953"/>
</g>
</g>
</svg>
