<?xml version="1.0" encoding="UTF-8" standalone="no"?>
<!DOCTYPE svg PUBLIC "-//W3C//DTD SVG 1.1//EN"
 "http://www.w3.org/Graphics/SVG/1.1/DTD/svg11.dtd">
<!-- Generated by graphviz version 2.30.0 (20130114.0323)
 -->
<!-- Title: TriDevs.TriEngine2D.Graphics.Primitive Pages: 1 -->
<svg width="323pt" height="164pt"
 viewBox="0.00 0.00 323.00 164.00" xmlns="http://www.w3.org/2000/svg" xmlns:xlink="http://www.w3.org/1999/xlink">
<g id="graph0" class="graph" transform="scale(1 1) rotate(0) translate(4 160)">
<title>TriDevs.TriEngine2D.Graphics.Primitive</title>
<polygon fill="white" stroke="white" points="-4,5 -4,-160 320,-160 320,5 -4,5"/>
<!-- Node1 -->
<g id="node1" class="node"><title>Node1</title>
<polygon fill="#bfbfbf" stroke="black" points="82.5,-69 82.5,-99 231.5,-99 231.5,-69 82.5,-69"/>
<text text-anchor="start" x="90.5" y="-87" font-family="Helvetica,sans-Serif" font-size="10.00">TriDevs.TriEngine2D.Graphics.</text>
<text text-anchor="middle" x="157" y="-76" font-family="Helvetica,sans-Serif" font-size="10.00">Primitive</text>
</g>
<!-- Node4 -->
<g id="node4" class="node"><title>Node4</title>
<g id="a_node4"><a xlink:href="class_tri_devs_1_1_tri_engine2_d_1_1_graphics_1_1_rectangle.html" target="_top" xlink:title="A primitive 2D Rectangle shape. ">
<polygon fill="white" stroke="black" points="-0.5,-1 -0.5,-31 148.5,-31 148.5,-1 -0.5,-1"/>
<text text-anchor="start" x="7.5" y="-19" font-family="Helvetica,sans-Serif" font-size="10.00">TriDevs.TriEngine2D.Graphics.</text>
<text text-anchor="middle" x="74" y="-8" font-family="Helvetica,sans-Serif" font-size="10.00">Rectangle</text>
</a>
</g>
</g>
<!-- Node1&#45;&gt;Node4 -->
<g id="edge3" class="edge"><title>Node1&#45;&gt;Node4</title>
<path fill="none" stroke="midnightblue" d="M130.98,-62.3094C118.194,-52.1426 103.121,-40.1562 91.6895,-31.0663"/>
<polygon fill="midnightblue" stroke="midnightblue" points="128.985,-65.1945 138.99,-68.679 133.342,-59.7155 128.985,-65.1945"/>
</g>
<!-- Node5 -->
<g id="node5" class="node"><title>Node5</title>
<g id="a_node5"><a xlink:href="class_tri_devs_1_1_tri_engine2_d_1_1_graphics_1_1_triangle.html" target="_top" xlink:title="A primitive 2D Triangle shape. ">
<polygon fill="white" stroke="black" points="166.5,-1 166.5,-31 315.5,-31 315.5,-1 166.5,-1"/>
<text text-anchor="start" x="174.5" y="-19" font-family="Helvetica,sans-Serif" font-size="10.00">TriDevs.TriEngine2D.Graphics.</text>
<text text-anchor="middle" x="241" y="-8" font-family="Helvetica,sans-Serif" font-size="10.00">Triangle</text>
</a>
</g>
</g>
<!-- Node1&#45;&gt;Node5 -->
<g id="edge4" class="edge"><title>Node1&#45;&gt;Node5</title>
<path fill="none" stroke="midnightblue" d="M183.333,-62.3094C196.273,-52.1426 211.528,-40.1562 223.097,-31.0663"/>
<polygon fill="midnightblue" stroke="midnightblue" points="180.928,-59.7486 175.227,-68.679 185.252,-65.2529 180.928,-59.7486"/>
</g>
<!-- Node2 -->
<g id="node2" class="node"><title>Node2</title>
<g id="a_node2"><a xlink:href="interface_tri_devs_1_1_tri_engine2_d_1_1_interfaces_1_1_i_drawable.html" target="_top" xlink:title="Implements a simple draw method. ">
<polygon fill="white" stroke="black" points="87.5,-136.5 87.5,-155.5 146.5,-155.5 146.5,-136.5 87.5,-136.5"/>
<text text-anchor="middle" x="117" y="-143.5" font-family="Helvetica,sans-Serif" font-size="10.00">IDrawable</text>
</a>
</g>
</g>
<!-- Node2&#45;&gt;Node1 -->
<g id="edge1" class="edge"><title>Node2&#45;&gt;Node1</title>
<path fill="none" stroke="midnightblue" d="M128.453,-127.82C134.508,-118.738 141.851,-107.724 147.573,-99.1408"/>
<polygon fill="midnightblue" stroke="midnightblue" points="125.366,-126.141 122.731,-136.403 131.19,-130.024 125.366,-126.141"/>
</g>
<!-- Node3 -->
<g id="node3" class="node"><title>Node3</title>
<polygon fill="white" stroke="#bfbfbf" points="164.5,-136.5 164.5,-155.5 231.5,-155.5 231.5,-136.5 164.5,-136.5"/>
<text text-anchor="middle" x="198" y="-143.5" font-family="Helvetica,sans-Serif" font-size="10.00">IDisposable</text>
</g>
<!-- Node3&#45;&gt;Node1 -->
<g id="edge2" class="edge"><title>Node3&#45;&gt;Node1</title>
<path fill="none" stroke="midnightblue" d="M186.456,-128.106C180.213,-118.97 172.59,-107.814 166.663,-99.1408"/>
<polygon fill="midnightblue" stroke="midnightblue" points="183.594,-130.122 192.126,-136.403 189.374,-126.172 183.594,-130.122"/>
</g>
</g>
</svg>
