<?xml version="1.0" encoding="UTF-8" standalone="no"?>
<!DOCTYPE svg PUBLIC "-//W3C//DTD SVG 1.1//EN"
 "http://www.w3.org/Graphics/SVG/1.1/DTD/svg11.dtd">
<!-- Generated by graphviz version 2.30.0 (20130114.0323)
 -->
<!-- Title: TriDevs.TriEngine2D.StateManagement.GameStateManager Pages: 1 -->
<svg width="170pt" height="152pt"
 viewBox="0.00 0.00 170.00 152.00" xmlns="http://www.w3.org/2000/svg" xmlns:xlink="http://www.w3.org/1999/xlink">
<g id="graph0" class="graph" transform="scale(1 1) rotate(0) translate(4 148)">
<title>TriDevs.TriEngine2D.StateManagement.GameStateManager</title>
<polygon fill="white" stroke="white" points="-4,5 -4,-148 167,-148 167,5 -4,5"/>
<!-- Node1 -->
<g id="node1" class="node"><title>Node1</title>
<polygon fill="#bfbfbf" stroke="black" points="-0.5,-1 -0.5,-31 162.5,-31 162.5,-1 -0.5,-1"/>
<text text-anchor="start" x="7.5" y="-19" font-family="Helvetica,sans-Serif" font-size="10.00">TriDevs.TriEngine2D.State</text>
<text text-anchor="middle" x="81" y="-8" font-family="Helvetica,sans-Serif" font-size="10.00">Management.GameStateManager</text>
</g>
<!-- Node2 -->
<g id="node2" class="node"><title>Node2</title>
<g id="a_node2"><a xlink:href="interface_tri_devs_1_1_tri_engine2_d_1_1_state_management_1_1_i_game_state_manager.html" target="_top" xlink:title="Game state manager that keeps track of the active game states and provides methods to control the sta...">
<polygon fill="white" stroke="black" points="28,-68.5 28,-87.5 134,-87.5 134,-68.5 28,-68.5"/>
<text text-anchor="middle" x="81" y="-75.5" font-family="Helvetica,sans-Serif" font-size="10.00">IGameStateManager</text>
</a>
</g>
</g>
<!-- Node2&#45;&gt;Node1 -->
<g id="edge1" class="edge"><title>Node2&#45;&gt;Node1</title>
<path fill="none" stroke="midnightblue" d="M81,-58.3707C81,-49.5849 81,-39.2721 81,-31.1408"/>
<polygon fill="midnightblue" stroke="midnightblue" points="77.5001,-58.4034 81,-68.4035 84.5001,-58.4035 77.5001,-58.4034"/>
</g>
<!-- Node3 -->
<g id="node3" class="node"><title>Node3</title>
<g id="a_node3"><a xlink:href="interface_tri_devs_1_1_tri_engine2_d_1_1_interfaces_1_1_i_updatable.html" target="_top" xlink:title="Implements a simple update method. ">
<polygon fill="white" stroke="black" points="11,-124.5 11,-143.5 73,-143.5 73,-124.5 11,-124.5"/>
<text text-anchor="middle" x="42" y="-131.5" font-family="Helvetica,sans-Serif" font-size="10.00">IUpdatable</text>
</a>
</g>
</g>
<!-- Node3&#45;&gt;Node2 -->
<g id="edge2" class="edge"><title>Node3&#45;&gt;Node2</title>
<path fill="none" stroke="midnightblue" d="M54.3822,-115.855C61.1354,-106.505 69.2086,-95.3265 74.6798,-87.7511"/>
<polygon fill="midnightblue" stroke="midnightblue" points="51.4576,-113.927 48.4401,-124.083 57.1324,-118.025 51.4576,-113.927"/>
</g>
<!-- Node4 -->
<g id="node4" class="node"><title>Node4</title>
<g id="a_node4"><a xlink:href="interface_tri_devs_1_1_tri_engine2_d_1_1_interfaces_1_1_i_drawable.html" target="_top" xlink:title="Implements a simple draw method. ">
<polygon fill="white" stroke="black" points="91.5,-124.5 91.5,-143.5 150.5,-143.5 150.5,-124.5 91.5,-124.5"/>
<text text-anchor="middle" x="121" y="-131.5" font-family="Helvetica,sans-Serif" font-size="10.00">IDrawable</text>
</a>
</g>
</g>
<!-- Node4&#45;&gt;Node2 -->
<g id="edge3" class="edge"><title>Node4&#45;&gt;Node2</title>
<path fill="none" stroke="midnightblue" d="M108.3,-115.855C101.374,-106.505 93.0937,-95.3265 87.4823,-87.7511"/>
<polygon fill="midnightblue" stroke="midnightblue" points="105.63,-118.131 114.395,-124.083 111.255,-113.964 105.63,-118.131"/>
</g>
</g>
</svg>
