<?xml version="1.0" encoding="UTF-8" standalone="no"?>
<!DOCTYPE svg PUBLIC "-//W3C//DTD SVG 1.1//EN"
 "http://www.w3.org/Graphics/SVG/1.1/DTD/svg11.dtd">
<!-- Generated by graphviz version 2.30.0 (20130114.0323)
 -->
<!-- Title: TriDevs.TriEngine2D.UI.ControlManager.AddControl Pages: 1 -->
<svg width="374pt" height="77pt"
 viewBox="0.00 0.00 374.00 77.00" xmlns="http://www.w3.org/2000/svg" xmlns:xlink="http://www.w3.org/1999/xlink">
<g id="graph0" class="graph" transform="scale(1 1) rotate(0) translate(4 73)">
<title>TriDevs.TriEngine2D.UI.ControlManager.AddControl</title>
<polygon fill="white" stroke="white" points="-4,5 -4,-73 371,-73 371,5 -4,5"/>
<!-- Node1 -->
<g id="node1" class="node"><title>Node1</title>
<polygon fill="#bfbfbf" stroke="black" points="0.5,-17 0.5,-47 149.5,-47 149.5,-17 0.5,-17"/>
<text text-anchor="start" x="8.5" y="-35" font-family="Helvetica,sans-Serif" font-size="10.00">TriDevs.TriEngine2D.UI.Control</text>
<text text-anchor="middle" x="75" y="-24" font-family="Helvetica,sans-Serif" font-size="10.00">Manager.AddControl</text>
</g>
<!-- Node2 -->
<g id="node2" class="node"><title>Node2</title>
<g id="a_node2"><a xlink:href="interface_tri_devs_1_1_tri_engine2_d_1_1_u_i_1_1_i_control.html#ad846f81cb6d55f85d58b0b7471db8adf" target="_top" xlink:title="Enables the control. ">
<polygon fill="white" stroke="black" points="198.5,-39 198.5,-69 353.5,-69 353.5,-39 198.5,-39"/>
<text text-anchor="start" x="206.5" y="-57" font-family="Helvetica,sans-Serif" font-size="10.00">TriDevs.TriEngine2D.UI.IControl.</text>
<text text-anchor="middle" x="276" y="-46" font-family="Helvetica,sans-Serif" font-size="10.00">Enable</text>
</a>
</g>
</g>
<!-- Node1&#45;&gt;Node2 -->
<g id="edge1" class="edge"><title>Node1&#45;&gt;Node2</title>
<path fill="none" stroke="midnightblue" d="M149.535,-40.1295C162.115,-41.5203 175.291,-42.9769 188.178,-44.4016"/>
<polygon fill="midnightblue" stroke="midnightblue" points="188.111,-47.9154 198.435,-45.5355 188.88,-40.9578 188.111,-47.9154"/>
</g>
<!-- Node3 -->
<g id="node3" class="node"><title>Node3</title>
<g id="a_node3"><a xlink:href="interface_tri_devs_1_1_tri_engine2_d_1_1_u_i_1_1_i_control.html#a552f33edcdca3292d87d0cf3f4223ad5" target="_top" xlink:title="Shows the control. ">
<polygon fill="white" stroke="black" points="186.5,-0.5 186.5,-19.5 365.5,-19.5 365.5,-0.5 186.5,-0.5"/>
<text text-anchor="middle" x="276" y="-7.5" font-family="Helvetica,sans-Serif" font-size="10.00">TriDevs.TriEngine2D.UI.IControl.Show</text>
</a>
</g>
</g>
<!-- Node1&#45;&gt;Node3 -->
<g id="edge2" class="edge"><title>Node1&#45;&gt;Node3</title>
<path fill="none" stroke="midnightblue" d="M149.535,-23.8705C159.067,-22.8167 168.941,-21.7251 178.772,-20.6382"/>
<polygon fill="midnightblue" stroke="midnightblue" points="179.431,-24.0868 188.986,-19.5091 178.662,-17.1292 179.431,-24.0868"/>
</g>
</g>
</svg>
