<?xml version="1.0" encoding="UTF-8" standalone="no"?>
<!DOCTYPE svg PUBLIC "-//W3C//DTD SVG 1.1//EN"
 "http://www.w3.org/Graphics/SVG/1.1/DTD/svg11.dtd">
<!-- Generated by graphviz version 2.30.0 (20130114.0323)
 -->
<!-- Title: TriDevs.TriEngine.Logging.LogManager.SetupConsole Pages: 1 -->
<svg width="302pt" height="87pt"
 viewBox="0.00 0.00 302.00 87.00" xmlns="http://www.w3.org/2000/svg" xmlns:xlink="http://www.w3.org/1999/xlink">
<g id="graph0" class="graph" transform="scale(1 1) rotate(0) translate(4 83)">
<title>TriDevs.TriEngine.Logging.LogManager.SetupConsole</title>
<polygon fill="white" stroke="white" points="-4,5 -4,-83 299,-83 299,5 -4,5"/>
<!-- Node1 -->
<g id="node1" class="node"><title>Node1</title>
<polygon fill="#bfbfbf" stroke="black" points="0,-24 0,-54 134,-54 134,-24 0,-24"/>
<text text-anchor="start" x="8" y="-42" font-family="Helvetica,sans-Serif" font-size="10.00">TriDevs.TriEngine.Logging.</text>
<text text-anchor="middle" x="67" y="-31" font-family="Helvetica,sans-Serif" font-size="10.00">LogManager.SetupConsole</text>
</g>
<!-- Node2 -->
<g id="node2" class="node"><title>Node2</title>
<g id="a_node2"><a xlink:href="class_tri_devs_1_1_tri_engine_1_1_native_1_1_win_a_p_i.html#a8f3b12350e016e847f91d32521efd788" target="_top" xlink:title="Allocates a new console for the calling process. ">
<polygon fill="white" stroke="black" points="170,-49 170,-79 294,-79 294,-49 170,-49"/>
<text text-anchor="start" x="178" y="-67" font-family="Helvetica,sans-Serif" font-size="10.00">TriDevs.TriEngine.Native.</text>
<text text-anchor="middle" x="232" y="-56" font-family="Helvetica,sans-Serif" font-size="10.00">WinAPI.AllocConsole</text>
</a>
</g>
</g>
<!-- Node1&#45;&gt;Node2 -->
<g id="edge1" class="edge"><title>Node1&#45;&gt;Node2</title>
<path fill="none" stroke="midnightblue" d="M134.298,-49.1685C142.632,-50.4467 151.186,-51.7586 159.595,-53.0482"/>
<polygon fill="midnightblue" stroke="midnightblue" points="159.339,-56.5499 169.754,-54.6064 160.4,-49.6308 159.339,-56.5499"/>
</g>
<!-- Node3 -->
<g id="node3" class="node"><title>Node3</title>
<g id="a_node3"><a xlink:href="class_tri_devs_1_1_tri_engine_1_1_native_1_1_win_a_p_i.html#a10f79c8b3a9a2c4c5f7322333912cbed" target="_top" xlink:title="Retrieves a handle to the specified standard device (standard input, standard output, or standard error). ">
<polygon fill="white" stroke="black" points="170,-0 170,-30 294,-30 294,-0 170,-0"/>
<text text-anchor="start" x="178" y="-18" font-family="Helvetica,sans-Serif" font-size="10.00">TriDevs.TriEngine.Native.</text>
<text text-anchor="middle" x="232" y="-7" font-family="Helvetica,sans-Serif" font-size="10.00">WinAPI.GetStdHandle</text>
</a>
</g>
</g>
<!-- Node1&#45;&gt;Node3 -->
<g id="edge2" class="edge"><title>Node1&#45;&gt;Node3</title>
<path fill="none" stroke="midnightblue" d="M134.298,-29.2383C142.632,-28.0112 151.186,-26.7517 159.595,-25.5137"/>
<polygon fill="midnightblue" stroke="midnightblue" points="160.371,-28.9372 169.754,-24.0178 159.351,-22.0119 160.371,-28.9372"/>
</g>
</g>
</svg>
