<?xml version="1.0" encoding="UTF-8" standalone="no"?>
<!DOCTYPE svg PUBLIC "-//W3C//DTD SVG 1.1//EN"
 "http://www.w3.org/Graphics/SVG/1.1/DTD/svg11.dtd">
<!-- Generated by graphviz version 2.30.0 (20130114.0323)
 -->
<!-- Title: TriDevs.TriEngine.Tests Pages: 1 -->
<svg width="566pt" height="76pt"
 viewBox="0.00 0.00 566.00 76.00" xmlns="http://www.w3.org/2000/svg" xmlns:xlink="http://www.w3.org/1999/xlink">
<g id="graph0" class="graph" transform="scale(1 1) rotate(0) translate(4 72)">
<title>TriDevs.TriEngine.Tests</title>
<polygon fill="white" stroke="white" points="-4,5 -4,-72 563,-72 563,5 -4,5"/>
<g id="clust1" class="cluster"><title>clusterdir_d74cbc303ea8dd1e184c1742bd25adcc</title>
<g id="a_clust1"><a xlink:href="dir_d74cbc303ea8dd1e184c1742bd25adcc.html" target="_top">
<polygon fill="#eeeeff" stroke="black" points="8,-8 8,-60 550,-60 550,-8 8,-8"/>
</a>
</g>
</g>
<!-- dir_d74cbc303ea8dd1e184c1742bd25adcc -->
<g id="node1" class="node"><title>dir_d74cbc303ea8dd1e184c1742bd25adcc</title>
<text text-anchor="middle" x="482" y="-31.5" font-family="Helvetica,sans-Serif" font-size="10.00">TriDevs.TriEngine.Tests</text>
</g>
<!-- dir_73073381d2be9d00f17a47e0e839d610 -->
<g id="node2" class="node"><title>dir_73073381d2be9d00f17a47e0e839d610</title>
<g id="a_node2"><a xlink:href="dir_73073381d2be9d00f17a47e0e839d610.html" target="_top" xlink:title="ExtensionTests">
<polygon fill="white" stroke="black" points="404,-52 320,-52 320,-16 404,-16 404,-52"/>
<text text-anchor="middle" x="362" y="-31.5" font-family="Helvetica,sans-Serif" font-size="10.00">ExtensionTests</text>
</a>
</g>
</g>
<!-- dir_b6f81f7ea7624a9d4f43a3a629f90c43 -->
<g id="node3" class="node"><title>dir_b6f81f7ea7624a9d4f43a3a629f90c43</title>
<g id="a_node3"><a xlink:href="dir_b6f81f7ea7624a9d4f43a3a629f90c43.html" target="_top" xlink:title="HelperTests">
<polygon fill="white" stroke="black" points="302,-52 234,-52 234,-16 302,-16 302,-52"/>
<text text-anchor="middle" x="268" y="-31.5" font-family="Helvetica,sans-Serif" font-size="10.00">HelperTests</text>
</a>
</g>
</g>
<!-- dir_8e87e5fe81bb15dd41857e6d6163ad15 -->
<g id="node4" class="node"><title>dir_8e87e5fe81bb15dd41857e6d6163ad15</title>
<g id="a_node4"><a xlink:href="dir_8e87e5fe81bb15dd41857e6d6163ad15.html" target="_top" xlink:title="Properties">
<polygon fill="white" stroke="black" points="215.25,-52 154.75,-52 154.75,-16 215.25,-16 215.25,-52"/>
<text text-anchor="middle" x="185" y="-31.5" font-family="Helvetica,sans-Serif" font-size="10.00">Properties</text>
</a>
</g>
</g>
<!-- dir_ce905cfa982ada9ac6fc1bc7c8e32dda -->
<g id="node5" class="node"><title>dir_ce905cfa982ada9ac6fc1bc7c8e32dda</title>
<g id="a_node5"><a xlink:href="dir_ce905cfa982ada9ac6fc1bc7c8e32dda.html" target="_top" xlink:title="StateManagementTests">
<polygon fill="white" stroke="black" points="136,-52 16,-52 16,-16 136,-16 136,-52"/>
<text text-anchor="middle" x="76" y="-31.5" font-family="Helvetica,sans-Serif" font-size="10.00">StateManagementTests</text>
</a>
</g>
</g>
</g>
</svg>
