<?xml version="1.0" encoding="UTF-8" standalone="no"?>
<!DOCTYPE svg PUBLIC "-//W3C//DTD SVG 1.1//EN"
 "http://www.w3.org/Graphics/SVG/1.1/DTD/svg11.dtd">
<!-- Generated by graphviz version 2.30.0 (20130114.0323)
 -->
<!-- Title: TriDevs.TriEngine Pages: 1 -->
<!--zoomable 76 -->
<svg id="main" version="1.1" xmlns="http://www.w3.org/2000/svg" xmlns:xlink="http://www.w3.org/1999/xlink" xml:space="preserve" onload="init(evt)">
        <defs>
                <circle id="rim" cx="0" cy="0" r="7"/>
                <circle id="rim2" cx="0" cy="0" r="3.5"/>
                <g id="zoomPlus">
                        <use xlink:href="#rim" fill="#404040">
                                <set attributeName="fill" to="#808080" begin="zoomplus.mouseover" end="zoomplus.mouseout"/>
                        </use>
                        <path d="M-4,0h8M0,-4v8" fill="none" stroke="white" stroke-width="1.5" pointer-events="none"/>
                </g>
                <g id="zoomMin">
                        <use xlink:href="#rim" fill="#404040">
                                <set attributeName="fill" to="#808080" begin="zoomminus.mouseover" end="zoomminus.mouseout"/>
                        </use>
                        <path d="M-4,0h8" fill="none" stroke="white" stroke-width="1.5" pointer-events="none"/>
                </g>
                <g id="dirArrow">
                        <path fill="none" stroke="white" stroke-width="1.5" d="M0,-3.0v7 M-2.5,-0.5L0,-3.0L2.5,-0.5"/>
                </g>
               <g id="resetDef">
                       <use xlink:href="#rim2" fill="#404040">
                               <set attributeName="fill" to="#808080" begin="reset.mouseover" end="reset.mouseout"/>
                       </use>
               </g>
        </defs>

<script type="text/javascript">
var viewWidth = 1218;
var viewHeight = 76;
var sectionId = 'dynsection-0';
</script>
<script xlink:href="svgpan.js"/>
<svg id="graph" class="graph">
<g id="viewport">
<title>TriDevs.TriEngine</title>
<polygon fill="white" stroke="white" points="-4,5 -4,-72 1215,-72 1215,5 -4,5"/>
<g id="clust1" class="cluster"><title>clusterdir_2abff9210325492622d6ab62ad8d03b9</title>
<g id="a_clust1"><a xlink:href="dir_2abff9210325492622d6ab62ad8d03b9.html" target="_top">
<polygon fill="#eeeeff" stroke="black" points="8,-8 8,-60 1202,-60 1202,-8 8,-8"/>
</a>
</g>
</g>
<!-- dir_2abff9210325492622d6ab62ad8d03b9 -->
<g id="node1" class="node"><title>dir_2abff9210325492622d6ab62ad8d03b9</title>
<text text-anchor="middle" x="1148" y="-31.5" font-family="Helvetica,sans-Serif" font-size="10.00">TriDevs.TriEngine</text>
</g>
<!-- dir_7fc0292b6d98f20af65960b9e5f2f6a0 -->
<g id="node2" class="node"><title>dir_7fc0292b6d98f20af65960b9e5f2f6a0</title>
<g id="a_node2"><a xlink:href="dir_7fc0292b6d98f20af65960b9e5f2f6a0.html" target="_top" xlink:title="Audio">
<polygon fill="white" stroke="black" points="1084,-52 1030,-52 1030,-16 1084,-16 1084,-52"/>
<text text-anchor="middle" x="1057" y="-31.5" font-family="Helvetica,sans-Serif" font-size="10.00">Audio</text>
</a>
</g>
</g>
<!-- dir_313858bbfa0cf0c2e15d7098863449cc -->
<g id="node3" class="node"><title>dir_313858bbfa0cf0c2e15d7098863449cc</title>
<g id="a_node3"><a xlink:href="dir_313858bbfa0cf0c2e15d7098863449cc.html" target="_top" xlink:title="Extensions">
<polygon fill="white" stroke="black" points="1011.25,-52 946.75,-52 946.75,-16 1011.25,-16 1011.25,-52"/>
<text text-anchor="middle" x="979" y="-31.5" font-family="Helvetica,sans-Serif" font-size="10.00">Extensions</text>
</a>
</g>
</g>
<!-- dir_9ad62232d3bdee4ca223a25b6258d876 -->
<g id="node4" class="node"><title>dir_9ad62232d3bdee4ca223a25b6258d876</title>
<g id="a_node4"><a xlink:href="dir_9ad62232d3bdee4ca223a25b6258d876.html" target="_top" xlink:title="Graphics">
<polygon fill="white" stroke="black" points="928,-52 872,-52 872,-16 928,-16 928,-52"/>
<text text-anchor="middle" x="900" y="-31.5" font-family="Helvetica,sans-Serif" font-size="10.00">Graphics</text>
</a>
</g>
</g>
<!-- dir_424f4539b35c69797db2224178c3f046 -->
<g id="node5" class="node"><title>dir_424f4539b35c69797db2224178c3f046</title>
<g id="a_node5"><a xlink:href="dir_424f4539b35c69797db2224178c3f046.html" target="_top" xlink:title="Helpers">
<polygon fill="white" stroke="black" points="854,-52 800,-52 800,-16 854,-16 854,-52"/>
<text text-anchor="middle" x="827" y="-31.5" font-family="Helvetica,sans-Serif" font-size="10.00">Helpers</text>
</a>
</g>
</g>
<!-- dir_62c462a59df9b187fb9475b48bc61fe1 -->
<g id="node6" class="node"><title>dir_62c462a59df9b187fb9475b48bc61fe1</title>
<g id="a_node6"><a xlink:href="dir_62c462a59df9b187fb9475b48bc61fe1.html" target="_top" xlink:title="Input">
<polygon fill="white" stroke="red" points="782,-52 728,-52 728,-16 782,-16 782,-52"/>
<text text-anchor="middle" x="755" y="-31.5" font-family="Helvetica,sans-Serif" font-size="10.00">Input</text>
</a>
</g>
</g>
<!-- dir_b202599e4e0ec1adbaca4920c965cd46 -->
<g id="node7" class="node"><title>dir_b202599e4e0ec1adbaca4920c965cd46</title>
<g id="a_node7"><a xlink:href="dir_b202599e4e0ec1adbaca4920c965cd46.html" target="_top" xlink:title="Interfaces">
<polygon fill="white" stroke="black" points="709.25,-52 650.75,-52 650.75,-16 709.25,-16 709.25,-52"/>
<text text-anchor="middle" x="680" y="-31.5" font-family="Helvetica,sans-Serif" font-size="10.00">Interfaces</text>
</a>
</g>
</g>
<!-- dir_747ccaa0b5a963cd6a4958cb6dd48cb6 -->
<g id="node8" class="node"><title>dir_747ccaa0b5a963cd6a4958cb6dd48cb6</title>
<g id="a_node8"><a xlink:href="dir_747ccaa0b5a963cd6a4958cb6dd48cb6.html" target="_top" xlink:title="Logging">
<polygon fill="white" stroke="black" points="632,-52 578,-52 578,-16 632,-16 632,-52"/>
<text text-anchor="middle" x="605" y="-31.5" font-family="Helvetica,sans-Serif" font-size="10.00">Logging</text>
</a>
</g>
</g>
<!-- dir_7aad0cae985347accea0b401221c1145 -->
<g id="node9" class="node"><title>dir_7aad0cae985347accea0b401221c1145</title>
<g id="a_node9"><a xlink:href="dir_7aad0cae985347accea0b401221c1145.html" target="_top" xlink:title="Native">
<polygon fill="white" stroke="black" points="560,-52 506,-52 506,-16 560,-16 560,-52"/>
<text text-anchor="middle" x="533" y="-31.5" font-family="Helvetica,sans-Serif" font-size="10.00">Native</text>
</a>
</g>
</g>
<!-- dir_ae5d1542e6180a0a4dc51416b6dd169b -->
<g id="node10" class="node"><title>dir_ae5d1542e6180a0a4dc51416b6dd169b</title>
<g id="a_node10"><a xlink:href="dir_ae5d1542e6180a0a4dc51416b6dd169b.html" target="_top" xlink:title="Properties">
<polygon fill="white" stroke="black" points="487.25,-52 426.75,-52 426.75,-16 487.25,-16 487.25,-52"/>
<text text-anchor="middle" x="457" y="-31.5" font-family="Helvetica,sans-Serif" font-size="10.00">Properties</text>
</a>
</g>
</g>
<!-- dir_9aef910b89770f58de5732a1b2db09f2 -->
<g id="node11" class="node"><title>dir_9aef910b89770f58de5732a1b2db09f2</title>
<g id="a_node11"><a xlink:href="dir_9aef910b89770f58de5732a1b2db09f2.html" target="_top" xlink:title="Serializing">
<polygon fill="white" stroke="black" points="408,-52 346,-52 346,-16 408,-16 408,-52"/>
<text text-anchor="middle" x="377" y="-31.5" font-family="Helvetica,sans-Serif" font-size="10.00">Serializing</text>
</a>
</g>
</g>
<!-- dir_f69714c7d1458dd89da9fb6196ca2805 -->
<g id="node12" class="node"><title>dir_f69714c7d1458dd89da9fb6196ca2805</title>
<g id="a_node12"><a xlink:href="dir_f69714c7d1458dd89da9fb6196ca2805.html" target="_top" xlink:title="Shaders">
<polygon fill="white" stroke="black" points="328,-52 274,-52 274,-16 328,-16 328,-52"/>
<text text-anchor="middle" x="301" y="-31.5" font-family="Helvetica,sans-Serif" font-size="10.00">Shaders</text>
</a>
</g>
</g>
<!-- dir_1a161993c0eb84b48ed5a485608c9d0a -->
<g id="node13" class="node"><title>dir_1a161993c0eb84b48ed5a485608c9d0a</title>
<g id="a_node13"><a xlink:href="dir_1a161993c0eb84b48ed5a485608c9d0a.html" target="_top" xlink:title="StateManagement">
<polygon fill="white" stroke="black" points="256,-52 160,-52 160,-16 256,-16 256,-52"/>
<text text-anchor="middle" x="208" y="-31.5" font-family="Helvetica,sans-Serif" font-size="10.00">StateManagement</text>
</a>
</g>
</g>
<!-- dir_ec35eb06b9701e8e01592a299097f0e9 -->
<g id="node14" class="node"><title>dir_ec35eb06b9701e8e01592a299097f0e9</title>
<g id="a_node14"><a xlink:href="dir_ec35eb06b9701e8e01592a299097f0e9.html" target="_top" xlink:title="Text">
<polygon fill="white" stroke="black" points="142,-52 88,-52 88,-16 142,-16 142,-52"/>
<text text-anchor="middle" x="115" y="-31.5" font-family="Helvetica,sans-Serif" font-size="10.00">Text</text>
</a>
</g>
</g>
<!-- dir_368655917bf30287b427889c6f5bae4f -->
<g id="node15" class="node"><title>dir_368655917bf30287b427889c6f5bae4f</title>
<g id="a_node15"><a xlink:href="dir_368655917bf30287b427889c6f5bae4f.html" target="_top" xlink:title="UI">
<polygon fill="white" stroke="red" points="70,-52 16,-52 16,-16 70,-16 70,-52"/>
<text text-anchor="middle" x="43" y="-31.5" font-family="Helvetica,sans-Serif" font-size="10.00">UI</text>
</a>
</g>
</g>
</g>
</svg>
        <g id="navigator" transform="translate(0 0)" fill="#404254">
                <rect fill="#f2f5e9" fill-opacity="0.5" stroke="#606060" stroke-width=".5" x="0" y="0" width="60" height="60"/>
                <use id="zoomplus" xlink:href="#zoomPlus" x="17" y="9" onmousedown="handleZoom(evt,'in')"/>
                <use id="zoomminus" xlink:href="#zoomMin" x="42" y="9" onmousedown="handleZoom(evt,'out')"/>
                <use id="reset" xlink:href="#resetDef" x="30" y="36" onmousedown="handleReset()"/>
                <g id="arrowUp" xlink:href="#dirArrow" transform="translate(30 24)" onmousedown="handlePan(0,-1)">
                  <use xlink:href="#rim" fill="#404040">
                        <set attributeName="fill" to="#808080" begin="arrowUp.mouseover" end="arrowUp.mouseout"/>
                  </use>
                  <path fill="none" stroke="white" stroke-width="1.5" d="M0,-3.0v7 M-2.5,-0.5L0,-3.0L2.5,-0.5"/>
                </g>
                <g id="arrowRight" xlink:href="#dirArrow" transform="rotate(90) translate(36 -43)" onmousedown="handlePan(1,0)">
                  <use xlink:href="#rim" fill="#404040">
                        <set attributeName="fill" to="#808080" begin="arrowRight.mouseover" end="arrowRight.mouseout"/>
                  </use>
                  <path fill="none" stroke="white" stroke-width="1.5" d="M0,-3.0v7 M-2.5,-0.5L0,-3.0L2.5,-0.5"/>
                </g>
                <g id="arrowDown" xlink:href="#dirArrow" transform="rotate(180) translate(-30 -48)" onmousedown="handlePan(0,1)">
                  <use xlink:href="#rim" fill="#404040">
                        <set attributeName="fill" to="#808080" begin="arrowDown.mouseover" end="arrowDown.mouseout"/>
                  </use>
                  <path fill="none" stroke="white" stroke-width="1.5" d="M0,-3.0v7 M-2.5,-0.5L0,-3.0L2.5,-0.5"/>
                </g>
                <g id="arrowLeft" xlink:href="#dirArrow" transform="rotate(270) translate(-36 17)" onmousedown="handlePan(-1,0)">
                  <use xlink:href="#rim" fill="#404040">
                        <set attributeName="fill" to="#808080" begin="arrowLeft.mouseover" end="arrowLeft.mouseout"/>
                  </use>
                  <path fill="none" stroke="white" stroke-width="1.5" d="M0,-3.0v7 M-2.5,-0.5L0,-3.0L2.5,-0.5"/>
                </g>
        </g>
        <svg viewBox="0 0 15 15" width="100%" height="30px" preserveAspectRatio="xMaxYMin meet">
         <g id="arrow_out" transform="scale(0.3 0.3)">
          <a xlink:href="dir_2abff9210325492622d6ab62ad8d03b9_dep_org.svg" target="_base">
           <rect id="button" ry="5" rx="5" y="6" x="6" height="38" width="38"
                fill="#f2f5e9" fill-opacity="0.5" stroke="#606060" stroke-width="1.0"/>
           <path id="arrow"
             d="M 11.500037,31.436501 C 11.940474,20.09759 22.043105,11.32322 32.158766,21.979434 L 37.068811,17.246167 C 37.068811,17.246167 37.088388,32 37.088388,32 L 22.160133,31.978069 C 22.160133,31.978069 26.997745,27.140456 26.997745,27.140456 C 18.528582,18.264221 13.291696,25.230495 11.500037,31.436501 z"
             style="fill:#404040;"/>
          </a>
         </g>
        </svg>
</svg>
