<?xml version="1.0" encoding="UTF-8" standalone="no"?>
<!DOCTYPE svg PUBLIC "-//W3C//DTD SVG 1.1//EN"
 "http://www.w3.org/Graphics/SVG/1.1/DTD/svg11.dtd">
<!-- Generated by graphviz version 2.30.0 (20130114.0323)
 -->
<!-- Title: Graphical Class Hierarchy Pages: 1 -->
<svg width="440pt" height="273pt"
 viewBox="0.00 0.00 440.00 273.00" xmlns="http://www.w3.org/2000/svg" xmlns:xlink="http://www.w3.org/1999/xlink">
<g id="graph0" class="graph" transform="scale(1 1) rotate(0) translate(4 269)">
<title>Graphical Class Hierarchy</title>
<polygon fill="white" stroke="white" points="-4,5 -4,-269 437,-269 437,5 -4,5"/>
<!-- Node1 -->
<g id="node1" class="node"><title>Node1</title>
<polygon fill="white" stroke="#bfbfbf" points="0.5,-122.5 0.5,-141.5 67.5,-141.5 67.5,-122.5 0.5,-122.5"/>
<text text-anchor="middle" x="34" y="-129.5" font-family="Helvetica,sans-Serif" font-size="10.00">IDisposable</text>
</g>
<!-- Node2 -->
<g id="node2" class="node"><title>Node2</title>
<g id="a_node2"><a xlink:href="interface_tri_devs_1_1_tri_engine2_d_1_1_audio_1_1_i_audio_manager.html" target="_top" xlink:title="Provides various methods to manipulate audio. ">
<polygon fill="white" stroke="black" points="104,-186 104,-216 238,-216 238,-186 104,-186"/>
<text text-anchor="start" x="112" y="-204" font-family="Helvetica,sans-Serif" font-size="10.00">TriDevs.TriEngine2D.Audio.</text>
<text text-anchor="middle" x="171" y="-193" font-family="Helvetica,sans-Serif" font-size="10.00">IAudioManager</text>
</a>
</g>
</g>
<!-- Node1&#45;&gt;Node2 -->
<g id="edge1" class="edge"><title>Node1&#45;&gt;Node2</title>
<path fill="none" stroke="midnightblue" d="M62.8634,-146.241C85.5189,-157.821 117.4,-174.116 140.488,-185.916"/>
<polygon fill="midnightblue" stroke="midnightblue" points="64.2684,-143.029 53.7712,-141.594 61.0826,-149.262 64.2684,-143.029"/>
</g>
<!-- Node5 -->
<g id="node5" class="node"><title>Node5</title>
<g id="a_node5"><a xlink:href="interface_tri_devs_1_1_tri_engine2_d_1_1_audio_1_1_i_song.html" target="_top" xlink:title="A song that will be streamed in the audio player. ">
<polygon fill="white" stroke="black" points="104,-117 104,-147 238,-147 238,-117 104,-117"/>
<text text-anchor="start" x="112" y="-135" font-family="Helvetica,sans-Serif" font-size="10.00">TriDevs.TriEngine2D.Audio.</text>
<text text-anchor="middle" x="171" y="-124" font-family="Helvetica,sans-Serif" font-size="10.00">ISong</text>
</a>
</g>
</g>
<!-- Node1&#45;&gt;Node5 -->
<g id="edge4" class="edge"><title>Node1&#45;&gt;Node5</title>
<path fill="none" stroke="midnightblue" d="M77.8074,-132C86.0811,-132 94.9289,-132 103.748,-132"/>
<polygon fill="midnightblue" stroke="midnightblue" points="77.6798,-128.5 67.6797,-132 77.6797,-135.5 77.6798,-128.5"/>
</g>
<!-- Node8 -->
<g id="node8" class="node"><title>Node8</title>
<g id="a_node8"><a xlink:href="interface_tri_devs_1_1_tri_engine2_d_1_1_audio_1_1_i_sound.html" target="_top" xlink:title="A sound file for use with the audio manager. ">
<polygon fill="white" stroke="black" points="104,-49 104,-79 238,-79 238,-49 104,-49"/>
<text text-anchor="start" x="112" y="-67" font-family="Helvetica,sans-Serif" font-size="10.00">TriDevs.TriEngine2D.Audio.</text>
<text text-anchor="middle" x="171" y="-56" font-family="Helvetica,sans-Serif" font-size="10.00">ISound</text>
</a>
</g>
</g>
<!-- Node1&#45;&gt;Node8 -->
<g id="edge7" class="edge"><title>Node1&#45;&gt;Node8</title>
<path fill="none" stroke="midnightblue" d="M63.1037,-117.844C85.6201,-106.502 117.134,-90.6286 140.11,-79.0558"/>
<polygon fill="midnightblue" stroke="midnightblue" points="61.4124,-114.777 54.0559,-122.401 64.5614,-121.029 61.4124,-114.777"/>
</g>
<!-- Node3 -->
<g id="node3" class="node"><title>Node3</title>
<g id="a_node3"><a xlink:href="class_tri_devs_1_1_tri_engine2_d_1_1_audio_1_1_audio_manager.html" target="_top" xlink:title="Class to manage engine audio. ">
<polygon fill="white" stroke="black" points="286,-235 286,-265 420,-265 420,-235 286,-235"/>
<text text-anchor="start" x="294" y="-253" font-family="Helvetica,sans-Serif" font-size="10.00">TriDevs.TriEngine2D.Audio.</text>
<text text-anchor="middle" x="353" y="-242" font-family="Helvetica,sans-Serif" font-size="10.00">AudioManager</text>
</a>
</g>
</g>
<!-- Node2&#45;&gt;Node3 -->
<g id="edge2" class="edge"><title>Node2&#45;&gt;Node3</title>
<path fill="none" stroke="midnightblue" d="M237.198,-218.748C256.707,-224.059 277.902,-229.829 296.708,-234.948"/>
<polygon fill="midnightblue" stroke="midnightblue" points="238.043,-215.351 227.475,-216.101 236.204,-222.105 238.043,-215.351"/>
</g>
<!-- Node4 -->
<g id="node4" class="node"><title>Node4</title>
<g id="a_node4"><a xlink:href="class_tri_devs_1_1_tri_engine2_d_1_1_audio_1_1_null_audio_manager.html" target="_top" xlink:title="Used as a fallback AudioManager object when the service locator fails to find one. ">
<polygon fill="white" stroke="black" points="286,-186 286,-216 420,-216 420,-186 286,-186"/>
<text text-anchor="start" x="294" y="-204" font-family="Helvetica,sans-Serif" font-size="10.00">TriDevs.TriEngine2D.Audio.</text>
<text text-anchor="middle" x="353" y="-193" font-family="Helvetica,sans-Serif" font-size="10.00">NullAudioManager</text>
</a>
</g>
</g>
<!-- Node2&#45;&gt;Node4 -->
<g id="edge3" class="edge"><title>Node2&#45;&gt;Node4</title>
<path fill="none" stroke="midnightblue" d="M248.336,-201C260.762,-201 273.543,-201 285.704,-201"/>
<polygon fill="midnightblue" stroke="midnightblue" points="248.003,-197.5 238.003,-201 248.003,-204.5 248.003,-197.5"/>
</g>
<!-- Node6 -->
<g id="node6" class="node"><title>Node6</title>
<g id="a_node6"><a xlink:href="class_tri_devs_1_1_tri_engine2_d_1_1_audio_1_1_null_song.html" target="_top" xlink:title="Fallback song class used in NullAudioManager. ">
<polygon fill="white" stroke="black" points="286,-137 286,-167 420,-167 420,-137 286,-137"/>
<text text-anchor="start" x="294" y="-155" font-family="Helvetica,sans-Serif" font-size="10.00">TriDevs.TriEngine2D.Audio.</text>
<text text-anchor="middle" x="353" y="-144" font-family="Helvetica,sans-Serif" font-size="10.00">NullSong</text>
</a>
</g>
</g>
<!-- Node5&#45;&gt;Node6 -->
<g id="edge5" class="edge"><title>Node5&#45;&gt;Node6</title>
<path fill="none" stroke="midnightblue" d="M247.963,-140.44C260.506,-141.834 273.422,-143.269 285.704,-144.634"/>
<polygon fill="midnightblue" stroke="midnightblue" points="248.329,-136.96 238.003,-139.334 247.556,-143.917 248.329,-136.96"/>
</g>
<!-- Node7 -->
<g id="node7" class="node"><title>Node7</title>
<g id="a_node7"><a xlink:href="class_tri_devs_1_1_tri_engine2_d_1_1_audio_1_1_song.html" target="_top" xlink:title="Song class that can be used with AudioManager. ">
<polygon fill="white" stroke="black" points="274.5,-98.5 274.5,-117.5 431.5,-117.5 431.5,-98.5 274.5,-98.5"/>
<text text-anchor="middle" x="353" y="-105.5" font-family="Helvetica,sans-Serif" font-size="10.00">TriDevs.TriEngine2D.Audio.Song</text>
</a>
</g>
</g>
<!-- Node5&#45;&gt;Node7 -->
<g id="edge6" class="edge"><title>Node5&#45;&gt;Node7</title>
<path fill="none" stroke="midnightblue" d="M248.187,-121.842C258.915,-120.411 269.912,-118.945 280.548,-117.527"/>
<polygon fill="midnightblue" stroke="midnightblue" points="247.453,-118.409 238.003,-123.2 248.378,-125.347 247.453,-118.409"/>
</g>
<!-- Node9 -->
<g id="node9" class="node"><title>Node9</title>
<g id="a_node9"><a xlink:href="class_tri_devs_1_1_tri_engine2_d_1_1_audio_1_1_null_sound.html" target="_top" xlink:title="Fallback sound class used in NullAudioManager. ">
<polygon fill="white" stroke="black" points="286,-49 286,-79 420,-79 420,-49 286,-49"/>
<text text-anchor="start" x="294" y="-67" font-family="Helvetica,sans-Serif" font-size="10.00">TriDevs.TriEngine2D.Audio.</text>
<text text-anchor="middle" x="353" y="-56" font-family="Helvetica,sans-Serif" font-size="10.00">NullSound</text>
</a>
</g>
</g>
<!-- Node8&#45;&gt;Node9 -->
<g id="edge8" class="edge"><title>Node8&#45;&gt;Node9</title>
<path fill="none" stroke="midnightblue" d="M248.336,-64C260.762,-64 273.543,-64 285.704,-64"/>
<polygon fill="midnightblue" stroke="midnightblue" points="248.003,-60.5001 238.003,-64 248.003,-67.5001 248.003,-60.5001"/>
</g>
<!-- Node10 -->
<g id="node10" class="node"><title>Node10</title>
<g id="a_node10"><a xlink:href="class_tri_devs_1_1_tri_engine2_d_1_1_audio_1_1_sound.html" target="_top" xlink:title="Sound class that can be used with the AudioManager. ">
<polygon fill="white" stroke="black" points="286,-0 286,-30 420,-30 420,-0 286,-0"/>
<text text-anchor="start" x="294" y="-18" font-family="Helvetica,sans-Serif" font-size="10.00">TriDevs.TriEngine2D.Audio.</text>
<text text-anchor="middle" x="353" y="-7" font-family="Helvetica,sans-Serif" font-size="10.00">Sound</text>
</a>
</g>
</g>
<!-- Node8&#45;&gt;Node10 -->
<g id="edge9" class="edge"><title>Node8&#45;&gt;Node10</title>
<path fill="none" stroke="midnightblue" d="M237.198,-46.2515C256.707,-40.9409 277.902,-35.1712 296.708,-30.0516"/>
<polygon fill="midnightblue" stroke="midnightblue" points="236.204,-42.8947 227.475,-48.8986 238.043,-49.649 236.204,-42.8947"/>
</g>
</g>
</svg>
