<?xml version="1.0" encoding="UTF-8" standalone="no"?>
<!DOCTYPE svg PUBLIC "-//W3C//DTD SVG 1.1//EN"
 "http://www.w3.org/Graphics/SVG/1.1/DTD/svg11.dtd">
<!-- Generated by graphviz version 2.30.0 (20130114.0323)
 -->
<!-- Title: Graphical Class Hierarchy Pages: 1 -->
<svg width="284pt" height="87pt"
 viewBox="0.00 0.00 284.00 87.00" xmlns="http://www.w3.org/2000/svg" xmlns:xlink="http://www.w3.org/1999/xlink">
<g id="graph0" class="graph" transform="scale(1 1) rotate(0) translate(4 83)">
<title>Graphical Class Hierarchy</title>
<polygon fill="white" stroke="white" points="-4,5 -4,-83 281,-83 281,5 -4,5"/>
<!-- Node1 -->
<g id="node1" class="node"><title>Node1</title>
<g id="a_node1"><a xlink:href="interface_tri_devs_1_1_tri_engine_1_1_input_1_1_i_input_manager.html" target="_top" xlink:title="Provides various methods to query input devices like the keyboard. ">
<polygon fill="white" stroke="black" points="0.5,-24 0.5,-54 119.5,-54 119.5,-24 0.5,-24"/>
<text text-anchor="start" x="8.5" y="-42" font-family="Helvetica,sans-Serif" font-size="10.00">TriDevs.TriEngine.Input.</text>
<text text-anchor="middle" x="60" y="-31" font-family="Helvetica,sans-Serif" font-size="10.00">IInputManager</text>
</a>
</g>
</g>
<!-- Node2 -->
<g id="node2" class="node"><title>Node2</title>
<g id="a_node2"><a xlink:href="class_tri_devs_1_1_tri_engine_1_1_input_1_1_input_manager.html" target="_top" xlink:title="Input manager interfacing with input methods provided by a GameWindow. ">
<polygon fill="white" stroke="black" points="156.5,-49 156.5,-79 275.5,-79 275.5,-49 156.5,-49"/>
<text text-anchor="start" x="164.5" y="-67" font-family="Helvetica,sans-Serif" font-size="10.00">TriDevs.TriEngine.Input.</text>
<text text-anchor="middle" x="216" y="-56" font-family="Helvetica,sans-Serif" font-size="10.00">InputManager</text>
</a>
</g>
</g>
<!-- Node1&#45;&gt;Node2 -->
<g id="edge1" class="edge"><title>Node1&#45;&gt;Node2</title>
<path fill="none" stroke="midnightblue" d="M129.607,-50.1375C138.497,-51.5807 147.538,-53.0483 156.248,-54.4623"/>
<polygon fill="midnightblue" stroke="midnightblue" points="130.092,-46.6705 119.66,-48.5227 128.97,-53.58 130.092,-46.6705"/>
</g>
<!-- Node3 -->
<g id="node3" class="node"><title>Node3</title>
<g id="a_node3"><a xlink:href="class_tri_devs_1_1_tri_engine_1_1_input_1_1_null_input_manager.html" target="_top" xlink:title="Used as a fallback InputManager object when the service locator fails to find one. ">
<polygon fill="white" stroke="black" points="156.5,-0 156.5,-30 275.5,-30 275.5,-0 156.5,-0"/>
<text text-anchor="start" x="164.5" y="-18" font-family="Helvetica,sans-Serif" font-size="10.00">TriDevs.TriEngine.Input.</text>
<text text-anchor="middle" x="216" y="-7" font-family="Helvetica,sans-Serif" font-size="10.00">NullInputManager</text>
</a>
</g>
</g>
<!-- Node1&#45;&gt;Node3 -->
<g id="edge2" class="edge"><title>Node1&#45;&gt;Node3</title>
<path fill="none" stroke="midnightblue" d="M129.607,-28.308C138.497,-26.9226 147.538,-25.5136 156.248,-24.1562"/>
<polygon fill="midnightblue" stroke="midnightblue" points="129.002,-24.86 119.66,-29.8582 130.08,-31.7765 129.002,-24.86"/>
</g>
</g>
</svg>
