<?xml version="1.0" encoding="UTF-8" standalone="no"?>
<!DOCTYPE svg PUBLIC "-//W3C//DTD SVG 1.1//EN"
 "http://www.w3.org/Graphics/SVG/1.1/DTD/svg11.dtd">
<!-- Generated by graphviz version 2.30.0 (20130114.0323)
 -->
<!-- Title: Graphical Class Hierarchy Pages: 1 -->
<svg width="894pt" height="121pt"
 viewBox="0.00 0.00 894.00 120.56" xmlns="http://www.w3.org/2000/svg" xmlns:xlink="http://www.w3.org/1999/xlink">
<g id="graph0" class="graph" transform="scale(1 1) rotate(0) translate(4 116.563)">
<title>Graphical Class Hierarchy</title>
<polygon fill="white" stroke="white" points="-4,5 -4,-116.563 891,-116.563 891,5 -4,5"/>
<!-- Node1 -->
<g id="node1" class="node"><title>Node1</title>
<g id="a_node1"><a xlink:href="interface_tri_devs_1_1_tri_engine2_d_1_1_interfaces_1_1_i_drawable.html" target="_top" xlink:title="Implements a simple draw method. ">
<polygon fill="white" stroke="black" points="0,-71 0,-101 152,-101 152,-71 0,-71"/>
<text text-anchor="start" x="8" y="-89" font-family="Helvetica,sans-Serif" font-size="10.00">TriDevs.TriEngine2D.Interfaces.</text>
<text text-anchor="middle" x="76" y="-78" font-family="Helvetica,sans-Serif" font-size="10.00">IDrawable</text>
</a>
</g>
</g>
<!-- Node2 -->
<g id="node2" class="node"><title>Node2</title>
<g id="a_node2"><a xlink:href="interface_tri_devs_1_1_tri_engine2_d_1_1_interfaces_1_1_i_drawable_game_component.html" target="_top" xlink:title="A game component that can be added to GameState objects. Drawable game components also implement a dr...">
<polygon fill="white" stroke="black" points="396,-0 396,-30 548,-30 548,-0 396,-0"/>
<text text-anchor="start" x="404" y="-18" font-family="Helvetica,sans-Serif" font-size="10.00">TriDevs.TriEngine2D.Interfaces.</text>
<text text-anchor="middle" x="472" y="-7" font-family="Helvetica,sans-Serif" font-size="10.00">IDrawableGameComponent</text>
</a>
</g>
</g>
<!-- Node1&#45;&gt;Node2 -->
<g id="edge1" class="edge"><title>Node1&#45;&gt;Node2</title>
<path fill="none" stroke="midnightblue" d="M144.213,-102.973C202.87,-114.079 288.595,-121.107 354,-88 378.111,-75.7956 367.891,-54.5387 390,-39 394.92,-35.5423 400.341,-32.5765 405.978,-30.0338"/>
<polygon fill="midnightblue" stroke="midnightblue" points="144.803,-99.5222 134.314,-101.012 143.443,-106.389 144.803,-99.5222"/>
</g>
<!-- Node5 -->
<g id="node5" class="node"><title>Node5</title>
<g id="a_node5"><a xlink:href="interface_tri_devs_1_1_tri_engine2_d_1_1_state_management_1_1_i_game_state_manager.html" target="_top" xlink:title="Game state manager that keeps track of the active game states and provides methods to control the sta...">
<polygon fill="white" stroke="black" points="188.5,-49 188.5,-79 353.5,-79 353.5,-49 188.5,-49"/>
<text text-anchor="start" x="196.5" y="-67" font-family="Helvetica,sans-Serif" font-size="10.00">TriDevs.TriEngine2D.State</text>
<text text-anchor="middle" x="271" y="-56" font-family="Helvetica,sans-Serif" font-size="10.00">Management.IGameStateManager</text>
</a>
</g>
</g>
<!-- Node1&#45;&gt;Node5 -->
<g id="edge4" class="edge"><title>Node1&#45;&gt;Node5</title>
<path fill="none" stroke="midnightblue" d="M162.264,-76.2808C170.923,-75.2937 179.705,-74.2927 188.325,-73.31"/>
<polygon fill="midnightblue" stroke="midnightblue" points="161.711,-72.8211 152.171,-77.4312 162.504,-79.7761 161.711,-72.8211"/>
</g>
<!-- Node3 -->
<g id="node3" class="node"><title>Node3</title>
<g id="a_node3"><a xlink:href="interface_tri_devs_1_1_tri_engine2_d_1_1_state_management_1_1_i_game_state.html" target="_top" xlink:title="A game state that can be used with the game state manager. Represent a specific state of the game...">
<polygon fill="white" stroke="black" points="590,-0 590,-30 720,-30 720,-0 590,-0"/>
<text text-anchor="start" x="598" y="-18" font-family="Helvetica,sans-Serif" font-size="10.00">TriDevs.TriEngine2D.State</text>
<text text-anchor="middle" x="655" y="-7" font-family="Helvetica,sans-Serif" font-size="10.00">Management.IGameState</text>
</a>
</g>
</g>
<!-- Node2&#45;&gt;Node3 -->
<g id="edge2" class="edge"><title>Node2&#45;&gt;Node3</title>
<path fill="none" stroke="midnightblue" d="M558.347,-15C568.994,-15 579.736,-15 589.982,-15"/>
<polygon fill="midnightblue" stroke="midnightblue" points="558.188,-11.5001 548.188,-15 558.188,-18.5001 558.188,-11.5001"/>
</g>
<!-- Node4 -->
<g id="node4" class="node"><title>Node4</title>
<g id="a_node4"><a xlink:href="class_tri_devs_1_1_tri_engine2_d_1_1_state_management_1_1_game_state.html" target="_top" xlink:title="Base GameState class that all other game states derive from, defines basic GameState behaviour...">
<polygon fill="white" stroke="black" points="756,-0 756,-30 886,-30 886,-0 756,-0"/>
<text text-anchor="start" x="764" y="-18" font-family="Helvetica,sans-Serif" font-size="10.00">TriDevs.TriEngine2D.State</text>
<text text-anchor="middle" x="821" y="-7" font-family="Helvetica,sans-Serif" font-size="10.00">Management.GameState</text>
</a>
</g>
</g>
<!-- Node3&#45;&gt;Node4 -->
<g id="edge3" class="edge"><title>Node3&#45;&gt;Node4</title>
<path fill="none" stroke="midnightblue" d="M730.564,-15C739.004,-15 747.549,-15 755.839,-15"/>
<polygon fill="midnightblue" stroke="midnightblue" points="730.346,-11.5001 720.346,-15 730.346,-18.5001 730.346,-11.5001"/>
</g>
<!-- Node6 -->
<g id="node6" class="node"><title>Node6</title>
<g id="a_node6"><a xlink:href="class_tri_devs_1_1_tri_engine2_d_1_1_state_management_1_1_game_state_manager.html" target="_top" xlink:title="Game state manager that keeps track of the active game states and provides methods to control the sta...">
<polygon fill="white" stroke="black" points="390.5,-49 390.5,-79 553.5,-79 553.5,-49 390.5,-49"/>
<text text-anchor="start" x="398.5" y="-67" font-family="Helvetica,sans-Serif" font-size="10.00">TriDevs.TriEngine2D.State</text>
<text text-anchor="middle" x="472" y="-56" font-family="Helvetica,sans-Serif" font-size="10.00">Management.GameStateManager</text>
</a>
</g>
</g>
<!-- Node5&#45;&gt;Node6 -->
<g id="edge5" class="edge"><title>Node5&#45;&gt;Node6</title>
<path fill="none" stroke="midnightblue" d="M363.532,-64C372.45,-64 381.454,-64 390.255,-64"/>
<polygon fill="midnightblue" stroke="midnightblue" points="363.515,-60.5001 353.515,-64 363.515,-67.5001 363.515,-60.5001"/>
</g>
<!-- Node7 -->
<g id="node7" class="node"><title>Node7</title>
<g id="a_node7"><a xlink:href="interface_tri_devs_1_1_tri_engine2_d_1_1_interfaces_1_1_i_updatable.html" target="_top" xlink:title="Implements a simple update method. ">
<polygon fill="white" stroke="black" points="0,-22 0,-52 152,-52 152,-22 0,-22"/>
<text text-anchor="start" x="8" y="-40" font-family="Helvetica,sans-Serif" font-size="10.00">TriDevs.TriEngine2D.Interfaces.</text>
<text text-anchor="middle" x="76" y="-29" font-family="Helvetica,sans-Serif" font-size="10.00">IUpdatable</text>
</a>
</g>
</g>
<!-- Node8 -->
<g id="node8" class="node"><title>Node8</title>
<g id="a_node8"><a xlink:href="interface_tri_devs_1_1_tri_engine2_d_1_1_interfaces_1_1_i_game_component.html" target="_top" xlink:title="A game component that can be added to IGameState objects. ">
<polygon fill="white" stroke="black" points="195,-0 195,-30 347,-30 347,-0 195,-0"/>
<text text-anchor="start" x="203" y="-18" font-family="Helvetica,sans-Serif" font-size="10.00">TriDevs.TriEngine2D.Interfaces.</text>
<text text-anchor="middle" x="271" y="-7" font-family="Helvetica,sans-Serif" font-size="10.00">IGameComponent</text>
</a>
</g>
</g>
<!-- Node7&#45;&gt;Node8 -->
<g id="edge6" class="edge"><title>Node7&#45;&gt;Node8</title>
<path fill="none" stroke="midnightblue" d="M162.415,-27.2636C173.177,-26.0368 184.126,-24.7887 194.716,-23.5816"/>
<polygon fill="midnightblue" stroke="midnightblue" points="161.711,-23.8211 152.171,-28.4312 162.504,-30.7761 161.711,-23.8211"/>
</g>
<!-- Node7&#45;&gt;Node5 -->
<g id="edge8" class="edge"><title>Node7&#45;&gt;Node5</title>
<path fill="none" stroke="midnightblue" d="M162.264,-48.9281C170.923,-50.1395 179.705,-51.3681 188.325,-52.574"/>
<polygon fill="midnightblue" stroke="midnightblue" points="162.56,-45.4355 152.171,-47.5162 161.59,-52.368 162.56,-45.4355"/>
</g>
<!-- Node8&#45;&gt;Node2 -->
<g id="edge7" class="edge"><title>Node8&#45;&gt;Node2</title>
<path fill="none" stroke="midnightblue" d="M357.434,-15C370.26,-15 383.404,-15 395.99,-15"/>
<polygon fill="midnightblue" stroke="midnightblue" points="357.233,-11.5001 347.233,-15 357.233,-18.5001 357.233,-11.5001"/>
</g>
</g>
</svg>
