<?xml version="1.0" encoding="UTF-8" standalone="no"?>
<!DOCTYPE svg PUBLIC "-//W3C//DTD SVG 1.1//EN"
 "http://www.w3.org/Graphics/SVG/1.1/DTD/svg11.dtd">
<!-- Generated by graphviz version 2.30.0 (20130114.0323)
 -->
<!-- Title: Graphical Class Hierarchy Pages: 1 -->
<svg width="936pt" height="585pt"
 viewBox="0.00 0.00 936.00 585.00" xmlns="http://www.w3.org/2000/svg" xmlns:xlink="http://www.w3.org/1999/xlink">
<g id="graph0" class="graph" transform="scale(1 1) rotate(0) translate(4 581)">
<title>Graphical Class Hierarchy</title>
<polygon fill="white" stroke="white" points="-4,5 -4,-581 933,-581 933,5 -4,5"/>
<!-- Node1 -->
<g id="node1" class="node"><title>Node1</title>
<polygon fill="white" stroke="#bfbfbf" points="42.5,-409.5 42.5,-428.5 109.5,-428.5 109.5,-409.5 42.5,-409.5"/>
<text text-anchor="middle" x="76" y="-416.5" font-family="Helvetica,sans-Serif" font-size="10.00">IDisposable</text>
</g>
<!-- Node2 -->
<g id="node2" class="node"><title>Node2</title>
<g id="a_node2"><a xlink:href="interface_tri_devs_1_1_tri_engine2_d_1_1_audio_1_1_i_audio_manager.html" target="_top" xlink:title="Provides various methods to manipulate audio. ">
<polygon fill="white" stroke="black" points="204,-380 204,-410 338,-410 338,-380 204,-380"/>
<text text-anchor="start" x="212" y="-398" font-family="Helvetica,sans-Serif" font-size="10.00">TriDevs.TriEngine2D.Audio.</text>
<text text-anchor="middle" x="271" y="-387" font-family="Helvetica,sans-Serif" font-size="10.00">IAudioManager</text>
</a>
</g>
</g>
<!-- Node1&#45;&gt;Node2 -->
<g id="edge1" class="edge"><title>Node1&#45;&gt;Node2</title>
<path fill="none" stroke="midnightblue" d="M119.86,-413.67C144.524,-410.603 176.04,-406.684 203.823,-403.229"/>
<polygon fill="midnightblue" stroke="midnightblue" points="119.231,-410.221 109.74,-414.929 120.095,-417.168 119.231,-410.221"/>
</g>
<!-- Node5 -->
<g id="node5" class="node"><title>Node5</title>
<g id="a_node5"><a xlink:href="interface_tri_devs_1_1_tri_engine2_d_1_1_audio_1_1_i_song.html" target="_top" xlink:title="A song that will be streamed in the audio player. ">
<polygon fill="white" stroke="black" points="204,-331 204,-361 338,-361 338,-331 204,-331"/>
<text text-anchor="start" x="212" y="-349" font-family="Helvetica,sans-Serif" font-size="10.00">TriDevs.TriEngine2D.Audio.</text>
<text text-anchor="middle" x="271" y="-338" font-family="Helvetica,sans-Serif" font-size="10.00">ISong</text>
</a>
</g>
</g>
<!-- Node1&#45;&gt;Node5 -->
<g id="edge4" class="edge"><title>Node1&#45;&gt;Node5</title>
<path fill="none" stroke="midnightblue" d="M105.912,-404.987C128.066,-394.557 159.561,-380.388 188,-370 196.638,-366.845 205.902,-363.81 214.982,-361.022"/>
<polygon fill="midnightblue" stroke="midnightblue" points="104.262,-401.896 96.73,-409.348 107.265,-408.22 104.262,-401.896"/>
</g>
<!-- Node8 -->
<g id="node8" class="node"><title>Node8</title>
<g id="a_node8"><a xlink:href="interface_tri_devs_1_1_tri_engine2_d_1_1_audio_1_1_i_sound.html" target="_top" xlink:title="A sound file for use with the audio manager. ">
<polygon fill="white" stroke="black" points="204,-517 204,-547 338,-547 338,-517 204,-517"/>
<text text-anchor="start" x="212" y="-535" font-family="Helvetica,sans-Serif" font-size="10.00">TriDevs.TriEngine2D.Audio.</text>
<text text-anchor="middle" x="271" y="-524" font-family="Helvetica,sans-Serif" font-size="10.00">ISound</text>
</a>
</g>
</g>
<!-- Node1&#45;&gt;Node8 -->
<g id="edge7" class="edge"><title>Node1&#45;&gt;Node8</title>
<path fill="none" stroke="midnightblue" d="M93.8115,-435.719C114.394,-455.336 151.087,-487.636 188,-507 195.249,-510.803 203.168,-514.125 211.134,-516.999"/>
<polygon fill="midnightblue" stroke="midnightblue" points="96.1208,-433.083 86.5038,-428.637 91.2494,-438.11 96.1208,-433.083"/>
</g>
<!-- Node11 -->
<g id="node11" class="node"><title>Node11</title>
<g id="a_node11"><a xlink:href="class_tri_devs_1_1_tri_engine2_d_1_1_graphics_1_1_primitive.html" target="_top" xlink:title="Represents a primitive 2D shape composed of triangles. ">
<polygon fill="white" stroke="black" points="196.5,-238 196.5,-268 345.5,-268 345.5,-238 196.5,-238"/>
<text text-anchor="start" x="204.5" y="-256" font-family="Helvetica,sans-Serif" font-size="10.00">TriDevs.TriEngine2D.Graphics.</text>
<text text-anchor="middle" x="271" y="-245" font-family="Helvetica,sans-Serif" font-size="10.00">Primitive</text>
</a>
</g>
</g>
<!-- Node1&#45;&gt;Node11 -->
<g id="edge10" class="edge"><title>Node1&#45;&gt;Node11</title>
<path fill="none" stroke="midnightblue" d="M95.1682,-402.651C117.027,-383.052 154.92,-349.307 188,-321 209.499,-302.603 234.59,-281.907 251.3,-268.231"/>
<polygon fill="midnightblue" stroke="midnightblue" points="92.7218,-400.144 87.619,-409.429 97.3983,-405.352 92.7218,-400.144"/>
</g>
<!-- Node14 -->
<g id="node14" class="node"><title>Node14</title>
<g id="a_node14"><a xlink:href="class_tri_devs_1_1_tri_engine2_d_1_1_program.html" target="_top" xlink:title="An OpenGL program. ">
<polygon fill="white" stroke="black" points="199.5,-478.5 199.5,-497.5 342.5,-497.5 342.5,-478.5 199.5,-478.5"/>
<text text-anchor="middle" x="271" y="-485.5" font-family="Helvetica,sans-Serif" font-size="10.00">TriDevs.TriEngine2D.Program</text>
</a>
</g>
</g>
<!-- Node1&#45;&gt;Node14 -->
<g id="edge13" class="edge"><title>Node1&#45;&gt;Node14</title>
<path fill="none" stroke="midnightblue" d="M104.981,-433.003C127.102,-443.666 158.985,-458.143 188,-468 199.655,-471.959 212.49,-475.473 224.476,-478.409"/>
<polygon fill="midnightblue" stroke="midnightblue" points="106.364,-429.783 95.842,-428.546 103.296,-436.075 106.364,-429.783"/>
</g>
<!-- Node15 -->
<g id="node15" class="node"><title>Node15</title>
<g id="a_node15"><a xlink:href="class_tri_devs_1_1_tri_engine2_d_1_1_shaders_1_1_shader.html" target="_top" xlink:title="GLSL shader object loaded and compiled from a *.glsl shader file. ">
<polygon fill="white" stroke="black" points="198,-429 198,-459 344,-459 344,-429 198,-429"/>
<text text-anchor="start" x="206" y="-447" font-family="Helvetica,sans-Serif" font-size="10.00">TriDevs.TriEngine2D.Shaders.</text>
<text text-anchor="middle" x="271" y="-436" font-family="Helvetica,sans-Serif" font-size="10.00">Shader</text>
</a>
</g>
</g>
<!-- Node1&#45;&gt;Node15 -->
<g id="edge14" class="edge"><title>Node1&#45;&gt;Node15</title>
<path fill="none" stroke="midnightblue" d="M119.816,-424.546C142.718,-427.513 171.537,-431.246 197.791,-434.646"/>
<polygon fill="midnightblue" stroke="midnightblue" points="120.107,-421.055 109.74,-423.241 119.207,-427.997 120.107,-421.055"/>
</g>
<!-- Node3 -->
<g id="node3" class="node"><title>Node3</title>
<g id="a_node3"><a xlink:href="class_tri_devs_1_1_tri_engine2_d_1_1_audio_1_1_audio_manager.html" target="_top" xlink:title="Class to manage engine audio. ">
<polygon fill="white" stroke="black" points="405,-429 405,-459 539,-459 539,-429 405,-429"/>
<text text-anchor="start" x="413" y="-447" font-family="Helvetica,sans-Serif" font-size="10.00">TriDevs.TriEngine2D.Audio.</text>
<text text-anchor="middle" x="472" y="-436" font-family="Helvetica,sans-Serif" font-size="10.00">AudioManager</text>
</a>
</g>
</g>
<!-- Node2&#45;&gt;Node3 -->
<g id="edge2" class="edge"><title>Node2&#45;&gt;Node3</title>
<path fill="none" stroke="midnightblue" d="M342.977,-412.477C364.911,-417.877 388.864,-423.776 410.057,-428.994"/>
<polygon fill="midnightblue" stroke="midnightblue" points="343.606,-409.027 333.059,-410.035 341.932,-415.824 343.606,-409.027"/>
</g>
<!-- Node4 -->
<g id="node4" class="node"><title>Node4</title>
<g id="a_node4"><a xlink:href="class_tri_devs_1_1_tri_engine2_d_1_1_audio_1_1_null_audio_manager.html" target="_top" xlink:title="Used as a fallback AudioManager object when the service locator fails to find one. ">
<polygon fill="white" stroke="black" points="405,-380 405,-410 539,-410 539,-380 405,-380"/>
<text text-anchor="start" x="413" y="-398" font-family="Helvetica,sans-Serif" font-size="10.00">TriDevs.TriEngine2D.Audio.</text>
<text text-anchor="middle" x="472" y="-387" font-family="Helvetica,sans-Serif" font-size="10.00">NullAudioManager</text>
</a>
</g>
</g>
<!-- Node2&#45;&gt;Node4 -->
<g id="edge3" class="edge"><title>Node2&#45;&gt;Node4</title>
<path fill="none" stroke="midnightblue" d="M348.433,-395C366.977,-395 386.653,-395 404.686,-395"/>
<polygon fill="midnightblue" stroke="midnightblue" points="348.264,-391.5 338.264,-395 348.264,-398.5 348.264,-391.5"/>
</g>
<!-- Node6 -->
<g id="node6" class="node"><title>Node6</title>
<g id="a_node6"><a xlink:href="class_tri_devs_1_1_tri_engine2_d_1_1_audio_1_1_null_song.html" target="_top" xlink:title="Fallback song class used in NullAudioManager. ">
<polygon fill="white" stroke="black" points="405,-331 405,-361 539,-361 539,-331 405,-331"/>
<text text-anchor="start" x="413" y="-349" font-family="Helvetica,sans-Serif" font-size="10.00">TriDevs.TriEngine2D.Audio.</text>
<text text-anchor="middle" x="472" y="-338" font-family="Helvetica,sans-Serif" font-size="10.00">NullSong</text>
</a>
</g>
</g>
<!-- Node5&#45;&gt;Node6 -->
<g id="edge5" class="edge"><title>Node5&#45;&gt;Node6</title>
<path fill="none" stroke="midnightblue" d="M348.433,-346C366.977,-346 386.653,-346 404.686,-346"/>
<polygon fill="midnightblue" stroke="midnightblue" points="348.264,-342.5 338.264,-346 348.264,-349.5 348.264,-342.5"/>
</g>
<!-- Node7 -->
<g id="node7" class="node"><title>Node7</title>
<g id="a_node7"><a xlink:href="class_tri_devs_1_1_tri_engine2_d_1_1_audio_1_1_song.html" target="_top" xlink:title="Song class that can be used with AudioManager. ">
<polygon fill="white" stroke="black" points="393.5,-292.5 393.5,-311.5 550.5,-311.5 550.5,-292.5 393.5,-292.5"/>
<text text-anchor="middle" x="472" y="-299.5" font-family="Helvetica,sans-Serif" font-size="10.00">TriDevs.TriEngine2D.Audio.Song</text>
</a>
</g>
</g>
<!-- Node5&#45;&gt;Node7 -->
<g id="edge6" class="edge"><title>Node5&#45;&gt;Node7</title>
<path fill="none" stroke="midnightblue" d="M348.089,-329.176C375.101,-323.204 404.552,-316.692 427.853,-311.54"/>
<polygon fill="midnightblue" stroke="midnightblue" points="347.273,-325.772 338.264,-331.349 348.784,-332.607 347.273,-325.772"/>
</g>
<!-- Node9 -->
<g id="node9" class="node"><title>Node9</title>
<g id="a_node9"><a xlink:href="class_tri_devs_1_1_tri_engine2_d_1_1_audio_1_1_null_sound.html" target="_top" xlink:title="Fallback sound class used in NullAudioManager. ">
<polygon fill="white" stroke="black" points="405,-547 405,-577 539,-577 539,-547 405,-547"/>
<text text-anchor="start" x="413" y="-565" font-family="Helvetica,sans-Serif" font-size="10.00">TriDevs.TriEngine2D.Audio.</text>
<text text-anchor="middle" x="472" y="-554" font-family="Helvetica,sans-Serif" font-size="10.00">NullSound</text>
</a>
</g>
</g>
<!-- Node8&#45;&gt;Node9 -->
<g id="edge8" class="edge"><title>Node8&#45;&gt;Node9</title>
<path fill="none" stroke="midnightblue" d="M348.175,-543.484C366.795,-546.291 386.569,-549.272 404.686,-552.003"/>
<polygon fill="midnightblue" stroke="midnightblue" points="348.674,-540.019 338.264,-541.99 347.631,-546.941 348.674,-540.019"/>
</g>
<!-- Node10 -->
<g id="node10" class="node"><title>Node10</title>
<g id="a_node10"><a xlink:href="class_tri_devs_1_1_tri_engine2_d_1_1_audio_1_1_sound.html" target="_top" xlink:title="Sound class that can be used with the AudioManager. ">
<polygon fill="white" stroke="black" points="405,-498 405,-528 539,-528 539,-498 405,-498"/>
<text text-anchor="start" x="413" y="-516" font-family="Helvetica,sans-Serif" font-size="10.00">TriDevs.TriEngine2D.Audio.</text>
<text text-anchor="middle" x="472" y="-505" font-family="Helvetica,sans-Serif" font-size="10.00">Sound</text>
</a>
</g>
</g>
<!-- Node8&#45;&gt;Node10 -->
<g id="edge9" class="edge"><title>Node8&#45;&gt;Node10</title>
<path fill="none" stroke="midnightblue" d="M348.433,-524.702C366.977,-522.932 386.653,-521.053 404.686,-519.331"/>
<polygon fill="midnightblue" stroke="midnightblue" points="347.886,-521.239 338.264,-525.673 348.552,-528.207 347.886,-521.239"/>
</g>
<!-- Node12 -->
<g id="node12" class="node"><title>Node12</title>
<g id="a_node12"><a xlink:href="class_tri_devs_1_1_tri_engine2_d_1_1_graphics_1_1_rectangle.html" target="_top" xlink:title="A primitive 2D Rectangle shape. ">
<polygon fill="white" stroke="black" points="397.5,-243 397.5,-273 546.5,-273 546.5,-243 397.5,-243"/>
<text text-anchor="start" x="405.5" y="-261" font-family="Helvetica,sans-Serif" font-size="10.00">TriDevs.TriEngine2D.Graphics.</text>
<text text-anchor="middle" x="472" y="-250" font-family="Helvetica,sans-Serif" font-size="10.00">Rectangle</text>
</a>
</g>
</g>
<!-- Node11&#45;&gt;Node12 -->
<g id="edge11" class="edge"><title>Node11&#45;&gt;Node12</title>
<path fill="none" stroke="midnightblue" d="M355.568,-255.1C369.472,-255.449 383.803,-255.809 397.435,-256.152"/>
<polygon fill="midnightblue" stroke="midnightblue" points="355.62,-251.6 345.535,-254.848 355.444,-258.598 355.62,-251.6"/>
</g>
<!-- Node13 -->
<g id="node13" class="node"><title>Node13</title>
<g id="a_node13"><a xlink:href="class_tri_devs_1_1_tri_engine2_d_1_1_graphics_1_1_triangle.html" target="_top" xlink:title="A primitive 2D Triangle shape. ">
<polygon fill="white" stroke="black" points="397.5,-194 397.5,-224 546.5,-224 546.5,-194 397.5,-194"/>
<text text-anchor="start" x="405.5" y="-212" font-family="Helvetica,sans-Serif" font-size="10.00">TriDevs.TriEngine2D.Graphics.</text>
<text text-anchor="middle" x="472" y="-201" font-family="Helvetica,sans-Serif" font-size="10.00">Triangle</text>
</a>
</g>
</g>
<!-- Node11&#45;&gt;Node13 -->
<g id="edge12" class="edge"><title>Node11&#45;&gt;Node13</title>
<path fill="none" stroke="midnightblue" d="M350.1,-235.732C367.589,-231.865 386.003,-227.793 403.041,-224.026"/>
<polygon fill="midnightblue" stroke="midnightblue" points="348.936,-232.404 339.928,-237.981 350.448,-239.239 348.936,-232.404"/>
</g>
<!-- Node16 -->
<g id="node16" class="node"><title>Node16</title>
<g id="a_node16"><a xlink:href="interface_tri_devs_1_1_tri_engine2_d_1_1_interfaces_1_1_i_drawable.html" target="_top" xlink:title="Implements a simple draw method. ">
<polygon fill="white" stroke="black" points="0,-145 0,-175 152,-175 152,-145 0,-145"/>
<text text-anchor="start" x="8" y="-163" font-family="Helvetica,sans-Serif" font-size="10.00">TriDevs.TriEngine2D.Interfaces.</text>
<text text-anchor="middle" x="76" y="-152" font-family="Helvetica,sans-Serif" font-size="10.00">IDrawable</text>
</a>
</g>
</g>
<!-- Node16&#45;&gt;Node11 -->
<g id="edge15" class="edge"><title>Node16&#45;&gt;Node11</title>
<path fill="none" stroke="midnightblue" d="M113.611,-180.049C135.077,-191.572 162.839,-206.079 188,-218 202.548,-224.893 218.808,-231.961 232.99,-237.925"/>
<polygon fill="midnightblue" stroke="midnightblue" points="114.987,-176.814 104.524,-175.147 111.664,-182.975 114.987,-176.814"/>
</g>
<!-- Node17 -->
<g id="node17" class="node"><title>Node17</title>
<g id="a_node17"><a xlink:href="interface_tri_devs_1_1_tri_engine2_d_1_1_interfaces_1_1_i_drawable_game_component.html" target="_top" xlink:title="A game component that can be added to GameState objects. Drawable game components also implement a dr...">
<polygon fill="white" stroke="black" points="396,-47 396,-77 548,-77 548,-47 396,-47"/>
<text text-anchor="start" x="404" y="-65" font-family="Helvetica,sans-Serif" font-size="10.00">TriDevs.TriEngine2D.Interfaces.</text>
<text text-anchor="middle" x="472" y="-54" font-family="Helvetica,sans-Serif" font-size="10.00">IDrawableGameComponent</text>
</a>
</g>
</g>
<!-- Node16&#45;&gt;Node17 -->
<g id="edge16" class="edge"><title>Node16&#45;&gt;Node17</title>
<path fill="none" stroke="midnightblue" d="M118.769,-178.989C177.045,-202.335 283.51,-233.201 354,-184 392.049,-157.442 356.156,-117.744 390,-86 393.637,-82.5885 397.737,-79.6598 402.112,-77.1459"/>
<polygon fill="midnightblue" stroke="midnightblue" points="120.078,-175.743 109.498,-175.175 117.415,-182.216 120.078,-175.743"/>
</g>
<!-- Node20 -->
<g id="node20" class="node"><title>Node20</title>
<g id="a_node20"><a xlink:href="interface_tri_devs_1_1_tri_engine2_d_1_1_state_management_1_1_i_game_state.html" target="_top" xlink:title="A game state that can be used with the game state manager. Represent a specific state of the game...">
<polygon fill="white" stroke="black" points="206,-145 206,-175 336,-175 336,-145 206,-145"/>
<text text-anchor="start" x="214" y="-163" font-family="Helvetica,sans-Serif" font-size="10.00">TriDevs.TriEngine2D.State</text>
<text text-anchor="middle" x="271" y="-152" font-family="Helvetica,sans-Serif" font-size="10.00">Management.IGameState</text>
</a>
</g>
</g>
<!-- Node16&#45;&gt;Node20 -->
<g id="edge19" class="edge"><title>Node16&#45;&gt;Node20</title>
<path fill="none" stroke="midnightblue" d="M162.264,-160C176.947,-160 191.983,-160 205.985,-160"/>
<polygon fill="midnightblue" stroke="midnightblue" points="162.172,-156.5 152.171,-160 162.171,-163.5 162.172,-156.5"/>
</g>
<!-- Node22 -->
<g id="node22" class="node"><title>Node22</title>
<g id="a_node22"><a xlink:href="interface_tri_devs_1_1_tri_engine2_d_1_1_state_management_1_1_i_game_state_manager.html" target="_top" xlink:title="Game state manager that keeps track of the active game states and provides methods to control the sta...">
<polygon fill="white" stroke="black" points="188.5,-96 188.5,-126 353.5,-126 353.5,-96 188.5,-96"/>
<text text-anchor="start" x="196.5" y="-114" font-family="Helvetica,sans-Serif" font-size="10.00">TriDevs.TriEngine2D.State</text>
<text text-anchor="middle" x="271" y="-103" font-family="Helvetica,sans-Serif" font-size="10.00">Management.IGameStateManager</text>
</a>
</g>
</g>
<!-- Node16&#45;&gt;Node22 -->
<g id="edge21" class="edge"><title>Node16&#45;&gt;Node22</title>
<path fill="none" stroke="midnightblue" d="M146.125,-142.45C167.319,-137.069 190.433,-131.201 210.894,-126.006"/>
<polygon fill="midnightblue" stroke="midnightblue" points="145.049,-139.112 136.218,-144.965 146.772,-145.897 145.049,-139.112"/>
</g>
<!-- Node24 -->
<g id="node24" class="node"><title>Node24</title>
<g id="a_node24"><a xlink:href="interface_tri_devs_1_1_tri_engine2_d_1_1_u_i_1_1_i_control.html" target="_top" xlink:title="A UI control that can be drawn on screen and interacted with. ">
<polygon fill="white" stroke="black" points="195,-8.5 195,-27.5 347,-27.5 347,-8.5 195,-8.5"/>
<text text-anchor="middle" x="271" y="-15.5" font-family="Helvetica,sans-Serif" font-size="10.00">TriDevs.TriEngine2D.UI.IControl</text>
</a>
</g>
</g>
<!-- Node16&#45;&gt;Node24 -->
<g id="edge23" class="edge"><title>Node16&#45;&gt;Node24</title>
<path fill="none" stroke="midnightblue" d="M115.759,-139.619C128.435,-131.617 141.85,-121.562 152,-110 175.866,-82.8146 159.649,-59.469 188,-37 192.81,-33.1879 198.249,-30.1152 203.981,-27.6419"/>
<polygon fill="midnightblue" stroke="midnightblue" points="113.898,-136.654 107.151,-144.823 117.519,-142.644 113.898,-136.654"/>
</g>
<!-- Node18 -->
<g id="node18" class="node"><title>Node18</title>
<g id="a_node18"><a xlink:href="interface_tri_devs_1_1_tri_engine2_d_1_1_u_i_1_1_i_control_manager.html" target="_top" xlink:title="Manages various UI controls, automatically updating and drawing them to the screen. ">
<polygon fill="white" stroke="black" points="590,-48 590,-78 742,-78 742,-48 590,-48"/>
<text text-anchor="start" x="598" y="-66" font-family="Helvetica,sans-Serif" font-size="10.00">TriDevs.TriEngine2D.UI.IControl</text>
<text text-anchor="middle" x="666" y="-55" font-family="Helvetica,sans-Serif" font-size="10.00">Manager</text>
</a>
</g>
</g>
<!-- Node17&#45;&gt;Node18 -->
<g id="edge17" class="edge"><title>Node17&#45;&gt;Node18</title>
<path fill="none" stroke="midnightblue" d="M558.157,-62.4435C568.767,-62.4988 579.555,-62.555 589.995,-62.6093"/>
<polygon fill="midnightblue" stroke="midnightblue" points="558.075,-58.9432 548.057,-62.3909 558.039,-65.9431 558.075,-58.9432"/>
</g>
<!-- Node19 -->
<g id="node19" class="node"><title>Node19</title>
<g id="a_node19"><a xlink:href="class_tri_devs_1_1_tri_engine2_d_1_1_u_i_1_1_control_manager.html" target="_top" xlink:title="Control manager to manage various UI controls for a game. ">
<polygon fill="white" stroke="black" points="778.5,-49 778.5,-79 927.5,-79 927.5,-49 778.5,-49"/>
<text text-anchor="start" x="786.5" y="-67" font-family="Helvetica,sans-Serif" font-size="10.00">TriDevs.TriEngine2D.UI.Control</text>
<text text-anchor="middle" x="853" y="-56" font-family="Helvetica,sans-Serif" font-size="10.00">Manager</text>
</a>
</g>
</g>
<!-- Node18&#45;&gt;Node19 -->
<g id="edge18" class="edge"><title>Node18&#45;&gt;Node19</title>
<path fill="none" stroke="midnightblue" d="M752.366,-63.4614C761.035,-63.5083 769.788,-63.5556 778.318,-63.6017"/>
<polygon fill="midnightblue" stroke="midnightblue" points="752.265,-59.9609 742.247,-63.4067 752.227,-66.9608 752.265,-59.9609"/>
</g>
<!-- Node21 -->
<g id="node21" class="node"><title>Node21</title>
<g id="a_node21"><a xlink:href="class_tri_devs_1_1_tri_engine2_d_1_1_state_management_1_1_game_state.html" target="_top" xlink:title="Base GameState class that all other game states derive from, defines basic GameState behaviour...">
<polygon fill="white" stroke="black" points="407,-145 407,-175 537,-175 537,-145 407,-145"/>
<text text-anchor="start" x="415" y="-163" font-family="Helvetica,sans-Serif" font-size="10.00">TriDevs.TriEngine2D.State</text>
<text text-anchor="middle" x="472" y="-152" font-family="Helvetica,sans-Serif" font-size="10.00">Management.GameState</text>
</a>
</g>
</g>
<!-- Node20&#45;&gt;Node21 -->
<g id="edge20" class="edge"><title>Node20&#45;&gt;Node21</title>
<path fill="none" stroke="midnightblue" d="M346.296,-160C366.156,-160 387.449,-160 406.719,-160"/>
<polygon fill="midnightblue" stroke="midnightblue" points="346.06,-156.5 336.06,-160 346.06,-163.5 346.06,-156.5"/>
</g>
<!-- Node23 -->
<g id="node23" class="node"><title>Node23</title>
<g id="a_node23"><a xlink:href="class_tri_devs_1_1_tri_engine2_d_1_1_state_management_1_1_game_state_manager.html" target="_top" xlink:title="Game state manager that keeps track of the active game states and provides methods to control the sta...">
<polygon fill="white" stroke="black" points="390.5,-96 390.5,-126 553.5,-126 553.5,-96 390.5,-96"/>
<text text-anchor="start" x="398.5" y="-114" font-family="Helvetica,sans-Serif" font-size="10.00">TriDevs.TriEngine2D.State</text>
<text text-anchor="middle" x="472" y="-103" font-family="Helvetica,sans-Serif" font-size="10.00">Management.GameStateManager</text>
</a>
</g>
</g>
<!-- Node22&#45;&gt;Node23 -->
<g id="edge22" class="edge"><title>Node22&#45;&gt;Node23</title>
<path fill="none" stroke="midnightblue" d="M363.532,-111C372.45,-111 381.454,-111 390.255,-111"/>
<polygon fill="midnightblue" stroke="midnightblue" points="363.515,-107.5 353.515,-111 363.515,-114.5 363.515,-107.5"/>
</g>
<!-- Node25 -->
<g id="node25" class="node"><title>Node25</title>
<g id="a_node25"><a xlink:href="class_tri_devs_1_1_tri_engine2_d_1_1_u_i_1_1_control.html" target="_top" xlink:title="Base control class that all other controls inherits from. Defines basic UI control behaviour...">
<polygon fill="white" stroke="black" points="397.5,-8.5 397.5,-27.5 546.5,-27.5 546.5,-8.5 397.5,-8.5"/>
<text text-anchor="middle" x="472" y="-15.5" font-family="Helvetica,sans-Serif" font-size="10.00">TriDevs.TriEngine2D.UI.Control</text>
</a>
</g>
</g>
<!-- Node24&#45;&gt;Node25 -->
<g id="edge24" class="edge"><title>Node24&#45;&gt;Node25</title>
<path fill="none" stroke="midnightblue" d="M357.327,-18C370.635,-18 384.288,-18 397.308,-18"/>
<polygon fill="midnightblue" stroke="midnightblue" points="357.233,-14.5001 347.233,-18 357.233,-21.5001 357.233,-14.5001"/>
</g>
<!-- Node26 -->
<g id="node26" class="node"><title>Node26</title>
<g id="a_node26"><a xlink:href="class_tri_devs_1_1_tri_engine2_d_1_1_u_i_1_1_label.html" target="_top" xlink:title="A simple label to display text on the screen. ">
<polygon fill="white" stroke="black" points="595,-7.5 595,-26.5 737,-26.5 737,-7.5 595,-7.5"/>
<text text-anchor="middle" x="666" y="-14.5" font-family="Helvetica,sans-Serif" font-size="10.00">TriDevs.TriEngine2D.UI.Label</text>
</a>
</g>
</g>
<!-- Node25&#45;&gt;Node26 -->
<g id="edge25" class="edge"><title>Node25&#45;&gt;Node26</title>
<path fill="none" stroke="midnightblue" d="M556.819,-17.5634C569.556,-17.4971 582.585,-17.4292 594.988,-17.3646"/>
<polygon fill="midnightblue" stroke="midnightblue" points="556.665,-14.0641 546.683,-17.6162 556.701,-21.064 556.665,-14.0641"/>
</g>
<!-- Node27 -->
<g id="node27" class="node"><title>Node27</title>
<g id="a_node27"><a xlink:href="class_tri_devs_1_1_tri_engine2_d_1_1_u_i_1_1_link_label.html" target="_top" xlink:title="A label that, when clicked, will open a URL. ">
<polygon fill="white" stroke="black" points="784.5,-0 784.5,-30 921.5,-30 921.5,-0 784.5,-0"/>
<text text-anchor="start" x="792.5" y="-18" font-family="Helvetica,sans-Serif" font-size="10.00">TriDevs.TriEngine2D.UI.Link</text>
<text text-anchor="middle" x="853" y="-7" font-family="Helvetica,sans-Serif" font-size="10.00">Label</text>
</a>
</g>
</g>
<!-- Node26&#45;&gt;Node27 -->
<g id="edge26" class="edge"><title>Node26&#45;&gt;Node27</title>
<path fill="none" stroke="midnightblue" d="M747.44,-16.1304C759.73,-15.9975 772.309,-15.8615 784.289,-15.732"/>
<polygon fill="midnightblue" stroke="midnightblue" points="747.166,-12.633 737.204,-16.241 747.242,-19.6326 747.166,-12.633"/>
</g>
<!-- Node28 -->
<g id="node28" class="node"><title>Node28</title>
<g id="a_node28"><a xlink:href="interface_tri_devs_1_1_tri_engine2_d_1_1_interfaces_1_1_i_updatable.html" target="_top" xlink:title="Implements a simple update method. ">
<polygon fill="white" stroke="black" points="0,-71 0,-101 152,-101 152,-71 0,-71"/>
<text text-anchor="start" x="8" y="-89" font-family="Helvetica,sans-Serif" font-size="10.00">TriDevs.TriEngine2D.Interfaces.</text>
<text text-anchor="middle" x="76" y="-78" font-family="Helvetica,sans-Serif" font-size="10.00">IUpdatable</text>
</a>
</g>
</g>
<!-- Node29 -->
<g id="node29" class="node"><title>Node29</title>
<g id="a_node29"><a xlink:href="interface_tri_devs_1_1_tri_engine2_d_1_1_interfaces_1_1_i_game_component.html" target="_top" xlink:title="A game component that can be added to IGameState objects. ">
<polygon fill="white" stroke="black" points="195,-47 195,-77 347,-77 347,-47 195,-47"/>
<text text-anchor="start" x="203" y="-65" font-family="Helvetica,sans-Serif" font-size="10.00">TriDevs.TriEngine2D.Interfaces.</text>
<text text-anchor="middle" x="271" y="-54" font-family="Helvetica,sans-Serif" font-size="10.00">IGameComponent</text>
</a>
</g>
</g>
<!-- Node28&#45;&gt;Node29 -->
<g id="edge27" class="edge"><title>Node28&#45;&gt;Node29</title>
<path fill="none" stroke="midnightblue" d="M162.415,-75.3784C173.177,-74.0401 184.126,-72.6786 194.716,-71.3617"/>
<polygon fill="midnightblue" stroke="midnightblue" points="161.663,-71.9449 152.171,-76.6523 162.527,-78.8914 161.663,-71.9449"/>
</g>
<!-- Node28&#45;&gt;Node20 -->
<g id="edge29" class="edge"><title>Node28&#45;&gt;Node20</title>
<path fill="none" stroke="midnightblue" d="M117.805,-105.416C138.576,-114.939 164.37,-126.218 188,-135 197.347,-138.474 207.418,-141.842 217.194,-144.921"/>
<polygon fill="midnightblue" stroke="midnightblue" points="119.187,-102.199 108.641,-101.18 116.25,-108.553 119.187,-102.199"/>
</g>
<!-- Node28&#45;&gt;Node22 -->
<g id="edge30" class="edge"><title>Node28&#45;&gt;Node22</title>
<path fill="none" stroke="midnightblue" d="M162.264,-97.0445C170.923,-98.1662 179.705,-99.3038 188.325,-100.42"/>
<polygon fill="midnightblue" stroke="midnightblue" points="162.538,-93.5509 152.171,-95.7372 161.639,-100.493 162.538,-93.5509"/>
</g>
<!-- Node28&#45;&gt;Node24 -->
<g id="edge31" class="edge"><title>Node28&#45;&gt;Node24</title>
<path fill="none" stroke="midnightblue" d="M116.219,-66.5236C137.149,-56.6866 163.564,-45.1438 188,-37 198.814,-33.3961 210.65,-30.2244 221.882,-27.5562"/>
<polygon fill="midnightblue" stroke="midnightblue" points="114.54,-63.4464 107.015,-70.9049 117.549,-69.7668 114.54,-63.4464"/>
</g>
<!-- Node29&#45;&gt;Node17 -->
<g id="edge28" class="edge"><title>Node29&#45;&gt;Node17</title>
<path fill="none" stroke="midnightblue" d="M357.434,-62C370.26,-62 383.404,-62 395.99,-62"/>
<polygon fill="midnightblue" stroke="midnightblue" points="357.233,-58.5001 347.233,-62 357.233,-65.5001 357.233,-58.5001"/>
</g>
</g>
</svg>
