<?xml version="1.0" encoding="UTF-8" standalone="no"?>
<!DOCTYPE svg PUBLIC "-//W3C//DTD SVG 1.1//EN"
 "http://www.w3.org/Graphics/SVG/1.1/DTD/svg11.dtd">
<!-- Generated by graphviz version 2.30.0 (20130114.0323)
 -->
<!-- Title: Graphical Class Hierarchy Pages: 1 -->
<svg width="926pt" height="585pt"
 viewBox="0.00 0.00 926.00 585.00" xmlns="http://www.w3.org/2000/svg" xmlns:xlink="http://www.w3.org/1999/xlink">
<g id="graph0" class="graph" transform="scale(1 1) rotate(0) translate(4 581)">
<title>Graphical Class Hierarchy</title>
<polygon fill="white" stroke="white" points="-4,5 -4,-581 923,-581 923,5 -4,5"/>
<!-- Node1 -->
<g id="node1" class="node"><title>Node1</title>
<polygon fill="white" stroke="#bfbfbf" points="36.5,-409.5 36.5,-428.5 103.5,-428.5 103.5,-409.5 36.5,-409.5"/>
<text text-anchor="middle" x="70" y="-416.5" font-family="Helvetica,sans-Serif" font-size="10.00">IDisposable</text>
</g>
<!-- Node2 -->
<g id="node2" class="node"><title>Node2</title>
<g id="a_node2"><a xlink:href="interface_tri_devs_1_1_tri_engine_1_1_audio_1_1_i_audio_manager.html" target="_top" xlink:title="Provides various methods to manipulate audio. ">
<polygon fill="white" stroke="black" points="204,-380 204,-410 326,-410 326,-380 204,-380"/>
<text text-anchor="start" x="212" y="-398" font-family="Helvetica,sans-Serif" font-size="10.00">TriDevs.TriEngine.Audio.</text>
<text text-anchor="middle" x="265" y="-387" font-family="Helvetica,sans-Serif" font-size="10.00">IAudioManager</text>
</a>
</g>
</g>
<!-- Node1&#45;&gt;Node2 -->
<g id="edge1" class="edge"><title>Node1&#45;&gt;Node2</title>
<path fill="none" stroke="midnightblue" d="M113.821,-413.675C140.26,-410.387 174.582,-406.119 203.74,-402.493"/>
<polygon fill="midnightblue" stroke="midnightblue" points="113.231,-410.221 103.74,-414.929 114.095,-417.168 113.231,-410.221"/>
</g>
<!-- Node5 -->
<g id="node5" class="node"><title>Node5</title>
<g id="a_node5"><a xlink:href="interface_tri_devs_1_1_tri_engine_1_1_audio_1_1_i_song.html" target="_top" xlink:title="A song that will be streamed in the audio player. ">
<polygon fill="white" stroke="black" points="204,-331 204,-361 326,-361 326,-331 204,-331"/>
<text text-anchor="start" x="212" y="-349" font-family="Helvetica,sans-Serif" font-size="10.00">TriDevs.TriEngine.Audio.</text>
<text text-anchor="middle" x="265" y="-338" font-family="Helvetica,sans-Serif" font-size="10.00">ISong</text>
</a>
</g>
</g>
<!-- Node1&#45;&gt;Node5 -->
<g id="edge4" class="edge"><title>Node1&#45;&gt;Node5</title>
<path fill="none" stroke="midnightblue" d="M98.1108,-404.786C118.999,-394.22 148.812,-379.969 176,-370 184.921,-366.729 194.494,-363.673 203.924,-360.911"/>
<polygon fill="midnightblue" stroke="midnightblue" points="96.4921,-401.682 89.1829,-409.352 99.6797,-407.914 96.4921,-401.682"/>
</g>
<!-- Node8 -->
<g id="node8" class="node"><title>Node8</title>
<g id="a_node8"><a xlink:href="interface_tri_devs_1_1_tri_engine_1_1_audio_1_1_i_sound.html" target="_top" xlink:title="A sound file for use with the audio manager. ">
<polygon fill="white" stroke="black" points="204,-517 204,-547 326,-547 326,-517 204,-517"/>
<text text-anchor="start" x="212" y="-535" font-family="Helvetica,sans-Serif" font-size="10.00">TriDevs.TriEngine.Audio.</text>
<text text-anchor="middle" x="265" y="-524" font-family="Helvetica,sans-Serif" font-size="10.00">ISound</text>
</a>
</g>
</g>
<!-- Node1&#45;&gt;Node8 -->
<g id="edge7" class="edge"><title>Node1&#45;&gt;Node8</title>
<path fill="none" stroke="midnightblue" d="M86.9167,-436.151C106.2,-455.955 140.533,-488.211 176,-507 184.701,-511.61 194.35,-515.453 203.976,-518.631"/>
<polygon fill="midnightblue" stroke="midnightblue" points="89.278,-433.555 79.8399,-428.742 84.2161,-438.39 89.278,-433.555"/>
</g>
<!-- Node11 -->
<g id="node11" class="node"><title>Node11</title>
<g id="a_node11"><a xlink:href="class_tri_devs_1_1_tri_engine_1_1_graphics_1_1_primitive.html" target="_top" xlink:title="Represents a primitive 2D shape composed of triangles. ">
<polygon fill="white" stroke="black" points="196.5,-238 196.5,-268 333.5,-268 333.5,-238 196.5,-238"/>
<text text-anchor="start" x="204.5" y="-256" font-family="Helvetica,sans-Serif" font-size="10.00">TriDevs.TriEngine.Graphics.</text>
<text text-anchor="middle" x="265" y="-245" font-family="Helvetica,sans-Serif" font-size="10.00">Primitive</text>
</a>
</g>
</g>
<!-- Node1&#45;&gt;Node11 -->
<g id="edge10" class="edge"><title>Node1&#45;&gt;Node11</title>
<path fill="none" stroke="midnightblue" d="M88.1511,-402.057C108.576,-382.104 143.962,-348.228 176,-321 198.363,-301.995 225.193,-281.586 243.302,-268.14"/>
<polygon fill="midnightblue" stroke="midnightblue" points="85.5381,-399.718 80.8512,-409.22 90.4405,-404.715 85.5381,-399.718"/>
</g>
<!-- Node14 -->
<g id="node14" class="node"><title>Node14</title>
<g id="a_node14"><a xlink:href="class_tri_devs_1_1_tri_engine_1_1_program.html" target="_top" xlink:title="An OpenGL program. ">
<polygon fill="white" stroke="black" points="199.5,-478.5 199.5,-497.5 330.5,-497.5 330.5,-478.5 199.5,-478.5"/>
<text text-anchor="middle" x="265" y="-485.5" font-family="Helvetica,sans-Serif" font-size="10.00">TriDevs.TriEngine.Program</text>
</a>
</g>
</g>
<!-- Node1&#45;&gt;Node14 -->
<g id="edge13" class="edge"><title>Node1&#45;&gt;Node14</title>
<path fill="none" stroke="midnightblue" d="M97.2431,-433.163C118.1,-443.945 148.275,-458.502 176,-468 187.857,-472.062 200.898,-475.539 213.224,-478.399"/>
<polygon fill="midnightblue" stroke="midnightblue" points="98.8401,-430.049 88.3581,-428.507 95.5907,-436.249 98.8401,-430.049"/>
</g>
<!-- Node15 -->
<g id="node15" class="node"><title>Node15</title>
<g id="a_node15"><a xlink:href="class_tri_devs_1_1_tri_engine_1_1_shaders_1_1_shader.html" target="_top" xlink:title="GLSL shader object loaded and compiled from a *.glsl shader file. ">
<polygon fill="white" stroke="black" points="198,-429 198,-459 332,-459 332,-429 198,-429"/>
<text text-anchor="start" x="206" y="-447" font-family="Helvetica,sans-Serif" font-size="10.00">TriDevs.TriEngine.Shaders.</text>
<text text-anchor="middle" x="265" y="-436" font-family="Helvetica,sans-Serif" font-size="10.00">Shader</text>
</a>
</g>
</g>
<!-- Node1&#45;&gt;Node15 -->
<g id="edge14" class="edge"><title>Node1&#45;&gt;Node15</title>
<path fill="none" stroke="midnightblue" d="M113.86,-424.552C138.524,-427.747 170.04,-431.829 197.823,-435.428"/>
<polygon fill="midnightblue" stroke="midnightblue" points="114.107,-421.055 103.74,-423.241 113.207,-427.997 114.107,-421.055"/>
</g>
<!-- Node3 -->
<g id="node3" class="node"><title>Node3</title>
<g id="a_node3"><a xlink:href="class_tri_devs_1_1_tri_engine_1_1_audio_1_1_audio_manager.html" target="_top" xlink:title="Class to manage engine audio. ">
<polygon fill="white" stroke="black" points="418,-429 418,-459 540,-459 540,-429 418,-429"/>
<text text-anchor="start" x="426" y="-447" font-family="Helvetica,sans-Serif" font-size="10.00">TriDevs.TriEngine.Audio.</text>
<text text-anchor="middle" x="479" y="-436" font-family="Helvetica,sans-Serif" font-size="10.00">AudioManager</text>
</a>
</g>
</g>
<!-- Node2&#45;&gt;Node3 -->
<g id="edge2" class="edge"><title>Node2&#45;&gt;Node3</title>
<path fill="none" stroke="midnightblue" d="M336.115,-411.206C362.5,-417.304 392.249,-424.18 417.666,-430.055"/>
<polygon fill="midnightblue" stroke="midnightblue" points="336.715,-407.752 326.184,-408.91 335.139,-414.572 336.715,-407.752"/>
</g>
<!-- Node4 -->
<g id="node4" class="node"><title>Node4</title>
<g id="a_node4"><a xlink:href="class_tri_devs_1_1_tri_engine_1_1_audio_1_1_null_audio_manager.html" target="_top" xlink:title="Used as a fallback AudioManager object when the service locator fails to find one. ">
<polygon fill="white" stroke="black" points="418,-380 418,-410 540,-410 540,-380 418,-380"/>
<text text-anchor="start" x="426" y="-398" font-family="Helvetica,sans-Serif" font-size="10.00">TriDevs.TriEngine.Audio.</text>
<text text-anchor="middle" x="479" y="-387" font-family="Helvetica,sans-Serif" font-size="10.00">NullAudioManager</text>
</a>
</g>
</g>
<!-- Node2&#45;&gt;Node4 -->
<g id="edge3" class="edge"><title>Node2&#45;&gt;Node4</title>
<path fill="none" stroke="midnightblue" d="M336.464,-395C362.762,-395 392.361,-395 417.666,-395"/>
<polygon fill="midnightblue" stroke="midnightblue" points="336.184,-391.5 326.184,-395 336.184,-398.5 336.184,-391.5"/>
</g>
<!-- Node6 -->
<g id="node6" class="node"><title>Node6</title>
<g id="a_node6"><a xlink:href="class_tri_devs_1_1_tri_engine_1_1_audio_1_1_null_song.html" target="_top" xlink:title="Fallback song class used in NullAudioManager. ">
<polygon fill="white" stroke="black" points="418,-331 418,-361 540,-361 540,-331 418,-331"/>
<text text-anchor="start" x="426" y="-349" font-family="Helvetica,sans-Serif" font-size="10.00">TriDevs.TriEngine.Audio.</text>
<text text-anchor="middle" x="479" y="-338" font-family="Helvetica,sans-Serif" font-size="10.00">NullSong</text>
</a>
</g>
</g>
<!-- Node5&#45;&gt;Node6 -->
<g id="edge5" class="edge"><title>Node5&#45;&gt;Node6</title>
<path fill="none" stroke="midnightblue" d="M336.464,-346C362.762,-346 392.361,-346 417.666,-346"/>
<polygon fill="midnightblue" stroke="midnightblue" points="336.184,-342.5 326.184,-346 336.184,-349.5 336.184,-342.5"/>
</g>
<!-- Node7 -->
<g id="node7" class="node"><title>Node7</title>
<g id="a_node7"><a xlink:href="class_tri_devs_1_1_tri_engine_1_1_audio_1_1_song.html" target="_top" xlink:title="Song class that can be used with AudioManager. ">
<polygon fill="white" stroke="black" points="406.5,-292.5 406.5,-311.5 551.5,-311.5 551.5,-292.5 406.5,-292.5"/>
<text text-anchor="middle" x="479" y="-299.5" font-family="Helvetica,sans-Serif" font-size="10.00">TriDevs.TriEngine.Audio.Song</text>
</a>
</g>
</g>
<!-- Node5&#45;&gt;Node7 -->
<g id="edge6" class="edge"><title>Node5&#45;&gt;Node7</title>
<path fill="none" stroke="midnightblue" d="M336.248,-331.42C367.816,-324.868 404.176,-317.322 432.166,-311.513"/>
<polygon fill="midnightblue" stroke="midnightblue" points="335.264,-328.05 326.184,-333.509 336.686,-334.904 335.264,-328.05"/>
</g>
<!-- Node9 -->
<g id="node9" class="node"><title>Node9</title>
<g id="a_node9"><a xlink:href="class_tri_devs_1_1_tri_engine_1_1_audio_1_1_null_sound.html" target="_top" xlink:title="Fallback sound class used in NullAudioManager. ">
<polygon fill="white" stroke="black" points="418,-547 418,-577 540,-577 540,-547 418,-547"/>
<text text-anchor="start" x="426" y="-565" font-family="Helvetica,sans-Serif" font-size="10.00">TriDevs.TriEngine.Audio.</text>
<text text-anchor="middle" x="479" y="-554" font-family="Helvetica,sans-Serif" font-size="10.00">NullSound</text>
</a>
</g>
</g>
<!-- Node8&#45;&gt;Node9 -->
<g id="edge8" class="edge"><title>Node8&#45;&gt;Node9</title>
<path fill="none" stroke="midnightblue" d="M336.115,-541.922C362.5,-545.656 392.249,-549.865 417.666,-553.462"/>
<polygon fill="midnightblue" stroke="midnightblue" points="336.575,-538.452 326.184,-540.517 335.595,-545.383 336.575,-538.452"/>
</g>
<!-- Node10 -->
<g id="node10" class="node"><title>Node10</title>
<g id="a_node10"><a xlink:href="class_tri_devs_1_1_tri_engine_1_1_audio_1_1_sound.html" target="_top" xlink:title="Sound class that can be used with the AudioManager. ">
<polygon fill="white" stroke="black" points="418,-498 418,-528 540,-528 540,-498 418,-498"/>
<text text-anchor="start" x="426" y="-516" font-family="Helvetica,sans-Serif" font-size="10.00">TriDevs.TriEngine.Audio.</text>
<text text-anchor="middle" x="479" y="-505" font-family="Helvetica,sans-Serif" font-size="10.00">Sound</text>
</a>
</g>
</g>
<!-- Node8&#45;&gt;Node10 -->
<g id="edge9" class="edge"><title>Node8&#45;&gt;Node10</title>
<path fill="none" stroke="midnightblue" d="M336.464,-525.685C362.762,-523.328 392.361,-520.675 417.666,-518.407"/>
<polygon fill="midnightblue" stroke="midnightblue" points="335.831,-522.227 326.184,-526.606 336.456,-529.199 335.831,-522.227"/>
</g>
<!-- Node12 -->
<g id="node12" class="node"><title>Node12</title>
<g id="a_node12"><a xlink:href="class_tri_devs_1_1_tri_engine_1_1_graphics_1_1_rectangle.html" target="_top" xlink:title="A primitive 2D Rectangle shape. ">
<polygon fill="white" stroke="black" points="410.5,-243 410.5,-273 547.5,-273 547.5,-243 410.5,-243"/>
<text text-anchor="start" x="418.5" y="-261" font-family="Helvetica,sans-Serif" font-size="10.00">TriDevs.TriEngine.Graphics.</text>
<text text-anchor="middle" x="479" y="-250" font-family="Helvetica,sans-Serif" font-size="10.00">Rectangle</text>
</a>
</g>
</g>
<!-- Node11&#45;&gt;Node12 -->
<g id="edge11" class="edge"><title>Node11&#45;&gt;Node12</title>
<path fill="none" stroke="midnightblue" d="M343.861,-254.836C365.635,-255.35 389.117,-255.904 410.255,-256.402"/>
<polygon fill="midnightblue" stroke="midnightblue" points="343.741,-251.333 333.661,-254.596 343.576,-258.331 343.741,-251.333"/>
</g>
<!-- Node13 -->
<g id="node13" class="node"><title>Node13</title>
<g id="a_node13"><a xlink:href="class_tri_devs_1_1_tri_engine_1_1_graphics_1_1_triangle.html" target="_top" xlink:title="A primitive 2D Triangle shape. ">
<polygon fill="white" stroke="black" points="410.5,-194 410.5,-224 547.5,-224 547.5,-194 410.5,-194"/>
<text text-anchor="start" x="418.5" y="-212" font-family="Helvetica,sans-Serif" font-size="10.00">TriDevs.TriEngine.Graphics.</text>
<text text-anchor="middle" x="479" y="-201" font-family="Helvetica,sans-Serif" font-size="10.00">Triangle</text>
</a>
</g>
</g>
<!-- Node11&#45;&gt;Node13 -->
<g id="edge12" class="edge"><title>Node11&#45;&gt;Node13</title>
<path fill="none" stroke="midnightblue" d="M343.566,-236.901C365.423,-232.365 389.021,-227.467 410.255,-223.06"/>
<polygon fill="midnightblue" stroke="midnightblue" points="342.741,-233.498 333.661,-238.957 344.164,-240.352 342.741,-233.498"/>
</g>
<!-- Node16 -->
<g id="node16" class="node"><title>Node16</title>
<g id="a_node16"><a xlink:href="interface_tri_devs_1_1_tri_engine_1_1_interfaces_1_1_i_drawable.html" target="_top" xlink:title="Implements a simple draw method. ">
<polygon fill="white" stroke="black" points="0,-145 0,-175 140,-175 140,-145 0,-145"/>
<text text-anchor="start" x="8" y="-163" font-family="Helvetica,sans-Serif" font-size="10.00">TriDevs.TriEngine.Interfaces.</text>
<text text-anchor="middle" x="70" y="-152" font-family="Helvetica,sans-Serif" font-size="10.00">IDrawable</text>
</a>
</g>
</g>
<!-- Node16&#45;&gt;Node11 -->
<g id="edge15" class="edge"><title>Node16&#45;&gt;Node11</title>
<path fill="none" stroke="midnightblue" d="M105.263,-180.362C125.51,-192.029 151.836,-206.577 176,-218 191.013,-225.097 207.878,-232.042 222.796,-237.851"/>
<polygon fill="midnightblue" stroke="midnightblue" points="106.823,-177.22 96.4175,-175.225 103.307,-183.274 106.823,-177.22"/>
</g>
<!-- Node17 -->
<g id="node17" class="node"><title>Node17</title>
<g id="a_node17"><a xlink:href="interface_tri_devs_1_1_tri_engine_1_1_interfaces_1_1_i_drawable_game_component.html" target="_top" xlink:title="A game component that can be added to GameState objects. Drawable game components also implement a dr...">
<polygon fill="white" stroke="black" points="409,-47 409,-77 549,-77 549,-47 409,-47"/>
<text text-anchor="start" x="417" y="-65" font-family="Helvetica,sans-Serif" font-size="10.00">TriDevs.TriEngine.Interfaces.</text>
<text text-anchor="middle" x="479" y="-54" font-family="Helvetica,sans-Serif" font-size="10.00">IDrawableGameComponent</text>
</a>
</g>
</g>
<!-- Node16&#45;&gt;Node17 -->
<g id="edge16" class="edge"><title>Node16&#45;&gt;Node17</title>
<path fill="none" stroke="midnightblue" d="M112.731,-178.905C172.061,-202.644 281.611,-234.527 354,-184 392.049,-157.442 355.812,-117.374 390,-86 395.484,-80.9677 401.92,-76.9742 408.774,-73.8077"/>
<polygon fill="midnightblue" stroke="midnightblue" points="113.884,-175.595 103.304,-175.032 111.223,-182.07 113.884,-175.595"/>
</g>
<!-- Node20 -->
<g id="node20" class="node"><title>Node20</title>
<g id="a_node20"><a xlink:href="interface_tri_devs_1_1_tri_engine_1_1_state_management_1_1_i_game_state.html" target="_top" xlink:title="A game state that can be used with the game state manager. Represent a specific state of the game...">
<polygon fill="white" stroke="black" points="176.5,-145 176.5,-175 353.5,-175 353.5,-145 176.5,-145"/>
<text text-anchor="start" x="184.5" y="-163" font-family="Helvetica,sans-Serif" font-size="10.00">TriDevs.TriEngine.StateManagement.</text>
<text text-anchor="middle" x="265" y="-152" font-family="Helvetica,sans-Serif" font-size="10.00">IGameState</text>
</a>
</g>
</g>
<!-- Node16&#45;&gt;Node20 -->
<g id="edge19" class="edge"><title>Node16&#45;&gt;Node20</title>
<path fill="none" stroke="midnightblue" d="M150.203,-160C158.873,-160 167.735,-160 176.497,-160"/>
<polygon fill="midnightblue" stroke="midnightblue" points="150.132,-156.5 140.132,-160 150.132,-163.5 150.132,-156.5"/>
</g>
<!-- Node22 -->
<g id="node22" class="node"><title>Node22</title>
<g id="a_node22"><a xlink:href="interface_tri_devs_1_1_tri_engine_1_1_state_management_1_1_i_game_state_manager.html" target="_top" xlink:title="Game state manager that keeps track of the active game states and provides methods to control the sta...">
<polygon fill="white" stroke="black" points="176.5,-96 176.5,-126 353.5,-126 353.5,-96 176.5,-96"/>
<text text-anchor="start" x="184.5" y="-114" font-family="Helvetica,sans-Serif" font-size="10.00">TriDevs.TriEngine.StateManagement.</text>
<text text-anchor="middle" x="265" y="-103" font-family="Helvetica,sans-Serif" font-size="10.00">IGameStateManager</text>
</a>
</g>
</g>
<!-- Node16&#45;&gt;Node22 -->
<g id="edge21" class="edge"><title>Node16&#45;&gt;Node22</title>
<path fill="none" stroke="midnightblue" d="M140.125,-142.45C161.319,-137.069 184.433,-131.201 204.894,-126.006"/>
<polygon fill="midnightblue" stroke="midnightblue" points="139.049,-139.112 130.218,-144.965 140.772,-145.897 139.049,-139.112"/>
</g>
<!-- Node24 -->
<g id="node24" class="node"><title>Node24</title>
<g id="a_node24"><a xlink:href="interface_tri_devs_1_1_tri_engine_1_1_u_i_1_1_i_control.html" target="_top" xlink:title="A UI control that can be drawn on screen and interacted with. ">
<polygon fill="white" stroke="black" points="195,-8.5 195,-27.5 335,-27.5 335,-8.5 195,-8.5"/>
<text text-anchor="middle" x="265" y="-15.5" font-family="Helvetica,sans-Serif" font-size="10.00">TriDevs.TriEngine.UI.IControl</text>
</a>
</g>
</g>
<!-- Node16&#45;&gt;Node24 -->
<g id="edge23" class="edge"><title>Node16&#45;&gt;Node24</title>
<path fill="none" stroke="midnightblue" d="M106.375,-139.273C118.101,-131.201 130.557,-121.19 140,-110 163.331,-82.3536 147.481,-59.2551 176,-37 181.668,-32.5769 188.141,-29.1298 194.945,-26.4509"/>
<polygon fill="midnightblue" stroke="midnightblue" points="104.43,-136.362 98.0179,-144.796 108.29,-142.202 104.43,-136.362"/>
</g>
<!-- Node18 -->
<g id="node18" class="node"><title>Node18</title>
<g id="a_node18"><a xlink:href="interface_tri_devs_1_1_tri_engine_1_1_u_i_1_1_i_control_manager.html" target="_top" xlink:title="Manages various UI controls, automatically updating and drawing them to the screen. ">
<polygon fill="white" stroke="black" points="604,-48 604,-78 744,-78 744,-48 604,-48"/>
<text text-anchor="start" x="612" y="-66" font-family="Helvetica,sans-Serif" font-size="10.00">TriDevs.TriEngine.UI.IControl</text>
<text text-anchor="middle" x="674" y="-55" font-family="Helvetica,sans-Serif" font-size="10.00">Manager</text>
</a>
</g>
</g>
<!-- Node17&#45;&gt;Node18 -->
<g id="edge17" class="edge"><title>Node17&#45;&gt;Node18</title>
<path fill="none" stroke="midnightblue" d="M559.234,-62.4105C573.98,-62.4869 589.282,-62.5662 603.702,-62.6409"/>
<polygon fill="midnightblue" stroke="midnightblue" points="559.15,-58.9102 549.132,-62.3582 559.114,-65.9101 559.15,-58.9102"/>
</g>
<!-- Node19 -->
<g id="node19" class="node"><title>Node19</title>
<g id="a_node19"><a xlink:href="class_tri_devs_1_1_tri_engine_1_1_u_i_1_1_control_manager.html" target="_top" xlink:title="Control manager to manage various UI controls for a game. ">
<polygon fill="white" stroke="black" points="780.5,-49 780.5,-79 917.5,-79 917.5,-49 780.5,-49"/>
<text text-anchor="start" x="788.5" y="-67" font-family="Helvetica,sans-Serif" font-size="10.00">TriDevs.TriEngine.UI.Control</text>
<text text-anchor="middle" x="849" y="-56" font-family="Helvetica,sans-Serif" font-size="10.00">Manager</text>
</a>
</g>
</g>
<!-- Node18&#45;&gt;Node19 -->
<g id="edge18" class="edge"><title>Node18&#45;&gt;Node19</title>
<path fill="none" stroke="midnightblue" d="M754.448,-63.4592C763.088,-63.5092 771.823,-63.5597 780.305,-63.6087"/>
<polygon fill="midnightblue" stroke="midnightblue" points="754.389,-59.9589 744.369,-63.401 754.348,-66.9588 754.389,-59.9589"/>
</g>
<!-- Node21 -->
<g id="node21" class="node"><title>Node21</title>
<g id="a_node21"><a xlink:href="class_tri_devs_1_1_tri_engine_1_1_state_management_1_1_game_state.html" target="_top" xlink:title="Base GameState class that all other game states derive from, defines basic GameState behaviour...">
<polygon fill="white" stroke="black" points="390.5,-145 390.5,-175 567.5,-175 567.5,-145 390.5,-145"/>
<text text-anchor="start" x="398.5" y="-163" font-family="Helvetica,sans-Serif" font-size="10.00">TriDevs.TriEngine.StateManagement.</text>
<text text-anchor="middle" x="479" y="-152" font-family="Helvetica,sans-Serif" font-size="10.00">GameState</text>
</a>
</g>
</g>
<!-- Node20&#45;&gt;Node21 -->
<g id="edge20" class="edge"><title>Node20&#45;&gt;Node21</title>
<path fill="none" stroke="midnightblue" d="M364.01,-160C372.783,-160 381.629,-160 390.307,-160"/>
<polygon fill="midnightblue" stroke="midnightblue" points="363.759,-156.5 353.759,-160 363.759,-163.5 363.759,-156.5"/>
</g>
<!-- Node23 -->
<g id="node23" class="node"><title>Node23</title>
<g id="a_node23"><a xlink:href="class_tri_devs_1_1_tri_engine_1_1_state_management_1_1_game_state_manager.html" target="_top" xlink:title="Game state manager that keeps track of the active game states and provides methods to control the sta...">
<polygon fill="white" stroke="black" points="390.5,-96 390.5,-126 567.5,-126 567.5,-96 390.5,-96"/>
<text text-anchor="start" x="398.5" y="-114" font-family="Helvetica,sans-Serif" font-size="10.00">TriDevs.TriEngine.StateManagement.</text>
<text text-anchor="middle" x="479" y="-103" font-family="Helvetica,sans-Serif" font-size="10.00">GameStateManager</text>
</a>
</g>
</g>
<!-- Node22&#45;&gt;Node23 -->
<g id="edge22" class="edge"><title>Node22&#45;&gt;Node23</title>
<path fill="none" stroke="midnightblue" d="M364.01,-111C372.783,-111 381.629,-111 390.307,-111"/>
<polygon fill="midnightblue" stroke="midnightblue" points="363.759,-107.5 353.759,-111 363.759,-114.5 363.759,-107.5"/>
</g>
<!-- Node25 -->
<g id="node25" class="node"><title>Node25</title>
<g id="a_node25"><a xlink:href="class_tri_devs_1_1_tri_engine_1_1_u_i_1_1_control.html" target="_top" xlink:title="Base control class that all other controls inherits from. Defines basic UI control behaviour...">
<polygon fill="white" stroke="black" points="410.5,-8.5 410.5,-27.5 547.5,-27.5 547.5,-8.5 410.5,-8.5"/>
<text text-anchor="middle" x="479" y="-15.5" font-family="Helvetica,sans-Serif" font-size="10.00">TriDevs.TriEngine.UI.Control</text>
</a>
</g>
</g>
<!-- Node24&#45;&gt;Node25 -->
<g id="edge24" class="edge"><title>Node24&#45;&gt;Node25</title>
<path fill="none" stroke="midnightblue" d="M345.184,-18C366.639,-18 389.664,-18 410.416,-18"/>
<polygon fill="midnightblue" stroke="midnightblue" points="345.123,-14.5001 335.123,-18 345.123,-21.5001 345.123,-14.5001"/>
</g>
<!-- Node26 -->
<g id="node26" class="node"><title>Node26</title>
<g id="a_node26"><a xlink:href="class_tri_devs_1_1_tri_engine_1_1_u_i_1_1_label.html" target="_top" xlink:title="A simple label to display text on the screen. ">
<polygon fill="white" stroke="black" points="609,-7.5 609,-26.5 739,-26.5 739,-7.5 609,-7.5"/>
<text text-anchor="middle" x="674" y="-14.5" font-family="Helvetica,sans-Serif" font-size="10.00">TriDevs.TriEngine.UI.Label</text>
</a>
</g>
</g>
<!-- Node25&#45;&gt;Node26 -->
<g id="edge25" class="edge"><title>Node25&#45;&gt;Node26</title>
<path fill="none" stroke="midnightblue" d="M557.9,-17.5964C574.796,-17.5088 592.482,-17.4172 608.78,-17.3327"/>
<polygon fill="midnightblue" stroke="midnightblue" points="557.484,-14.0984 547.502,-17.6502 557.52,-21.0983 557.484,-14.0984"/>
</g>
<!-- Node27 -->
<g id="node27" class="node"><title>Node27</title>
<g id="a_node27"><a xlink:href="class_tri_devs_1_1_tri_engine_1_1_u_i_1_1_link_label.html" target="_top" xlink:title="A label that, when clicked, will open a URL. ">
<polygon fill="white" stroke="black" points="786.5,-0 786.5,-30 911.5,-30 911.5,-0 786.5,-0"/>
<text text-anchor="start" x="794.5" y="-18" font-family="Helvetica,sans-Serif" font-size="10.00">TriDevs.TriEngine.UI.Link</text>
<text text-anchor="middle" x="849" y="-7" font-family="Helvetica,sans-Serif" font-size="10.00">Label</text>
</a>
</g>
</g>
<!-- Node26&#45;&gt;Node27 -->
<g id="edge26" class="edge"><title>Node26&#45;&gt;Node27</title>
<path fill="none" stroke="midnightblue" d="M749.627,-16.1373C761.896,-15.9954 774.491,-15.8498 786.398,-15.7122"/>
<polygon fill="midnightblue" stroke="midnightblue" points="749.378,-12.6398 739.419,-16.2553 749.459,-19.6393 749.378,-12.6398"/>
</g>
<!-- Node28 -->
<g id="node28" class="node"><title>Node28</title>
<g id="a_node28"><a xlink:href="interface_tri_devs_1_1_tri_engine_1_1_interfaces_1_1_i_updatable.html" target="_top" xlink:title="Implements a simple update method. ">
<polygon fill="white" stroke="black" points="0,-71 0,-101 140,-101 140,-71 0,-71"/>
<text text-anchor="start" x="8" y="-89" font-family="Helvetica,sans-Serif" font-size="10.00">TriDevs.TriEngine.Interfaces.</text>
<text text-anchor="middle" x="70" y="-78" font-family="Helvetica,sans-Serif" font-size="10.00">IUpdatable</text>
</a>
</g>
</g>
<!-- Node29 -->
<g id="node29" class="node"><title>Node29</title>
<g id="a_node29"><a xlink:href="interface_tri_devs_1_1_tri_engine_1_1_interfaces_1_1_i_game_component.html" target="_top" xlink:title="A game component that can be added to IGameState objects. ">
<polygon fill="white" stroke="black" points="195,-47 195,-77 335,-77 335,-47 195,-47"/>
<text text-anchor="start" x="203" y="-65" font-family="Helvetica,sans-Serif" font-size="10.00">TriDevs.TriEngine.Interfaces.</text>
<text text-anchor="middle" x="265" y="-54" font-family="Helvetica,sans-Serif" font-size="10.00">IGameComponent</text>
</a>
</g>
</g>
<!-- Node28&#45;&gt;Node29 -->
<g id="edge27" class="edge"><title>Node28&#45;&gt;Node29</title>
<path fill="none" stroke="midnightblue" d="M150.234,-76.147C164.98,-74.3133 180.282,-72.4105 194.702,-70.6174"/>
<polygon fill="midnightblue" stroke="midnightblue" points="149.624,-72.6959 140.132,-77.4032 150.488,-79.6424 149.624,-72.6959"/>
</g>
<!-- Node28&#45;&gt;Node20 -->
<g id="edge29" class="edge"><title>Node28&#45;&gt;Node20</title>
<path fill="none" stroke="midnightblue" d="M108.842,-105.45C128.544,-115.115 153.218,-126.51 176,-135 185.525,-138.549 195.787,-141.887 205.823,-144.896"/>
<polygon fill="midnightblue" stroke="midnightblue" points="110.397,-102.315 99.8834,-101.007 107.287,-108.586 110.397,-102.315"/>
</g>
<!-- Node28&#45;&gt;Node22 -->
<g id="edge30" class="edge"><title>Node28&#45;&gt;Node22</title>
<path fill="none" stroke="midnightblue" d="M150.203,-96.2595C158.873,-97.3825 167.735,-98.5304 176.497,-99.6654"/>
<polygon fill="midnightblue" stroke="midnightblue" points="150.499,-92.7686 140.132,-94.955 149.6,-99.7107 150.499,-92.7686"/>
</g>
<!-- Node28&#45;&gt;Node24 -->
<g id="edge31" class="edge"><title>Node28&#45;&gt;Node24</title>
<path fill="none" stroke="midnightblue" d="M107.786,-66.3553C127.563,-56.4339 152.628,-44.8656 176,-37 186.962,-33.3108 198.94,-30.1669 210.43,-27.5612"/>
<polygon fill="midnightblue" stroke="midnightblue" points="106.138,-63.2669 98.8149,-70.9239 109.314,-69.5046 106.138,-63.2669"/>
</g>
<!-- Node29&#45;&gt;Node17 -->
<g id="edge28" class="edge"><title>Node29&#45;&gt;Node17</title>
<path fill="none" stroke="midnightblue" d="M345.265,-62C366.201,-62 388.624,-62 408.971,-62"/>
<polygon fill="midnightblue" stroke="midnightblue" points="345.123,-58.5001 335.123,-62 345.123,-65.5001 345.123,-58.5001"/>
</g>
</g>
</svg>
