<?xml version="1.0" encoding="UTF-8" standalone="no"?>
<!DOCTYPE svg PUBLIC "-//W3C//DTD SVG 1.1//EN"
 "http://www.w3.org/Graphics/SVG/1.1/DTD/svg11.dtd">
<!-- Generated by graphviz version 2.30.0 (20130114.0323)
 -->
<!-- Title: Graphical Class Hierarchy Pages: 1 -->
<svg width="452pt" height="38pt"
 viewBox="0.00 0.00 452.00 38.00" xmlns="http://www.w3.org/2000/svg" xmlns:xlink="http://www.w3.org/1999/xlink">
<g id="graph0" class="graph" transform="scale(1 1) rotate(0) translate(4 34)">
<title>Graphical Class Hierarchy</title>
<polygon fill="white" stroke="white" points="-4,5 -4,-34 449,-34 449,5 -4,5"/>
<!-- Node1 -->
<g id="node1" class="node"><title>Node1</title>
<polygon fill="white" stroke="#bfbfbf" points="0.5,-5.5 0.5,-24.5 77.5,-24.5 77.5,-5.5 0.5,-5.5"/>
<text text-anchor="middle" x="39" y="-12.5" font-family="Helvetica,sans-Serif" font-size="10.00">GameWindow</text>
</g>
<!-- Node2 -->
<g id="node2" class="node"><title>Node2</title>
<g id="a_node2"><a xlink:href="class_tri_devs_1_1_tri_engine_1_1_game_window2_d.html" target="_top" xlink:title="Game window class specialized for drawing 2D graphics. ">
<polygon fill="white" stroke="black" points="114.5,-5.5 114.5,-24.5 281.5,-24.5 281.5,-5.5 114.5,-5.5"/>
<text text-anchor="middle" x="198" y="-12.5" font-family="Helvetica,sans-Serif" font-size="10.00">TriDevs.TriEngine.GameWindow2D</text>
</a>
</g>
</g>
<!-- Node1&#45;&gt;Node2 -->
<g id="edge1" class="edge"><title>Node1&#45;&gt;Node2</title>
<path fill="none" stroke="midnightblue" d="M87.6317,-15C96.1112,-15 105.162,-15 114.289,-15"/>
<polygon fill="midnightblue" stroke="midnightblue" points="87.6054,-11.5001 77.6054,-15 87.6054,-18.5001 87.6054,-11.5001"/>
</g>
<!-- Node3 -->
<g id="node3" class="node"><title>Node3</title>
<g id="a_node3"><a xlink:href="class_tri_devs_1_1_tri_engine_1_1_engine_test_1_1_window2_d_test.html" target="_top" xlink:title="TriDevs.TriEngine.Engine\lTest.Window2DTest">
<polygon fill="white" stroke="black" points="318.5,-0 318.5,-30 443.5,-30 443.5,-0 318.5,-0"/>
<text text-anchor="start" x="326.5" y="-18" font-family="Helvetica,sans-Serif" font-size="10.00">TriDevs.TriEngine.Engine</text>
<text text-anchor="middle" x="381" y="-7" font-family="Helvetica,sans-Serif" font-size="10.00">Test.Window2DTest</text>
</a>
</g>
</g>
<!-- Node2&#45;&gt;Node3 -->
<g id="edge2" class="edge"><title>Node2&#45;&gt;Node3</title>
<path fill="none" stroke="midnightblue" d="M291.753,-15C300.791,-15 309.799,-15 318.417,-15"/>
<polygon fill="midnightblue" stroke="midnightblue" points="291.555,-11.5001 281.555,-15 291.555,-18.5001 291.555,-11.5001"/>
</g>
</g>
</svg>
