<?xml version="1.0" encoding="UTF-8" standalone="no"?>
<!DOCTYPE svg PUBLIC "-//W3C//DTD SVG 1.1//EN"
 "http://www.w3.org/Graphics/SVG/1.1/DTD/svg11.dtd">
<!-- Generated by graphviz version 2.30.0 (20130114.0323)
 -->
<!-- Title: TriDevs.TriEngine2D.Interfaces.IDrawableGameComponent Pages: 1 -->
<svg width="179pt" height="152pt"
 viewBox="0.00 0.00 179.00 152.00" xmlns="http://www.w3.org/2000/svg" xmlns:xlink="http://www.w3.org/1999/xlink">
<g id="graph0" class="graph" transform="scale(1 1) rotate(0) translate(4 148)">
<title>TriDevs.TriEngine2D.Interfaces.IDrawableGameComponent</title>
<polygon fill="white" stroke="white" points="-4,5 -4,-148 176,-148 176,5 -4,5"/>
<!-- Node1 -->
<g id="node1" class="node"><title>Node1</title>
<polygon fill="#bfbfbf" stroke="black" points="18,-1 18,-31 170,-31 170,-1 18,-1"/>
<text text-anchor="start" x="26" y="-19" font-family="Helvetica,sans-Serif" font-size="10.00">TriDevs.TriEngine2D.Interfaces.</text>
<text text-anchor="middle" x="94" y="-8" font-family="Helvetica,sans-Serif" font-size="10.00">IDrawableGameComponent</text>
</g>
<!-- Node2 -->
<g id="node2" class="node"><title>Node2</title>
<g id="a_node2"><a xlink:href="interface_tri_devs_1_1_tri_engine2_d_1_1_interfaces_1_1_i_game_component.html" target="_top" xlink:title="A game component that can be added to IGameState objects. ">
<polygon fill="white" stroke="black" points="-0.5,-68.5 -0.5,-87.5 94.5,-87.5 94.5,-68.5 -0.5,-68.5"/>
<text text-anchor="middle" x="47" y="-75.5" font-family="Helvetica,sans-Serif" font-size="10.00">IGameComponent</text>
</a>
</g>
</g>
<!-- Node2&#45;&gt;Node1 -->
<g id="edge1" class="edge"><title>Node2&#45;&gt;Node1</title>
<path fill="none" stroke="midnightblue" d="M60.0102,-60.3912C67.2082,-51.2023 76.0581,-39.9045 82.923,-31.1408"/>
<polygon fill="midnightblue" stroke="midnightblue" points="57.1453,-58.3728 53.734,-68.4035 62.6559,-62.6895 57.1453,-58.3728"/>
</g>
<!-- Node3 -->
<g id="node3" class="node"><title>Node3</title>
<g id="a_node3"><a xlink:href="interface_tri_devs_1_1_tri_engine2_d_1_1_interfaces_1_1_i_updatable.html" target="_top" xlink:title="Implements a simple update method. ">
<polygon fill="white" stroke="black" points="16,-124.5 16,-143.5 78,-143.5 78,-124.5 16,-124.5"/>
<text text-anchor="middle" x="47" y="-131.5" font-family="Helvetica,sans-Serif" font-size="10.00">IUpdatable</text>
</a>
</g>
</g>
<!-- Node3&#45;&gt;Node2 -->
<g id="edge2" class="edge"><title>Node3&#45;&gt;Node2</title>
<path fill="none" stroke="midnightblue" d="M47,-113.805C47,-104.91 47,-94.7798 47,-87.7511"/>
<polygon fill="midnightblue" stroke="midnightblue" points="43.5001,-114.083 47,-124.083 50.5001,-114.083 43.5001,-114.083"/>
</g>
<!-- Node4 -->
<g id="node4" class="node"><title>Node4</title>
<g id="a_node4"><a xlink:href="interface_tri_devs_1_1_tri_engine2_d_1_1_interfaces_1_1_i_drawable.html" target="_top" xlink:title="Implements a simple draw method. ">
<polygon fill="white" stroke="black" points="112.5,-68.5 112.5,-87.5 171.5,-87.5 171.5,-68.5 112.5,-68.5"/>
<text text-anchor="middle" x="142" y="-75.5" font-family="Helvetica,sans-Serif" font-size="10.00">IDrawable</text>
</a>
</g>
</g>
<!-- Node4&#45;&gt;Node1 -->
<g id="edge3" class="edge"><title>Node4&#45;&gt;Node1</title>
<path fill="none" stroke="midnightblue" d="M128.713,-60.3912C121.362,-51.2023 112.324,-39.9045 105.313,-31.1408"/>
<polygon fill="midnightblue" stroke="midnightblue" points="126.143,-62.7812 135.123,-68.4035 131.609,-58.4083 126.143,-62.7812"/>
</g>
</g>
</svg>
