<?xml version="1.0" encoding="UTF-8" standalone="no"?>
<!DOCTYPE svg PUBLIC "-//W3C//DTD SVG 1.1//EN"
 "http://www.w3.org/Graphics/SVG/1.1/DTD/svg11.dtd">
<!-- Generated by graphviz version 2.30.0 (20130114.0323)
 -->
<!-- Title: TriDevs.TriEngine2D.Interfaces.IUpdatable Pages: 1 -->
<svg width="936pt" height="180pt"
 viewBox="0.00 0.00 936.00 180.00" xmlns="http://www.w3.org/2000/svg" xmlns:xlink="http://www.w3.org/1999/xlink">
<g id="graph0" class="graph" transform="scale(1 1) rotate(0) translate(4 176)">
<title>TriDevs.TriEngine2D.Interfaces.IUpdatable</title>
<polygon fill="white" stroke="white" points="-4,5 -4,-176 933,-176 933,5 -4,5"/>
<!-- Node1 -->
<g id="node1" class="node"><title>Node1</title>
<polygon fill="#bfbfbf" stroke="black" points="0,-68 0,-98 152,-98 152,-68 0,-68"/>
<text text-anchor="start" x="8" y="-86" font-family="Helvetica,sans-Serif" font-size="10.00">TriDevs.TriEngine2D.Interfaces.</text>
<text text-anchor="middle" x="76" y="-75" font-family="Helvetica,sans-Serif" font-size="10.00">IUpdatable</text>
</g>
<!-- Node2 -->
<g id="node2" class="node"><title>Node2</title>
<g id="a_node2"><a xlink:href="interface_tri_devs_1_1_tri_engine2_d_1_1_interfaces_1_1_i_game_component.html" target="_top" xlink:title="A game component that can be added to IGameState objects. ">
<polygon fill="white" stroke="black" points="195,-142 195,-172 347,-172 347,-142 195,-142"/>
<text text-anchor="start" x="203" y="-160" font-family="Helvetica,sans-Serif" font-size="10.00">TriDevs.TriEngine2D.Interfaces.</text>
<text text-anchor="middle" x="271" y="-149" font-family="Helvetica,sans-Serif" font-size="10.00">IGameComponent</text>
</a>
</g>
</g>
<!-- Node1&#45;&gt;Node2 -->
<g id="edge1" class="edge"><title>Node1&#45;&gt;Node2</title>
<path fill="none" stroke="midnightblue" d="M117.805,-102.416C138.576,-111.939 164.37,-123.218 188,-132 197.347,-135.474 207.418,-138.842 217.194,-141.921"/>
<polygon fill="midnightblue" stroke="midnightblue" points="119.187,-99.1993 108.641,-98.1801 116.25,-105.553 119.187,-99.1993"/>
</g>
<!-- Node6 -->
<g id="node6" class="node"><title>Node6</title>
<g id="a_node6"><a xlink:href="interface_tri_devs_1_1_tri_engine2_d_1_1_state_management_1_1_i_game_state.html" target="_top" xlink:title="A game state that can be used with the game state manager. Represent a specific state of the game...">
<polygon fill="white" stroke="black" points="206,-93 206,-123 336,-123 336,-93 206,-93"/>
<text text-anchor="start" x="214" y="-111" font-family="Helvetica,sans-Serif" font-size="10.00">TriDevs.TriEngine2D.State</text>
<text text-anchor="middle" x="271" y="-100" font-family="Helvetica,sans-Serif" font-size="10.00">Management.IGameState</text>
</a>
</g>
</g>
<!-- Node1&#45;&gt;Node6 -->
<g id="edge5" class="edge"><title>Node1&#45;&gt;Node6</title>
<path fill="none" stroke="midnightblue" d="M162.264,-94.0445C176.947,-95.9466 191.983,-97.8941 205.985,-99.7079"/>
<polygon fill="midnightblue" stroke="midnightblue" points="162.538,-90.5509 152.171,-92.7372 161.639,-97.4929 162.538,-90.5509"/>
</g>
<!-- Node8 -->
<g id="node8" class="node"><title>Node8</title>
<g id="a_node8"><a xlink:href="interface_tri_devs_1_1_tri_engine2_d_1_1_state_management_1_1_i_game_state_manager.html" target="_top" xlink:title="Game state manager that keeps track of the active game states and provides methods to control the sta...">
<polygon fill="white" stroke="black" points="188.5,-44 188.5,-74 353.5,-74 353.5,-44 188.5,-44"/>
<text text-anchor="start" x="196.5" y="-62" font-family="Helvetica,sans-Serif" font-size="10.00">TriDevs.TriEngine2D.State</text>
<text text-anchor="middle" x="271" y="-51" font-family="Helvetica,sans-Serif" font-size="10.00">Management.IGameStateManager</text>
</a>
</g>
</g>
<!-- Node1&#45;&gt;Node8 -->
<g id="edge7" class="edge"><title>Node1&#45;&gt;Node8</title>
<path fill="none" stroke="midnightblue" d="M162.264,-72.3972C170.923,-71.3204 179.705,-70.2284 188.325,-69.1564"/>
<polygon fill="midnightblue" stroke="midnightblue" points="161.663,-68.9449 152.171,-73.6523 162.527,-75.8914 161.663,-68.9449"/>
</g>
<!-- Node10 -->
<g id="node10" class="node"><title>Node10</title>
<g id="a_node10"><a xlink:href="interface_tri_devs_1_1_tri_engine2_d_1_1_u_i_1_1_i_control.html" target="_top" xlink:title="A UI control that can be drawn on screen and interacted with. ">
<polygon fill="white" stroke="black" points="195,-5.5 195,-24.5 347,-24.5 347,-5.5 195,-5.5"/>
<text text-anchor="middle" x="271" y="-12.5" font-family="Helvetica,sans-Serif" font-size="10.00">TriDevs.TriEngine2D.UI.IControl</text>
</a>
</g>
</g>
<!-- Node1&#45;&gt;Node10 -->
<g id="edge9" class="edge"><title>Node1&#45;&gt;Node10</title>
<path fill="none" stroke="midnightblue" d="M116.219,-63.5236C137.149,-53.6866 163.564,-42.1438 188,-34 198.814,-30.3961 210.65,-27.2244 221.882,-24.5562"/>
<polygon fill="midnightblue" stroke="midnightblue" points="114.54,-60.4464 107.015,-67.9049 117.549,-66.7668 114.54,-60.4464"/>
</g>
<!-- Node3 -->
<g id="node3" class="node"><title>Node3</title>
<g id="a_node3"><a xlink:href="interface_tri_devs_1_1_tri_engine2_d_1_1_interfaces_1_1_i_drawable_game_component.html" target="_top" xlink:title="A game component that can be added to GameState objects. Drawable game components also implement a dr...">
<polygon fill="white" stroke="black" points="396,-142 396,-172 548,-172 548,-142 396,-142"/>
<text text-anchor="start" x="404" y="-160" font-family="Helvetica,sans-Serif" font-size="10.00">TriDevs.TriEngine2D.Interfaces.</text>
<text text-anchor="middle" x="472" y="-149" font-family="Helvetica,sans-Serif" font-size="10.00">IDrawableGameComponent</text>
</a>
</g>
</g>
<!-- Node2&#45;&gt;Node3 -->
<g id="edge2" class="edge"><title>Node2&#45;&gt;Node3</title>
<path fill="none" stroke="midnightblue" d="M357.434,-157C370.26,-157 383.404,-157 395.99,-157"/>
<polygon fill="midnightblue" stroke="midnightblue" points="357.233,-153.5 347.233,-157 357.233,-160.5 357.233,-153.5"/>
</g>
<!-- Node4 -->
<g id="node4" class="node"><title>Node4</title>
<g id="a_node4"><a xlink:href="interface_tri_devs_1_1_tri_engine2_d_1_1_u_i_1_1_i_control_manager.html" target="_top" xlink:title="Manages various UI controls, automatically updating and drawing them to the screen. ">
<polygon fill="white" stroke="black" points="590,-142 590,-172 742,-172 742,-142 590,-142"/>
<text text-anchor="start" x="598" y="-160" font-family="Helvetica,sans-Serif" font-size="10.00">TriDevs.TriEngine2D.UI.IControl</text>
<text text-anchor="middle" x="666" y="-149" font-family="Helvetica,sans-Serif" font-size="10.00">Manager</text>
</a>
</g>
</g>
<!-- Node3&#45;&gt;Node4 -->
<g id="edge3" class="edge"><title>Node3&#45;&gt;Node4</title>
<path fill="none" stroke="midnightblue" d="M558.157,-157C568.767,-157 579.555,-157 589.995,-157"/>
<polygon fill="midnightblue" stroke="midnightblue" points="558.057,-153.5 548.057,-157 558.057,-160.5 558.057,-153.5"/>
</g>
<!-- Node5 -->
<g id="node5" class="node"><title>Node5</title>
<g id="a_node5"><a xlink:href="class_tri_devs_1_1_tri_engine2_d_1_1_u_i_1_1_control_manager.html" target="_top" xlink:title="Control manager to manage various UI controls for a game. ">
<polygon fill="white" stroke="black" points="778.5,-142 778.5,-172 927.5,-172 927.5,-142 778.5,-142"/>
<text text-anchor="start" x="786.5" y="-160" font-family="Helvetica,sans-Serif" font-size="10.00">TriDevs.TriEngine2D.UI.Control</text>
<text text-anchor="middle" x="853" y="-149" font-family="Helvetica,sans-Serif" font-size="10.00">Manager</text>
</a>
</g>
</g>
<!-- Node4&#45;&gt;Node5 -->
<g id="edge4" class="edge"><title>Node4&#45;&gt;Node5</title>
<path fill="none" stroke="midnightblue" d="M752.366,-157C761.035,-157 769.788,-157 778.318,-157"/>
<polygon fill="midnightblue" stroke="midnightblue" points="752.247,-153.5 742.247,-157 752.247,-160.5 752.247,-153.5"/>
</g>
<!-- Node7 -->
<g id="node7" class="node"><title>Node7</title>
<g id="a_node7"><a xlink:href="class_tri_devs_1_1_tri_engine2_d_1_1_state_management_1_1_game_state.html" target="_top" xlink:title="Base GameState class that all other game states derive from, defines basic GameState behaviour...">
<polygon fill="white" stroke="black" points="407,-93 407,-123 537,-123 537,-93 407,-93"/>
<text text-anchor="start" x="415" y="-111" font-family="Helvetica,sans-Serif" font-size="10.00">TriDevs.TriEngine2D.State</text>
<text text-anchor="middle" x="472" y="-100" font-family="Helvetica,sans-Serif" font-size="10.00">Management.GameState</text>
</a>
</g>
</g>
<!-- Node6&#45;&gt;Node7 -->
<g id="edge6" class="edge"><title>Node6&#45;&gt;Node7</title>
<path fill="none" stroke="midnightblue" d="M346.296,-108C366.156,-108 387.449,-108 406.719,-108"/>
<polygon fill="midnightblue" stroke="midnightblue" points="346.06,-104.5 336.06,-108 346.06,-111.5 346.06,-104.5"/>
</g>
<!-- Node9 -->
<g id="node9" class="node"><title>Node9</title>
<g id="a_node9"><a xlink:href="class_tri_devs_1_1_tri_engine2_d_1_1_state_management_1_1_game_state_manager.html" target="_top" xlink:title="Game state manager that keeps track of the active game states and provides methods to control the sta...">
<polygon fill="white" stroke="black" points="390.5,-44 390.5,-74 553.5,-74 553.5,-44 390.5,-44"/>
<text text-anchor="start" x="398.5" y="-62" font-family="Helvetica,sans-Serif" font-size="10.00">TriDevs.TriEngine2D.State</text>
<text text-anchor="middle" x="472" y="-51" font-family="Helvetica,sans-Serif" font-size="10.00">Management.GameStateManager</text>
</a>
</g>
</g>
<!-- Node8&#45;&gt;Node9 -->
<g id="edge8" class="edge"><title>Node8&#45;&gt;Node9</title>
<path fill="none" stroke="midnightblue" d="M363.532,-59C372.45,-59 381.454,-59 390.255,-59"/>
<polygon fill="midnightblue" stroke="midnightblue" points="363.515,-55.5001 353.515,-59 363.515,-62.5001 363.515,-55.5001"/>
</g>
<!-- Node11 -->
<g id="node11" class="node"><title>Node11</title>
<g id="a_node11"><a xlink:href="class_tri_devs_1_1_tri_engine2_d_1_1_u_i_1_1_control.html" target="_top" xlink:title="Base control class that all other controls inherits from. Defines basic UI control behaviour...">
<polygon fill="white" stroke="black" points="397.5,-5.5 397.5,-24.5 546.5,-24.5 546.5,-5.5 397.5,-5.5"/>
<text text-anchor="middle" x="472" y="-12.5" font-family="Helvetica,sans-Serif" font-size="10.00">TriDevs.TriEngine2D.UI.Control</text>
</a>
</g>
</g>
<!-- Node10&#45;&gt;Node11 -->
<g id="edge10" class="edge"><title>Node10&#45;&gt;Node11</title>
<path fill="none" stroke="midnightblue" d="M357.327,-15C370.635,-15 384.288,-15 397.308,-15"/>
<polygon fill="midnightblue" stroke="midnightblue" points="357.233,-11.5001 347.233,-15 357.233,-18.5001 357.233,-11.5001"/>
</g>
<!-- Node12 -->
<g id="node12" class="node"><title>Node12</title>
<g id="a_node12"><a xlink:href="class_tri_devs_1_1_tri_engine2_d_1_1_u_i_1_1_label.html" target="_top" xlink:title="A simple label to display text on the screen. ">
<polygon fill="white" stroke="black" points="595,-5.5 595,-24.5 737,-24.5 737,-5.5 595,-5.5"/>
<text text-anchor="middle" x="666" y="-12.5" font-family="Helvetica,sans-Serif" font-size="10.00">TriDevs.TriEngine2D.UI.Label</text>
</a>
</g>
</g>
<!-- Node11&#45;&gt;Node12 -->
<g id="edge11" class="edge"><title>Node11&#45;&gt;Node12</title>
<path fill="none" stroke="midnightblue" d="M556.819,-15C569.556,-15 582.585,-15 594.988,-15"/>
<polygon fill="midnightblue" stroke="midnightblue" points="556.683,-11.5001 546.683,-15 556.683,-18.5001 556.683,-11.5001"/>
</g>
<!-- Node13 -->
<g id="node13" class="node"><title>Node13</title>
<g id="a_node13"><a xlink:href="class_tri_devs_1_1_tri_engine2_d_1_1_u_i_1_1_link_label.html" target="_top" xlink:title="A label that, when clicked, will open a URL. ">
<polygon fill="white" stroke="black" points="784.5,-0 784.5,-30 921.5,-30 921.5,-0 784.5,-0"/>
<text text-anchor="start" x="792.5" y="-18" font-family="Helvetica,sans-Serif" font-size="10.00">TriDevs.TriEngine2D.UI.Link</text>
<text text-anchor="middle" x="853" y="-7" font-family="Helvetica,sans-Serif" font-size="10.00">Label</text>
</a>
</g>
</g>
<!-- Node12&#45;&gt;Node13 -->
<g id="edge12" class="edge"><title>Node12&#45;&gt;Node13</title>
<path fill="none" stroke="midnightblue" d="M747.44,-15C759.73,-15 772.309,-15 784.289,-15"/>
<polygon fill="midnightblue" stroke="midnightblue" points="747.204,-11.5001 737.204,-15 747.204,-18.5001 747.204,-11.5001"/>
</g>
</g>
</svg>
