<?xml version="1.0" encoding="UTF-8" standalone="no"?>
<!DOCTYPE svg PUBLIC "-//W3C//DTD SVG 1.1//EN"
 "http://www.w3.org/Graphics/SVG/1.1/DTD/svg11.dtd">
<!-- Generated by graphviz version 2.30.0 (20130114.0323)
 -->
<!-- Title: TriDevs.TriEngine2D.Input.IInputManager Pages: 1 -->
<svg width="287pt" height="108pt"
 viewBox="0.00 0.00 287.00 108.00" xmlns="http://www.w3.org/2000/svg" xmlns:xlink="http://www.w3.org/1999/xlink">
<g id="graph0" class="graph" transform="scale(1 1) rotate(0) translate(4 104)">
<title>TriDevs.TriEngine2D.Input.IInputManager</title>
<polygon fill="white" stroke="white" points="-4,5 -4,-104 284,-104 284,5 -4,5"/>
<!-- Node1 -->
<g id="node1" class="node"><title>Node1</title>
<polygon fill="#bfbfbf" stroke="black" points="73.5,-69 73.5,-99 204.5,-99 204.5,-69 73.5,-69"/>
<text text-anchor="start" x="81.5" y="-87" font-family="Helvetica,sans-Serif" font-size="10.00">TriDevs.TriEngine2D.Input.</text>
<text text-anchor="middle" x="139" y="-76" font-family="Helvetica,sans-Serif" font-size="10.00">IInputManager</text>
</g>
<!-- Node2 -->
<g id="node2" class="node"><title>Node2</title>
<g id="a_node2"><a xlink:href="class_tri_devs_1_1_tri_engine2_d_1_1_input_1_1_input_manager.html" target="_top" xlink:title="Input manager interfacing with input methods provided by a GameWindow. ">
<polygon fill="white" stroke="black" points="-0.5,-1 -0.5,-31 130.5,-31 130.5,-1 -0.5,-1"/>
<text text-anchor="start" x="7.5" y="-19" font-family="Helvetica,sans-Serif" font-size="10.00">TriDevs.TriEngine2D.Input.</text>
<text text-anchor="middle" x="65" y="-8" font-family="Helvetica,sans-Serif" font-size="10.00">InputManager</text>
</a>
</g>
</g>
<!-- Node1&#45;&gt;Node2 -->
<g id="edge1" class="edge"><title>Node1&#45;&gt;Node2</title>
<path fill="none" stroke="midnightblue" d="M115.475,-62.0184C104.147,-51.9145 90.8659,-40.0696 80.7713,-31.0663"/>
<polygon fill="midnightblue" stroke="midnightblue" points="113.15,-64.6348 122.943,-68.679 117.81,-59.4108 113.15,-64.6348"/>
</g>
<!-- Node3 -->
<g id="node3" class="node"><title>Node3</title>
<g id="a_node3"><a xlink:href="class_tri_devs_1_1_tri_engine2_d_1_1_input_1_1_null_input_manager.html" target="_top" xlink:title="Used as a fallback InputManager object when the service locator fails to find one. ">
<polygon fill="white" stroke="black" points="148.5,-1 148.5,-31 279.5,-31 279.5,-1 148.5,-1"/>
<text text-anchor="start" x="156.5" y="-19" font-family="Helvetica,sans-Serif" font-size="10.00">TriDevs.TriEngine2D.Input.</text>
<text text-anchor="middle" x="214" y="-8" font-family="Helvetica,sans-Serif" font-size="10.00">NullInputManager</text>
</a>
</g>
</g>
<!-- Node1&#45;&gt;Node3 -->
<g id="edge2" class="edge"><title>Node1&#45;&gt;Node3</title>
<path fill="none" stroke="midnightblue" d="M162.843,-62.0184C174.324,-51.9145 187.785,-40.0696 198.016,-31.0663"/>
<polygon fill="midnightblue" stroke="midnightblue" points="160.469,-59.4452 155.274,-68.679 165.093,-64.7002 160.469,-59.4452"/>
</g>
</g>
</svg>
