<?xml version="1.0" encoding="UTF-8" standalone="no"?>
<!DOCTYPE svg PUBLIC "-//W3C//DTD SVG 1.1//EN"
 "http://www.w3.org/Graphics/SVG/1.1/DTD/svg11.dtd">
<!-- Generated by graphviz version 2.30.0 (20130114.0323)
 -->
<!-- Title: TriDevs.TriEngine.Audio.ISound Pages: 1 -->
<svg width="270pt" height="220pt"
 viewBox="0.00 0.00 270.00 220.00" xmlns="http://www.w3.org/2000/svg" xmlns:xlink="http://www.w3.org/1999/xlink">
<g id="graph0" class="graph" transform="scale(1 1) rotate(0) translate(4 216)">
<title>TriDevs.TriEngine.Audio.ISound</title>
<polygon fill="white" stroke="white" points="-4,5 -4,-216 267,-216 267,5 -4,5"/>
<!-- Node1 -->
<g id="node1" class="node"><title>Node1</title>
<polygon fill="#bfbfbf" stroke="black" points="70,-69 70,-99 192,-99 192,-69 70,-69"/>
<text text-anchor="start" x="78" y="-87" font-family="Helvetica,sans-Serif" font-size="10.00">TriDevs.TriEngine.Audio.</text>
<text text-anchor="middle" x="131" y="-76" font-family="Helvetica,sans-Serif" font-size="10.00">ISound</text>
</g>
<!-- Node4 -->
<g id="node4" class="node"><title>Node4</title>
<g id="a_node4"><a xlink:href="class_tri_devs_1_1_tri_engine_1_1_audio_1_1_null_sound.html" target="_top" xlink:title="Fallback sound class used in NullAudioManager. ">
<polygon fill="white" stroke="black" points="0,-1 0,-31 122,-31 122,-1 0,-1"/>
<text text-anchor="start" x="8" y="-19" font-family="Helvetica,sans-Serif" font-size="10.00">TriDevs.TriEngine.Audio.</text>
<text text-anchor="middle" x="61" y="-8" font-family="Helvetica,sans-Serif" font-size="10.00">NullSound</text>
</a>
</g>
</g>
<!-- Node1&#45;&gt;Node4 -->
<g id="edge3" class="edge"><title>Node1&#45;&gt;Node4</title>
<path fill="none" stroke="midnightblue" d="M108.49,-61.7762C97.9202,-51.8105 85.6014,-40.1956 76.1593,-31.2931"/>
<polygon fill="midnightblue" stroke="midnightblue" points="106.134,-64.3654 115.811,-68.679 110.936,-59.2723 106.134,-64.3654"/>
</g>
<!-- Node5 -->
<g id="node5" class="node"><title>Node5</title>
<g id="a_node5"><a xlink:href="class_tri_devs_1_1_tri_engine_1_1_audio_1_1_sound.html" target="_top" xlink:title="Sound class that can be used with the AudioManager. ">
<polygon fill="white" stroke="black" points="140,-1 140,-31 262,-31 262,-1 140,-1"/>
<text text-anchor="start" x="148" y="-19" font-family="Helvetica,sans-Serif" font-size="10.00">TriDevs.TriEngine.Audio.</text>
<text text-anchor="middle" x="201" y="-8" font-family="Helvetica,sans-Serif" font-size="10.00">Sound</text>
</a>
</g>
</g>
<!-- Node1&#45;&gt;Node5 -->
<g id="edge4" class="edge"><title>Node1&#45;&gt;Node5</title>
<path fill="none" stroke="midnightblue" d="M153.51,-61.7762C164.08,-51.8105 176.399,-40.1956 185.841,-31.2931"/>
<polygon fill="midnightblue" stroke="midnightblue" points="151.064,-59.2723 146.189,-68.679 155.866,-64.3654 151.064,-59.2723"/>
</g>
<!-- Node2 -->
<g id="node2" class="node"><title>Node2</title>
<g id="a_node2"><a xlink:href="interface_tri_devs_1_1_tri_engine_1_1_resources_1_1_i_resource.html" target="_top" xlink:title="An external resource created from a file. ">
<polygon fill="white" stroke="black" points="101,-136.5 101,-155.5 161,-155.5 161,-136.5 101,-136.5"/>
<text text-anchor="middle" x="131" y="-143.5" font-family="Helvetica,sans-Serif" font-size="10.00">IResource</text>
</a>
</g>
</g>
<!-- Node2&#45;&gt;Node1 -->
<g id="edge1" class="edge"><title>Node2&#45;&gt;Node1</title>
<path fill="none" stroke="midnightblue" d="M131,-126.371C131,-117.585 131,-107.272 131,-99.1408"/>
<polygon fill="midnightblue" stroke="midnightblue" points="127.5,-126.403 131,-136.403 134.5,-126.403 127.5,-126.403"/>
</g>
<!-- Node3 -->
<g id="node3" class="node"><title>Node3</title>
<polygon fill="white" stroke="#bfbfbf" points="97.5,-192.5 97.5,-211.5 164.5,-211.5 164.5,-192.5 97.5,-192.5"/>
<text text-anchor="middle" x="131" y="-199.5" font-family="Helvetica,sans-Serif" font-size="10.00">IDisposable</text>
</g>
<!-- Node3&#45;&gt;Node2 -->
<g id="edge2" class="edge"><title>Node3&#45;&gt;Node2</title>
<path fill="none" stroke="midnightblue" d="M131,-181.805C131,-172.91 131,-162.78 131,-155.751"/>
<polygon fill="midnightblue" stroke="midnightblue" points="127.5,-182.083 131,-192.083 134.5,-182.083 127.5,-182.083"/>
</g>
</g>
</svg>
