<?xml version="1.0" encoding="UTF-8" standalone="no"?>
<!DOCTYPE svg PUBLIC "-//W3C//DTD SVG 1.1//EN"
 "http://www.w3.org/Graphics/SVG/1.1/DTD/svg11.dtd">
<!-- Generated by graphviz version 2.30.0 (20130114.0323)
 -->
<!-- Title: TriDevs.TriEngine.Interfaces.IGameComponent Pages: 1 -->
<svg width="806pt" height="160pt"
 viewBox="0.00 0.00 806.00 160.00" xmlns="http://www.w3.org/2000/svg" xmlns:xlink="http://www.w3.org/1999/xlink">
<g id="graph0" class="graph" transform="scale(1 1) rotate(0) translate(4 156)">
<title>TriDevs.TriEngine.Interfaces.IGameComponent</title>
<polygon fill="white" stroke="white" points="-4,5 -4,-156 803,-156 803,5 -4,5"/>
<!-- Node1 -->
<g id="node1" class="node"><title>Node1</title>
<polygon fill="#bfbfbf" stroke="black" points="98,-66 98,-96 238,-96 238,-66 98,-66"/>
<text text-anchor="start" x="106" y="-84" font-family="Helvetica,sans-Serif" font-size="10.00">TriDevs.TriEngine.Interfaces.</text>
<text text-anchor="middle" x="168" y="-73" font-family="Helvetica,sans-Serif" font-size="10.00">IGameComponent</text>
</g>
<!-- Node3 -->
<g id="node3" class="node"><title>Node3</title>
<g id="a_node3"><a xlink:href="interface_tri_devs_1_1_tri_engine_1_1_interfaces_1_1_i_drawable_game_component.html" target="_top" xlink:title="A game component that can be added to GameState objects. Drawable game components also implement a dr...">
<polygon fill="white" stroke="black" points="291,-121 291,-151 431,-151 431,-121 291,-121"/>
<text text-anchor="start" x="299" y="-139" font-family="Helvetica,sans-Serif" font-size="10.00">TriDevs.TriEngine.Interfaces.</text>
<text text-anchor="middle" x="361" y="-128" font-family="Helvetica,sans-Serif" font-size="10.00">IDrawableGameComponent</text>
</a>
</g>
</g>
<!-- Node1&#45;&gt;Node3 -->
<g id="edge2" class="edge"><title>Node1&#45;&gt;Node3</title>
<path fill="none" stroke="midnightblue" d="M230.888,-98.8212C255.746,-105.979 284.087,-114.14 307.872,-120.989"/>
<polygon fill="midnightblue" stroke="midnightblue" points="231.77,-95.4329 221.192,-96.029 229.833,-102.16 231.77,-95.4329"/>
</g>
<!-- Node6 -->
<g id="node6" class="node"><title>Node6</title>
<polygon fill="white" stroke="#bfbfbf" points="274.5,-60.5 274.5,-101.5 447.5,-101.5 447.5,-60.5 274.5,-60.5"/>
<text text-anchor="start" x="282.5" y="-89.5" font-family="Helvetica,sans-Serif" font-size="10.00">TriDevs.TriEngine.Tests.</text>
<text text-anchor="start" x="282.5" y="-78.5" font-family="Helvetica,sans-Serif" font-size="10.00">StateManagementTests.GameState</text>
<text text-anchor="middle" x="361" y="-67.5" font-family="Helvetica,sans-Serif" font-size="10.00">Tests.BarComponent</text>
</g>
<!-- Node1&#45;&gt;Node6 -->
<g id="edge5" class="edge"><title>Node1&#45;&gt;Node6</title>
<path fill="none" stroke="midnightblue" d="M248.253,-81C256.881,-81 265.692,-81 274.391,-81"/>
<polygon fill="midnightblue" stroke="midnightblue" points="248.225,-77.5001 238.225,-81 248.225,-84.5001 248.225,-77.5001"/>
</g>
<!-- Node7 -->
<g id="node7" class="node"><title>Node7</title>
<polygon fill="white" stroke="#bfbfbf" points="274.5,-0.5 274.5,-41.5 447.5,-41.5 447.5,-0.5 274.5,-0.5"/>
<text text-anchor="start" x="282.5" y="-29.5" font-family="Helvetica,sans-Serif" font-size="10.00">TriDevs.TriEngine.Tests.</text>
<text text-anchor="start" x="282.5" y="-18.5" font-family="Helvetica,sans-Serif" font-size="10.00">StateManagementTests.GameState</text>
<text text-anchor="middle" x="361" y="-7.5" font-family="Helvetica,sans-Serif" font-size="10.00">Tests.FooComponent</text>
</g>
<!-- Node1&#45;&gt;Node7 -->
<g id="edge6" class="edge"><title>Node1&#45;&gt;Node7</title>
<path fill="none" stroke="midnightblue" d="M226.782,-62.8486C248.143,-56.1382 272.505,-48.4854 294.502,-41.5751"/>
<polygon fill="midnightblue" stroke="midnightblue" points="225.689,-59.5233 217.197,-65.8595 227.787,-66.2016 225.689,-59.5233"/>
</g>
<!-- Node2 -->
<g id="node2" class="node"><title>Node2</title>
<g id="a_node2"><a xlink:href="interface_tri_devs_1_1_tri_engine_1_1_interfaces_1_1_i_updatable.html" target="_top" xlink:title="Implements a simple update method. ">
<polygon fill="white" stroke="black" points="0,-71.5 0,-90.5 62,-90.5 62,-71.5 0,-71.5"/>
<text text-anchor="middle" x="31" y="-78.5" font-family="Helvetica,sans-Serif" font-size="10.00">IUpdatable</text>
</a>
</g>
</g>
<!-- Node2&#45;&gt;Node1 -->
<g id="edge1" class="edge"><title>Node2&#45;&gt;Node1</title>
<path fill="none" stroke="midnightblue" d="M72.4834,-81C80.5387,-81 89.2089,-81 97.9142,-81"/>
<polygon fill="midnightblue" stroke="midnightblue" points="72.2967,-77.5001 62.2966,-81 72.2966,-84.5001 72.2967,-77.5001"/>
</g>
<!-- Node4 -->
<g id="node4" class="node"><title>Node4</title>
<g id="a_node4"><a xlink:href="interface_tri_devs_1_1_tri_engine_1_1_u_i_1_1_i_control_manager.html" target="_top" xlink:title="Manages various UI controls, automatically updating and drawing them to the screen. ">
<polygon fill="white" stroke="black" points="484,-121 484,-151 624,-151 624,-121 484,-121"/>
<text text-anchor="start" x="492" y="-139" font-family="Helvetica,sans-Serif" font-size="10.00">TriDevs.TriEngine.UI.IControl</text>
<text text-anchor="middle" x="554" y="-128" font-family="Helvetica,sans-Serif" font-size="10.00">Manager</text>
</a>
</g>
</g>
<!-- Node3&#45;&gt;Node4 -->
<g id="edge3" class="edge"><title>Node3&#45;&gt;Node4</title>
<path fill="none" stroke="midnightblue" d="M441.355,-136C455.408,-136 469.942,-136 483.69,-136"/>
<polygon fill="midnightblue" stroke="midnightblue" points="441.225,-132.5 431.225,-136 441.225,-139.5 441.225,-132.5"/>
</g>
<!-- Node5 -->
<g id="node5" class="node"><title>Node5</title>
<g id="a_node5"><a xlink:href="class_tri_devs_1_1_tri_engine_1_1_u_i_1_1_control_manager.html" target="_top" xlink:title="Control manager to manage various UI controls for a game. ">
<polygon fill="white" stroke="black" points="660.5,-121 660.5,-151 797.5,-151 797.5,-121 660.5,-121"/>
<text text-anchor="start" x="668.5" y="-139" font-family="Helvetica,sans-Serif" font-size="10.00">TriDevs.TriEngine.UI.Control</text>
<text text-anchor="middle" x="729" y="-128" font-family="Helvetica,sans-Serif" font-size="10.00">Manager</text>
</a>
</g>
</g>
<!-- Node4&#45;&gt;Node5 -->
<g id="edge4" class="edge"><title>Node4&#45;&gt;Node5</title>
<path fill="none" stroke="midnightblue" d="M634.448,-136C643.088,-136 651.823,-136 660.305,-136"/>
<polygon fill="midnightblue" stroke="midnightblue" points="634.369,-132.5 624.369,-136 634.369,-139.5 634.369,-132.5"/>
</g>
</g>
</svg>
