<?xml version="1.0" encoding="UTF-8" standalone="no"?>
<!DOCTYPE svg PUBLIC "-//W3C//DTD SVG 1.1//EN"
 "http://www.w3.org/Graphics/SVG/1.1/DTD/svg11.dtd">
<!-- Generated by graphviz version 2.30.0 (20130114.0323)
 -->
<!-- Title: TriDevs.TriEngine.Audio.IAudioManager.GetSound Pages: 1 -->
<svg width="350pt" height="38pt"
 viewBox="0.00 0.00 350.00 38.00" xmlns="http://www.w3.org/2000/svg" xmlns:xlink="http://www.w3.org/1999/xlink">
<g id="graph0" class="graph" transform="scale(1 1) rotate(0) translate(4 34)">
<title>TriDevs.TriEngine.Audio.IAudioManager.GetSound</title>
<polygon fill="white" stroke="white" points="-4,5 -4,-34 347,-34 347,5 -4,5"/>
<!-- Node1 -->
<g id="node1" class="node"><title>Node1</title>
<polygon fill="#bfbfbf" stroke="black" points="0,-0 0,-30 128,-30 128,-0 0,-0"/>
<text text-anchor="start" x="8" y="-18" font-family="Helvetica,sans-Serif" font-size="10.00">TriDevs.TriEngine.Audio.</text>
<text text-anchor="middle" x="64" y="-7" font-family="Helvetica,sans-Serif" font-size="10.00">IAudioManager.GetSound</text>
</g>
<!-- Node2 -->
<g id="node2" class="node"><title>Node2</title>
<g id="a_node2"><a xlink:href="class_tri_devs_1_1_tri_engine_1_1_engine_test_1_1_window2_d_test.html#af129342d5dd5f72bf80eeb0df114c1af" target="_top" xlink:title="TriDevs.TriEngine.Engine\lTest.Window2DTest.OnUpdateFrame">
<polygon fill="white" stroke="black" points="164,-0 164,-30 342,-30 342,-0 164,-0"/>
<text text-anchor="start" x="172" y="-18" font-family="Helvetica,sans-Serif" font-size="10.00">TriDevs.TriEngine.Engine</text>
<text text-anchor="middle" x="253" y="-7" font-family="Helvetica,sans-Serif" font-size="10.00">Test.Window2DTest.OnUpdateFrame</text>
</a>
</g>
</g>
<!-- Node1&#45;&gt;Node2 -->
<g id="edge1" class="edge"><title>Node1&#45;&gt;Node2</title>
<path fill="none" stroke="midnightblue" d="M138.226,-15C146.681,-15 155.367,-15 163.991,-15"/>
<polygon fill="midnightblue" stroke="midnightblue" points="138.049,-11.5001 128.049,-15 138.049,-18.5001 138.049,-11.5001"/>
</g>
</g>
</svg>
