<?xml version="1.0" encoding="UTF-8" standalone="no"?>
<!DOCTYPE svg PUBLIC "-//W3C//DTD SVG 1.1//EN"
 "http://www.w3.org/Graphics/SVG/1.1/DTD/svg11.dtd">
<!-- Generated by graphviz version 2.30.0 (20130114.0323)
 -->
<!-- Title: TriDevs.TriEngine2D.Interfaces.IDrawableGameComponent Pages: 1 -->
<svg width="179pt" height="288pt"
 viewBox="0.00 0.00 179.00 288.00" xmlns="http://www.w3.org/2000/svg" xmlns:xlink="http://www.w3.org/1999/xlink">
<g id="graph0" class="graph" transform="scale(1 1) rotate(0) translate(4 284)">
<title>TriDevs.TriEngine2D.Interfaces.IDrawableGameComponent</title>
<polygon fill="white" stroke="white" points="-4,5 -4,-284 176,-284 176,5 -4,5"/>
<!-- Node1 -->
<g id="node1" class="node"><title>Node1</title>
<polygon fill="#bfbfbf" stroke="black" points="18,-137 18,-167 170,-167 170,-137 18,-137"/>
<text text-anchor="start" x="26" y="-155" font-family="Helvetica,sans-Serif" font-size="10.00">TriDevs.TriEngine2D.Interfaces.</text>
<text text-anchor="middle" x="94" y="-144" font-family="Helvetica,sans-Serif" font-size="10.00">IDrawableGameComponent</text>
</g>
<!-- Node5 -->
<g id="node5" class="node"><title>Node5</title>
<g id="a_node5"><a xlink:href="interface_tri_devs_1_1_tri_engine2_d_1_1_u_i_1_1_i_control_manager.html" target="_top" xlink:title="Manages various UI controls, automatically updating and drawing them to the screen. ">
<polygon fill="white" stroke="black" points="18,-69 18,-99 170,-99 170,-69 18,-69"/>
<text text-anchor="start" x="26" y="-87" font-family="Helvetica,sans-Serif" font-size="10.00">TriDevs.TriEngine2D.UI.IControl</text>
<text text-anchor="middle" x="94" y="-76" font-family="Helvetica,sans-Serif" font-size="10.00">Manager</text>
</a>
</g>
</g>
<!-- Node1&#45;&gt;Node5 -->
<g id="edge4" class="edge"><title>Node1&#45;&gt;Node5</title>
<path fill="none" stroke="midnightblue" d="M94,-126.532C94,-117.361 94,-107.245 94,-99.2931"/>
<polygon fill="midnightblue" stroke="midnightblue" points="90.5001,-126.679 94,-136.679 97.5001,-126.679 90.5001,-126.679"/>
</g>
<!-- Node2 -->
<g id="node2" class="node"><title>Node2</title>
<g id="a_node2"><a xlink:href="interface_tri_devs_1_1_tri_engine2_d_1_1_interfaces_1_1_i_game_component.html" target="_top" xlink:title="A game component that can be added to IGameState objects. ">
<polygon fill="white" stroke="black" points="-0.5,-204.5 -0.5,-223.5 94.5,-223.5 94.5,-204.5 -0.5,-204.5"/>
<text text-anchor="middle" x="47" y="-211.5" font-family="Helvetica,sans-Serif" font-size="10.00">IGameComponent</text>
</a>
</g>
</g>
<!-- Node2&#45;&gt;Node1 -->
<g id="edge1" class="edge"><title>Node2&#45;&gt;Node1</title>
<path fill="none" stroke="midnightblue" d="M60.0102,-196.391C67.2082,-187.202 76.0581,-175.905 82.923,-167.141"/>
<polygon fill="midnightblue" stroke="midnightblue" points="57.1453,-194.373 53.734,-204.403 62.6559,-198.689 57.1453,-194.373"/>
</g>
<!-- Node3 -->
<g id="node3" class="node"><title>Node3</title>
<g id="a_node3"><a xlink:href="interface_tri_devs_1_1_tri_engine2_d_1_1_interfaces_1_1_i_updatable.html" target="_top" xlink:title="Implements a simple update method. ">
<polygon fill="white" stroke="black" points="16,-260.5 16,-279.5 78,-279.5 78,-260.5 16,-260.5"/>
<text text-anchor="middle" x="47" y="-267.5" font-family="Helvetica,sans-Serif" font-size="10.00">IUpdatable</text>
</a>
</g>
</g>
<!-- Node3&#45;&gt;Node2 -->
<g id="edge2" class="edge"><title>Node3&#45;&gt;Node2</title>
<path fill="none" stroke="midnightblue" d="M47,-249.805C47,-240.91 47,-230.78 47,-223.751"/>
<polygon fill="midnightblue" stroke="midnightblue" points="43.5001,-250.083 47,-260.083 50.5001,-250.083 43.5001,-250.083"/>
</g>
<!-- Node4 -->
<g id="node4" class="node"><title>Node4</title>
<g id="a_node4"><a xlink:href="interface_tri_devs_1_1_tri_engine2_d_1_1_interfaces_1_1_i_drawable.html" target="_top" xlink:title="Implements a simple draw method. ">
<polygon fill="white" stroke="black" points="112.5,-204.5 112.5,-223.5 171.5,-223.5 171.5,-204.5 112.5,-204.5"/>
<text text-anchor="middle" x="142" y="-211.5" font-family="Helvetica,sans-Serif" font-size="10.00">IDrawable</text>
</a>
</g>
</g>
<!-- Node4&#45;&gt;Node1 -->
<g id="edge3" class="edge"><title>Node4&#45;&gt;Node1</title>
<path fill="none" stroke="midnightblue" d="M128.713,-196.391C121.362,-187.202 112.324,-175.905 105.313,-167.141"/>
<polygon fill="midnightblue" stroke="midnightblue" points="126.143,-198.781 135.123,-204.403 131.609,-194.408 126.143,-198.781"/>
</g>
<!-- Node6 -->
<g id="node6" class="node"><title>Node6</title>
<g id="a_node6"><a xlink:href="class_tri_devs_1_1_tri_engine2_d_1_1_u_i_1_1_control_manager.html" target="_top" xlink:title="Control manager to manage various UI controls for a game. ">
<polygon fill="white" stroke="black" points="19.5,-1 19.5,-31 168.5,-31 168.5,-1 19.5,-1"/>
<text text-anchor="start" x="27.5" y="-19" font-family="Helvetica,sans-Serif" font-size="10.00">TriDevs.TriEngine2D.UI.Control</text>
<text text-anchor="middle" x="94" y="-8" font-family="Helvetica,sans-Serif" font-size="10.00">Manager</text>
</a>
</g>
</g>
<!-- Node5&#45;&gt;Node6 -->
<g id="edge5" class="edge"><title>Node5&#45;&gt;Node6</title>
<path fill="none" stroke="midnightblue" d="M94,-58.5322C94,-49.3606 94,-39.2449 94,-31.2931"/>
<polygon fill="midnightblue" stroke="midnightblue" points="90.5001,-58.6789 94,-68.679 97.5001,-58.679 90.5001,-58.6789"/>
</g>
</g>
</svg>
