<?xml version="1.0" encoding="UTF-8" standalone="no"?>
<!DOCTYPE svg PUBLIC "-//W3C//DTD SVG 1.1//EN"
 "http://www.w3.org/Graphics/SVG/1.1/DTD/svg11.dtd">
<!-- Generated by graphviz version 2.30.0 (20130114.0323)
 -->
<!-- Title: TriDevs.TriEngine2D.Interfaces.IDrawable Pages: 1 -->
<svg width="728pt" height="87pt"
 viewBox="0.00 0.00 728.00 87.00" xmlns="http://www.w3.org/2000/svg" xmlns:xlink="http://www.w3.org/1999/xlink">
<g id="graph0" class="graph" transform="scale(1 1) rotate(0) translate(4 83)">
<title>TriDevs.TriEngine2D.Interfaces.IDrawable</title>
<polygon fill="white" stroke="white" points="-4,5 -4,-83 725,-83 725,5 -4,5"/>
<!-- Node1 -->
<g id="node1" class="node"><title>Node1</title>
<polygon fill="#bfbfbf" stroke="black" points="0,-24 0,-54 152,-54 152,-24 0,-24"/>
<text text-anchor="start" x="8" y="-42" font-family="Helvetica,sans-Serif" font-size="10.00">TriDevs.TriEngine2D.Interfaces.</text>
<text text-anchor="middle" x="76" y="-31" font-family="Helvetica,sans-Serif" font-size="10.00">IDrawable</text>
</g>
<!-- Node2 -->
<g id="node2" class="node"><title>Node2</title>
<g id="a_node2"><a xlink:href="interface_tri_devs_1_1_tri_engine2_d_1_1_interfaces_1_1_i_drawable_game_component.html" target="_top" xlink:title="A game component that can be added to GameState objects. Drawable game components also implement a dr...">
<polygon fill="white" stroke="black" points="195,-49 195,-79 347,-79 347,-49 195,-49"/>
<text text-anchor="start" x="203" y="-67" font-family="Helvetica,sans-Serif" font-size="10.00">TriDevs.TriEngine2D.Interfaces.</text>
<text text-anchor="middle" x="271" y="-56" font-family="Helvetica,sans-Serif" font-size="10.00">IDrawableGameComponent</text>
</a>
</g>
</g>
<!-- Node1&#45;&gt;Node2 -->
<g id="edge1" class="edge"><title>Node1&#45;&gt;Node2</title>
<path fill="none" stroke="midnightblue" d="M162.415,-50.0641C173.177,-51.4582 184.126,-52.8764 194.716,-54.2482"/>
<polygon fill="midnightblue" stroke="midnightblue" points="162.538,-46.5509 152.171,-48.7372 161.639,-53.4929 162.538,-46.5509"/>
</g>
<!-- Node5 -->
<g id="node5" class="node"><title>Node5</title>
<g id="a_node5"><a xlink:href="interface_tri_devs_1_1_tri_engine2_d_1_1_state_management_1_1_i_game_state_manager.html" target="_top" xlink:title="Game state manager that keeps track of the active game states and provides methods to control the sta...">
<polygon fill="white" stroke="black" points="188.5,-0 188.5,-30 353.5,-30 353.5,-0 188.5,-0"/>
<text text-anchor="start" x="196.5" y="-18" font-family="Helvetica,sans-Serif" font-size="10.00">TriDevs.TriEngine2D.State</text>
<text text-anchor="middle" x="271" y="-7" font-family="Helvetica,sans-Serif" font-size="10.00">Management.IGameStateManager</text>
</a>
</g>
</g>
<!-- Node1&#45;&gt;Node5 -->
<g id="edge4" class="edge"><title>Node1&#45;&gt;Node5</title>
<path fill="none" stroke="midnightblue" d="M162.264,-28.3972C170.923,-27.3204 179.705,-26.2284 188.325,-25.1564"/>
<polygon fill="midnightblue" stroke="midnightblue" points="161.663,-24.9449 152.171,-29.6523 162.527,-31.8914 161.663,-24.9449"/>
</g>
<!-- Node3 -->
<g id="node3" class="node"><title>Node3</title>
<g id="a_node3"><a xlink:href="interface_tri_devs_1_1_tri_engine2_d_1_1_state_management_1_1_i_game_state.html" target="_top" xlink:title="A game state that can be used with the game state manager. Represent a specific state of the game...">
<polygon fill="white" stroke="black" points="407,-49 407,-79 537,-79 537,-49 407,-49"/>
<text text-anchor="start" x="415" y="-67" font-family="Helvetica,sans-Serif" font-size="10.00">TriDevs.TriEngine2D.State</text>
<text text-anchor="middle" x="472" y="-56" font-family="Helvetica,sans-Serif" font-size="10.00">Management.IGameState</text>
</a>
</g>
</g>
<!-- Node2&#45;&gt;Node3 -->
<g id="edge2" class="edge"><title>Node2&#45;&gt;Node3</title>
<path fill="none" stroke="midnightblue" d="M357.437,-64C373.961,-64 391.013,-64 406.721,-64"/>
<polygon fill="midnightblue" stroke="midnightblue" points="357.233,-60.5001 347.233,-64 357.233,-67.5001 357.233,-60.5001"/>
</g>
<!-- Node4 -->
<g id="node4" class="node"><title>Node4</title>
<g id="a_node4"><a xlink:href="class_tri_devs_1_1_tri_engine2_d_1_1_state_management_1_1_game_state.html" target="_top" xlink:title="Base GameState class that all other game states derive from, defines basic GameState behaviour...">
<polygon fill="white" stroke="black" points="590,-49 590,-79 720,-79 720,-49 590,-49"/>
<text text-anchor="start" x="598" y="-67" font-family="Helvetica,sans-Serif" font-size="10.00">TriDevs.TriEngine2D.State</text>
<text text-anchor="middle" x="655" y="-56" font-family="Helvetica,sans-Serif" font-size="10.00">Management.GameState</text>
</a>
</g>
</g>
<!-- Node3&#45;&gt;Node4 -->
<g id="edge3" class="edge"><title>Node3&#45;&gt;Node4</title>
<path fill="none" stroke="midnightblue" d="M547.216,-64C561.313,-64 575.955,-64 589.712,-64"/>
<polygon fill="midnightblue" stroke="midnightblue" points="547.069,-60.5001 537.069,-64 547.069,-67.5001 547.069,-60.5001"/>
</g>
<!-- Node6 -->
<g id="node6" class="node"><title>Node6</title>
<g id="a_node6"><a xlink:href="class_tri_devs_1_1_tri_engine2_d_1_1_state_management_1_1_game_state_manager.html" target="_top" xlink:title="Game state manager that keeps track of the active game states and provides methods to control the sta...">
<polygon fill="white" stroke="black" points="390.5,-0 390.5,-30 553.5,-30 553.5,-0 390.5,-0"/>
<text text-anchor="start" x="398.5" y="-18" font-family="Helvetica,sans-Serif" font-size="10.00">TriDevs.TriEngine2D.State</text>
<text text-anchor="middle" x="472" y="-7" font-family="Helvetica,sans-Serif" font-size="10.00">Management.GameStateManager</text>
</a>
</g>
</g>
<!-- Node5&#45;&gt;Node6 -->
<g id="edge5" class="edge"><title>Node5&#45;&gt;Node6</title>
<path fill="none" stroke="midnightblue" d="M363.532,-15C372.45,-15 381.454,-15 390.255,-15"/>
<polygon fill="midnightblue" stroke="midnightblue" points="363.515,-11.5001 353.515,-15 363.515,-18.5001 363.515,-11.5001"/>
</g>
</g>
</svg>
