<?xml version="1.0" encoding="UTF-8" standalone="no"?>
<!DOCTYPE svg PUBLIC "-//W3C//DTD SVG 1.1//EN"
 "http://www.w3.org/Graphics/SVG/1.1/DTD/svg11.dtd">
<!-- Generated by graphviz version 2.30.0 (20130114.0323)
 -->
<!-- Title: TriDevs.TriEngine.UI.IControl Pages: 1 -->
<svg width="148pt" height="84pt"
 viewBox="0.00 0.00 148.00 84.00" xmlns="http://www.w3.org/2000/svg" xmlns:xlink="http://www.w3.org/1999/xlink">
<g id="graph0" class="graph" transform="scale(1 1) rotate(0) translate(4 80)">
<title>TriDevs.TriEngine.UI.IControl</title>
<polygon fill="white" stroke="white" points="-4,5 -4,-80 145,-80 145,5 -4,5"/>
<!-- Node1 -->
<g id="node1" class="node"><title>Node1</title>
<polygon fill="#bfbfbf" stroke="black" points="0,-0.5 0,-19.5 140,-19.5 140,-0.5 0,-0.5"/>
<text text-anchor="middle" x="70" y="-7.5" font-family="Helvetica,sans-Serif" font-size="10.00">TriDevs.TriEngine.UI.IControl</text>
</g>
<!-- Node2 -->
<g id="node2" class="node"><title>Node2</title>
<g id="a_node2"><a xlink:href="interface_tri_devs_1_1_tri_engine_1_1_interfaces_1_1_i_updatable.html" target="_top" xlink:title="Implements a simple update method. ">
<polygon fill="white" stroke="black" points="0,-56.5 0,-75.5 62,-75.5 62,-56.5 0,-56.5"/>
<text text-anchor="middle" x="31" y="-63.5" font-family="Helvetica,sans-Serif" font-size="10.00">IUpdatable</text>
</a>
</g>
</g>
<!-- Node2&#45;&gt;Node1 -->
<g id="edge1" class="edge"><title>Node2&#45;&gt;Node1</title>
<path fill="none" stroke="midnightblue" d="M43.3822,-47.8554C50.1354,-38.5048 58.2086,-27.3265 63.6798,-19.7511"/>
<polygon fill="midnightblue" stroke="midnightblue" points="40.4576,-45.927 37.4401,-56.083 46.1324,-50.0254 40.4576,-45.927"/>
</g>
<!-- Node3 -->
<g id="node3" class="node"><title>Node3</title>
<g id="a_node3"><a xlink:href="interface_tri_devs_1_1_tri_engine_1_1_interfaces_1_1_i_drawable.html" target="_top" xlink:title="Implements a simple draw method. ">
<polygon fill="white" stroke="black" points="80.5,-56.5 80.5,-75.5 139.5,-75.5 139.5,-56.5 80.5,-56.5"/>
<text text-anchor="middle" x="110" y="-63.5" font-family="Helvetica,sans-Serif" font-size="10.00">IDrawable</text>
</a>
</g>
</g>
<!-- Node3&#45;&gt;Node1 -->
<g id="edge2" class="edge"><title>Node3&#45;&gt;Node1</title>
<path fill="none" stroke="midnightblue" d="M97.3003,-47.8554C90.374,-38.5048 82.0937,-27.3265 76.4823,-19.7511"/>
<polygon fill="midnightblue" stroke="midnightblue" points="94.63,-50.1307 103.395,-56.083 100.255,-45.9641 94.63,-50.1307"/>
</g>
</g>
</svg>
