<?xml version="1.0" encoding="UTF-8" standalone="no"?>
<!DOCTYPE svg PUBLIC "-//W3C//DTD SVG 1.1//EN"
 "http://www.w3.org/Graphics/SVG/1.1/DTD/svg11.dtd">
<!-- Generated by graphviz version 2.30.0 (20130114.0323)
 -->
<!-- Title: TriDevs.TriEngine2D.Rectangle Pages: 1 -->
<svg width="380pt" height="197pt"
 viewBox="0.00 0.00 380.00 196.50" xmlns="http://www.w3.org/2000/svg" xmlns:xlink="http://www.w3.org/1999/xlink">
<g id="graph0" class="graph" transform="scale(1 1) rotate(0) translate(4 192.5)">
<title>TriDevs.TriEngine2D.Rectangle</title>
<polygon fill="white" stroke="white" points="-4,5 -4,-192.5 377,-192.5 377,5 -4,5"/>
<!-- Node1 -->
<g id="node1" class="node"><title>Node1</title>
<polygon fill="#bfbfbf" stroke="black" points="27,-0.5 27,-19.5 177,-19.5 177,-0.5 27,-0.5"/>
<text text-anchor="middle" x="102" y="-7.5" font-family="Helvetica,sans-Serif" font-size="10.00">TriDevs.TriEngine2D.Rectangle</text>
</g>
<!-- Node2 -->
<g id="node2" class="node"><title>Node2</title>
<polygon fill="white" stroke="#bfbfbf" points="0,-118.5 0,-137.5 118,-137.5 118,-118.5 0,-118.5"/>
<text text-anchor="middle" x="59" y="-125.5" font-family="Helvetica,sans-Serif" font-size="10.00">IEquatable&lt;Rectangle&gt;</text>
</g>
<!-- Node2&#45;&gt;Node1 -->
<g id="edge1" class="edge"><title>Node2&#45;&gt;Node1</title>
<path fill="none" stroke="midnightblue" d="M65.7795,-108.711C75.2115,-83.2666 91.9143,-38.2078 98.8474,-19.5048"/>
<polygon fill="midnightblue" stroke="midnightblue" points="62.426,-107.688 62.232,-118.281 68.9896,-110.121 62.426,-107.688"/>
</g>
<!-- Node3 -->
<g id="node3" class="node"><title>Node3</title>
<g id="a_node3"><a xlink:href="struct_tri_devs_1_1_tri_engine2_d_1_1_color.html" target="_top" xlink:title="Represents an RGBA color that can be used with TriEngine2D. ">
<polygon fill="white" stroke="black" points="136.5,-118.5 136.5,-137.5 265.5,-137.5 265.5,-118.5 136.5,-118.5"/>
<text text-anchor="middle" x="201" y="-125.5" font-family="Helvetica,sans-Serif" font-size="10.00">TriDevs.TriEngine2D.Color</text>
</a>
</g>
</g>
<!-- Node3&#45;&gt;Node1 -->
<g id="edge2" class="edge"><title>Node3&#45;&gt;Node1</title>
<path fill="none" stroke="#9a32cd" stroke-dasharray="5,2" d="M186.82,-110.385C165.404,-85.2913 125.577,-38.6253 109.258,-19.5048"/>
<polygon fill="#9a32cd" stroke="#9a32cd" points="184.405,-112.947 193.559,-118.281 189.729,-108.403 184.405,-112.947"/>
<text text-anchor="middle" x="148" y="-41.5" font-family="Helvetica,sans-Serif" font-size="10.00"> Color</text>
</g>
<!-- Node3&#45;&gt;Node3 -->
<g id="edge3" class="edge"><title>Node3&#45;&gt;Node3</title>
<path fill="none" stroke="#9a32cd" stroke-dasharray="5,2" d="M228.539,-140.688C254.625,-147.359 283,-143.13 283,-128 283,-110.938 246.911,-107.738 218.717,-118.402"/>
<polygon fill="#9a32cd" stroke="#9a32cd" points="229.307,-137.261 218.717,-137.598 227.206,-143.938 229.307,-137.261"/>
<text text-anchor="middle" x="327.5" y="-180.5" font-family="Helvetica,sans-Serif" font-size="10.00"> OrangeRed</text>
<text text-anchor="middle" x="327.5" y="-169.5" font-family="Helvetica,sans-Serif" font-size="10.00">NavajoWhite</text>
<text text-anchor="middle" x="327.5" y="-158.5" font-family="Helvetica,sans-Serif" font-size="10.00">MediumSpringGreen</text>
<text text-anchor="middle" x="327.5" y="-147.5" font-family="Helvetica,sans-Serif" font-size="10.00">LavenderBlush</text>
<text text-anchor="middle" x="327.5" y="-136.5" font-family="Helvetica,sans-Serif" font-size="10.00">Gainsboro</text>
<text text-anchor="middle" x="327.5" y="-125.5" font-family="Helvetica,sans-Serif" font-size="10.00">DarkSlateGray</text>
<text text-anchor="middle" x="327.5" y="-114.5" font-family="Helvetica,sans-Serif" font-size="10.00">DarkSalmon</text>
<text text-anchor="middle" x="327.5" y="-103.5" font-family="Helvetica,sans-Serif" font-size="10.00">DarkCyan</text>
<text text-anchor="middle" x="327.5" y="-92.5" font-family="Helvetica,sans-Serif" font-size="10.00">DarkBlue</text>
<text text-anchor="middle" x="327.5" y="-81.5" font-family="Helvetica,sans-Serif" font-size="10.00">Beige</text>
<text text-anchor="middle" x="327.5" y="-70.5" font-family="Helvetica,sans-Serif" font-size="10.00">...</text>
</g>
</g>
</svg>
